<svg xmlns="http://www.w3.org/2000/svg" viewBox="0 0 74 49" fill="none">
  <path id="p1" d="M17.2926 17.5771C17.0148 17.3432 16.7809 17.0654 16.6347 16.7437C16.4738 16.1442 16.5469 15.5594 16.737 14.9745C17.0587 14.0388 17.5997 13.22 18.1114 12.3719C18.667 11.4654 19.3396 10.6612 20.0122 9.87169C21.372 8.26335 22.9511 6.88896 24.6179 5.60228C26.4309 4.21326 28.3463 3.01432 30.5541 2.37098C31.7384 2.02007 32.952 1.87386 34.1656 2.12242C36.4757 2.5903 37.9525 4.78349 37.6308 7.26911C37.3676 9.35995 36.5781 11.29 35.8178 13.2346C34.999 15.3401 34.0925 17.4163 33.1859 19.4779C33.1713 19.5071 33.1275 19.551 33.1421 19.5656C33.1713 19.6241 33.2298 19.6095 33.2737 19.5802C34.1217 19.3317 34.9551 19.0685 35.8032 18.8199C36.0079 18.7614 36.2126 18.7029 36.4173 18.6591C37.3676 18.4105 38.3034 18.4105 39.0345 19.1854C39.7948 19.9896 39.8094 20.9692 39.5462 21.9635C39.4439 22.3583 39.0491 23.2355 39.0929 23.3233C39.1368 23.294 39.1953 23.2502 39.2392 23.2209C40.6574 21.9635 42.1049 20.7645 43.8302 19.9165C44.2981 19.6826 44.766 19.4925 45.2631 19.3755C46.7691 19.0246 48.0558 20.0042 48.1143 21.5395C48.1435 22.3144 47.9096 23.0308 47.6172 23.7473C46.8276 25.6042 45.7749 27.3149 44.8537 29.0987C44.649 29.5081 44.459 29.9321 44.2689 30.3415C43.4501 31.8767 42.7775 33.4704 42.4705 35.1811C42.3974 35.6198 42.3827 36.073 42.2658 36.4824C42.0026 37.3889 41.0814 37.7106 40.2919 37.1989C39.707 36.8187 39.4146 36.2485 39.283 35.5759C39.0345 34.3038 39.2392 33.0757 39.6486 31.8621C40.5112 29.318 41.9002 27.0371 43.2308 24.7269C43.6694 23.952 44.1227 23.1917 44.5613 22.4168C43.801 22.6653 43.2161 23.104 42.6752 23.6011C39.0491 26.9201 36.1541 30.8094 33.8439 35.1373C33.5953 35.6051 33.376 36.0876 32.9959 36.4824C32.3379 37.1696 31.4314 37.1404 30.8173 36.4239C30.4079 35.9414 30.2763 35.3712 30.3056 34.7425C30.3494 33.7336 30.7003 32.8125 31.0366 31.8767C32.1625 28.8647 33.7562 26.1013 35.306 23.294C35.6716 22.6361 35.9932 21.9489 36.388 21.2032C34.8674 21.4956 33.4491 21.7734 32.0894 22.2852C31.8408 22.3729 31.7384 22.563 31.6215 22.7677C31.2559 23.4987 30.8904 24.2152 30.5249 24.9462C28.668 28.7478 26.7672 32.5201 24.7495 36.2339C24.6179 36.4824 24.6325 36.6286 24.8226 36.8187C25.3636 37.3305 25.8899 37.8568 26.4309 38.3686C29.7792 41.5414 33.7269 43.0328 38.3619 42.7549C41.754 42.5356 45.0438 41.8338 48.2897 40.898C51.8135 39.8892 55.1763 38.4563 58.4661 36.8626C58.8317 36.6871 58.9048 36.5555 58.5977 36.2339C58.1445 35.7514 57.9251 35.1519 57.8813 34.5085C57.8082 33.5582 57.9544 32.637 58.2176 31.7305C58.3199 31.365 58.4515 30.9994 58.5685 30.6193C57.6473 31.3211 56.8139 32.096 55.9659 32.8271C54.9424 33.7336 53.8458 34.5524 52.5153 34.9472C50.7169 35.4882 49.0647 34.6986 48.3921 32.9441C47.8803 31.6428 47.9681 30.3122 48.2751 28.9817C48.3775 28.8355 48.5237 28.2506 48.5675 28.1337C50.3513 24.1274 53.2463 21.1155 56.9894 18.7614C56.1852 18.5275 55.4542 18.2497 54.7231 17.9426C53.027 17.2408 51.4772 16.3782 50.4098 14.8137C50.2636 14.5944 50.1174 14.6382 49.9127 14.726C49.3863 14.9599 48.8453 15.2085 48.2605 15.2962C48.0412 15.3401 47.8072 15.3547 47.5733 15.3547C46.9738 15.3401 46.5644 15.033 46.4328 14.5066C46.3012 14.0095 46.5059 13.527 47.0469 13.2346C47.6903 12.8983 48.3482 12.5913 48.9916 12.2842C49.2109 12.1819 49.3571 12.0503 49.3425 11.7725C49.3132 9.65237 50.0443 7.73699 51.1701 5.98244C52.5445 3.83311 54.3429 2.15166 56.7408 1.17204C57.7643 0.762639 58.8317 0.616425 59.9136 0.894229C61.7413 1.36211 62.7063 3.02894 62.2238 4.8566C61.9606 5.85084 61.4343 6.69888 60.7763 7.48843C58.8755 9.78397 56.4338 11.4069 53.9043 12.9275C53.6411 13.0884 53.3779 13.22 53.1294 13.3808C52.3691 13.8487 52.4714 13.7317 53.027 14.3312C53.7873 15.15 54.8108 15.5886 55.8343 15.9834C57.4426 16.5829 59.1241 16.9484 60.8202 17.2116C61.3027 17.2847 61.8144 17.2116 62.2969 17.2554C64.8849 17.504 66.23 19.2586 65.8645 21.8319C65.6013 23.6303 64.9141 25.2679 64.1392 26.8762C63.3496 28.5138 62.5016 30.1222 61.7998 31.8036C61.3904 32.7832 61.1272 33.7775 61.2296 34.8448C61.2588 35.1811 61.3611 35.2396 61.6536 35.0642C64.6948 33.2219 67.6629 31.3065 69.9 28.47C70.5872 27.5927 71.172 26.6569 71.3913 25.5165C71.6545 24.1567 71.2159 23.1624 70.0169 22.4752C69.666 22.2705 69.2859 22.1243 68.9935 21.8173C68.6864 21.481 68.5256 21.1008 68.7303 20.6622C68.9496 20.2089 69.359 20.0481 69.8269 20.0773C70.207 20.1066 70.5433 20.2236 70.8796 20.4136C73.3506 21.7442 74.3302 24.2737 73.4968 27.1248C72.9412 29.0402 71.713 30.5169 70.4117 31.9498C68.8911 33.6313 67.0488 34.9179 65.2066 36.2046C65.1481 36.2485 65.0896 36.2923 65.0311 36.3362C61.3612 38.7341 57.3988 40.5618 53.3048 42.1116C50.4829 43.179 47.5733 43.9978 44.6198 44.6411C44.5174 44.6703 44.4151 44.685 44.3274 44.7142C43.9911 44.6703 43.6987 44.875 43.377 44.9189C41.7686 45.1528 40.1457 45.299 38.5227 45.4014C33.3175 45.7231 28.8142 44.0709 24.9542 40.591C24.457 40.1377 23.9453 39.6845 23.492 39.202C23.2142 38.8949 23.068 38.968 22.8633 39.2605C21.4743 41.2197 19.8952 43.0035 18.2284 44.7142C16.6347 46.3372 14.8362 47.6385 12.6577 48.3695C11.9266 48.6181 11.1371 48.6619 10.3621 48.735C9.66031 48.7935 8.97311 48.6912 8.32978 48.5011C7.90576 48.3695 7.46712 48.0625 7.05773 47.7847C5.74181 46.8781 5.17158 45.5476 4.9084 44.0416C4.60135 42.2286 4.96688 40.5179 5.65408 38.8511C5.94651 38.12 6.25356 37.3889 6.67757 36.7602C8.30054 34.3331 10.1282 32.0668 12.1898 29.9906C12.7015 29.4788 13.2133 28.9525 13.7104 28.4407C13.8274 28.3237 13.9736 28.236 13.7835 28.0167C12.4822 26.5692 11.254 25.0486 9.52872 24.0543C8.46137 23.4402 7.30629 23.0747 6.04886 23.0308C5.85878 23.0308 5.65408 23.0162 5.46401 22.987C4.83529 22.8846 4.41128 22.4899 4.36741 21.9489C4.30893 21.4371 4.63059 20.94 5.1862 20.7061C5.94651 20.399 6.75068 20.4575 7.54023 20.5598C7.68644 20.5745 9.3094 21.0277 9.98198 21.247C10.0258 21.3348 10.099 21.3494 10.1867 21.3494C11.1663 21.9196 12.0728 22.5922 12.9501 23.3086C12.9647 23.3379 12.9793 23.3525 13.0086 23.3671C13.0963 23.4402 13.184 23.528 13.2718 23.6011C13.3449 23.7327 13.4472 23.835 13.5934 23.8935C14.0175 24.3175 14.4269 24.7562 14.8509 25.1802C14.9825 25.3264 15.1287 25.4726 15.2603 25.6042C15.4065 25.7943 15.5673 25.9843 15.7135 26.189C15.8744 26.423 15.9621 26.2621 16.0644 26.1306C16.2106 26.0136 16.3422 25.8966 16.4885 25.765C16.6639 25.6773 16.8101 25.5457 16.9271 25.3849C17.3803 25.0047 17.8336 24.6099 18.3015 24.2298C19.7198 23.0893 21.1234 21.9342 22.5563 20.7938C25.9046 18.1181 29.1212 15.2962 31.8993 12.0064C33.1567 10.515 34.2387 8.89207 34.6335 6.93282C34.9405 5.35372 34.3264 4.63728 32.7181 4.72501C32.4695 4.73963 32.2209 4.78349 31.987 4.82735C30.8027 5.09054 29.7207 5.63152 28.7118 6.28948C24.691 8.95055 21.372 12.2696 19.2665 16.6706C18.8279 17.6648 18.3015 17.8695 17.2926 17.5771ZM30.0862 17.8549C29.8377 17.6941 29.7353 17.9426 29.6184 18.0596C28.5656 19.0246 27.5275 20.0189 26.4894 20.9985C26.4017 21.0862 26.2701 21.1447 26.2701 21.3055C26.9134 21.1886 27.5421 21.0716 28.1709 20.9839C28.5218 20.94 28.7265 20.7499 28.858 20.4283C29.2236 19.5364 29.6184 18.6737 30.0862 17.8549ZM10.0843 45.8839C10.3475 45.8547 10.6107 45.84 10.8739 45.7816C12.6431 45.4453 14.0613 44.4218 15.3334 43.2521C17.4681 41.2928 19.2519 39.0265 20.7725 36.5555C20.9041 36.3508 20.8748 36.2485 20.7286 36.0584C19.2226 34.3331 17.7313 32.6078 16.2545 30.8825C16.0498 30.6485 15.9328 30.6485 15.7281 30.8678C14.8947 31.7159 14.0759 32.5639 13.2864 33.4558C11.5611 35.4443 9.98198 37.5205 8.85614 39.9184C8.24205 41.249 7.78879 42.6087 8.03735 44.1147C8.21281 45.3283 8.85614 45.8839 10.0843 45.8839ZM51.097 31.6135C51.0824 32.7394 51.2871 32.871 52.1205 32.5054C53.0124 32.1253 53.7435 31.5112 54.4453 30.8532C56.4776 28.9525 58.3638 26.9055 60.2061 24.8293C61.2296 23.6742 62.2823 22.5483 63.0865 21.2324C63.6421 20.3259 63.2765 19.7411 62.1946 19.7411C62.0483 19.7411 61.9168 19.7557 61.7706 19.7849C60.8494 19.9165 60.0014 20.3113 59.2264 20.8084C56.3314 22.6653 54.0066 25.0924 52.3544 28.1044C51.7111 29.2449 51.1701 30.4585 51.097 31.6135ZM27.3667 23.5426C26.2847 23.7911 25.3051 23.9958 24.3693 24.3321C21.9129 25.224 20.0414 26.964 18.0968 28.6162C17.9213 28.7624 17.9652 28.8355 18.0822 28.9817C19.4127 30.5316 20.714 32.0814 22.0445 33.6313C22.22 33.836 22.3516 34.026 22.5563 33.6166C23.4189 31.7744 24.3255 29.9613 25.2027 28.1337C25.9046 26.6423 26.6064 25.1363 27.3667 23.5426ZM52.1351 10.8367C54.2991 9.55003 56.2437 8.19025 58.0421 6.61115C58.6416 6.08478 59.2118 5.52917 59.6358 4.84197C59.8698 4.4472 60.1914 3.99394 59.8552 3.56992C59.5335 3.14591 59.0071 3.32136 58.5685 3.42371C57.4865 3.70152 56.5508 4.28637 55.7027 4.98819C53.9043 6.52342 52.5884 8.35108 52.1351 10.8367Z" fill="currentColor" />
  <path d="M65.6284 6.45361C67.7484 6.55596 69.5469 7.24316 70.7312 9.07082C72.1056 11.1909 71.4476 14.2906 69.3714 15.7381C69.0205 15.9867 68.6403 16.1621 68.2163 16.2352C67.7192 16.3084 67.3098 16.1621 67.0028 15.7527C66.6957 15.3434 66.6665 14.9047 66.8565 14.4514C67.0028 14.1005 67.2806 13.852 67.5437 13.5888C67.9385 13.194 68.3625 12.7992 68.6403 12.3021C69.1813 11.3225 69.0059 10.4598 68.114 9.77264C67.3244 9.17317 66.3887 8.96847 65.4237 8.90999C65.0874 8.89536 64.7511 8.89536 64.4148 8.83688C63.8738 8.74915 63.479 8.32514 63.4352 7.85726C63.3913 7.33089 63.6691 6.89225 64.2247 6.68755C64.3855 6.62907 64.561 6.57058 64.7365 6.55596C65.0581 6.49747 65.3652 6.48286 65.6284 6.45361Z" fill="url(#lg0)" />
  <ellipse cx="1.41808" cy="21.8678" rx="1.41808" ry="1.3751" fill="url(#lg1)" />
  <ellipse cx="1.41808" cy="21.8678" rx="1.41808" ry="1.3751" fill="url(#lg2)" />
  <defs>
    <linearGradient id="lg0" x1="63.4307" y1="6.45361" x2="73.3644" y2="9.05318" gradientUnits="userSpaceOnUse">
      <stop stop-color="#FFC16F" />
      <stop offset="1" stop-color="#FA86CE" />
    </linearGradient>
    <linearGradient id="lg1" x1="1.41808" y1="20.4927" x2="1.41808" y2="23.2429" gradientUnits="userSpaceOnUse">
      <stop stop-color="#2E58FF" />
      <stop offset="1" stop-color="#9452FF" />
    </linearGradient>
    <linearGradient id="lg2" x1="1.41808" y1="20.4927" x2="1.41808" y2="23.2429" gradientUnits="userSpaceOnUse">
      <stop stop-color="#2E58FF" />
      <stop offset="1" stop-color="#9452FF" />
    </linearGradient>
  </defs>
  <style>
    path#p1 { fill: #000; }

    @media (prefers-color-scheme: dark) {
      path#p1 { fill: #fff; }
    }
  </style>
</svg>
