<svg width="689" height="259" viewBox="0 0 689 259" fill="none" xmlns="http://www.w3.org/2000/svg">
<path fill-rule="evenodd" clip-rule="evenodd" d="M253.605 182.265V212.237H260.669V182.265H253.605ZM254.269 176.899C255.075 177.64 256.038 178.011 257.156 178.011C258.288 178.011 259.251 177.64 260.044 176.899C260.851 176.144 261.254 175.24 261.254 174.186C261.254 173.12 260.851 172.216 260.044 171.474C259.251 170.72 258.288 170.342 257.156 170.342C256.038 170.342 255.075 170.72 254.269 171.474C253.462 172.216 253.059 173.12 253.059 174.186C253.059 175.24 253.462 176.144 254.269 176.899ZM271.401 211.968C272.923 212.644 274.634 212.983 276.533 212.983C278.094 212.983 279.453 212.768 280.611 212.339C281.782 211.896 282.751 211.317 283.519 210.602C284.299 209.873 284.904 209.093 285.333 208.26H285.568V212.378H292.358V192.318C292.358 190.328 291.994 188.669 291.265 187.342C290.55 186.015 289.6 184.968 288.417 184.201C287.233 183.42 285.925 182.861 284.494 182.522C283.063 182.184 281.626 182.015 280.182 182.015C278.088 182.015 276.175 182.327 274.445 182.952C272.715 183.563 271.251 184.487 270.055 185.723C268.858 186.945 267.999 188.467 267.479 190.289L274.074 191.225C274.426 190.198 275.102 189.307 276.104 188.552C277.118 187.798 278.491 187.42 280.221 187.42C281.86 187.42 283.115 187.824 283.987 188.63C284.859 189.437 285.294 190.575 285.294 192.045V192.162C285.294 192.838 285.041 193.339 284.533 193.664C284.039 193.977 283.246 194.211 282.153 194.367C281.06 194.51 279.636 194.673 277.879 194.855C276.422 195.011 275.011 195.265 273.645 195.616C272.292 195.954 271.076 196.455 269.996 197.118C268.916 197.782 268.064 198.666 267.44 199.772C266.815 200.878 266.503 202.276 266.503 203.967C266.503 205.932 266.939 207.584 267.811 208.924C268.695 210.264 269.892 211.278 271.401 211.968ZM282.055 206.953C281.015 207.512 279.785 207.792 278.367 207.792C276.897 207.792 275.687 207.46 274.738 206.797C273.788 206.133 273.313 205.151 273.313 203.85C273.313 202.94 273.554 202.198 274.035 201.626C274.517 201.04 275.174 200.585 276.006 200.26C276.839 199.935 277.782 199.701 278.836 199.557C279.304 199.492 279.857 199.414 280.494 199.323C281.132 199.232 281.776 199.128 282.426 199.011C283.076 198.894 283.662 198.757 284.182 198.601C284.716 198.445 285.093 198.276 285.314 198.094V201.626C285.314 202.732 285.028 203.753 284.455 204.689C283.896 205.626 283.096 206.381 282.055 206.953ZM232.297 224.101C229.76 224.101 227.581 223.756 225.76 223.067C223.939 222.39 222.475 221.48 221.369 220.335C220.264 219.19 219.496 217.922 219.067 216.53L225.428 214.988C225.714 215.574 226.131 216.153 226.677 216.725C227.223 217.311 227.958 217.792 228.882 218.169C229.818 218.559 230.996 218.755 232.414 218.755C234.417 218.755 236.076 218.267 237.39 217.291C238.704 216.328 239.36 214.741 239.36 212.53V206.851H239.009C238.645 207.58 238.112 208.328 237.409 209.096C236.72 209.863 235.803 210.507 234.658 211.027C233.526 211.548 232.102 211.808 230.384 211.808C228.082 211.808 225.994 211.268 224.121 210.188C222.26 209.096 220.777 207.469 219.672 205.31C218.579 203.137 218.033 200.419 218.033 197.153C218.033 193.862 218.579 191.085 219.672 188.821C220.777 186.545 222.267 184.821 224.14 183.65C226.013 182.467 228.101 181.875 230.404 181.875C232.16 181.875 233.604 182.174 234.736 182.772C235.881 183.358 236.791 184.067 237.468 184.899C238.144 185.719 238.658 186.493 239.009 187.221H239.399V182.265H246.366V212.725C246.366 215.288 245.754 217.408 244.531 219.086C243.309 220.764 241.637 222.02 239.517 222.852C237.396 223.685 234.989 224.101 232.297 224.101ZM232.355 206.266C233.851 206.266 235.126 205.902 236.18 205.173C237.233 204.445 238.034 203.398 238.58 202.032C239.126 200.666 239.399 199.027 239.399 197.114C239.399 195.228 239.126 193.576 238.58 192.158C238.047 190.74 237.253 189.641 236.199 188.86C235.159 188.067 233.877 187.67 232.355 187.67C230.781 187.67 229.467 188.08 228.414 188.899C227.36 189.719 226.566 190.844 226.033 192.275C225.5 193.693 225.233 195.306 225.233 197.114C225.233 198.949 225.5 200.555 226.033 201.934C226.579 203.3 227.379 204.367 228.433 205.134C229.5 205.889 230.807 206.266 232.355 206.266ZM192.173 210.949C194.358 212.198 196.953 212.823 199.958 212.823C202.287 212.823 204.355 212.471 206.164 211.769C207.972 211.053 209.455 210.052 210.613 208.764C211.783 207.463 212.577 205.941 212.993 204.198L206.398 203.456C206.086 204.302 205.624 205.011 205.012 205.583C204.401 206.156 203.679 206.591 202.846 206.891C202.014 207.177 201.084 207.32 200.056 207.32C198.521 207.32 197.181 206.995 196.036 206.344C194.892 205.681 194 204.731 193.363 203.495C192.747 202.289 192.429 200.851 192.408 199.183H213.286V197.017C213.286 194.389 212.922 192.126 212.193 190.226C211.465 188.314 210.463 186.74 209.188 185.504C207.926 184.268 206.469 183.358 204.817 182.772C203.178 182.174 201.435 181.875 199.588 181.875C196.726 181.875 194.235 182.532 192.114 183.845C189.994 185.146 188.342 186.968 187.158 189.309C185.987 191.638 185.402 194.344 185.402 197.427C185.402 200.562 185.987 203.287 187.158 205.603C188.329 207.905 190 209.687 192.173 210.949ZM206.515 194.422H192.421C192.489 193.247 192.79 192.161 193.324 191.163C193.935 190.031 194.787 189.121 195.88 188.431C196.973 187.729 198.241 187.377 199.685 187.377C201.038 187.377 202.222 187.683 203.237 188.294C204.264 188.906 205.064 189.745 205.637 190.812C206.209 191.865 206.502 193.069 206.515 194.422ZM181.104 182.265V187.729H175.191V203.222C175.191 204.172 175.334 204.9 175.621 205.408C175.92 205.902 176.31 206.24 176.791 206.422C177.273 206.604 177.806 206.695 178.391 206.695C178.834 206.695 179.237 206.663 179.601 206.598C179.978 206.533 180.265 206.474 180.46 206.422L181.65 211.944C181.273 212.074 180.733 212.218 180.031 212.374C179.341 212.53 178.495 212.621 177.494 212.647C175.725 212.699 174.131 212.432 172.713 211.847C171.295 211.248 170.17 210.325 169.337 209.076C168.518 207.827 168.114 206.266 168.127 204.393V187.729H163.874V182.265H168.127V175.084H175.191V182.265H181.104ZM138.077 211.827C139.599 212.504 141.31 212.842 143.209 212.842C144.77 212.842 146.13 212.627 147.287 212.198C148.458 211.756 149.427 211.177 150.195 210.461C150.975 209.733 151.58 208.952 152.01 208.12H152.244V212.237H159.034V192.178C159.034 190.187 158.67 188.529 157.942 187.202C157.226 185.875 156.276 184.828 155.093 184.06C153.909 183.28 152.601 182.72 151.17 182.382C149.74 182.044 148.302 181.875 146.858 181.875C144.764 181.875 142.851 182.187 141.121 182.811C139.391 183.423 137.928 184.346 136.731 185.582C135.534 186.805 134.675 188.327 134.155 190.148L140.75 191.085C141.102 190.057 141.778 189.166 142.78 188.412C143.795 187.657 145.167 187.28 146.897 187.28C148.536 187.28 149.792 187.683 150.663 188.49C151.535 189.296 151.971 190.434 151.971 191.904V192.021C151.971 192.698 151.717 193.199 151.21 193.524C150.715 193.836 149.922 194.07 148.829 194.226C147.736 194.37 146.312 194.532 144.556 194.714C143.099 194.87 141.687 195.124 140.321 195.475C138.968 195.814 137.752 196.314 136.672 196.978C135.592 197.641 134.74 198.526 134.116 199.632C133.492 200.737 133.179 202.136 133.179 203.827C133.179 205.791 133.615 207.443 134.487 208.783C135.371 210.123 136.568 211.138 138.077 211.827ZM148.731 206.812C147.691 207.372 146.461 207.652 145.043 207.652C143.573 207.652 142.364 207.32 141.414 206.656C140.464 205.993 139.989 205.011 139.989 203.71C139.989 202.799 140.23 202.058 140.711 201.485C141.193 200.9 141.85 200.445 142.682 200.119C143.515 199.794 144.458 199.56 145.512 199.417C145.98 199.352 146.533 199.274 147.17 199.183C147.808 199.092 148.452 198.988 149.102 198.871C149.753 198.754 150.338 198.617 150.858 198.461C151.392 198.305 151.769 198.136 151.99 197.953V201.485C151.99 202.591 151.704 203.612 151.131 204.549C150.572 205.486 149.772 206.24 148.731 206.812ZM113.334 212.237V182.265H120.184V187.26H120.496C121.042 185.53 121.979 184.197 123.306 183.26C124.646 182.31 126.174 181.836 127.891 181.836C128.282 181.836 128.717 181.855 129.199 181.894C129.693 181.92 130.103 181.966 130.428 182.031V188.529C130.129 188.425 129.654 188.333 129.004 188.255C128.366 188.164 127.748 188.119 127.15 188.119C125.862 188.119 124.704 188.399 123.676 188.958C122.662 189.504 121.862 190.265 121.276 191.241C120.691 192.217 120.398 193.342 120.398 194.617V212.237H113.334ZM107.427 187.729V182.265H101.514V175.084H94.4506V182.265H90.1968V187.729H94.4506V204.393C94.4376 206.266 94.8409 207.827 95.6605 209.076C96.493 210.325 97.6183 211.248 99.0362 211.847C100.454 212.432 102.048 212.699 103.817 212.647C104.819 212.621 105.664 212.53 106.354 212.374C107.056 212.218 107.596 212.074 107.973 211.944L106.783 206.422C106.588 206.474 106.302 206.533 105.924 206.598C105.56 206.663 105.157 206.695 104.715 206.695C104.129 206.695 103.596 206.604 103.114 206.422C102.633 206.24 102.243 205.902 101.944 205.408C101.658 204.9 101.514 204.172 101.514 203.222V187.729H107.427ZM85.9917 190.187L79.5523 190.89C79.3702 190.239 79.0515 189.628 78.5962 189.055C78.1539 188.483 77.5555 188.021 76.801 187.67C76.0464 187.319 75.1228 187.143 74.0301 187.143C72.5601 187.143 71.3243 187.462 70.3226 188.099C69.3339 188.737 68.8461 189.563 68.8591 190.577C68.8461 191.449 69.1648 192.158 69.8152 192.704C70.4787 193.251 71.5714 193.7 73.0935 194.051L78.2059 195.144C81.0418 195.755 83.1492 196.724 84.5282 198.051C85.9201 199.378 86.6226 201.115 86.6356 203.261C86.6226 205.147 86.0697 206.812 84.977 208.256C83.8973 209.687 82.3947 210.806 80.4694 211.613C78.5441 212.419 76.3326 212.823 73.835 212.823C70.1665 212.823 67.2135 212.055 64.976 210.52C62.7385 208.972 61.4051 206.819 60.9758 204.061L67.8639 203.398C68.1761 204.751 68.8396 205.772 69.8543 206.461C70.869 207.151 72.1893 207.495 73.8154 207.495C75.4936 207.495 76.84 207.151 77.8547 206.461C78.8824 205.772 79.3962 204.92 79.3962 203.905C79.3962 203.046 79.0645 202.337 78.401 201.778C77.7506 201.219 76.7359 200.789 75.357 200.49L70.2445 199.417C67.3696 198.819 65.2427 197.81 63.8637 196.392C62.4848 194.961 61.8018 193.153 61.8148 190.968C61.8018 189.121 62.3027 187.52 63.3174 186.167C64.345 184.802 65.7695 183.748 67.5907 183.006C69.425 182.252 71.5389 181.875 73.9325 181.875C77.4449 181.875 80.2093 182.623 82.2256 184.119C84.255 185.615 85.5103 187.638 85.9917 190.187ZM35.2135 210.949C37.3989 212.198 39.9942 212.823 42.9992 212.823C45.3278 212.823 47.3962 212.471 49.2044 211.769C51.0126 211.053 52.4956 210.052 53.6534 208.764C54.8242 207.463 55.6177 205.941 56.034 204.198L49.4386 203.456C49.1264 204.302 48.6645 205.011 48.0531 205.583C47.4417 206.156 46.7197 206.591 45.8872 206.891C45.0546 207.177 44.1245 207.32 43.0968 207.32C41.5617 207.32 40.2218 206.995 39.0771 206.344C37.9323 205.681 37.0412 204.731 36.4038 203.495C35.7878 202.289 35.4695 200.851 35.4487 199.183H56.3267V197.017C56.3267 194.389 55.9625 192.126 55.234 190.226C54.5055 188.314 53.5038 186.74 52.229 185.504C50.9671 184.268 49.5101 183.358 47.858 182.772C46.2189 182.174 44.4757 181.875 42.6285 181.875C39.7665 181.875 37.2753 182.532 35.1549 183.845C33.0345 185.146 31.3824 186.968 30.1986 189.309C29.0278 191.638 28.4424 194.344 28.4424 197.427C28.4424 200.562 29.0278 203.287 30.1986 205.603C31.3694 207.905 33.041 209.687 35.2135 210.949ZM49.5556 194.422H35.462C35.5299 193.247 35.8308 192.161 36.3647 191.163C36.9761 190.031 37.8282 189.121 38.921 188.431C40.0137 187.729 41.2821 187.377 42.726 187.377C44.0789 187.377 45.2627 187.683 46.2774 188.294C47.3051 188.906 48.1052 189.745 48.6776 190.812C49.2499 191.865 49.5426 193.069 49.5556 194.422Z" fill="white"/>
<path d="M252.156 141.389C249.229 141.389 246.692 140.745 244.546 139.457C242.4 138.169 240.734 136.367 239.551 134.052C238.38 131.736 237.794 129.03 237.794 125.934C237.794 122.838 238.38 120.126 239.551 117.797C240.734 115.469 242.4 113.66 244.546 112.372C246.692 111.085 249.229 110.441 252.156 110.441C255.083 110.441 257.62 111.085 259.766 112.372C261.913 113.66 263.571 115.469 264.742 117.797C265.926 120.126 266.518 122.838 266.518 125.934C266.518 129.03 265.926 131.736 264.742 134.052C263.571 136.367 261.913 138.169 259.766 139.457C257.62 140.745 255.083 141.389 252.156 141.389ZM252.195 135.73C253.782 135.73 255.109 135.294 256.176 134.422C257.243 133.538 258.036 132.354 258.556 130.871C259.09 129.388 259.356 127.736 259.356 125.915C259.356 124.08 259.09 122.422 258.556 120.939C258.036 119.443 257.243 118.252 256.176 117.368C255.109 116.483 253.782 116.041 252.195 116.041C250.569 116.041 249.216 116.483 248.136 117.368C247.07 118.252 246.27 119.443 245.736 120.939C245.216 122.422 244.956 124.08 244.956 125.915C244.956 127.736 245.216 129.388 245.736 130.871C246.27 132.354 247.07 133.538 248.136 134.422C249.216 135.294 250.569 135.73 252.195 135.73Z" fill="white"/>
<path d="M217.774 152.667C215.237 152.667 213.058 152.322 211.237 151.633C209.416 150.957 207.953 150.046 206.847 148.901C205.741 147.756 204.973 146.488 204.544 145.096L210.905 143.555C211.192 144.14 211.608 144.719 212.154 145.291C212.701 145.877 213.436 146.358 214.359 146.735C215.296 147.125 216.473 147.321 217.891 147.321C219.895 147.321 221.553 146.833 222.867 145.857C224.181 144.894 224.838 143.307 224.838 141.096V135.418H224.487C224.122 136.146 223.589 136.894 222.887 137.662C222.197 138.429 221.28 139.073 220.135 139.593C219.003 140.114 217.579 140.374 215.862 140.374C213.559 140.374 211.471 139.834 209.598 138.754C207.738 137.662 206.255 136.035 205.149 133.876C204.056 131.704 203.51 128.985 203.51 125.719C203.51 122.428 204.056 119.651 205.149 117.387C206.255 115.111 207.744 113.387 209.618 112.216C211.491 111.033 213.579 110.441 215.881 110.441C217.638 110.441 219.082 110.74 220.213 111.338C221.358 111.924 222.269 112.633 222.945 113.465C223.622 114.285 224.135 115.059 224.487 115.787H224.877V110.831H231.843V141.291C231.843 143.854 231.232 145.974 230.009 147.652C228.786 149.33 227.114 150.586 224.994 151.418C222.874 152.251 220.467 152.667 217.774 152.667ZM217.833 134.832C219.329 134.832 220.604 134.468 221.657 133.739C222.711 133.011 223.511 131.964 224.057 130.598C224.604 129.232 224.877 127.593 224.877 125.68C224.877 123.794 224.604 122.142 224.057 120.724C223.524 119.306 222.73 118.207 221.677 117.426C220.636 116.633 219.355 116.236 217.833 116.236C216.259 116.236 214.945 116.646 213.891 117.465C212.837 118.285 212.044 119.41 211.51 120.841C210.977 122.259 210.71 123.872 210.71 125.68C210.71 127.515 210.977 129.121 211.51 130.5C212.057 131.866 212.857 132.933 213.911 133.7C214.977 134.455 216.285 134.832 217.833 134.832Z" fill="white"/>
<path d="M174.352 140.803V136.315L189.806 116.939V116.685H174.859V110.831H198.451V115.651L183.738 134.696V134.949H198.958V140.803H174.352Z" fill="white"/>
<path d="M151.815 141.408C149.915 141.408 148.205 141.07 146.683 140.393C145.174 139.704 143.977 138.689 143.092 137.349C142.221 136.009 141.785 134.357 141.785 132.393C141.785 130.702 142.097 129.303 142.721 128.198C143.346 127.092 144.198 126.207 145.278 125.544C146.357 124.88 147.574 124.38 148.927 124.041C150.293 123.69 151.704 123.436 153.161 123.28C154.917 123.098 156.342 122.936 157.434 122.792C158.527 122.636 159.321 122.402 159.815 122.09C160.322 121.765 160.576 121.264 160.576 120.587V120.47C160.576 119 160.14 117.862 159.269 117.056C158.397 116.249 157.142 115.846 155.503 115.846C153.772 115.846 152.4 116.223 151.385 116.978C150.384 117.732 149.707 118.623 149.356 119.651L142.76 118.714C143.281 116.893 144.139 115.371 145.336 114.148C146.533 112.912 147.996 111.989 149.727 111.377C151.457 110.753 153.369 110.441 155.464 110.441C156.907 110.441 158.345 110.61 159.776 110.948C161.207 111.286 162.514 111.846 163.698 112.626C164.882 113.394 165.832 114.441 166.547 115.768C167.276 117.095 167.64 118.753 167.64 120.744V140.803H160.849V136.686H160.615C160.186 137.518 159.581 138.299 158.8 139.027C158.033 139.743 157.064 140.322 155.893 140.764C154.735 141.193 153.376 141.408 151.815 141.408ZM153.649 136.218C155.067 136.218 156.296 135.938 157.337 135.378C158.377 134.806 159.178 134.052 159.737 133.115C160.309 132.178 160.595 131.157 160.595 130.051V126.52C160.374 126.702 159.997 126.871 159.464 127.027C158.943 127.183 158.358 127.32 157.708 127.437C157.057 127.554 156.413 127.658 155.776 127.749C155.138 127.84 154.585 127.918 154.117 127.983C153.063 128.126 152.12 128.36 151.288 128.685C150.455 129.011 149.798 129.466 149.317 130.051C148.836 130.624 148.595 131.365 148.595 132.276C148.595 133.577 149.07 134.559 150.019 135.222C150.969 135.886 152.179 136.218 153.649 136.218Z" fill="white"/>
<path d="M121.94 140.803V110.831H128.789V115.826H129.101C129.647 114.096 130.584 112.763 131.911 111.826C133.251 110.876 134.779 110.402 136.497 110.402C136.887 110.402 137.323 110.421 137.804 110.46C138.298 110.486 138.708 110.532 139.033 110.597V117.095C138.734 116.991 138.259 116.9 137.609 116.821C136.971 116.73 136.354 116.685 135.755 116.685C134.467 116.685 133.309 116.965 132.282 117.524C131.267 118.07 130.467 118.831 129.882 119.807C129.296 120.783 129.004 121.908 129.004 123.183V140.803H121.94Z" fill="white"/>
<path d="M102.636 141.389C99.6314 141.389 97.0361 140.764 94.8506 139.515C92.6782 138.253 91.0065 136.471 89.8357 134.169C88.6649 131.853 88.0796 129.128 88.0796 125.993C88.0796 122.91 88.6649 120.204 89.8357 117.875C91.0195 115.534 92.6717 113.712 94.7921 112.411C96.9125 111.098 99.4037 110.441 102.266 110.441C104.113 110.441 105.856 110.74 107.495 111.338C109.147 111.924 110.604 112.834 111.866 114.07C113.141 115.306 114.143 116.88 114.871 118.792C115.6 120.692 115.964 122.955 115.964 125.583V127.749H91.3968V122.988H109.193C109.18 121.635 108.887 120.431 108.315 119.378C107.742 118.311 106.942 117.472 105.915 116.86C104.9 116.249 103.716 115.943 102.363 115.943C100.919 115.943 99.6509 116.295 98.5582 116.997C97.4654 117.687 96.6133 118.597 96.0019 119.729C95.4035 120.848 95.0978 122.077 95.0848 123.417V127.573C95.0848 129.316 95.4035 130.812 96.0409 132.061C96.6784 133.297 97.5695 134.247 98.7142 134.91C99.859 135.561 101.199 135.886 102.734 135.886C103.762 135.886 104.692 135.743 105.524 135.457C106.357 135.157 107.079 134.722 107.69 134.149C108.302 133.577 108.764 132.868 109.076 132.022L115.671 132.764C115.255 134.507 114.461 136.029 113.291 137.33C112.133 138.618 110.65 139.619 108.842 140.335C107.033 141.037 104.965 141.389 102.636 141.389Z" fill="white"/>
<path d="M65.8786 141.33C63.524 141.33 61.4165 140.725 59.5563 139.515C57.696 138.306 56.2261 136.549 55.1463 134.247C54.0666 131.944 53.5267 129.147 53.5267 125.856C53.5267 122.526 54.0731 119.716 55.1658 117.426C56.2716 115.124 57.7611 113.387 59.6343 112.216C61.5076 111.033 63.5955 110.441 65.8981 110.441C67.6543 110.441 69.0982 110.74 70.23 111.338C71.3618 111.924 72.2594 112.633 72.9228 113.465C73.5863 114.285 74.1001 115.059 74.4644 115.787H74.7571V100.84H81.8403V140.803H74.8937V136.081H74.4644C74.1001 136.81 73.5733 137.584 72.8838 138.403C72.1943 139.21 71.2837 139.899 70.152 140.471C69.0202 141.044 67.5957 141.33 65.8786 141.33ZM67.8494 135.535C69.3454 135.535 70.6203 135.131 71.674 134.325C72.7277 133.505 73.5278 132.367 74.0741 130.91C74.6205 129.453 74.8937 127.755 74.8937 125.817C74.8937 123.879 74.6205 122.194 74.0741 120.763C73.5408 119.332 72.7472 118.22 71.6935 117.426C70.6528 116.633 69.3715 116.236 67.8494 116.236C66.2754 116.236 64.9615 116.646 63.9078 117.465C62.854 118.285 62.0605 119.417 61.5271 120.861C60.9938 122.305 60.7271 123.957 60.7271 125.817C60.7271 127.69 60.9938 129.362 61.5271 130.832C62.0735 132.289 62.8735 133.44 63.9272 134.286C64.994 135.118 66.3014 135.535 67.8494 135.535Z" fill="white"/>
<path d="M40.4285 140.803V110.831H47.4922V140.803H40.4285ZM43.9798 106.577C42.8611 106.577 41.8984 106.206 41.0919 105.465C40.2853 104.71 39.8821 103.806 39.8821 102.753C39.8821 101.686 40.2853 100.782 41.0919 100.04C41.8984 99.2857 42.8611 98.9084 43.9798 98.9084C45.1116 98.9084 46.0743 99.2857 46.8678 100.04C47.6744 100.782 48.0776 101.686 48.0776 102.753C48.0776 103.806 47.6744 104.71 46.8678 105.465C46.0743 106.206 45.1116 106.577 43.9798 106.577Z" fill="white"/>
<path d="M33.1646 100.84V140.803H26.1008V100.84H33.1646Z" fill="white"/>
<path d="M279.288 133.252L279.035 135.398C278.852 137.037 278.527 138.702 278.059 140.393C277.604 142.098 277.122 143.665 276.615 145.096C276.108 146.527 275.698 147.652 275.386 148.472H270.624C270.807 147.678 271.054 146.599 271.366 145.233C271.691 143.867 272.003 142.332 272.303 140.628C272.602 138.923 272.803 137.193 272.907 135.437L273.044 133.252H279.288Z" fill="white"/>
<path d="M420.432 69.4005L420.178 71.547C419.996 73.1861 419.671 74.8512 419.203 76.5423C418.748 78.2465 418.266 79.814 417.759 81.245C417.251 82.676 416.842 83.8012 416.53 84.6208H411.768C411.95 83.8273 412.198 82.7475 412.51 81.3816C412.835 80.0157 413.147 78.4806 413.446 76.7765C413.746 75.0723 413.947 73.3422 414.051 71.586L414.188 69.4005H420.432Z" fill="white"/>
<path d="M391.782 75.4496C388.855 75.4496 386.318 74.8057 384.172 73.5178C382.025 72.2299 380.36 70.4282 379.176 68.1126C378.005 65.7971 377.42 63.0913 377.42 59.9952C377.42 56.8991 378.005 54.1867 379.176 51.8582C380.36 49.5296 382.025 47.7214 384.172 46.4335C386.318 45.1456 388.855 44.5017 391.782 44.5017C394.709 44.5017 397.245 45.1456 399.392 46.4335C401.538 47.7214 403.197 49.5296 404.368 51.8582C405.552 54.1867 406.143 56.8991 406.143 59.9952C406.143 63.0913 405.552 65.7971 404.368 68.1126C403.197 70.4282 401.538 72.2299 399.392 73.5178C397.245 74.8057 394.709 75.4496 391.782 75.4496ZM391.821 69.7908C393.408 69.7908 394.735 69.355 395.801 68.4834C396.868 67.5988 397.662 66.415 398.182 64.932C398.715 63.449 398.982 61.7969 398.982 59.9756C398.982 58.1414 398.715 56.4828 398.182 54.9998C397.662 53.5038 396.868 52.3135 395.801 51.4289C394.735 50.5443 393.408 50.102 391.821 50.102C390.195 50.102 388.842 50.5443 387.762 51.4289C386.695 52.3135 385.895 53.5038 385.362 54.9998C384.842 56.4828 384.581 58.1414 384.581 59.9756C384.581 61.7969 384.842 63.449 385.362 64.932C385.895 66.415 386.695 67.5988 387.762 68.4834C388.842 69.355 390.195 69.7908 391.821 69.7908Z" fill="white"/>
<path d="M359.405 75.4496C356.4 75.4496 353.804 74.8252 351.619 73.5763C349.446 72.3145 347.775 70.5323 346.604 68.2297C345.433 65.9142 344.848 63.1888 344.848 60.0537C344.848 56.9706 345.433 54.2648 346.604 51.9362C347.788 49.5946 349.44 47.7734 351.56 46.4725C353.681 45.1586 356.172 44.5017 359.034 44.5017C360.881 44.5017 362.624 44.8009 364.263 45.3993C365.915 45.9847 367.372 46.8953 368.634 48.1311C369.909 49.367 370.911 50.941 371.639 52.8533C372.368 54.7526 372.732 57.0161 372.732 59.6439V61.8099H348.165V57.0487H365.961C365.948 55.6958 365.655 54.4924 365.083 53.4387C364.511 52.372 363.71 51.5329 362.683 50.9215C361.668 50.3101 360.484 50.0044 359.131 50.0044C357.687 50.0044 356.419 50.3556 355.326 51.0581C354.234 51.7476 353.381 52.6582 352.77 53.79C352.172 54.9087 351.866 56.1381 351.853 57.478V61.6343C351.853 63.3774 352.172 64.8735 352.809 66.1223C353.447 67.3581 354.338 68.3078 355.482 68.9712C356.627 69.6217 357.967 69.9469 359.502 69.9469C360.53 69.9469 361.46 69.8038 362.293 69.5176C363.125 69.2184 363.847 68.7826 364.458 68.2102C365.07 67.6378 365.532 66.9288 365.844 66.0833L372.439 66.8248C372.023 68.568 371.23 70.09 370.059 71.3909C368.901 72.6787 367.418 73.6804 365.61 74.3959C363.802 75.0984 361.733 75.4496 359.405 75.4496Z" fill="white"/>
<path d="M340.55 44.892V50.3556H323.32V44.892H340.55ZM327.574 37.7111H334.637V65.8491C334.637 66.7988 334.781 67.5272 335.067 68.0346C335.366 68.5289 335.756 68.8672 336.238 69.0493C336.719 69.2314 337.252 69.3225 337.838 69.3225C338.28 69.3225 338.683 69.2899 339.047 69.2249C339.425 69.1599 339.711 69.1013 339.906 69.0493L341.096 74.5715C340.719 74.7016 340.179 74.8447 339.477 75.0008C338.787 75.1569 337.942 75.248 336.94 75.274C335.171 75.326 333.577 75.0593 332.159 74.4739C330.741 73.8755 329.616 72.9519 328.784 71.7031C327.964 70.4542 327.561 68.8932 327.574 67.0199V37.7111Z" fill="white"/>
<path d="M319.115 52.8143L312.675 53.5168C312.493 52.8663 312.175 52.2549 311.719 51.6825C311.277 51.1102 310.679 50.6483 309.924 50.2971C309.17 49.9459 308.246 49.7703 307.153 49.7703C305.683 49.7703 304.447 50.089 303.446 50.7264C302.457 51.3638 301.969 52.1899 301.982 53.2046C301.969 54.0762 302.288 54.7851 302.938 55.3315C303.602 55.8779 304.695 56.3267 306.217 56.6779L311.329 57.7707C314.165 58.3821 316.272 59.3512 317.651 60.6781C319.043 62.005 319.746 63.7417 319.759 65.8881C319.746 67.7744 319.193 69.4395 318.1 70.8835C317.02 72.3145 315.518 73.4332 313.593 74.2398C311.667 75.0463 309.456 75.4496 306.958 75.4496C303.29 75.4496 300.337 74.6821 298.099 73.147C295.862 71.599 294.528 69.446 294.099 66.6882L300.987 66.0247C301.299 67.3776 301.963 68.3988 302.977 69.0883C303.992 69.7778 305.312 70.1225 306.939 70.1225C308.617 70.1225 309.963 69.7778 310.978 69.0883C312.005 68.3988 312.519 67.5468 312.519 66.5321C312.519 65.6735 312.188 64.9645 311.524 64.4051C310.874 63.8458 309.859 63.4165 308.48 63.1173L303.368 62.044C300.493 61.4456 298.366 60.4375 296.987 59.0195C295.608 57.5885 294.925 55.7803 294.938 53.5948C294.925 51.7476 295.426 50.1475 296.44 48.7946C297.468 47.4287 298.893 46.375 300.714 45.6335C302.548 44.8789 304.662 44.5017 307.056 44.5017C310.568 44.5017 313.332 45.2497 315.349 46.7457C317.378 48.2417 318.633 50.2646 319.115 52.8143Z" fill="white"/>
<path d="M276.122 75.4496C273.117 75.4496 270.522 74.8252 268.337 73.5763C266.164 72.3145 264.492 70.5323 263.322 68.2297C262.151 65.9142 261.565 63.1888 261.565 60.0537C261.565 56.9706 262.151 54.2648 263.322 51.9362C264.505 49.5946 266.158 47.7734 268.278 46.4725C270.398 45.1586 272.89 44.5017 275.752 44.5017C277.599 44.5017 279.342 44.8009 280.981 45.3993C282.633 45.9847 284.09 46.8953 285.352 48.1311C286.627 49.367 287.629 50.941 288.357 52.8533C289.086 54.7526 289.45 57.0161 289.45 59.6439V61.8099H264.883V57.0487H282.679C282.666 55.6958 282.373 54.4924 281.801 53.4387C281.228 52.372 280.428 51.5329 279.4 50.9215C278.386 50.3101 277.202 50.0044 275.849 50.0044C274.405 50.0044 273.137 50.3556 272.044 51.0581C270.951 51.7476 270.099 52.6582 269.488 53.79C268.889 54.9087 268.584 56.1381 268.571 57.478V61.6343C268.571 63.3774 268.889 64.8735 269.527 66.1223C270.164 67.3581 271.055 68.3078 272.2 68.9712C273.345 69.6217 274.685 69.9469 276.22 69.9469C277.248 69.9469 278.178 69.8038 279.01 69.5176C279.843 69.2184 280.565 68.7826 281.176 68.2102C281.788 67.6378 282.249 66.9288 282.562 66.0833L289.157 66.8248C288.741 68.568 287.947 70.09 286.776 71.3909C285.619 72.6787 284.136 73.6804 282.327 74.3959C280.519 75.0984 278.451 75.4496 276.122 75.4496Z" fill="white"/>
<path d="M257.268 44.892V50.3556H240.038V44.892H257.268ZM244.291 37.7111H251.355V65.8491C251.355 66.7988 251.498 67.5272 251.785 68.0346C252.084 68.5289 252.474 68.8672 252.955 69.0493C253.437 69.2314 253.97 69.3225 254.555 69.3225C254.998 69.3225 255.401 69.2899 255.765 69.2249C256.142 69.1599 256.429 69.1013 256.624 69.0493L257.814 74.5715C257.437 74.7016 256.897 74.8447 256.194 75.0008C255.505 75.1569 254.659 75.248 253.658 75.274C251.889 75.326 250.295 75.0593 248.877 74.4739C247.459 73.8755 246.334 72.9519 245.501 71.7031C244.682 70.4542 244.278 68.8932 244.291 67.0199V37.7111Z" fill="white"/>
<path d="M221.993 69.4005L221.739 71.547C221.557 73.1861 221.232 74.8512 220.763 76.5423C220.308 78.2465 219.827 79.814 219.32 81.245C218.812 82.676 218.402 83.8012 218.09 84.6208H213.329C213.511 83.8273 213.758 82.7475 214.07 81.3816C214.396 80.0157 214.708 78.4806 215.007 76.7765C215.306 75.0723 215.508 73.3422 215.612 71.586L215.749 69.4005H221.993Z" fill="white"/>
<path d="M193.342 75.4496C190.415 75.4496 187.879 74.8057 185.732 73.5178C183.586 72.2299 181.921 70.4282 180.737 68.1126C179.566 65.7971 178.981 63.0913 178.981 59.9952C178.981 56.8991 179.566 54.1867 180.737 51.8582C181.921 49.5296 183.586 47.7214 185.732 46.4335C187.879 45.1456 190.415 44.5017 193.342 44.5017C196.269 44.5017 198.806 45.1456 200.953 46.4335C203.099 47.7214 204.758 49.5296 205.928 51.8582C207.112 54.1867 207.704 56.8991 207.704 59.9952C207.704 63.0913 207.112 65.7971 205.928 68.1126C204.758 70.4282 203.099 72.2299 200.953 73.5178C198.806 74.8057 196.269 75.4496 193.342 75.4496ZM193.381 69.7908C194.969 69.7908 196.295 69.355 197.362 68.4834C198.429 67.5988 199.222 66.415 199.743 64.932C200.276 63.449 200.543 61.7969 200.543 59.9756C200.543 58.1414 200.276 56.4828 199.743 54.9998C199.222 53.5038 198.429 52.3135 197.362 51.4289C196.295 50.5443 194.969 50.102 193.381 50.102C191.755 50.102 190.402 50.5443 189.323 51.4289C188.256 52.3135 187.456 53.5038 186.923 54.9998C186.402 56.4828 186.142 58.1414 186.142 59.9756C186.142 61.7969 186.402 63.449 186.923 64.932C187.456 66.415 188.256 67.5988 189.323 68.4834C190.402 69.355 191.755 69.7908 193.381 69.7908Z" fill="white"/>
<path d="M153.848 57.3024V74.8642H146.784V44.892H153.536V49.9849H153.887C154.576 48.3068 155.676 46.9734 157.185 45.9847C158.707 44.9961 160.586 44.5017 162.824 44.5017C164.892 44.5017 166.694 44.944 168.229 45.8286C169.777 46.7132 170.974 47.9946 171.819 49.6727C172.678 51.3509 173.101 53.3867 173.088 55.7803V74.8642H166.024V56.8731C166.024 54.8697 165.504 53.3022 164.463 52.1704C163.435 51.0386 162.011 50.4728 160.19 50.4728C158.954 50.4728 157.855 50.7459 156.892 51.2923C155.942 51.8257 155.194 52.5997 154.648 53.6144C154.115 54.6291 153.848 55.8584 153.848 57.3024ZM154.18 41.243L149.906 41.1455C149.906 38.8299 150.505 37.0152 151.701 35.7013C152.898 34.3874 154.375 33.7305 156.131 33.7305C156.976 33.7305 157.711 33.8735 158.336 34.1597C158.96 34.4329 159.533 34.7516 160.053 35.1159C160.586 35.4801 161.107 35.8054 161.614 36.0915C162.121 36.3647 162.681 36.5013 163.292 36.5013C164.034 36.5013 164.619 36.2216 165.048 35.6623C165.491 35.1029 165.718 34.3874 165.731 33.5158L169.927 33.6914C169.914 36.02 169.309 37.8282 168.112 39.1161C166.915 40.391 165.445 41.0349 163.702 41.0479C162.765 41.0609 161.978 40.9243 161.341 40.6381C160.703 40.3519 160.144 40.0267 159.663 39.6625C159.194 39.2982 158.72 38.9795 158.238 38.7063C157.757 38.4201 157.191 38.277 156.541 38.277C155.851 38.277 155.285 38.5502 154.843 39.0966C154.401 39.6429 154.18 40.3584 154.18 41.243Z" fill="white"/>
<path d="M127.481 75.4496C124.476 75.4496 121.88 74.8252 119.695 73.5763C117.522 72.3145 115.851 70.5323 114.68 68.2297C113.509 65.9142 112.924 63.1888 112.924 60.0537C112.924 56.9706 113.509 54.2648 114.68 51.9362C115.864 49.5946 117.516 47.7734 119.636 46.4725C121.757 45.1586 124.248 44.5017 127.11 44.5017C128.957 44.5017 130.7 44.8009 132.339 45.3993C133.991 45.9847 135.448 46.8953 136.71 48.1311C137.985 49.367 138.987 50.941 139.715 52.8533C140.444 54.7526 140.808 57.0161 140.808 59.6439V61.8099H116.241V57.0487H134.037C134.024 55.6958 133.731 54.4924 133.159 53.4387C132.586 52.372 131.786 51.5329 130.759 50.9215C129.744 50.3101 128.56 50.0044 127.207 50.0044C125.763 50.0044 124.495 50.3556 123.402 51.0581C122.31 51.7476 121.457 52.6582 120.846 53.79C120.248 54.9087 119.942 56.1381 119.929 57.478V61.6343C119.929 63.3774 120.248 64.8735 120.885 66.1223C121.523 67.3581 122.414 68.3078 123.558 68.9712C124.703 69.6217 126.043 69.9469 127.578 69.9469C128.606 69.9469 129.536 69.8038 130.368 69.5176C131.201 69.2184 131.923 68.7826 132.534 68.2102C133.146 67.6378 133.608 66.9288 133.92 66.0833L140.515 66.8248C140.099 68.568 139.306 70.09 138.135 71.3909C136.977 72.6787 135.494 73.6804 133.686 74.3959C131.878 75.0984 129.809 75.4496 127.481 75.4496Z" fill="white"/>
<path d="M107.743 52.8143L101.304 53.5168C101.122 52.8663 100.803 52.2549 100.348 51.6825C99.9053 51.1102 99.3069 50.6483 98.5524 50.2971C97.7979 49.9459 96.8742 49.7703 95.7815 49.7703C94.3115 49.7703 93.0757 50.089 92.074 50.7264C91.0853 51.3638 90.5975 52.1899 90.6105 53.2046C90.5975 54.0762 90.9162 54.7851 91.5666 55.3315C92.2301 55.8779 93.3228 56.3267 94.8449 56.6779L99.9573 57.7707C102.793 58.3821 104.901 59.3512 106.28 60.6781C107.672 62.005 108.374 63.7417 108.387 65.8881C108.374 67.7744 107.821 69.4395 106.728 70.8835C105.649 72.3145 104.146 73.4332 102.221 74.2398C100.296 75.0463 98.0841 75.4496 95.5864 75.4496C91.9179 75.4496 88.9649 74.6821 86.7274 73.147C84.4899 71.599 83.1565 69.446 82.7272 66.6882L89.6153 66.0247C89.9275 67.3776 90.591 68.3988 91.6057 69.0883C92.6204 69.7778 93.9408 70.1225 95.5668 70.1225C97.245 70.1225 98.5914 69.7778 99.6061 69.0883C100.634 68.3988 101.148 67.5468 101.148 66.5321C101.148 65.6735 100.816 64.9645 100.152 64.4051C99.502 63.8458 98.4873 63.4165 97.1084 63.1173L91.9959 62.044C89.121 61.4456 86.9941 60.4375 85.6151 59.0195C84.2362 57.5885 83.5532 55.7803 83.5662 53.5948C83.5532 51.7476 84.0541 50.1475 85.0688 48.7946C86.0964 47.4287 87.5209 46.375 89.3421 45.6335C91.1764 44.8789 93.2903 44.5017 95.6839 44.5017C99.1963 44.5017 101.961 45.2497 103.977 46.7457C106.006 48.2417 107.262 50.2646 107.743 52.8143Z" fill="white"/>
<path d="M69.7265 74.8643V44.892H76.7903V74.8643H69.7265ZM73.2779 40.6382C72.1592 40.6382 71.1965 40.2674 70.39 39.5259C69.5834 38.7714 69.1802 37.8673 69.1802 36.8136C69.1802 35.7468 69.5834 34.8427 70.39 34.1012C71.1965 33.3467 72.1592 32.9695 73.2779 32.9695C74.4097 32.9695 75.3724 33.3467 76.1659 34.1012C76.9724 34.8427 77.3757 35.7468 77.3757 36.8136C77.3757 37.8673 76.9724 38.7714 76.1659 39.5259C75.3724 40.2674 74.4097 40.6382 73.2779 40.6382Z" fill="white"/>
<path d="M43.7642 74.8643H30.222V34.9013H44.0374C48.0051 34.9013 51.4134 35.7013 54.2623 37.3014C57.1242 38.8885 59.3227 41.1715 60.8577 44.1505C62.3928 47.1295 63.1603 50.6939 63.1603 54.8437C63.1603 59.0066 62.3863 62.584 60.8382 65.576C59.3032 68.568 57.0852 70.8641 54.1842 72.4642C51.2963 74.0642 47.8229 74.8643 43.7642 74.8643ZM37.4614 68.6005H43.413C46.1968 68.6005 48.5189 68.0932 50.3792 67.0785C52.2394 66.0508 53.6379 64.5223 54.5745 62.4929C55.5111 60.4505 55.9794 57.9008 55.9794 54.8437C55.9794 51.7867 55.5111 49.25 54.5745 47.2336C53.6379 45.2042 52.2524 43.6887 50.4182 42.687C48.597 41.6724 46.3334 41.165 43.6276 41.165H37.4614V68.6005Z" fill="white"/>
<path d="M639.109 123.932V141.494H632.046V111.522H638.797V116.615H639.149C639.838 114.937 640.937 113.603 642.446 112.614C643.968 111.626 645.848 111.131 648.086 111.131C650.154 111.131 651.956 111.574 653.491 112.458C655.039 113.343 656.236 114.624 657.081 116.302C657.94 117.981 658.362 120.016 658.349 122.41V141.494H651.286V123.503C651.286 121.499 650.765 119.932 649.725 118.8C648.697 117.668 647.273 117.102 645.451 117.102C644.215 117.102 643.116 117.376 642.154 117.922C641.204 118.455 640.456 119.229 639.91 120.244C639.376 121.259 639.109 122.488 639.109 123.932Z" fill="#52546E"/>
<path d="M611.689 142.079C608.762 142.079 606.225 141.435 604.078 140.148C601.932 138.86 600.267 137.058 599.083 134.742C597.912 132.427 597.327 129.721 597.327 126.625C597.327 123.529 597.912 120.817 599.083 118.488C600.267 116.159 601.932 114.351 604.078 113.063C606.225 111.775 608.762 111.132 611.689 111.132C614.616 111.132 617.152 111.775 619.299 113.063C621.445 114.351 623.104 116.159 624.275 118.488C625.458 120.817 626.05 123.529 626.05 126.625C626.05 129.721 625.458 132.427 624.275 134.742C623.104 137.058 621.445 138.86 619.299 140.148C617.152 141.435 614.616 142.079 611.689 142.079ZM611.728 136.421C613.315 136.421 614.642 135.985 615.708 135.113C616.775 134.229 617.569 133.045 618.089 131.562C618.622 130.079 618.889 128.427 618.889 126.605C618.889 124.771 618.622 123.113 618.089 121.63C617.569 120.134 616.775 118.943 615.708 118.059C614.642 117.174 613.315 116.732 611.728 116.732C610.102 116.732 608.749 117.174 607.669 118.059C606.602 118.943 605.802 120.134 605.269 121.63C604.748 123.113 604.488 124.771 604.488 126.605C604.488 128.427 604.748 130.079 605.269 131.562C605.802 133.045 606.602 134.229 607.669 135.113C608.749 135.985 610.102 136.421 611.728 136.421ZM608.976 107.58L613.347 98.6626H620.255L614.264 107.58H608.976Z" fill="#52546E"/>
<path d="M584.287 141.494V111.522H591.351V141.494H584.287ZM587.839 107.268C586.72 107.268 585.757 106.897 584.951 106.156C584.144 105.401 583.741 104.497 583.741 103.443C583.741 102.377 584.144 101.472 584.951 100.731C585.757 99.9764 586.72 99.5992 587.839 99.5992C588.97 99.5992 589.933 99.9764 590.727 100.731C591.533 101.472 591.936 102.377 591.936 103.443C591.936 104.497 591.533 105.401 590.727 106.156C589.933 106.897 588.97 107.268 587.839 107.268Z" fill="#52546E"/>
<path d="M565.647 142.079C562.655 142.079 560.086 141.422 557.94 140.109C555.806 138.795 554.16 136.98 553.003 134.664C551.858 132.336 551.286 129.656 551.286 126.625C551.286 123.581 551.871 120.895 553.042 118.566C554.213 116.224 555.865 114.403 557.998 113.102C560.145 111.788 562.681 111.131 565.608 111.131C568.041 111.131 570.194 111.58 572.067 112.478C573.953 113.362 575.456 114.618 576.575 116.244C577.693 117.857 578.331 119.743 578.487 121.903H571.735C571.462 120.459 570.812 119.255 569.784 118.293C568.769 117.317 567.41 116.829 565.706 116.829C564.262 116.829 562.993 117.22 561.901 118C560.808 118.768 559.956 119.873 559.344 121.317C558.746 122.761 558.447 124.491 558.447 126.508C558.447 128.55 558.746 130.306 559.344 131.776C559.943 133.233 560.782 134.359 561.862 135.152C562.954 135.933 564.236 136.323 565.706 136.323C566.746 136.323 567.677 136.128 568.496 135.738C569.329 135.334 570.025 134.755 570.584 134.001C571.143 133.246 571.527 132.329 571.735 131.25H578.487C578.318 133.37 577.693 135.25 576.614 136.889C575.534 138.515 574.064 139.79 572.204 140.713C570.343 141.624 568.158 142.079 565.647 142.079Z" fill="#52546E"/>
<path d="M529.645 142.099C527.746 142.099 526.035 141.761 524.513 141.084C523.004 140.395 521.808 139.38 520.923 138.04C520.051 136.7 519.616 135.048 519.616 133.084C519.616 131.393 519.928 129.994 520.552 128.888C521.177 127.783 522.029 126.898 523.109 126.235C524.188 125.571 525.405 125.07 526.757 124.732C528.123 124.381 529.535 124.127 530.992 123.971C532.748 123.789 534.172 123.626 535.265 123.483C536.358 123.327 537.152 123.093 537.646 122.781C538.153 122.456 538.407 121.955 538.407 121.278V121.161C538.407 119.691 537.971 118.553 537.099 117.746C536.228 116.94 534.973 116.537 533.333 116.537C531.603 116.537 530.231 116.914 529.216 117.668C528.214 118.423 527.538 119.314 527.187 120.342L520.591 119.405C521.112 117.584 521.97 116.062 523.167 114.839C524.364 113.603 525.827 112.68 527.558 112.068C529.288 111.444 531.2 111.131 533.294 111.131C534.738 111.131 536.176 111.301 537.607 111.639C539.038 111.977 540.345 112.536 541.529 113.317C542.713 114.084 543.662 115.132 544.378 116.459C545.106 117.785 545.471 119.444 545.471 121.434V141.494H538.68V137.377H538.446C538.017 138.209 537.412 138.99 536.631 139.718C535.864 140.434 534.894 141.013 533.724 141.455C532.566 141.884 531.206 142.099 529.645 142.099ZM531.48 136.908C532.898 136.908 534.127 136.629 535.168 136.069C536.208 135.497 537.008 134.742 537.568 133.806C538.14 132.869 538.426 131.848 538.426 130.742V127.21C538.205 127.392 537.828 127.562 537.295 127.718C536.774 127.874 536.189 128.01 535.538 128.127C534.888 128.245 534.244 128.349 533.607 128.44C532.969 128.531 532.416 128.609 531.948 128.674C530.894 128.817 529.951 129.051 529.119 129.376C528.286 129.702 527.629 130.157 527.148 130.742C526.666 131.315 526.426 132.056 526.426 132.967C526.426 134.268 526.901 135.25 527.85 135.913C528.8 136.577 530.01 136.908 531.48 136.908Z" fill="#52546E"/>
<path d="M471.706 141.494V111.522H478.457V116.615H478.809C479.433 114.898 480.467 113.558 481.911 112.595C483.355 111.619 485.079 111.131 487.082 111.131C489.112 111.131 490.822 111.626 492.214 112.614C493.619 113.59 494.608 114.924 495.18 116.615H495.492C496.156 114.95 497.275 113.623 498.849 112.634C500.436 111.632 502.316 111.131 504.488 111.131C507.246 111.131 509.496 112.003 511.24 113.746C512.983 115.489 513.854 118.033 513.854 121.376V141.494H506.771V122.469C506.771 120.608 506.277 119.249 505.288 118.39C504.299 117.519 503.09 117.083 501.659 117.083C499.954 117.083 498.621 117.616 497.658 118.683C496.709 119.737 496.234 121.109 496.234 122.8V141.494H489.307V122.176C489.307 120.628 488.838 119.392 487.902 118.468C486.978 117.545 485.768 117.083 484.272 117.083C483.258 117.083 482.334 117.343 481.501 117.864C480.669 118.371 480.005 119.093 479.511 120.029C479.017 120.953 478.77 122.033 478.77 123.269V141.494H471.706Z" fill="#52546E"/>
<path d="M448.778 142.099C446.878 142.099 445.168 141.761 443.646 141.084C442.137 140.395 440.94 139.38 440.055 138.04C439.184 136.7 438.748 135.048 438.748 133.084C438.748 131.393 439.06 129.994 439.685 128.888C440.309 127.783 441.161 126.898 442.241 126.235C443.321 125.571 444.537 125.07 445.89 124.732C447.256 124.381 448.667 124.127 450.124 123.971C451.88 123.789 453.305 123.626 454.398 123.483C455.49 123.327 456.284 123.093 456.778 122.781C457.286 122.456 457.539 121.955 457.539 121.278V121.161C457.539 119.691 457.103 118.553 456.232 117.746C455.36 116.94 454.105 116.537 452.466 116.537C450.736 116.537 449.363 116.914 448.348 117.668C447.347 118.423 446.67 119.314 446.319 120.342L439.724 119.405C440.244 117.584 441.103 116.062 442.299 114.839C443.496 113.603 444.96 112.68 446.69 112.068C448.42 111.444 450.332 111.131 452.427 111.131C453.871 111.131 455.308 111.301 456.739 111.639C458.17 111.977 459.477 112.536 460.661 113.317C461.845 114.084 462.795 115.132 463.51 116.459C464.239 117.785 464.603 119.444 464.603 121.434V141.494H457.812V137.377H457.578C457.149 138.209 456.544 138.99 455.763 139.718C454.996 140.434 454.027 141.013 452.856 141.455C451.698 141.884 450.339 142.099 448.778 142.099ZM450.612 136.908C452.03 136.908 453.259 136.629 454.3 136.069C455.341 135.497 456.141 134.742 456.7 133.806C457.273 132.869 457.559 131.848 457.559 130.742V127.21C457.338 127.392 456.96 127.562 456.427 127.718C455.907 127.874 455.321 128.01 454.671 128.127C454.02 128.245 453.376 128.349 452.739 128.44C452.102 128.531 451.549 128.609 451.08 128.674C450.027 128.817 449.083 129.051 448.251 129.376C447.418 129.702 446.761 130.157 446.28 130.742C445.799 131.315 445.558 132.056 445.558 132.967C445.558 134.268 446.033 135.25 446.983 135.913C447.932 136.577 449.142 136.908 450.612 136.908Z" fill="#52546E"/>
<path d="M418.903 141.494V111.522H425.752V116.517H426.065C426.611 114.787 427.548 113.454 428.874 112.517C430.214 111.567 431.743 111.092 433.46 111.092C433.85 111.092 434.286 111.112 434.767 111.151C435.262 111.177 435.672 111.223 435.997 111.288V117.785C435.698 117.681 435.223 117.59 434.572 117.512C433.935 117.421 433.317 117.376 432.719 117.376C431.431 117.376 430.273 117.655 429.245 118.215C428.231 118.761 427.43 119.522 426.845 120.498C426.26 121.473 425.967 122.599 425.967 123.874V141.494H418.903Z" fill="#52546E"/>
<path d="M397.595 153.358C395.058 153.358 392.879 153.013 391.058 152.324C389.237 151.647 387.773 150.737 386.667 149.592C385.562 148.447 384.794 147.179 384.365 145.787L390.726 144.245C391.012 144.831 391.429 145.41 391.975 145.982C392.521 146.567 393.256 147.049 394.18 147.426C395.117 147.816 396.294 148.011 397.712 148.011C399.715 148.011 401.374 147.524 402.688 146.548C404.002 145.585 404.659 143.998 404.659 141.787V136.108H404.307C403.943 136.837 403.41 137.585 402.707 138.352C402.018 139.12 401.101 139.764 399.956 140.284C398.824 140.805 397.4 141.065 395.683 141.065C393.38 141.065 391.292 140.525 389.419 139.445C387.559 138.352 386.076 136.726 384.97 134.567C383.877 132.394 383.331 129.676 383.331 126.41C383.331 123.119 383.877 120.342 384.97 118.078C386.076 115.802 387.565 114.078 389.438 112.907C391.312 111.723 393.399 111.131 395.702 111.131C397.458 111.131 398.902 111.431 400.034 112.029C401.179 112.614 402.089 113.323 402.766 114.156C403.442 114.976 403.956 115.75 404.307 116.478H404.698V111.522H411.664V141.982C411.664 144.545 411.052 146.665 409.83 148.343C408.607 150.021 406.935 151.277 404.815 152.109C402.694 152.942 400.288 153.358 397.595 153.358ZM397.653 135.523C399.149 135.523 400.424 135.159 401.478 134.43C402.532 133.702 403.332 132.655 403.878 131.289C404.424 129.923 404.698 128.284 404.698 126.371C404.698 124.485 404.424 122.833 403.878 121.415C403.345 119.997 402.551 118.898 401.497 118.117C400.457 117.324 399.175 116.927 397.653 116.927C396.079 116.927 394.765 117.337 393.712 118.156C392.658 118.976 391.864 120.101 391.331 121.532C390.798 122.95 390.531 124.563 390.531 126.371C390.531 128.206 390.798 129.812 391.331 131.191C391.877 132.557 392.678 133.624 393.731 134.391C394.798 135.146 396.105 135.523 397.653 135.523Z" fill="#52546E"/>
<path d="M364.203 142.079C361.276 142.079 358.739 141.435 356.593 140.148C354.446 138.86 352.781 137.058 351.597 134.742C350.427 132.427 349.841 129.721 349.841 126.625C349.841 123.529 350.427 120.817 351.597 118.488C352.781 116.159 354.446 114.351 356.593 113.063C358.739 111.775 361.276 111.131 364.203 111.131C367.13 111.131 369.667 111.775 371.813 113.063C373.959 114.351 375.618 116.159 376.789 118.488C377.973 120.817 378.565 123.529 378.565 126.625C378.565 129.721 377.973 132.427 376.789 134.742C375.618 137.058 373.959 138.86 371.813 140.148C369.667 141.435 367.13 142.079 364.203 142.079ZM364.242 136.421C365.829 136.421 367.156 135.985 368.223 135.113C369.289 134.229 370.083 133.045 370.603 131.562C371.137 130.079 371.403 128.427 371.403 126.605C371.403 124.771 371.137 123.113 370.603 121.63C370.083 120.134 369.289 118.943 368.223 118.059C367.156 117.174 365.829 116.732 364.242 116.732C362.616 116.732 361.263 117.174 360.183 118.059C359.116 118.943 358.316 120.134 357.783 121.63C357.263 123.113 357.002 124.771 357.002 126.605C357.002 128.427 357.263 130.079 357.783 131.562C358.316 133.045 359.116 134.229 360.183 135.113C361.263 135.985 362.616 136.421 364.242 136.421Z" fill="#52546E"/>
<path d="M330.577 141.494V111.522H337.426V116.517H337.738C338.284 114.787 339.221 113.454 340.548 112.517C341.888 111.567 343.416 111.092 345.134 111.092C345.524 111.092 345.96 111.112 346.441 111.151C346.935 111.177 347.345 111.223 347.67 111.288V117.785C347.371 117.681 346.896 117.59 346.246 117.512C345.608 117.421 344.99 117.376 344.392 117.376C343.104 117.376 341.946 117.655 340.919 118.215C339.904 118.761 339.104 119.522 338.519 120.498C337.933 121.473 337.64 122.599 337.64 123.874V141.494H330.577Z" fill="#52546E"/>
<path d="M296.234 152.734V111.522H303.18V116.478H303.59C303.954 115.75 304.468 114.976 305.132 114.156C305.795 113.323 306.693 112.614 307.824 112.029C308.956 111.431 310.4 111.131 312.156 111.131C314.472 111.131 316.56 111.723 318.42 112.907C320.293 114.078 321.776 115.815 322.869 118.117C323.975 120.407 324.528 123.217 324.528 126.547C324.528 129.838 323.988 132.635 322.908 134.938C321.828 137.24 320.358 138.996 318.498 140.206C316.638 141.416 314.53 142.021 312.176 142.021C310.459 142.021 309.034 141.735 307.902 141.162C306.771 140.59 305.86 139.9 305.171 139.094C304.494 138.274 303.967 137.5 303.59 136.772H303.297V152.734H296.234ZM303.161 126.508C303.161 128.446 303.434 130.144 303.98 131.601C304.54 133.058 305.34 134.196 306.38 135.016C307.434 135.822 308.709 136.225 310.205 136.225C311.766 136.225 313.073 135.809 314.127 134.977C315.181 134.131 315.974 132.98 316.508 131.523C317.054 130.053 317.327 128.381 317.327 126.508C317.327 124.648 317.061 122.995 316.527 121.552C315.994 120.108 315.2 118.976 314.147 118.156C313.093 117.337 311.779 116.927 310.205 116.927C308.696 116.927 307.415 117.324 306.361 118.117C305.307 118.911 304.507 120.023 303.961 121.454C303.427 122.885 303.161 124.57 303.161 126.508Z" fill="#52546E"/>
<path fill-rule="evenodd" clip-rule="evenodd" d="M681.369 6.86863H6.8686V251.392H681.369V6.86863ZM5.49487 5.4949V252.766H682.743V5.4949H5.49487Z" fill="#4B82EE"/>
<path d="M688.238 5.49491C688.238 2.46015 685.778 -1.90735e-06 682.743 -1.90735e-06C679.708 -1.90735e-06 677.248 2.46015 677.248 5.49491C677.248 8.52967 679.708 10.9898 682.743 10.9898C685.778 10.9898 688.238 8.52967 688.238 5.49491Z" fill="white"/>
<path fill-rule="evenodd" clip-rule="evenodd" d="M682.743 1.37373C685.019 1.37373 686.864 3.21884 686.864 5.49491C686.864 7.77098 685.019 9.61609 682.743 9.61609C680.467 9.61609 678.622 7.77098 678.622 5.49491C678.622 3.21884 680.467 1.37373 682.743 1.37373ZM682.743 -1.90735e-06C685.778 -1.90735e-06 688.238 2.46015 688.238 5.49491C688.238 8.52967 685.778 10.9898 682.743 10.9898C679.708 10.9898 677.248 8.52967 677.248 5.49491C677.248 2.46015 679.708 -1.90735e-06 682.743 -1.90735e-06Z" fill="#4B82EE"/>
<path d="M688.238 252.766C688.238 249.731 685.778 247.271 682.743 247.271C679.708 247.271 677.248 249.731 677.248 252.766C677.248 255.801 679.708 258.261 682.743 258.261C685.778 258.261 688.238 255.801 688.238 252.766Z" fill="white"/>
<path fill-rule="evenodd" clip-rule="evenodd" d="M682.743 248.645C685.019 248.645 686.864 250.49 686.864 252.766C686.864 255.042 685.019 256.887 682.743 256.887C680.467 256.887 678.622 255.042 678.622 252.766C678.622 250.49 680.467 248.645 682.743 248.645ZM682.743 247.271C685.778 247.271 688.238 249.731 688.238 252.766C688.238 255.801 685.778 258.261 682.743 258.261C679.708 258.261 677.248 255.801 677.248 252.766C677.248 249.731 679.708 247.271 682.743 247.271Z" fill="#4B82EE"/>
<path d="M10.9898 252.766C10.9898 249.731 8.52967 247.271 5.49491 247.271C2.46016 247.271 0 249.731 0 252.766C0 255.801 2.46016 258.261 5.49491 258.261C8.52967 258.261 10.9898 255.801 10.9898 252.766Z" fill="white"/>
<path fill-rule="evenodd" clip-rule="evenodd" d="M5.49491 248.645C7.77098 248.645 9.6161 250.49 9.6161 252.766C9.6161 255.042 7.77098 256.887 5.49491 256.887C3.21885 256.887 1.37373 255.042 1.37373 252.766C1.37373 250.49 3.21885 248.645 5.49491 248.645ZM5.49491 247.271C8.52967 247.271 10.9898 249.731 10.9898 252.766C10.9898 255.801 8.52967 258.261 5.49491 258.261C2.46016 258.261 0 255.801 0 252.766C0 249.731 2.46016 247.271 5.49491 247.271Z" fill="#4B82EE"/>
<circle cx="5.49491" cy="5.49491" r="4.80805" transform="matrix(1 0 0 -1 0 10.9898)" fill="white" stroke="#4B82EE" stroke-width="1.37373"/>
<g filter="url(#filter0_d_80_540)">
<rect x="476.684" y="126.072" width="93.4638" height="24.7639" rx="12.382" transform="rotate(-13.4057 476.684 126.072)" fill="#6B53FD"/>
</g>
<path d="M557.797 124.296C557.185 124.442 556.613 124.424 556.081 124.243C555.552 124.061 555.096 123.739 554.712 123.277C554.331 122.814 554.057 122.232 553.89 121.532C553.722 120.825 553.703 120.178 553.834 119.59C553.967 119.002 554.229 118.507 554.618 118.106C555.011 117.704 555.514 117.431 556.126 117.285C556.738 117.139 557.308 117.157 557.837 117.339C558.369 117.52 558.825 117.844 559.207 118.31C559.591 118.775 559.868 119.36 560.036 120.067C560.203 120.767 560.22 121.411 560.086 121.996C559.954 122.581 559.692 123.074 559.3 123.476C558.91 123.877 558.409 124.15 557.797 124.296ZM557.574 123.36C558.039 123.249 558.393 123.039 558.636 122.729C558.88 122.419 559.027 122.052 559.079 121.63C559.131 121.207 559.102 120.769 558.994 120.315C558.886 119.862 558.714 119.457 558.476 119.1C558.238 118.743 557.941 118.479 557.583 118.309C557.225 118.139 556.814 118.11 556.349 118.221C555.884 118.332 555.53 118.544 555.287 118.856C555.044 119.169 554.898 119.539 554.847 119.965C554.796 120.39 554.824 120.83 554.932 121.283C555.04 121.737 555.213 122.14 555.45 122.495C555.687 122.849 555.983 123.109 556.341 123.276C556.698 123.443 557.109 123.471 557.574 123.36Z" fill="white"/>
<path d="M552.062 119.952L551.189 120.44C551.093 120.298 550.97 120.167 550.82 120.047C550.672 119.924 550.49 119.837 550.272 119.786C550.055 119.735 549.795 119.746 549.491 119.818C549.076 119.917 548.753 120.095 548.522 120.352C548.293 120.606 548.214 120.878 548.283 121.17C548.345 121.429 548.488 121.611 548.712 121.716C548.936 121.821 549.26 121.876 549.684 121.881L550.75 121.888C551.391 121.891 551.897 122.008 552.267 122.241C552.635 122.47 552.876 122.822 552.989 123.296C553.082 123.684 553.053 124.058 552.902 124.418C552.754 124.776 552.503 125.091 552.147 125.363C551.792 125.634 551.351 125.832 550.824 125.958C550.132 126.123 549.524 126.109 548.999 125.917C548.474 125.725 548.083 125.355 547.825 124.806L548.755 124.323C548.936 124.666 549.179 124.897 549.485 125.017C549.793 125.137 550.161 125.146 550.588 125.044C551.073 124.928 551.434 124.733 551.671 124.459C551.909 124.181 551.994 123.897 551.925 123.605C551.868 123.37 551.739 123.192 551.536 123.073C551.333 122.95 551.051 122.89 550.691 122.892L549.497 122.896C548.841 122.897 548.33 122.778 547.965 122.538C547.603 122.295 547.365 121.939 547.254 121.471C547.163 121.088 547.189 120.724 547.334 120.379C547.482 120.032 547.722 119.731 548.056 119.474C548.393 119.216 548.8 119.031 549.277 118.917C549.948 118.757 550.51 118.779 550.963 118.982C551.418 119.184 551.785 119.508 552.062 119.952Z" fill="white"/>
<path d="M544.153 127.548C543.499 127.704 542.901 127.694 542.359 127.518C541.818 127.339 541.358 127.02 540.978 126.56C540.6 126.096 540.328 125.517 540.162 124.822C539.997 124.128 539.977 123.485 540.104 122.895C540.233 122.301 540.491 121.801 540.876 121.395C541.264 120.986 541.764 120.708 542.376 120.562C542.729 120.478 543.092 120.453 543.464 120.489C543.837 120.525 544.196 120.641 544.542 120.839C544.887 121.034 545.194 121.327 545.465 121.72C545.736 122.113 545.947 122.625 546.098 123.258L546.203 123.7L540.976 124.946L540.761 124.045L544.929 123.052C544.838 122.669 544.68 122.346 544.455 122.082C544.233 121.818 543.962 121.632 543.641 121.525C543.323 121.417 542.976 121.408 542.599 121.498C542.184 121.597 541.849 121.785 541.595 122.064C541.343 122.338 541.175 122.658 541.091 123.024C541.007 123.389 541.01 123.759 541.099 124.132L541.242 124.733C541.364 125.245 541.556 125.658 541.818 125.972C542.081 126.283 542.394 126.493 542.756 126.602C543.118 126.709 543.509 126.712 543.93 126.612C544.203 126.547 544.442 126.45 544.644 126.32C544.849 126.188 545.014 126.024 545.138 125.829C545.262 125.632 545.34 125.405 545.373 125.148L546.447 125.191C546.422 125.558 546.316 125.9 546.127 126.219C545.938 126.535 545.677 126.808 545.343 127.04C545.009 127.269 544.612 127.439 544.153 127.548Z" fill="white"/>
<path d="M536.856 129.138L535.24 122.356L536.247 122.116L536.491 123.14L536.561 123.124C536.605 122.759 536.764 122.433 537.038 122.147C537.312 121.861 537.652 121.669 538.058 121.572C538.134 121.554 538.231 121.533 538.346 121.508C538.462 121.484 538.549 121.468 538.61 121.46L538.862 122.519C538.825 122.519 538.741 122.525 538.61 122.537C538.481 122.546 538.348 122.567 538.21 122.6C537.88 122.679 537.602 122.818 537.376 123.018C537.152 123.215 536.994 123.451 536.901 123.728C536.811 124.002 536.802 124.292 536.875 124.598L537.898 128.889L536.856 129.138Z" fill="white"/>
<path d="M532.657 132.975C532.154 133.095 531.706 133.134 531.313 133.091C530.92 133.05 530.579 132.954 530.288 132.803C530 132.654 529.758 132.478 529.56 132.276L530.251 131.496C530.375 131.597 530.528 131.71 530.71 131.834C530.893 131.962 531.123 132.055 531.402 132.113C531.683 132.173 532.029 132.155 532.438 132.057C532.986 131.927 533.406 131.687 533.699 131.337C533.992 130.987 534.071 130.529 533.936 129.964L533.608 128.587L533.52 128.608C533.473 128.75 533.4 128.929 533.302 129.145C533.207 129.357 533.045 129.566 532.817 129.769C532.591 129.969 532.257 130.122 531.815 130.227C531.268 130.358 530.745 130.345 530.248 130.19C529.754 130.034 529.321 129.739 528.95 129.305C528.582 128.87 528.314 128.3 528.145 127.593C527.98 126.898 527.958 126.264 528.079 125.691C528.2 125.115 528.445 124.634 528.813 124.247C529.181 123.858 529.65 123.595 530.221 123.459C530.662 123.354 531.03 123.344 531.324 123.429C531.621 123.511 531.86 123.628 532.043 123.781C532.227 123.929 532.372 124.054 532.477 124.153L532.583 124.128L532.326 123.051L533.333 122.811L534.995 129.787C535.134 130.369 535.115 130.875 534.937 131.303C534.762 131.733 534.473 132.087 534.07 132.364C533.669 132.642 533.199 132.846 532.657 132.975ZM531.734 129.258C532.152 129.158 532.482 128.978 532.725 128.718C532.968 128.458 533.121 128.13 533.186 127.736C533.25 127.341 533.223 126.893 533.104 126.393C532.987 125.904 532.811 125.49 532.575 125.152C532.338 124.813 532.051 124.572 531.712 124.429C531.373 124.286 530.991 124.264 530.568 124.365C530.126 124.471 529.785 124.67 529.544 124.964C529.306 125.257 529.158 125.61 529.101 126.022C529.046 126.433 529.074 126.868 529.183 127.327C529.295 127.798 529.468 128.197 529.702 128.524C529.937 128.847 530.225 129.077 530.566 129.214C530.909 129.347 531.298 129.361 531.734 129.258Z" fill="white"/>
<path d="M524.65 132.196C524.038 132.342 523.466 132.325 522.934 132.143C522.406 131.961 521.949 131.639 521.565 131.177C521.185 130.714 520.911 130.132 520.744 129.432C520.575 128.725 520.556 128.078 520.687 127.49C520.82 126.902 521.082 126.407 521.472 126.006C521.864 125.605 522.367 125.331 522.979 125.185C523.591 125.039 524.162 125.057 524.69 125.239C525.222 125.42 525.678 125.744 526.06 126.21C526.445 126.675 526.721 127.261 526.889 127.967C527.056 128.668 527.073 129.311 526.939 129.896C526.808 130.481 526.546 130.975 526.153 131.376C525.763 131.777 525.262 132.05 524.65 132.196ZM524.427 131.26C524.892 131.149 525.246 130.939 525.49 130.629C525.733 130.319 525.881 129.953 525.932 129.53C525.984 129.107 525.956 128.669 525.848 128.215C525.739 127.762 525.567 127.357 525.329 127C525.092 126.643 524.794 126.379 524.436 126.209C524.078 126.04 523.667 126.01 523.202 126.121C522.737 126.232 522.383 126.444 522.14 126.757C521.898 127.07 521.751 127.439 521.7 127.865C521.649 128.291 521.678 128.73 521.786 129.184C521.894 129.637 522.066 130.041 522.303 130.395C522.54 130.749 522.837 131.009 523.194 131.176C523.551 131.343 523.962 131.371 524.427 131.26Z" fill="white"/>
<path d="M517.442 133.765L515.825 126.983L516.832 126.743L517.076 127.768L517.147 127.751C517.19 127.386 517.349 127.06 517.623 126.774C517.897 126.488 518.237 126.296 518.643 126.2C518.72 126.181 518.816 126.16 518.931 126.136C519.047 126.111 519.135 126.095 519.195 126.087L519.448 127.146C519.41 127.146 519.326 127.152 519.195 127.165C519.067 127.173 518.933 127.194 518.795 127.227C518.465 127.306 518.188 127.445 517.961 127.645C517.738 127.842 517.579 128.079 517.487 128.356C517.397 128.629 517.388 128.919 517.461 129.225L518.484 133.517L517.442 133.765Z" fill="white"/>
<path d="M510.471 138.114L508.249 128.789L509.256 128.549L509.512 129.626L509.636 129.597C509.684 129.461 509.755 129.286 509.846 129.071C509.941 128.852 510.099 128.641 510.32 128.435C510.544 128.226 510.877 128.069 511.318 127.964C511.889 127.828 512.427 127.851 512.931 128.033C513.434 128.214 513.871 128.538 514.24 129.004C514.609 129.469 514.878 130.058 515.048 130.771C515.219 131.489 515.246 132.141 515.127 132.726C515.007 133.308 514.766 133.795 514.402 134.186C514.037 134.575 513.572 134.837 513.007 134.971C512.572 135.075 512.206 135.086 511.909 135.004C511.612 134.92 511.371 134.801 511.185 134.65C510.999 134.495 510.853 134.365 510.747 134.259L510.659 134.28L511.513 137.866L510.471 138.114ZM510.081 131.936C510.203 132.448 510.386 132.882 510.63 133.238C510.872 133.59 511.164 133.843 511.505 133.995C511.846 134.144 512.225 134.169 512.643 134.069C513.078 133.965 513.415 133.764 513.651 133.465C513.89 133.162 514.037 132.797 514.09 132.371C514.147 131.941 514.117 131.484 514.002 131.001C513.888 130.525 513.712 130.112 513.474 129.765C513.238 129.414 512.946 129.161 512.598 129.008C512.253 128.85 511.859 128.824 511.418 128.93C510.994 129.031 510.664 129.223 510.426 129.507C510.188 129.787 510.041 130.136 509.985 130.554C509.929 130.969 509.961 131.43 510.081 131.936Z" fill="white"/>
<path d="M499.165 133.81L500.137 137.889L499.096 138.138L497.479 131.356L498.486 131.116L498.738 132.176L498.827 132.155C498.904 131.772 499.079 131.438 499.353 131.152C499.626 130.863 500.019 130.657 500.531 130.535C500.99 130.426 501.414 130.424 501.804 130.53C502.192 130.634 502.528 130.853 502.809 131.187C503.09 131.518 503.3 131.972 503.437 132.549L504.464 136.858L503.422 137.106L502.412 132.868C502.285 132.335 502.048 131.953 501.7 131.722C501.352 131.487 500.937 131.428 500.454 131.543C500.121 131.622 499.841 131.765 499.614 131.972C499.389 132.178 499.235 132.437 499.15 132.749C499.066 133.062 499.071 133.415 499.165 133.81Z" fill="white"/>
<path d="M491.806 139.875L489.651 130.833L495.108 129.532L495.34 130.503L490.977 131.543L491.706 134.598L495.785 133.626L496.017 134.597L491.937 135.57L492.67 138.643L497.102 137.586L497.334 138.557L491.806 139.875Z" fill="white"/>
<defs>
<filter id="filter0_d_80_540" x="471.226" y="102.141" width="107.574" height="56.674" filterUnits="userSpaceOnUse" color-interpolation-filters="sRGB">
<feFlood flood-opacity="0" result="BackgroundImageFix"/>
<feColorMatrix in="SourceAlpha" type="matrix" values="0 0 0 0 0 0 0 0 0 0 0 0 0 0 0 0 0 0 127 0" result="hardAlpha"/>
<feOffset dy="3.19534"/>
<feGaussianBlur stdDeviation="3.99418"/>
<feComposite in2="hardAlpha" operator="out"/>
<feColorMatrix type="matrix" values="0 0 0 0 0 0 0 0 0 0 0 0 0 0 0 0 0 0 0.1 0"/>
<feBlend mode="normal" in2="BackgroundImageFix" result="effect1_dropShadow_80_540"/>
<feBlend mode="normal" in="SourceGraphic" in2="effect1_dropShadow_80_540" result="shape"/>
</filter>
</defs>
</svg>
