<svg width="81" height="81" viewBox="0 0 81 81" fill="none" xmlns="http://www.w3.org/2000/svg">
<rect x="0.817732" y="1.01158" width="78.7507" height="78.7507" rx="10.6545" fill="url(#paint0_radial_570_2654)"/>
<rect x="0.817732" y="1.01158" width="78.7507" height="78.7507" rx="10.6545" stroke="#282828" stroke-width="0.926479"/>
<path d="M48.3982 14.8236C48.8542 15.3894 49.0867 16.153 49.5499 17.6783L59.7011 51.0233C55.8884 49.0444 51.7959 47.6589 47.5652 46.9147L40.9567 24.5806C40.9046 24.4021 40.7959 24.2453 40.647 24.1338C40.4981 24.0224 40.317 23.9622 40.131 23.9624C39.945 23.9626 39.7641 24.0232 39.6155 24.135C39.4669 24.2468 39.3585 24.4039 39.3067 24.5825L32.7775 46.9035C28.5283 47.6446 24.4176 49.0322 20.5886 51.0181L30.7877 17.6713C31.2546 16.1478 31.4871 15.3856 31.9427 14.8199C32.3454 14.3218 32.8687 13.9349 33.4628 13.6958C34.1346 13.4263 34.9328 13.4263 36.5261 13.4263H43.8119C45.4066 13.4263 46.2049 13.4263 46.8789 13.6977C47.4735 13.9368 47.9963 14.3244 48.3982 14.8236Z" fill="url(#paint1_linear_570_2654)"/>
<path d="M49.6122 52.6092C47.9387 54.0413 44.5984 55.0172 40.7514 55.0172C36.0311 55.0172 32.0725 53.5467 31.0229 51.5691C30.6479 52.7025 30.5636 53.9991 30.5636 54.8288C30.5636 54.8288 30.3165 58.8952 33.1454 61.7241C33.1454 61.375 33.2142 61.0293 33.3478 60.7067C33.4815 60.3842 33.6773 60.0911 33.9242 59.8442C34.1711 59.5974 34.4642 59.4016 34.7868 59.268C35.1093 59.1345 35.4551 59.0657 35.8042 59.0658C38.3214 59.0658 38.32 61.261 38.3181 63.0446V63.2021C38.3181 65.9082 39.9714 68.2266 42.3226 69.2044C41.9603 68.4599 41.7724 67.6427 41.7733 66.8147C41.7733 64.2328 43.2873 63.2733 45.0489 62.1563C46.45 61.2685 48.0062 60.2813 49.0773 58.3022C49.6554 57.2358 49.9575 56.0418 49.9562 54.8288C49.9569 54.0756 49.8408 53.3269 49.6122 52.6092Z" fill="#FF5D01"/>
<path d="M49.6122 52.6092C47.9387 54.0413 44.5984 55.0172 40.7514 55.0172C36.0311 55.0172 32.0725 53.5467 31.0229 51.5691C30.6479 52.7025 30.5636 53.9991 30.5636 54.8288C30.5636 54.8288 30.3165 58.8952 33.1454 61.7241C33.1454 61.375 33.2142 61.0293 33.3478 60.7067C33.4815 60.3842 33.6773 60.0911 33.9242 59.8442C34.1711 59.5974 34.4642 59.4016 34.7868 59.268C35.1093 59.1345 35.4551 59.0657 35.8042 59.0658C38.3214 59.0658 38.32 61.261 38.3181 63.0446V63.2021C38.3181 65.9082 39.9714 68.2266 42.3226 69.2044C41.9603 68.4599 41.7724 67.6427 41.7733 66.8147C41.7733 64.2328 43.2873 63.2733 45.0489 62.1563C46.45 61.2685 48.0062 60.2813 49.0773 58.3022C49.6554 57.2358 49.9575 56.0418 49.9562 54.8288C49.9569 54.0756 49.8408 53.3269 49.6122 52.6092Z" fill="url(#paint2_linear_570_2654)"/>
<defs>
<radialGradient id="paint0_radial_570_2654" cx="0" cy="0" r="1" gradientUnits="userSpaceOnUse" gradientTransform="translate(1.03076 16.0177) rotate(58.6197) scale(75.2086 85.7872)">
<stop stop-color="#1F1F20"/>
<stop offset="1" stop-color="#0D0D0E"/>
</radialGradient>
<linearGradient id="paint1_linear_570_2654" x1="51.5836" y1="11.6578" x2="40.1442" y2="51.0229" gradientUnits="userSpaceOnUse">
<stop stop-color="white"/>
<stop offset="1" stop-color="white"/>
</linearGradient>
<linearGradient id="paint2_linear_570_2654" x1="57.1468" y1="40.9707" x2="47.2396" y2="61.711" gradientUnits="userSpaceOnUse">
<stop stop-color="#FF1639"/>
<stop offset="1" stop-color="#FF1639" stop-opacity="0"/>
</linearGradient>
</defs>
</svg>
