<svg width="209" height="48" viewBox="0 0 209 48" fill="none" xmlns="http://www.w3.org/2000/svg">
<path fill-rule="evenodd" clip-rule="evenodd" d="M9.04846 24.8133C9.86808 24.8247 10.6818 24.6718 11.443 24.3635C12.1391 24.0772 12.7679 23.6454 13.2883 23.0963C13.8011 22.5477 14.1947 21.8894 14.4748 21.1214C14.7562 20.3548 14.8942 19.499 14.8942 18.5623C14.9056 17.6903 14.7636 16.8233 14.4748 16.0019C14.2156 15.27 13.8119 14.5994 13.2883 14.0311C12.7695 13.4797 12.1403 13.0472 11.443 12.7625C10.6816 12.4549 9.86802 12.3021 9.04846 12.3127C8.63257 12.3126 8.21731 12.3456 7.80653 12.4115C7.3912 12.4773 7.02729 12.5349 6.71072 12.587C6.32109 12.6912 5.945 12.7941 5.57702 12.8983V24.2263C5.945 24.3305 6.32109 24.4224 6.71207 24.5006C7.05028 24.6048 7.42503 24.6816 7.82277 24.7337C8.22592 24.7886 8.63448 24.8133 9.04846 24.8133ZM5.57837 8.603C5.94635 8.49877 6.32244 8.39317 6.71342 8.28757C7.05164 8.21077 7.42638 8.14631 7.82412 8.09283C8.22727 8.04208 8.63584 8.01465 9.04981 8.01465C10.657 8.01465 12.1194 8.28894 13.4358 8.83614C14.7033 9.35046 15.8582 10.1134 16.8342 11.0812C17.7812 12.0329 18.5198 13.152 19.0434 14.4412C19.5683 15.7317 19.8321 17.1045 19.8321 18.5623C19.8403 19.9758 19.5722 21.3769 19.0434 22.6848C18.5382 23.9441 17.7867 25.0866 16.8342 26.0435C15.8587 27.012 14.7037 27.775 13.4358 28.2885C12.1194 28.8371 10.657 29.1113 9.04981 29.1113C8.0027 29.1113 6.9867 29.0181 5.99911 28.8371C5.10566 28.6766 4.22141 28.4674 3.35021 28.2103C2.49137 27.984 1.64919 27.6972 0.829834 27.3518L0.829834 1.15477C0.829834 1.06014 0.89883 0.984711 0.988119 0.984711H5.41738C5.43894 0.985063 5.4602 0.989763 5.47995 0.998536C5.49969 1.00731 5.51751 1.01998 5.53237 1.03581C5.54723 1.05164 5.55883 1.07031 5.5665 1.09074C5.57416 1.11116 5.57774 1.13293 5.57702 1.15477V8.60163L5.57837 8.603Z" fill="white"/>
<path fill-rule="evenodd" clip-rule="evenodd" d="M80.6391 26.7374C80.6582 26.7736 80.6646 26.8153 80.6572 26.8557C80.6498 26.896 80.6291 26.9327 80.5985 26.9596C80.0653 27.38 79.4899 27.7422 78.8817 28.0402C78.1882 28.3764 77.4671 28.6508 76.7266 28.8604C75.9217 29.0976 74.995 29.2114 73.9492 29.2114C72.3393 29.2114 70.8796 28.9385 69.5632 28.3913C68.2965 27.8754 67.1419 27.1127 66.1649 26.1463C65.2119 25.1897 64.4604 24.0472 63.9556 22.7877C63.4283 21.4794 63.1612 20.0784 63.1696 18.6652C63.1613 17.2524 63.4284 15.8518 63.9556 14.544C64.4614 13.2846 65.2128 12.1418 66.1649 11.184C67.1426 10.2184 68.297 9.45578 69.5632 8.93898C70.8796 8.39041 72.3407 8.11612 73.9492 8.11612C74.8609 8.10585 75.7698 8.21838 76.6522 8.45075C77.4572 8.67018 78.1525 8.91155 78.7356 9.17212C79.3444 9.48618 79.8991 9.82081 80.4024 10.1788C80.4362 10.204 80.46 10.2407 80.4694 10.2822C80.4788 10.3238 80.4733 10.3673 80.4538 10.405L78.7816 13.6224C78.7722 13.6425 78.7586 13.6603 78.7417 13.6746C78.7248 13.6888 78.705 13.6992 78.6838 13.7049C78.6626 13.7107 78.6403 13.7117 78.6187 13.7078C78.597 13.704 78.5765 13.6954 78.5584 13.6828C78.2193 13.4558 77.8643 13.2542 77.4964 13.0793C77.0395 12.8846 76.5675 12.7282 76.0854 12.6117C75.5059 12.4742 74.9122 12.4083 74.3172 12.4156C73.4378 12.4156 72.6221 12.5842 71.8685 12.9244C71.1317 13.2499 70.4617 13.7128 69.8933 14.2889C69.3331 14.8618 68.887 15.5389 68.5797 16.283C68.2632 17.0361 68.1011 17.8466 68.1035 18.6652C68.111 20.305 68.7538 21.8762 69.8933 23.04C70.4534 23.616 71.1123 24.07 71.8685 24.4073C72.6405 24.749 73.4749 24.9219 74.3172 24.9148C75.4709 24.9284 76.6109 24.6608 77.6412 24.1344C78.0443 23.9314 78.4082 23.7093 78.737 23.4652C78.7552 23.4512 78.7761 23.4415 78.7984 23.4367C78.8207 23.4319 78.8438 23.4322 78.866 23.4374C78.8882 23.4426 78.909 23.4527 78.9269 23.467C78.9448 23.4813 78.9594 23.4994 78.9697 23.52L80.6391 26.7374Z" fill="white"/>
<path fill-rule="evenodd" clip-rule="evenodd" d="M96.4108 18.6651C96.4108 17.7271 96.2715 16.8768 95.9901 16.1061C95.7364 15.3828 95.3524 14.7137 94.8577 14.1326C94.3937 13.5933 93.8207 13.1615 93.1775 12.8667C92.5301 12.565 91.8255 12.4106 91.113 12.4142C90.3825 12.4142 89.6925 12.565 89.0485 12.8667C88.4056 13.1621 87.8327 13.5937 87.3683 14.1326C86.8921 14.6811 86.5146 15.3394 86.2359 16.1061C85.9472 16.927 85.8052 17.7936 85.8166 18.6651C85.8166 19.6032 85.9545 20.4576 86.2359 21.2229C86.4886 21.947 86.8726 22.6168 87.3683 23.1977C87.8344 23.7394 88.4101 24.1732 89.0563 24.4694C89.7024 24.7657 90.4039 24.9176 91.113 24.9147C91.8435 24.9147 92.5322 24.7639 93.1775 24.4663C93.8209 24.1712 94.3939 23.7389 94.8577 23.1991C95.3312 22.6505 95.7114 21.9922 95.9901 21.2242C96.2715 20.4562 96.4108 19.6032 96.4108 18.6651ZM80.8827 18.6651C80.8735 17.2525 81.1397 15.852 81.666 14.544C82.1909 13.2548 82.9106 12.1358 83.8251 11.184C84.7477 10.2285 85.8463 9.46579 87.0585 8.93897C88.3018 8.39039 89.6519 8.11611 91.113 8.11611C92.4746 8.10417 93.8247 8.36943 95.0833 8.89618C96.3419 9.42292 97.4834 10.2004 98.4401 11.1826C99.3625 12.1501 100.089 13.2917 100.578 14.5426C101.093 15.8538 101.353 17.2537 101.343 18.6651C101.353 20.077 101.093 21.4774 100.578 22.789C100.089 24.0391 99.3625 25.1798 98.4401 26.1463C97.5136 27.1065 96.4075 27.8697 95.1865 28.3913C93.899 28.9452 92.5129 29.2249 91.1144 29.2128C89.7579 29.2279 88.4126 28.9639 87.1597 28.4368C85.9068 27.9097 84.7724 27.1305 83.8251 26.1463C82.8997 25.1779 82.1667 24.0381 81.666 22.789C81.139 21.4802 80.8737 20.0787 80.8827 18.6651Z" fill="white"/>
<path fill-rule="evenodd" clip-rule="evenodd" d="M120.649 12.4114C120.233 12.4114 119.837 12.4581 119.461 12.5486C119.082 12.6432 118.759 12.7255 118.491 12.7995C118.153 12.9435 117.835 13.0917 117.542 13.2398V28.2569C117.543 28.3008 117.527 28.3433 117.497 28.3751C117.467 28.4069 117.426 28.4255 117.383 28.427H112.955C112.933 28.4266 112.912 28.4219 112.892 28.4132C112.872 28.4045 112.854 28.3918 112.839 28.376C112.824 28.3602 112.812 28.3416 112.804 28.3212C112.796 28.3007 112.792 28.2789 112.793 28.2569V9.87292C113.513 9.5195 114.258 9.21929 115.022 8.97463C115.812 8.72468 116.616 8.52227 117.43 8.36846C118.309 8.19978 119.259 8.11612 120.285 8.11612C121.184 8.11612 122.005 8.19429 122.75 8.34926C123.492 8.5056 124.143 8.688 124.706 8.89646C125.311 9.11315 125.865 9.35178 126.37 9.61098C126.405 9.63112 126.432 9.66301 126.447 9.70124C126.462 9.73947 126.463 9.7817 126.451 9.8208L125.279 13.6087C125.247 13.7143 125.131 13.7595 125.045 13.7033C124.701 13.4828 124.343 13.2858 123.973 13.1136C123.492 12.9131 122.997 12.749 122.493 12.6226C121.889 12.4752 121.269 12.4043 120.649 12.4114Z" fill="white"/>
<path fill-rule="evenodd" clip-rule="evenodd" d="M129 8.8951H133.428C133.517 8.8951 133.587 8.97464 133.587 9.0679V28.2569C133.588 28.2788 133.584 28.3005 133.577 28.321C133.569 28.3414 133.557 28.3601 133.543 28.3759C133.528 28.3917 133.51 28.4044 133.49 28.4132C133.47 28.4219 133.449 28.4266 133.428 28.427H129.071C129.04 28.4263 129.009 28.4192 128.98 28.4063C128.951 28.3933 128.925 28.3747 128.904 28.3515C128.882 28.3282 128.865 28.3009 128.854 28.271C128.843 28.2411 128.838 28.2093 128.839 28.1774V9.0679C128.839 8.97464 128.908 8.8951 129 8.8951ZM128.291 3.23247C128.291 2.45076 128.569 1.76778 129.13 1.17944C129.69 0.593842 130.385 0.301727 131.213 0.301727C132.038 0.301727 132.735 0.593842 133.295 1.17944C133.856 1.76778 134.138 2.45213 134.138 3.23247C134.138 4.01144 133.856 4.69716 133.295 5.28276C133.028 5.56844 132.705 5.79426 132.346 5.94567C131.988 6.09707 131.602 6.17071 131.214 6.16184C130.385 6.16184 129.69 5.86973 129.131 5.28413C128.569 4.69716 128.291 4.01144 128.291 3.23247Z" fill="white"/>
<path fill-rule="evenodd" clip-rule="evenodd" d="M145.92 12.3127C145.503 12.3127 145.091 12.3456 144.675 12.4087C144.261 12.4745 143.895 12.5321 143.58 12.587C143.191 12.6885 142.811 12.7927 142.449 12.8983V24.2263C142.811 24.3305 143.191 24.4197 143.578 24.4979C143.919 24.6048 144.294 24.683 144.693 24.731C145.096 24.7872 145.503 24.8133 145.92 24.8133C146.739 24.8229 147.551 24.6701 148.312 24.3634C149.029 24.0645 149.646 23.6407 150.157 23.0935C150.67 22.5449 151.064 21.888 151.344 21.1187C151.632 20.2986 151.775 19.433 151.764 18.5623C151.764 17.6229 151.622 16.7726 151.345 16.0032C151.086 15.2696 150.682 14.5976 150.157 14.0284C149.638 13.478 149.009 13.046 148.312 12.7612C147.552 12.4535 146.739 12.3011 145.92 12.3127ZM142.285 35.7491H137.858C137.815 35.7476 137.773 35.7289 137.743 35.6969C137.712 35.6648 137.696 35.622 137.696 35.5776V9.89076C137.696 9.81945 137.738 9.75636 137.8 9.72893C138.591 9.40186 139.399 9.11668 140.219 8.87453C141.104 8.62701 142.001 8.4247 142.906 8.26836C143.866 8.09831 144.87 8.01465 145.92 8.01465C147.527 8.01465 148.987 8.28893 150.303 8.83476C151.616 9.38333 152.752 10.1308 153.703 11.0798C154.655 12.038 155.406 13.1808 155.912 14.4398C156.436 15.7289 156.697 17.1045 156.697 18.5623C156.706 19.9746 156.439 21.3746 155.912 22.6821C155.407 23.9419 154.655 25.0853 153.703 26.0435C152.726 27.0111 151.571 27.7744 150.303 28.2899C148.987 28.8384 147.527 29.1127 145.92 29.1127C145.503 29.1127 145.091 29.077 144.675 29.0112C144.261 28.9481 143.895 28.8878 143.58 28.8371C143.202 28.7352 142.825 28.6314 142.449 28.5257V35.579C142.449 35.6235 142.433 35.6665 142.402 35.6986C142.372 35.7307 142.33 35.7493 142.286 35.7504" fill="white"/>
<path fill-rule="evenodd" clip-rule="evenodd" d="M160.302 28.427C160.259 28.4259 160.217 28.4074 160.187 28.3756C160.157 28.3437 160.14 28.3011 160.141 28.257V5.18404L160.128 1.25626C160.128 1.16026 160.203 1.08209 160.293 1.08209H164.73C164.821 1.08209 164.892 1.15889 164.892 1.25626V28.2556C164.893 28.2776 164.889 28.2994 164.881 28.3198C164.873 28.3403 164.861 28.3589 164.846 28.3747C164.831 28.3905 164.813 28.4031 164.793 28.4119C164.773 28.4206 164.752 28.4253 164.73 28.4256" fill="white"/>
<path fill-rule="evenodd" clip-rule="evenodd" d="M182.169 16.8041C181.974 15.5287 181.462 14.4604 180.634 13.6018C180.245 13.185 179.774 12.855 179.252 12.6328C178.73 12.4106 178.168 12.3011 177.601 12.3113C176.408 12.3113 175.388 12.7406 174.549 13.6005C173.711 14.4604 173.192 15.5287 172.996 16.8041H182.169ZM184.846 20.9061H172.995C173.389 21.9818 174.058 22.9321 174.934 23.6599C175.836 24.4279 177.15 24.8119 178.878 24.8119C179.544 24.8205 180.208 24.7421 180.854 24.5788C181.37 24.4485 181.871 24.2647 182.35 24.0302C182.775 23.8272 183.151 23.6051 183.484 23.3596C183.502 23.3457 183.523 23.3362 183.546 23.3316C183.568 23.327 183.591 23.3274 183.613 23.3329C183.636 23.3384 183.656 23.3488 183.674 23.3634C183.692 23.378 183.706 23.3963 183.716 23.4172L185.388 26.6304C185.408 26.6676 185.414 26.7105 185.405 26.7516C185.396 26.7927 185.374 26.8294 185.341 26.8553C184.785 27.277 184.188 27.6392 183.558 27.936C182.847 28.2792 182.106 28.5547 181.345 28.7589C180.421 29.0025 179.469 29.1206 178.515 29.11C176.907 29.11 175.452 28.8412 174.146 28.3104C172.897 27.81 171.76 27.0585 170.805 26.101C169.871 25.1503 169.143 24.0131 168.667 22.7616C168.167 21.4725 167.916 20.0722 167.916 18.5623C167.916 17.0002 168.153 15.5726 168.631 14.2848C169.074 13.0465 169.758 11.9107 170.641 10.944C171.501 10.0085 172.548 9.26895 173.712 8.77442C174.889 8.26699 176.188 8.01465 177.601 8.01465C179.015 8.01465 180.31 8.26836 181.492 8.77442C182.673 9.28185 183.696 10.0073 184.562 10.944C185.444 11.9113 186.128 13.047 186.572 14.2848C187.039 15.5534 187.277 16.9522 187.284 18.4841C187.283 18.5334 187.264 18.5806 187.23 18.6158L184.957 20.8594C184.927 20.8887 184.887 20.9053 184.846 20.9061Z" fill="white"/>
<path fill-rule="evenodd" clip-rule="evenodd" d="M208.514 26.7442C208.516 27.9068 208.28 29.057 207.82 30.1221C207.347 31.2156 206.65 32.1946 205.775 32.9938C204.872 33.8291 203.782 34.4928 202.503 34.9879C201.225 35.4816 199.757 35.7285 198.099 35.7285C197.007 35.7285 196.018 35.605 195.14 35.3582C194.377 35.1519 193.632 34.8841 192.912 34.5573C192.223 34.2443 191.573 33.8508 190.974 33.3847L192.722 30.0233C192.732 30.0035 192.745 29.9859 192.762 29.9718C192.778 29.9577 192.798 29.9474 192.819 29.9415C192.84 29.9357 192.861 29.9344 192.883 29.9379C192.904 29.9414 192.925 29.9495 192.943 29.9616C193.346 30.2098 193.799 30.4416 194.301 30.6514C194.788 30.8599 195.348 31.0423 195.98 31.2C196.616 31.355 197.319 31.4332 198.099 31.4332C199.343 31.4332 200.335 31.2124 201.078 30.7694C201.823 30.3264 202.386 29.83 202.778 29.2828C203.238 28.6574 203.567 27.9429 203.763 27.1337V26.7442C203.326 26.8224 202.886 26.8882 202.447 26.9417C202.035 26.9925 201.594 27.0377 201.134 27.0761C200.669 27.1159 200.205 27.1337 199.745 27.1337C198.185 27.1337 196.808 26.9143 195.616 26.4713C194.421 26.0284 193.411 25.4153 192.583 24.635C191.76 23.8628 191.117 22.9152 190.7 21.8606C190.267 20.7413 190.05 19.5479 190.061 18.3456V8.16688C190.061 8.07088 190.134 7.99133 190.224 7.99133H194.651C194.741 7.99133 194.814 8.07088 194.814 8.16688V18.3456C194.814 19.621 195.245 20.6908 196.11 21.5479C196.974 22.4064 198.185 22.837 199.745 22.837C200.256 22.837 200.746 22.8041 201.225 22.741C201.699 22.6752 202.131 22.6039 202.522 22.5257C202.959 22.4476 203.375 22.3557 203.763 22.2514V8.16688C203.763 8.07088 203.836 7.99133 203.925 7.99133H208.353C208.441 7.99133 208.514 8.07088 208.514 8.16688V26.7442Z" fill="white"/>
<path fill-rule="evenodd" clip-rule="evenodd" d="M42.3072 28.0718V10.128C42.3072 9.97715 42.3978 9.84138 42.5304 9.79338C43.3812 9.48238 44.2452 9.20966 45.1198 8.97601C46.0222 8.74286 46.9759 8.54401 47.9865 8.37258C49.0071 8.20328 50.0396 8.11798 51.0737 8.11749C52.6295 8.11749 54.0135 8.33829 55.2175 8.78126C56.4256 9.22561 57.4335 9.83726 58.252 10.6176C59.0639 11.3942 59.6995 12.3404 60.1149 13.3906C60.5471 14.5092 60.7629 15.7016 60.7507 16.9029V28.0718C60.752 28.1164 60.7446 28.1609 60.7289 28.2027C60.7132 28.2444 60.6895 28.2826 60.6592 28.3151C60.6289 28.3476 60.5926 28.3737 60.5524 28.392C60.5122 28.4102 60.4688 28.4202 60.4247 28.4215H56.3309C56.2417 28.419 56.1571 28.3808 56.0955 28.3153C56.0339 28.2498 56.0004 28.1623 56.0022 28.0718V16.9029C56.0022 15.6288 55.5706 14.5591 54.7075 13.7033C53.8417 12.8434 52.6309 12.4142 51.0737 12.4142C50.5637 12.4142 50.0699 12.4608 49.5923 12.5513C49.1534 12.6378 48.7142 12.7229 48.2747 12.8064C47.9256 12.923 47.5942 13.0396 47.2736 13.1589C47.2084 13.1843 47.1525 13.2297 47.1138 13.2886C47.075 13.3475 47.0552 13.4172 47.0571 13.488V28.0731C47.0589 28.1639 47.0252 28.2516 46.9633 28.3171C46.9014 28.3827 46.8165 28.4207 46.727 28.4229H42.6346C42.5456 28.42 42.4613 28.3817 42.4 28.3162C42.3387 28.2507 42.3054 28.162 42.3072 28.0718Z" fill="white"/>
<path fill-rule="evenodd" clip-rule="evenodd" d="M34.5025 24.1961C34.1115 24.3004 33.6853 24.3922 33.2227 24.4704C32.833 24.5472 32.3879 24.6199 31.8914 24.6857C31.3633 24.7528 30.8314 24.7853 30.2991 24.7831C28.7406 24.7831 27.6516 24.5294 27.0293 24.0206C26.4097 23.5132 26.0985 22.9234 26.0985 22.2446C26.0985 21.5671 26.4097 20.9746 27.0293 20.4645C27.6516 19.957 28.7406 19.7033 30.2991 19.7033C30.8606 19.7033 31.3828 19.7225 31.8712 19.7609C32.3595 19.8021 32.8087 19.8473 33.2227 19.8981C33.6853 19.9529 34.1115 20.016 34.5025 20.0956V24.1961ZM39.2524 16.5778C39.2524 13.9228 38.4975 11.8286 36.985 10.2898C35.4765 8.75384 33.247 7.98584 30.2991 7.98584C29.2047 7.98584 28.2347 8.0887 27.3945 8.29853C26.6377 8.47932 25.898 8.72712 25.184 9.0391C24.5853 9.31944 24.0141 9.65648 23.478 10.0457C23.4063 10.0951 23.3901 10.1911 23.428 10.272L25.1069 13.5004C25.1515 13.5826 25.2448 13.6128 25.3233 13.5689C25.7486 13.3291 26.1903 13.1206 26.6451 12.9449C27.1091 12.7886 27.6516 12.6405 28.2725 12.4965C28.9382 12.3489 29.6178 12.2763 30.2991 12.2798C31.7616 12.2798 32.8263 12.5952 33.4973 13.2192C34.167 13.8446 34.5025 14.7045 34.5025 15.7975C34.1031 15.7151 33.7005 15.6497 33.2957 15.6014C32.8468 15.545 32.3966 15.4993 31.9456 15.4642C31.4315 15.4286 30.8849 15.4094 30.2991 15.4094C28.6919 15.4094 27.3147 15.5822 26.1716 15.9333C25.027 16.2857 24.0827 16.7602 23.3387 17.3609C22.6218 17.9254 22.0569 18.6641 21.6963 19.5086C21.3358 20.3739 21.1553 21.3053 21.166 22.2446C21.166 23.206 21.3418 24.1125 21.6963 24.9573C22.048 25.8062 22.5946 26.5276 23.3387 27.1241C24.0827 27.7262 25.027 28.2007 26.1716 28.5532C27.3147 28.9042 28.6919 29.0812 30.2991 29.0812C31.4937 29.0812 32.6125 29.014 33.661 28.885C34.553 28.7741 35.441 28.6323 36.3234 28.4599L39.2524 25.6828V16.5778Z" fill="white"/>
<mask id="mask0_290_2344" style="mask-type:luminance" maskUnits="userSpaceOnUse" x="113" y="41" width="79" height="7">
<path d="M191.127 41.7394H114.195C113.982 41.7394 113.807 41.8971 113.807 42.0918V47.5227C113.807 47.7174 113.983 47.8738 114.197 47.8738H191.127V41.7394Z" fill="white"/>
</mask>
<g mask="url(#mask0_290_2344)">
<path fill-rule="evenodd" clip-rule="evenodd" d="M189.662 63.7536H100.235C99.4263 63.7536 98.7715 63.1639 98.7715 62.437V37.8829C98.7715 37.1561 99.4276 36.5664 100.235 36.5664H189.663C190.471 36.5664 191.127 37.1561 191.127 37.8829V62.437C191.127 63.1639 190.471 63.7536 189.662 63.7536Z" fill="#E22D36"/>
</g>
<mask id="mask1_290_2344" style="mask-type:luminance" maskUnits="userSpaceOnUse" x="161" y="41" width="48" height="7">
<path d="M161.041 41.7394H208.137C208.145 41.7392 208.154 41.7392 208.162 41.7394V47.8711C208.154 47.8714 208.145 47.8714 208.137 47.8711H161.041V41.7422V41.7394Z" fill="white"/>
</mask>
<g mask="url(#mask1_290_2344)">
<path fill-rule="evenodd" clip-rule="evenodd" d="M208.161 63.7536H162.351C161.628 63.7536 161.042 62.5207 161.042 61.0011V39.3189C161.042 37.7993 161.628 36.5664 162.351 36.5664H208.161" fill="#F2AD4B"/>
</g>
<mask id="mask2_290_2344" style="mask-type:luminance" maskUnits="userSpaceOnUse" x="175" y="41" width="34" height="7">
<path d="M175.433 41.7394H208.137C208.352 41.7394 208.526 41.8958 208.526 42.0891V47.5227C208.526 47.7175 208.35 47.8738 208.135 47.8738H175.433V41.7394Z" fill="white"/>
</mask>
<g mask="url(#mask2_290_2344)">
<path fill-rule="evenodd" clip-rule="evenodd" d="M207.747 63.7536H176.895C176.087 63.7536 175.433 63.1639 175.433 62.437V37.883C175.433 37.1561 176.087 36.5664 176.896 36.5664H207.747C208.556 36.5664 209.211 37.1561 209.211 37.883V62.437C209.211 63.1639 208.556 63.7536 207.747 63.7536Z" fill="#894590"/>
</g>
</svg>
