<svg width="25" height="25" viewBox="0 0 25 25" fill="none" xmlns="http://www.w3.org/2000/svg">
<path d="M8.23109 6.10156C8.87009 6.10156 9.46109 6.15156 10.0011 6.29956C10.5421 6.39856 10.9851 6.59656 11.3781 6.84356C11.7721 7.09056 12.0671 7.43756 12.2631 7.88256C12.4601 8.32756 12.5591 8.87256 12.5591 9.46556C12.5591 10.1586 12.4111 10.7516 12.0671 11.1966C11.7721 11.6426 11.2801 12.0376 10.6901 12.3346C11.5261 12.5826 12.1651 13.0276 12.5591 13.6206C12.9521 14.2146 13.1981 14.9566 13.1981 15.7976C13.1981 16.4906 13.0501 17.0836 12.8041 17.5786C12.5591 18.0736 12.1651 18.5186 11.7221 18.8156C11.2409 19.1339 10.7089 19.3679 10.1491 19.5076C9.55909 19.6566 8.96909 19.7556 8.37909 19.7556H1.78809V6.10156H8.23109ZM7.83709 11.6416C8.37809 11.6416 8.82109 11.4936 9.16509 11.2466C9.50909 10.9996 9.65709 10.5536 9.65709 10.0096C9.65709 9.71256 9.60709 9.41556 9.50909 9.21856C9.41109 9.02056 9.26309 8.87156 9.06709 8.72356C8.86659 8.61119 8.65109 8.52802 8.42709 8.47656C8.18109 8.42656 7.93609 8.42656 7.64009 8.42656H4.78809V11.6426L7.83709 11.6416ZM7.98509 17.4796C8.28009 17.4796 8.57509 17.4296 8.82109 17.3806C9.06709 17.3306 9.31309 17.2326 9.50909 17.0836C9.70947 16.9388 9.87711 16.7534 10.0011 16.5396C10.0991 16.2926 10.1981 15.9956 10.1981 15.6496C10.1981 14.9566 10.0011 14.4616 9.60809 14.1156C9.21409 13.8186 8.67309 13.6706 8.03409 13.6706H4.78809V17.4806L7.98509 17.4796ZM17.4771 17.4296C17.8701 17.8256 18.4601 18.0236 19.2471 18.0236C19.7881 18.0236 20.2801 17.8756 20.6731 17.6286C21.0671 17.3316 21.3131 17.0346 21.4111 16.7376H23.8211C23.4271 17.9246 22.8371 18.7656 22.0511 19.3096C21.2631 19.8046 20.3291 20.1016 19.1981 20.1016C18.4745 20.1038 17.7569 19.9694 17.0831 19.7056C16.4768 19.4782 15.936 19.1044 15.5091 18.6176C15.0524 18.1621 14.7148 17.6013 14.5261 16.9846C14.2801 16.3416 14.1811 15.6496 14.1811 14.8576C14.1811 14.1156 14.2801 13.4236 14.5261 12.7796C14.7629 12.1596 15.1132 11.5892 15.5591 11.0976C16.0011 10.6526 16.5421 10.2576 17.1321 10.0096C17.7888 9.74563 18.4903 9.61116 19.1981 9.61356C20.0341 9.61356 20.7721 9.76256 21.4111 10.1086C22.0511 10.4546 22.5421 10.8506 22.9351 11.4446C23.3291 11.9886 23.6251 12.6316 23.8211 13.3246C23.9191 14.0166 23.9681 14.7096 23.9191 15.5006H16.7881C16.7881 16.2926 17.0831 17.0346 17.4771 17.4306M20.5751 12.2366C20.2311 11.8906 19.6901 11.6926 19.0501 11.6926C18.6748 11.6869 18.3037 11.7717 17.9681 11.9396C17.6731 12.0886 17.4771 12.2866 17.2801 12.4846C17.0991 12.6758 16.9793 12.9168 16.9361 13.1766C16.8861 13.4246 16.8371 13.6216 16.8371 13.8196H21.2631C21.1651 13.0776 20.9191 12.5836 20.5751 12.2366ZM16.2471 7.04156H21.7551V8.37756H16.2481L16.2471 7.04156Z" fill="white"/>
</svg>
