<svg xmlns="http://www.w3.org/2000/svg" fill="none" viewBox="0 0 191 100">
  <g clip-path="url(#a)">
    <path
      fill="#fff"
      d="M140.881 67.6769c-7.131 18.5533-25.065 31.821-46.0242 31.821-21.0673 0-39.0015-13.1599-46.0239-31.7132h5.4019c6.8063 15.7488 22.3637 26.7513 40.622 26.7513 18.1502 0 33.8152-11.1104 40.6222-26.7513l5.402-.1078Z"
    />
    <path
      fill="#fff"
      d="m140.881 67.6768-.432-.2157c-7.023 18.3375-24.849 31.3895-45.5922 31.3895-20.8512 0-38.5693-13.052-45.5917-31.3895l-.4322.2157v.5393h5.4019v-.5393l-.4322.2157c6.8064 15.8566 22.6879 27.0749 41.0542 27.0749 18.3662 0 34.1402-11.2183 41.0542-27.0749l-.432-.2157v.5393h5.51l-.108-.5393v-.5393h-5.834l-.108.3236c-6.699 15.5329-22.148 26.4276-40.0822 26.4276-18.0422 0-33.4915-10.8947-40.1899-26.4276l-.108-.3236h-6.3742l.2161.6472c7.1304 18.769 25.2807 32.0368 46.456 32.0368 21.1752 0 39.3252-13.3757 46.4562-32.0368l.216-.6472h-.756l.108.5393Zm-5.078-35.1649c-1.296-3.0203-3.025-5.9328-4.97-8.6294-.756.3236-1.728.4314-2.701.4314-4.213 0-7.562-3.3439-7.562-7.5507 0-.9708.216-1.8338.54-2.6967-7.239-5.28556-16.206-8.41374-25.9291-8.41374-18.2583 0-33.9237 11.00254-40.6221 26.75124H49.265C56.2874 14.0665 74.2217.798706 95.1809.798706c10.9121 0 20.9591 3.559644 29.0621 9.492394 1.188-.75509 2.485-1.18656 3.997-1.18656 4.214 0 7.671 3.45176 7.671 7.65866 0 1.4022-.432 2.8045-1.08 3.8832 2.593 3.5597 4.861 7.6586 6.374 11.8655h-5.402Z"
    />
    <path
      fill="#fff"
      d="m135.803 32.5119.432-.2157c-1.296-3.1282-3.025-6.0406-4.97-8.7373l-.216-.3236-.324.1078c-.756.3236-1.62.4315-2.485.4315-1.944 0-3.781-.7551-4.969-2.0495-1.297-1.2944-2.053-3.0203-2.053-4.9619 0-.8629.108-1.7259.432-2.481l.108-.3236-.324-.2157c-7.347-5.3934-16.422-8.52157-26.2531-8.52157-18.4744 0-34.3559 11.21827-41.1623 27.07487l.4322.2157v-.5393H49.157v.5393l.4321.2158C56.6115 14.3901 74.3297 1.23021 95.0728 1.23021c10.8042 0 20.7432 3.55964 28.7382 9.49239l.324.2157.324-.2157c1.08-.6472 2.377-1.07869 3.781-1.07869 1.945 0 3.782.75509 5.078 2.04949 1.297 1.2944 2.053 3.0203 2.053 5.0698 0 1.4023-.324 2.5888-.973 3.6675l-.216.3236.216.2158c2.593 3.5596 4.754 7.5507 6.375 11.6497l.432-.2157v-.5394h-5.402v1.1866h6.158l-.216-.6472c-1.621-4.2069-3.781-8.3059-6.482-11.9734l-.432.3236.432.2158c.756-1.1866 1.188-2.6968 1.188-4.2069 0-4.5305-3.673-8.0901-8.103-8.0901-1.62 0-3.025.43147-4.213 1.18655l.216.43145.324-.43145C116.356 3.81904 106.093.259399 95.1809.259399 74.0055.259399 55.8553 13.635 48.7248 32.4041l-.2161.6472h6.3742l.1081-.3236C61.5813 17.0868 77.1386 6.19214 95.1809 6.19214c9.6151 0 18.4741 3.12817 25.6051 8.30586l.324-.4315-.432-.2157c-.324.8629-.54 1.8337-.54 2.8045 0 4.4226 3.565 8.0901 8.102 8.0901.973 0 1.945-.2157 2.809-.5393l-.216-.4315-.432.3236c1.945 2.5889 3.565 5.5013 4.862 8.5216l.108.3236h.324l.108-.4315Z"
    />
    <path
      fill="#FF690A"
      d="M124.027 16.7632c0-2.2652 1.836-4.2068 4.213-4.2068 2.269 0 4.214 1.8338 4.214 4.2068 0 2.2653-1.837 4.2069-4.214 4.2069-2.269-.1079-4.213-1.9416-4.213-4.2069Z"
    />
    <path
      fill="#FF690A"
      d="M124.027 16.7633c.108-1.0787.54-2.1574 1.296-2.9125.757-.755 1.729-1.1865 2.917-1.1865 1.081 0 2.161.4315 2.917 1.1865.757.7551 1.189 1.7259 1.189 2.9125 0 1.0786-.432 2.1573-1.189 2.9124-.756.7551-1.728 1.1865-2.917 1.1865-1.08 0-2.16-.4314-2.917-1.1865-.756-.7551-1.188-1.8338-1.296-2.9124-.108 2.3731 1.837 4.2068 4.213 4.2068 2.377 0 4.214-1.9416 4.214-4.2068 0-2.3731-1.945-4.2069-4.214-4.2069-2.376-.1079-4.213 1.8338-4.213 4.2069Z"
    />
    <path
      fill="#fff"
      d="M3.6733 42.1121c1.08038-1.0786 2.26879-1.8337 3.56524-2.3731 1.40448-.5393 2.80896-.8629 4.10546-.8629 1.4044 0 2.8089.3236 4.1054.8629 1.4045.5394 2.5929 1.2945 3.6733 2.3731l1.5125 1.5102-3.0251 3.1282-1.5125-1.5102c-.6482-.6472-1.4045-1.1865-2.1607-1.5101-.8643-.3237-1.6206-.5394-2.4849-.5394-.8643 0-1.7286.1079-2.48486.5394-.8643.3236-1.51253.8629-2.16075 1.5101-.64823.6472-1.18841 1.2944-1.51253 2.1574-.32411.8629-.54018 1.618-.54018 2.4809 0 .863.21607 1.7259.54018 2.481.32412.8629.8643 1.5101 1.51253 2.1573 1.29645 1.2945 2.91701 1.9417 4.64561 1.9417.8643 0 1.7286-.2158 2.5929-.5394.8643-.3236 1.5125-.8629 2.1607-1.5101l1.5126-1.5102 3.025 3.1282-1.5125 1.5101c-1.0804 1.0787-2.2688 1.8338-3.6733 2.481-1.2964.5393-2.7009.7551-4.1054.7551-1.4045 0-2.80898-.2158-4.10543-.7551-1.29644-.5393-2.59289-1.4023-3.56523-2.481-1.08037-1.0786-1.83664-2.2652-2.37682-3.6675-.540191-1.2944-.756266-2.6967-.756266-4.0989 0-1.4023.216075-2.8046.756266-4.099.43215-1.2944 1.18841-2.481 2.26878-3.5597Z"
    />
    <path
      fill="#fff"
      d="m3.67327 42.1122.32411.3236c1.08038-1.0787 2.16075-1.8337 3.4572-2.2652 1.29645-.5394 2.59292-.7551 3.99742-.7551 1.2964 0 2.5929.2157 3.8893.7551 1.2965.5393 2.4849 1.2944 3.4572 2.2652l1.1884 1.1866-2.3768 2.3731-1.1884-1.1866c-.6482-.6472-1.5125-1.1865-2.3768-1.618-.8643-.3236-1.7286-.5393-2.701-.5393-.8643 0-1.83661.2157-2.70091.5393-.8643.3236-1.62056.8629-2.37682 1.618-.64822.6472-1.18841 1.4023-1.62056 2.3731-.21608.863-.32411 1.7259-.32411 2.6967 0 .863.21607 1.8338.54018 2.6967.32412.863.8643 1.618 1.62057 2.3731 1.40448 1.4023 3.13308 2.1574 5.07775 2.0495.9723 0 1.8366-.2157 2.7009-.5393.8643-.3236 1.6206-.863 2.3769-1.6181l1.1884-1.1865 2.3768 2.3731-1.1884 1.1865c-1.0804 1.0787-2.1608 1.8338-3.4572 2.3731l.2161.4315-.4322-.4315c-1.2964.5394-2.5929.7551-3.8893.7551-1.2965 0-2.70097-.2157-3.99742-.7551-1.29645-.5393-2.37682-1.2944-3.4572-2.3731-1.08037-1.0786-1.83663-2.1573-2.26878-3.4517-.54019-1.2945-.756263-2.5889-.756263-3.8833 0-1.4023.216073-2.6967.756263-3.9911.54019-1.2944 1.29645-2.3731 2.26878-3.4518l-.32411-.3236-.32411-.3236C2.26879 42.8673 1.40449 44.1617.864299 45.564.324112 46.9663 0 48.3686 0 49.8787c0 1.5102.324112 2.9125.864299 4.3147.540191 1.4023 1.404491 2.6967 2.484861 3.7754s2.37682 1.9416 3.78131 2.5888c1.40449.5394 2.91703.863 4.32153.863 1.5125 0 2.917-.3236 4.3215-.863 1.4044-.5393 2.7009-1.4022 3.7813-2.5888l1.8366-1.8337-3.7813-3.7754-1.8366 1.8337c-.5402.6472-1.1884 1.0787-1.9447 1.2945-.7563.3236-1.5125.4314-2.3768.4314-1.72863 0-3.13312-.5393-4.32153-1.8337-.64822-.6472-1.08037-1.2944-1.40449-2.0495-.32411-.6472-.43215-1.4023-.43215-2.1574 0-.7551.10804-1.5101.43215-2.2652.32412-.863.75627-1.5102 1.40449-2.0495.64822-.6472 1.29645-1.0787 2.05271-1.4023.75626-.3236 1.51252-.4315 2.26882-.4315.7562 0 1.5125.1079 2.2688.4315.7562.3236 1.4044.7551 2.0527 1.4023l1.9446 1.8337 3.7813-3.7753-1.8366-1.8338c-1.0804-1.0787-2.3768-1.9416-3.8893-2.481-1.4045-.5393-2.809-.8629-4.3215-.8629-1.51256 0-2.91704.3236-4.32153.8629-1.40449.5394-2.70094 1.4023-3.78131 2.481l.32411.3236Zm25.92893 3.0202c-1.2964 1.2945-1.9447 2.9125-1.9447 4.6384 0 .9708.2161 1.9416.6483 2.9124.4321-.4315.9723-.9708 1.7286-1.7259.8643-.8629 1.6205-1.618 2.5929-2.5888.8643-.863 1.7286-1.7259 2.5929-2.5888.8643-.863 1.5125-1.4023 1.9446-1.9417-1.1884-.6472-2.5929-.8629-3.9973-.6472-1.2965.3236-2.4849.863-3.5653 1.9416Zm10.9118 7.8744 3.1331 3.1282-1.5125 1.5101c-1.0804 1.0787-2.2688 1.8338-3.5653 2.3731-1.2964.5394-2.7009.863-4.2134.863-1.5126 0-2.917-.3236-4.2135-.863-1.2964-.5393-2.4849-1.4023-3.5652-2.3731-1.0804-1.0787-1.8367-2.2652-2.3768-3.6675-.5402-1.4023-.7563-2.8045-.7563-4.2068 0-1.4023.2161-2.8046.7563-4.099.5401-1.2944 1.2964-2.5889 2.3768-3.5597 1.0803-1.0786 2.2688-1.8337 3.6732-2.3731 1.4045-.5393 2.809-.8629 4.1055-.8629 1.4044 0 2.8089.3236 4.1054.8629 1.4045.5394 2.5929 1.2945 3.6733 2.3731l1.5125 1.5102-12.2082 12.1891c1.1884.6472 2.5929.8629 3.8893.6472 1.4045-.2158 2.5929-.863 3.6733-1.9416l1.5125-1.5102Z"
    />
    <path
      fill="#fff"
      d="m29.6023 45.1325-.3242-.3236c-1.4044 1.4023-2.1607 3.1282-2.0527 5.0698 0 1.0787.2161 2.1574.7563 3.1282l.3241.6472.5402-.5394c.4321-.4314.9723-.9708 1.7286-1.7258.8643-.863 1.6205-1.6181 2.5929-2.5889.8643-.8629 1.7286-1.7259 2.5929-2.5888.8643-.863 1.5125-1.4023 1.9447-1.9416l.5401-.5394-.6482-.3236c-.9723-.5393-2.0527-.7551-3.1331-.7551-.3241 0-.7562.0001-1.0803.1079-1.5126.2158-2.809.863-3.8894 2.0495l.1081.3236.3241.3236c.9723-.9708 2.0527-1.5101 3.3491-1.7259.3241 0 .6482-.1078.9724-.1078.9723 0 1.8366.2157 2.7009.6472l.2161-.4315-.3241-.3236c-.4322.4315-1.0804 1.0787-1.9447 1.9416-.8643.863-1.7286 1.7259-2.5929 2.5888-.8643.863-1.7286 1.7259-2.5929 2.5889-.7563.7551-1.4045 1.4023-1.7286 1.7259l.3241.3236.4322-.2158c-.4322-.8629-.6483-1.7259-.6483-2.6967 0-1.7259.5402-3.1281 1.8367-4.3147l-.3241-.3236Zm10.9117 7.8744-.3241.3236 2.7009 2.6967-1.1884 1.1865c-.9723.9708-2.1607 1.7259-3.4572 2.2652-1.2964.5394-2.5929.7551-3.9973.7551-1.4045 0-2.701-.2157-3.9974-.7551-1.2965-.5393-2.3768-1.2944-3.4572-2.2652-1.0804-1.0787-1.8367-2.1573-2.2688-3.4518-.5402-1.2944-.7563-2.5888-.7563-3.9911 0-1.2944.2161-2.5888.7563-3.8832s1.2964-2.3731 2.2688-3.4518c1.0804-1.0787 2.1607-1.8337 3.4572-2.2652 1.2964-.5394 2.5929-.7551 3.9974-.7551 1.2964 0 2.5929.2157 3.8893.7551 1.2965.5393 2.4849 1.2944 3.4572 2.2652l1.1884 1.1866-12.2082 12.2969.6482.3236c.9723.5394 2.0527.7551 3.1331.7551.3241 0 .6482 0 1.0804-.1079 1.5125-.2157 2.8089-.9708 3.8893-2.0495l1.5125-1.5101-.3241-.3236-.3241-.3236-1.5125 1.5101c-.9723.9708-2.0527 1.5102-3.3492 1.7259-.3241 0-.6482.1079-.8643.1079-.9723 0-1.8366-.2158-2.7009-.6472l-.2161.4314.3241.3236 12.4243-12.5126-1.8366-1.8338c-1.0804-1.0787-2.3768-1.9416-3.8893-2.481-1.4045-.5393-2.809-.8629-4.3215-.8629-1.5126 0-2.917.3236-4.3215.8629-1.4045.5394-2.701 1.4023-3.7813 2.481-1.0804 1.0787-1.9447 2.3731-2.4849 3.7754-.5402 1.4023-.8643 2.8046-.8643 4.3147 0 1.5102.3241 2.9124.8643 4.3147.5402 1.4023 1.4045 2.6967 2.4849 3.7754 1.0803 1.0787 2.3768 1.9416 3.7813 2.481 1.4045.5393 2.917.8629 4.4295.8629 1.5125 0 3.025-.3236 4.4295-.8629 1.4045-.5394 2.5929-1.4023 3.7813-2.481l1.8367-1.8338-3.7813-3.7753-.3241.3236.216.3236Zm5.726-3.1282c0-1.5102.3241-2.9125.8643-4.2069s1.4045-2.4809 2.3768-3.4518c.9723-.9708 2.1608-1.8337 3.5652-2.373 1.2965-.5394 2.809-.863 4.2135-.863 1.5125 0 2.917.3236 4.2135.863 1.2964.5393 2.4848 1.2944 3.5652 2.373.9723.9709 1.8366 2.1574 2.3768 3.4518.5402 1.2944.8643 2.6967.8643 4.2069v11.0025h-4.3215V49.8787c0-.863-.2161-1.7259-.5402-2.5889-.3241-.8629-.7562-1.5101-1.4045-2.0495-.5401-.6472-1.2964-1.0786-2.0527-1.4022-.8643-.3236-1.7286-.5394-2.5929-.5394-.8643 0-1.7286.2158-2.5929.5394-.7562.3236-1.5125.755-2.0527 1.4022-.5402.5394-1.0803 1.2945-1.4045 2.0495-.3241.7551-.5401 1.6181-.5401 2.5889v11.0025h-4.3215L46.24 49.8787Z"
    />
    <path
      fill="#fff"
      d="M46.24 49.8786h.5402c0-1.5101.2161-2.8046.7563-4.099.5401-1.2944 1.2964-2.3731 2.2687-3.3439.9724-.9708 2.0528-1.7259 3.3492-2.2652 1.2964-.5393 2.5929-.8629 4.1054-.8629 1.5125 0 2.809.3236 4.1054.8629 1.2965.5393 2.3769 1.2944 3.3492 2.2652.9723.9708 1.7286 2.0495 2.2688 3.3439.5402 1.1866.8643 2.5889.8643 3.9911v10.4632h-3.3492V49.7707c0-.9708-.2161-1.9416-.5402-2.6967-.3241-.8629-.8643-1.618-1.5125-2.2652s-1.4045-1.1865-2.2688-1.5101c-.8643-.4315-1.8366-.5394-2.8089-.5394-.9724 0-1.9447.2158-2.809.5394-.8643.3236-1.6206.8629-2.2688 1.5101-.6482.6472-1.1884 1.4023-1.5125 2.2652-.3241.863-.5402 1.7259-.5402 2.6967v10.4632h-3.3492V49.8786h-.9723v11.5419h5.4019V49.8786c0-.8629.108-1.618.4321-2.3731.3241-.7551.7563-1.4023 1.2965-1.9416.5401-.5393 1.1884-.9708 1.9446-1.2944.7563-.3236 1.5126-.5394 2.3769-.5394.8643 0 1.6205.2158 2.3768.5394.7562.3236 1.4045.7551 1.9446 1.2944.5402.5393.9724 1.1865 1.2965 1.9416.3241.7551.5402 1.5102.5402 2.3731v11.5419h5.4018V49.8786c0-1.618-.3241-3.1282-.9723-4.4226l-.5402.1079.4322-.2157c-.5402-1.4023-1.4045-2.5889-2.4849-3.6675-1.0804-1.0787-2.2688-1.8338-3.6733-2.481-1.4044-.6472-2.917-.9708-4.4295-.9708-1.5125 0-3.025.3236-4.4295.9708-1.4045.5393-2.5929 1.4023-3.6733 2.481-.9723.9708-1.8366 2.2652-2.4848 3.6675-.5402 1.4022-.8643 2.8045-.8643 4.4225l.4321.1079Zm27.7656-7.7665c1.0804-1.0786 2.2688-1.8337 3.6733-2.3731 1.4044-.5393 2.7009-.8629 4.1054-.8629 1.4045 0 2.8089.3236 4.1054.8629 1.4045.5394 2.5929 1.2945 3.6733 2.3731l1.5125 1.5102-3.0251 3.1282-1.5125-1.5102c-.6482-.6472-1.4045-1.1865-2.1607-1.5101-.8643-.3237-1.6206-.5394-2.4849-.5394-.8643 0-1.7286.1079-2.4849.5394-.8643.3236-1.5125.8629-2.1607 1.5101-.6482.6472-1.1884 1.2944-1.5125 2.1574-.3241.8629-.5402 1.618-.5402 2.4809 0 .863.2161 1.7259.5402 2.481.3241.8629.8643 1.5101 1.5125 2.1573 1.2964 1.2945 2.917 1.9417 4.6456 1.9417.8643 0 1.7286-.2158 2.5929-.5394.8643-.3236 1.5125-.8629 2.1607-1.5101l1.5126-1.5102 3.025 3.1282-1.5125 1.5101c-1.0804 1.0787-2.2688 1.8338-3.6733 2.481-1.2964.5393-2.7009.7551-4.1054.7551-1.4045 0-2.809-.2158-4.1054-.7551-1.2965-.5393-2.5929-1.4023-3.6733-2.481-1.0804-1.0786-1.8366-2.2652-2.3768-3.6675-.5402-1.2944-.7563-2.6967-.7563-4.0989 0-1.4023.2161-2.8046.7563-4.099.4321-1.2944 1.1884-2.481 2.2688-3.5597Z"
    />
    <path
      fill="#fff"
      d="m74.0056 42.1121.3241.3236c1.0804-1.0786 2.1608-1.8337 3.4572-2.2652 1.2965-.5393 2.5929-.7551 3.9974-.7551 1.2964 0 2.5929.2158 3.8893.7551 1.2965.5393 2.4849 1.2944 3.4572 2.2652l1.1884 1.1866-2.3768 2.3731-1.1884-1.1866c-.6482-.6472-1.5125-1.1865-2.3768-1.618-.8643-.3236-1.7286-.5393-2.7009-.5393-.8643 0-1.8367.2157-2.701.5393-.8643.3236-1.6205.863-2.3768 1.618-.6482.6472-1.1884 1.4023-1.6206 2.3731-.3241.863-.5401 1.7259-.5401 2.6967 0 .9708.216 1.8338.5401 2.6967.3242.863.8643 1.7259 1.6206 2.3731 1.4045 1.4023 3.1331 2.1574 5.0778 2.0495.9723 0 1.8366-.2157 2.7009-.5393.8643-.3236 1.6205-.863 2.3768-1.6181l1.1884-1.1865 2.3768 2.3731-1.1884 1.1865c-1.0803 1.0787-2.1607 1.8338-3.4572 2.3731l.2161.4315-.108-.4315c-1.2965.5394-2.5929.7551-3.8894.7551-1.2964 0-2.7009-.2157-3.9974-.7551-1.2964-.5393-2.3768-1.2944-3.4571-2.3731-1.0804-1.0786-1.8367-2.1573-2.2688-3.4517-.5402-1.2944-.7563-2.5889-.7563-3.8833 0-1.4023.2161-2.6967.7563-3.9911s1.2964-2.3731 2.2688-3.4518l-.4322-.3236-.3241-.3236c-1.0804 1.0787-1.9447 2.3731-2.4849 3.7754-.5401 1.4023-.8643 2.8046-.8643 4.3147 0 1.5102.3242 2.9125.8643 4.3147.5402 1.4023 1.4045 2.6967 2.4849 3.7754s2.3768 1.9416 3.7813 2.5888c1.4045.5394 2.917.863 4.3215.863 1.5125 0 2.917-.3236 4.3215-.863 1.4045-.5393 2.7009-1.4022 3.7813-2.5888l1.8366-1.8337-3.7813-3.7754-1.7286 1.8337c-.5402.6472-1.1884 1.0787-1.9447 1.2945-.7562.3236-1.5125.4314-2.3768.4314-1.7286 0-3.1331-.5393-4.3215-1.8337-.6482-.6472-1.0803-1.2944-1.4044-2.0495-.3242-.6472-.5402-1.4023-.5402-2.1574 0-.7551.108-1.5101.4321-2.2652.3241-.7551.7563-1.4023 1.2965-1.9416.6482-.6472 1.2964-1.0787 2.0527-1.4023.7562-.3236 1.5125-.4315 2.2688-.4315.7562 0 1.5125.1079 2.2687.4315.7563.3236 1.4045.7551 2.0527 1.4023l1.9447 1.8337 3.7813-3.7754-1.8366-1.8337c-1.0804-1.0787-2.3768-1.9416-3.8894-2.481-1.4044-.5393-2.8089-.8629-4.3214-.8629-1.5126 0-2.9171.3236-4.3215.8629-1.4045.5394-2.701 1.4023-3.7813 2.481l.4321.2157Zm24.0923 7.7666c0 .8629.2161 1.7259.5402 2.5888.3241.8629.8643 1.5101 1.4049 2.1574.648.5393 1.296 1.0786 2.16 1.4022.865.3236 1.729.5394 2.593.5394.865 0 1.729-.1079 2.593-.5394.864-.3236 1.513-.8629 2.053-1.4022.648-.6473 1.08-1.2945 1.404-2.1574.324-.8629.541-1.7259.541-2.5888 0-.863-.217-1.7259-.541-2.5889-.324-.8629-.756-1.5101-1.404-2.0495-.54-.6472-1.297-1.0786-2.053-1.4022-.864-.3236-1.728-.5394-2.593-.5394-.864 0-1.728.2158-2.593.5394-.864.3236-1.512.755-2.16 1.4022-.5406.5394-1.0808 1.2945-1.4049 2.0495-.4321.7551-.5402 1.6181-.5402 2.5889Zm-4.3215 0c0-1.5102.3241-2.9125.8643-4.2069s1.4045-2.4809 2.3768-3.4518c.9724-.9708 2.1608-1.8337 3.5655-2.373 1.296-.5394 2.701-.863 4.213-.863 1.513 0 2.917.3236 4.214.863 1.296.5393 2.485 1.2944 3.565 2.373.972.9709 1.837 2.1574 2.377 3.4518.54 1.2944.864 2.6967.864 4.2069 0 1.5101-.324 2.9124-.864 4.2068-.54 1.2944-1.297 2.481-2.377 3.5597-.972.9708-2.161 1.8337-3.565 2.373-1.297.5394-2.701.863-4.214.863-1.512 0-2.917-.3236-4.213-.863-1.2967-.5393-2.4851-1.4022-3.5655-2.373-.9723-.9709-1.7286-2.1574-2.3768-3.5597-.6482-1.2944-.8643-2.8046-.8643-4.2068Z"
    />
    <path
      fill="#fff"
      d="M98.0979 49.8787h-.5401c0 .9708.216 1.9416.5401 2.8045.4322.863.8643 1.6181 1.5126 2.2653.6485.6472 1.4045 1.0786 2.2685 1.5101.865.3236 1.837.5394 2.809.5394.973 0 1.945-.2158 2.809-.5394.864-.4315 1.621-.8629 2.269-1.5101.648-.6472 1.188-1.4023 1.513-2.2653.432-.8629.54-1.8337.54-2.8045 0-.9708-.216-1.9417-.54-2.6967-.325-.863-.865-1.618-1.513-2.2653-.648-.6472-1.405-1.1865-2.269-1.5101-.864-.4315-1.836-.5393-2.809-.5393-.972 0-1.944.2157-2.809.5393-.864.3236-1.62.8629-2.2685 1.5101-.6483.6473-1.1884 1.4023-1.5126 2.2653-.3241.8629-.5401 1.7259-.5401 2.6967h.9723c0-.863.108-1.618.4321-2.3731.3242-.7551.7563-1.4023 1.2968-1.9416.54-.5394 1.188-.9709 1.944-1.2945.757-.3236 1.513-.5393 2.377-.5393.864 0 1.621.2157 2.377.5393.756.3236 1.404.7551 1.945 1.2945.54.5393.972 1.1865 1.296 1.9416.324.7551.54 1.5101.54 2.3731 0 .8629-.216 1.618-.54 2.3731-.324.755-.756 1.4023-1.296 1.9416-.541.5393-1.189.9708-1.945 1.2944s-1.513.4315-2.377.4315c-.864 0-1.62-.1079-2.377-.4315-.756-.3236-1.404-.7551-2.052-1.2944-.5405-.5393-.9727-1.2944-1.2968-2.0495-.3241-.7551-.4321-1.5101-.4321-2.3731l-.3242.1079Zm-4.3214 0h.5401c0-1.5102.2161-2.8046.7563-4.099s1.2964-2.3731 2.2688-3.3439c.9723-.9708 2.0527-1.7259 3.3493-2.2653 1.296-.5393 2.593-.8629 4.105-.8629 1.513 0 2.809.3236 3.998.8629 1.296.5394 2.376 1.2945 3.349 2.2653.972.9708 1.728 2.0495 2.269 3.3439.54 1.1865.864 2.5888.864 3.9911 0 1.4023-.324 2.8046-.864 4.099-.541 1.2944-1.297 2.3731-2.269 3.3439-.973.9708-2.053 1.7259-3.349 2.2652-1.189.5394-2.593.7551-4.106.7551-1.404 0-2.809-.2157-4.105-.7551l-.108.5394.216-.4315c-1.2966-.5393-2.377-1.2944-3.3493-2.2652-.9724-.9708-1.7286-2.0495-2.2688-3.3439-.5402-1.2945-.7563-2.5889-.7563-4.099h-.9723c0 1.5101.3241 3.0203.8643 4.4226.6482 1.4022 1.4045 2.5888 2.4849 3.6675 1.0803 1.0787 2.2687 1.8337 3.6735 2.4809 1.404.5394 2.917.863 4.429.863 1.621 0 3.133-.3236 4.43-.863 1.404-.6472 2.593-1.4022 3.673-2.4809 1.08-1.0787 1.837-2.2653 2.485-3.6675.648-1.4023.972-2.9125.972-4.4226 0-1.618-.324-3.1282-.972-4.4226-.54-1.4023-1.405-2.5888-2.485-3.6675-1.08-1.0787-2.269-1.8338-3.673-2.481-1.405-.6472-2.917-.9708-4.43-.9708-1.62 0-3.025.3236-4.429.9708-1.4048.5393-2.5932 1.4023-3.6735 2.481-.9724.9708-1.8367 2.2652-2.4849 3.6675-.5402 1.4023-.8643 2.8046-.8643 4.4226h.4322ZM138.18 38.8761v4.3147h-13.289c-.648 0-1.188.2158-1.512.6472-.433.4315-.649.9708-.649 1.5102 0 .6472.216 1.1865.649 1.618.432.4315.972.6472 1.512.6472h8.751c.864 0 1.729.2157 2.593.5393.864.3236 1.513.7551 2.053 1.4023.648.5394 1.08 1.2944 1.404 2.0495.324.7551.54 1.618.54 2.5888 0 .863-.216 1.7259-.54 2.5889-.324.755-.756 1.5101-1.404 2.0495-.54.5393-1.297 1.0786-2.053 1.4022-.756.3236-1.621.5394-2.593.5394h-13.18v-4.3147h13.18c.648 0 1.189-.2158 1.621-.6472.432-.4315.648-.9709.648-1.6181 0-.6472-.216-1.1865-.648-1.5101-.432-.4315-.973-.6472-1.621-.6472h-8.751c-.864 0-1.728-.2158-2.593-.5394-.756-.3236-1.512-.8629-2.052-1.4022-.541-.6472-1.081-1.2945-1.405-2.0495-.324-.863-.54-1.7259-.54-2.5889 0-.8629.108-1.7258.54-2.5888.324-.8629.864-1.5101 1.405-2.0495.54-.5393 1.296-1.0787 2.052-1.4023.865-.3236 1.729-.5393 2.593-.5393h13.289Z"
    />
    <path
      fill="#fff"
      d="M138.18 38.8761h-.54v3.8833h-12.749c-.756 0-1.404.2157-1.944.7551-.541.5393-.757 1.1865-.757 1.9416 0 .7551.216 1.4023.757 1.9416.54.5393 1.188.7551 1.944.7551h8.751c.864 0 1.621.2157 2.377.5393.756.3236 1.404.7551 1.945 1.2944.54.5394.972 1.1866 1.296 1.9417.324.755.54 1.5101.54 2.3731 0 .8629-.216 1.618-.54 2.373-.324.7551-.756 1.4023-1.296 1.9417-.541.5393-1.189.9708-1.945 1.2944s-1.513.4315-2.377.4315h-12.64v-3.344h12.748c.756 0 1.405-.2157 1.945-.755.54-.5394.756-1.1866.756-1.9416 0-.7551-.216-1.4023-.756-1.9417-.54-.5393-1.189-.755-1.945-.755h-8.751c-.864 0-1.62-.1079-2.377-.4315-.756-.3236-1.404-.7551-1.944-1.2944-.54-.5394-.973-1.1866-1.297-1.9417-.324-.755-.432-1.5101-.432-2.3731 0-.8629.108-1.618.432-2.373.324-.7551.757-1.4023 1.297-1.9417.54-.5393 1.188-.9708 1.944-1.2944.757-.3236 1.513-.5393 2.377-.5393h13.289l-.108-.5394v-.5393h-13.289c-.972 0-1.945.2157-2.809.5393-.864.3236-1.62.863-2.161 1.5102-.648.6472-1.188 1.4023-1.512 2.2652-.324.863-.54 1.7259-.54 2.6967 0 .9708.216 1.9416.54 2.8046.432.8629.864 1.618 1.512 2.2652.649.6472 1.405 1.1866 2.161 1.5102.864.3236 1.837.5393 2.809.5393h8.751c.54 0 .973.2157 1.297.5393.324.3236.432.7551.54 1.1866 0 .5393-.108.9708-.54 1.2944-.324.3236-.757.4315-1.297.5393h-13.721v5.3934h13.721c.973 0 1.837-.2157 2.701-.5393.864-.4315 1.621-.8629 2.269-1.5102.648-.6472 1.188-1.4022 1.512-2.2652.433-.8629.541-1.8337.541-2.8045 0-.9709-.216-1.9417-.541-2.6967-.324-.863-.864-1.6181-1.512-2.2653-.648-.6472-1.405-1.0787-2.269-1.5101-.864-.4315-1.728-.5394-2.701-.5394h-8.751c-.54 0-.864-.1078-1.188-.5393-.324-.4315-.54-.7551-.54-1.2944 0-.5394.108-.863.54-1.1866.324-.3236.756-.4314 1.188-.5393h13.721v-5.3934h-.54l.108.5393Zm26.685 0v11.0025c0 1.5102-.324 2.9125-.864 4.2069-.541 1.2944-1.297 2.4809-2.377 3.5596-.973.9708-2.161 1.8338-3.565 2.3731-1.297.5394-2.701.863-4.214.863-1.512 0-2.917-.3236-4.213-.863-1.297-.5393-2.485-1.4023-3.566-2.3731-.972-.9708-1.728-2.1573-2.376-3.5596-.541-1.2944-.865-2.8046-.865-4.2069V38.8761h4.322v11.0025c0 .863.216 1.7259.54 2.5889.324.8629.864 1.5101 1.404 2.1573.649.5394 1.297 1.0787 2.053 1.4023.864.3236 1.729.5393 2.593.5393.864 0 1.729-.2157 2.593-.5393.864-.3236 1.513-.8629 2.053-1.4023.648-.6472 1.08-1.2944 1.404-2.1573.324-.863.54-1.7259.54-2.5889V38.8761h4.538Z"
    />
    <path
      fill="#fff"
      d="M164.865 38.8761h-.54v11.0026c0 1.4023-.324 2.8045-.865 4.099-.54 1.2944-1.296 2.3731-2.268 3.3439-.973.9708-2.053 1.7259-3.349 2.2652-1.189.5393-2.593.7551-4.106.7551-1.404 0-2.809-.2158-4.105-.7551-1.297-.5393-2.377-1.2944-3.349-2.2652-.973-.9708-1.729-2.0495-2.269-3.3439-.54-1.2945-.757-2.5889-.757-4.099V39.4155h3.35v10.4632c0 .9708.216 1.9416.54 2.8045.432.863.864 1.6181 1.512 2.2653.649.6472 1.405 1.0786 2.269 1.5101.864.3236 1.837.5394 2.809.5394.972 0 1.945-.2158 2.809-.5394.864-.4315 1.621-.8629 2.269-1.5101.648-.6472 1.188-1.4023 1.512-2.2653.433-.8629.541-1.8337.541-2.8045V39.4155h3.889l.108-.5394v-.5393h-4.862v11.5419c0 .8629-.216 1.618-.54 2.3731-.324.755-.756 1.4023-1.296 1.9416-.541.5393-1.189.9708-1.945 1.2944s-1.513.4315-2.377.4315c-.864 0-1.62-.1079-2.377-.4315-.756-.3236-1.404-.7551-1.944-1.2944-.541-.5393-.973-1.2944-1.297-2.0495-.324-.7551-.432-1.5101-.432-2.3731V38.4447h-5.402v11.434c0 1.5101.324 3.0203.864 4.4226.649 1.4022 1.405 2.5888 2.485 3.6675 1.081 1.0787 2.269 1.8337 3.674 2.4809 1.404.5394 2.917.863 4.429.863 1.621 0 3.133-.3236 4.43-.863 1.404-.6472 2.593-1.4022 3.673-2.4809 1.08-1.0787 1.837-2.2653 2.485-3.6675.648-1.4023.972-2.9125.972-4.4226v-11.434h-.54v.4314Zm13.721 17.5825c.864 0 1.728-.1079 2.593-.5394.864-.3236 1.512-.8629 2.052-1.4023.649-.6472 1.081-1.2944 1.405-2.1573.324-.863.54-1.7259.54-2.5888v-6.58h-6.59c-.865 0-1.729.2157-2.593.5394-.864.3236-1.513.755-2.161 1.4022-.54.5394-1.08 1.2945-1.404 2.0495-.325.7551-.541 1.618-.541 2.5889 0 .8629.216 1.7258.541 2.5888.324.8629.864 1.5101 1.404 2.1573.648.5394 1.297 1.0787 2.161 1.4023.756.4315 1.62.5394 2.593.5394Zm10.911-26.3198v19.7398c0 1.5102-.324 2.9125-.864 4.2069s-1.296 2.4809-2.377 3.5596c-.972.9708-2.16 1.8338-3.457 2.3731-1.296.5394-2.809.863-4.213.863-1.513 0-2.917-.3236-4.214-.863-1.296-.5393-2.485-1.4023-3.565-2.3731-.972-.9708-1.837-2.1573-2.377-3.5596-.54-1.2944-.864-2.8046-.864-4.2069 0-1.5101.324-2.9124.864-4.2068.54-1.2944 1.405-2.481 2.377-3.4518.972-.9708 2.161-1.8338 3.565-2.3731 1.297-.5393 2.701-.8629 4.214-.8629h6.59v-8.7373l4.321-.1079Z"
    />
    <path
      fill="#fff"
      d="M178.586 56.4586v.5393c.972 0 1.836-.2157 2.701-.5393.864-.4315 1.62-.8629 2.268-1.5101.649-.6472 1.189-1.4023 1.513-2.2653.432-.8629.54-1.8337.54-2.8045v-7.1193h-7.13c-.973 0-1.945.2157-2.809.5393-.865.3236-1.621.863-2.269 1.5102-.648.6472-1.188 1.4023-1.513 2.2652-.324.8629-.54 1.7259-.54 2.6967 0 .9708.216 1.9416.54 2.8046.433.8629.865 1.618 1.513 2.2652.648.6472 1.404 1.0787 2.269 1.5101.864.3236 1.836.5394 2.809.5394v-.9708c-.865 0-1.621-.1079-2.377-.4315-.756-.3236-1.405-.7551-2.053-1.2944-.54-.5394-.972-1.2944-1.296-2.0495-.324-.7551-.432-1.5102-.432-2.3731s.108-1.618.432-2.3731c.324-.7551.756-1.4023 1.296-1.9416.54-.5394 1.189-.9708 1.945-1.2944s1.512-.5394 2.377-.5394h6.05v6.2564c0 .8629-.216 1.618-.54 2.3731-.325.755-.757 1.4022-1.297 1.9416-.54.5393-1.188.9708-1.945 1.2944-.756.3236-1.512.4315-2.376.4315l.324.5393Zm10.912-26.3198h-.433v19.7399c0 1.4022-.324 2.8045-.864 4.0989-.54 1.2945-1.296 2.3731-2.269 3.344-.972.9708-2.052 1.7258-3.349 2.2652-1.296.5393-2.593.7551-4.105.7551-1.405 0-2.809-.2158-4.106-.7551-1.296-.5394-2.376-1.2944-3.349-2.2652-.972-.9709-1.728-2.0495-2.269-3.344-.54-1.2944-.756-2.5888-.756-4.0989 0-1.5102.216-2.8046.756-4.099.541-1.2944 1.297-2.3731 2.269-3.3439.973-.9708 2.053-1.7259 3.349-2.2653 1.297-.5393 2.593-.8629 4.106-.8629h7.13v-8.7373h3.89v-.9708h-4.862v8.7373h-6.05c-1.513 0-3.025.3236-4.43.9708-1.404.5393-2.593 1.4023-3.673 2.481-1.08.9708-1.945 2.2652-2.485 3.6675-.54 1.4023-.864 2.8045-.864 4.4226 0 1.5101.324 3.0203.864 4.4226.648 1.4022 1.405 2.5888 2.485 3.6675 1.08 1.0786 2.269 1.8337 3.673 2.4809 1.405.5394 2.917.863 4.43.863 1.512 0 3.025-.3236 4.429-.863 1.405-.6472 2.593-1.4023 3.674-2.4809 1.08-1.0787 1.836-2.2653 2.484-3.6675.649-1.4023.973-2.9125.973-4.4226V29.5995h-.54l-.108.5393Z"
    />
  </g>
  <defs>
    <clipPath id="a">
      <path fill="#fff" d="M0 .259399h190.038v99.67H0z" />
    </clipPath>
  </defs>
</svg>
