<svg width="81" height="81" viewBox="0 0 81 81" fill="none" xmlns="http://www.w3.org/2000/svg">
<rect x="1.14049" y="1.01158" width="78.7507" height="78.7507" rx="10.6545" fill="url(#paint0_radial_570_2646)"/>
<rect x="1.14049" y="1.01158" width="78.7507" height="78.7507" rx="10.6545" stroke="#282828" stroke-width="0.926479"/>
<path d="M21.5821 61.3888L17.3708 14.137H63.6609L59.444 61.3813L40.4877 66.637L21.5821 61.3888Z" fill="#1572B6"/>
<path d="M40.5159 62.6206L55.8346 58.3737L59.4384 18.0012H40.5159V62.6206Z" fill="#33A9DC"/>
<path d="M40.5159 35.1201H48.1846L48.7134 29.1858H40.5159V23.3901H55.0471L54.9084 24.9445L53.4852 40.9158H40.5159V35.1201Z" fill="white"/>
<path d="M40.5514 50.1706L40.5252 50.1781L34.0714 48.4344L33.6589 43.8125H27.8408L28.6527 52.9119L40.5233 56.2081L40.5514 56.2006V50.1706Z" fill="#EBEBEB"/>
<path d="M47.6914 40.6702L46.9939 48.4308L40.5308 50.1745V56.2045L52.4108 52.912L52.4989 51.9333L53.5058 40.6702H47.6914Z" fill="white"/>
<path d="M40.5364 23.3901V29.1858H26.5377L26.4214 27.8826L26.1571 24.9445L26.0183 23.3901H40.5364ZM40.5158 35.1201V40.9158H34.1427L34.0264 39.6126L33.7639 36.6745L33.6252 35.1201H40.5158Z" fill="#EBEBEB"/>
<defs>
<radialGradient id="paint0_radial_570_2646" cx="0" cy="0" r="1" gradientUnits="userSpaceOnUse" gradientTransform="translate(1.35352 16.0177) rotate(58.6197) scale(75.2086 85.7872)">
<stop stop-color="#1F1F20"/>
<stop offset="1" stop-color="#0D0D0E"/>
</radialGradient>
</defs>
</svg>
