<svg width="25" height="25" viewBox="0 0 25 25" fill="none" xmlns="http://www.w3.org/2000/svg">
<path d="M12.7881 2.75146C11.4749 2.75146 10.1745 3.01012 8.96125 3.51267C7.748 4.01522 6.6456 4.75181 5.71702 5.6804C3.84165 7.55576 2.78809 10.0993 2.78809 12.7515C2.78809 17.1715 5.65809 20.9215 9.62809 22.2515C10.1281 22.3315 10.2881 22.0215 10.2881 21.7515V20.0615C7.51809 20.6615 6.92809 18.7215 6.92809 18.7215C6.46809 17.5615 5.81809 17.2515 5.81809 17.2515C4.90809 16.6315 5.88809 16.6515 5.88809 16.6515C6.88809 16.7215 7.41809 17.6815 7.41809 17.6815C8.28809 19.2015 9.75809 18.7515 10.3281 18.5115C10.4181 17.8615 10.6781 17.4215 10.9581 17.1715C8.73809 16.9215 6.40809 16.0615 6.40809 12.2515C6.40809 11.1415 6.78809 10.2515 7.43809 9.54146C7.33809 9.29146 6.98809 8.25146 7.53809 6.90146C7.53809 6.90146 8.37809 6.63146 10.2881 7.92146C11.0781 7.70147 11.9381 7.59146 12.7881 7.59146C13.6381 7.59146 14.4981 7.70147 15.2881 7.92146C17.1981 6.63146 18.0381 6.90146 18.0381 6.90146C18.5881 8.25146 18.2381 9.29146 18.1381 9.54146C18.7881 10.2515 19.1681 11.1415 19.1681 12.2515C19.1681 16.0715 16.8281 16.9115 14.5981 17.1615C14.9581 17.4715 15.2881 18.0815 15.2881 19.0115V21.7515C15.2881 22.0215 15.4481 22.3415 15.9581 22.2515C19.9281 20.9115 22.7881 17.1715 22.7881 12.7515C22.7881 11.4382 22.5294 10.1379 22.0269 8.92463C21.5243 7.71137 20.7877 6.60898 19.8592 5.6804C18.9306 4.75181 17.8282 4.01522 16.6149 3.51267C15.4017 3.01012 14.1013 2.75146 12.7881 2.75146Z" fill="white"/>
</svg>
