<svg width="81" height="81" viewBox="0 0 81 81" fill="none" xmlns="http://www.w3.org/2000/svg">
<rect x="0.84947" y="1.01158" width="78.7507" height="78.7507" rx="10.6545" fill="url(#paint0_radial_570_2666)"/>
<rect x="0.84947" y="1.01158" width="78.7507" height="78.7507" rx="10.6545" stroke="#282828" stroke-width="0.926479"/>
<path d="M40.2249 15.387C36.9418 15.387 33.6909 16.0336 30.6578 17.29C27.6246 18.5463 24.8686 20.3878 22.5472 22.7093C17.8588 27.3977 15.2249 33.7565 15.2249 40.387C15.2249 51.437 22.3999 60.812 32.3249 64.137C33.5749 64.337 33.9749 63.562 33.9749 62.887V58.662C27.0499 60.162 25.5749 55.312 25.5749 55.312C24.4249 52.412 22.7999 51.637 22.7999 51.637C20.5249 50.087 22.9749 50.137 22.9749 50.137C25.4749 50.312 26.7999 52.712 26.7999 52.712C28.9749 56.512 32.6499 55.387 34.0749 54.787C34.2999 53.162 34.9499 52.062 35.6499 51.437C30.0999 50.812 24.2749 48.662 24.2749 39.137C24.2749 36.362 25.2249 34.137 26.8499 32.362C26.5999 31.737 25.7249 29.137 27.0999 25.762C27.0999 25.762 29.1999 25.087 33.9749 28.312C35.9499 27.762 38.0999 27.487 40.2249 27.487C42.3499 27.487 44.4999 27.762 46.4749 28.312C51.2499 25.087 53.3499 25.762 53.3499 25.762C54.7249 29.137 53.8499 31.737 53.5999 32.362C55.2249 34.137 56.1749 36.362 56.1749 39.137C56.1749 48.687 50.3249 50.787 44.7499 51.412C45.6499 52.187 46.4749 53.712 46.4749 56.037V62.887C46.4749 63.562 46.8749 64.362 48.1499 64.137C58.0749 60.787 65.2249 51.437 65.2249 40.387C65.2249 37.1039 64.5782 33.853 63.3218 30.8199C62.0655 27.7867 60.224 25.0308 57.9025 22.7093C55.5811 20.3878 52.8251 18.5463 49.7919 17.29C46.7588 16.0336 43.5079 15.387 40.2249 15.387Z" fill="white"/>
<defs>
<radialGradient id="paint0_radial_570_2666" cx="0" cy="0" r="1" gradientUnits="userSpaceOnUse" gradientTransform="translate(1.0625 16.0177) rotate(58.6197) scale(75.2086 85.7872)">
<stop stop-color="#1F1F20"/>
<stop offset="1" stop-color="#0D0D0E"/>
</radialGradient>
</defs>
</svg>
