<svg width="80" height="81" viewBox="0 0 80 81" fill="none" xmlns="http://www.w3.org/2000/svg">
<rect x="0.46324" y="1.01158" width="78.7507" height="78.7507" rx="10.6545" fill="url(#paint0_radial_570_2640)"/>
<rect x="0.46324" y="1.01158" width="78.7507" height="78.7507" rx="10.6545" stroke="#282828" stroke-width="0.926479"/>
<path d="M20.9048 61.3888L16.6917 14.137H62.9854L58.7666 61.3813L39.8104 66.637L20.9048 61.3888Z" fill="#E44F26"/>
<path d="M39.8386 62.6206L55.1574 58.3737L58.7611 18.0012H39.8386V62.6206Z" fill="#F1662A"/>
<path d="M39.8386 35.5252H32.1699L31.6411 29.5908H39.8386V23.7952H25.3074L25.4461 25.3514L26.8692 41.3208H39.8386V35.5252ZM39.8386 50.5758L39.8124 50.5833L33.3586 48.8414L32.9461 44.2195H27.128L27.9399 53.317L39.8124 56.6133L39.8386 56.6058V50.5758Z" fill="#EBEBEB"/>
<path d="M39.8181 35.5252V41.3208H46.9544L46.2831 48.8377L39.8181 50.5814V56.6114L51.7 53.317L51.7862 52.3383L53.1475 37.0814L53.29 35.5252H51.7281H39.8181ZM39.8181 23.7952V29.5908H53.8169L53.9331 28.2895L54.1975 25.3514L54.3362 23.7952H39.8181Z" fill="white"/>
<defs>
<radialGradient id="paint0_radial_570_2640" cx="0" cy="0" r="1" gradientUnits="userSpaceOnUse" gradientTransform="translate(0.676272 16.0177) rotate(58.6197) scale(75.2086 85.7872)">
<stop stop-color="#1F1F20"/>
<stop offset="1" stop-color="#0D0D0E"/>
</radialGradient>
</defs>
</svg>
