<svg width="25" height="25" viewBox="0 0 25 25" fill="none" xmlns="http://www.w3.org/2000/svg">
<path d="M12.7882 7.94445C10.128 7.94445 7.98117 10.0913 7.98117 12.7515C7.98117 15.4116 10.128 17.5585 12.7882 17.5585C15.4484 17.5585 17.5952 15.4116 17.5952 12.7515C17.5952 10.0913 15.4484 7.94445 12.7882 7.94445ZM12.7882 15.8757C11.0679 15.8757 9.66398 14.4718 9.66398 12.7515C9.66398 11.0312 11.0679 9.62726 12.7882 9.62726C14.5085 9.62726 15.9124 11.0312 15.9124 12.7515C15.9124 14.4718 14.5085 15.8757 12.7882 15.8757ZM17.7921 6.62726C17.171 6.62726 16.6694 7.12882 16.6694 7.74992C16.6694 8.37101 17.171 8.87257 17.7921 8.87257C18.4132 8.87257 18.9148 8.37335 18.9148 7.74992C18.9149 7.60243 18.886 7.45637 18.8297 7.32008C18.7733 7.18378 18.6906 7.05995 18.5864 6.95567C18.4821 6.85138 18.3582 6.76869 18.2219 6.71234C18.0857 6.65599 17.9396 6.62707 17.7921 6.62726ZM22.1585 12.7515C22.1585 11.4577 22.1702 10.1757 22.0976 8.88429C22.0249 7.38429 21.6827 6.05304 20.5859 4.95617C19.4866 3.85695 18.1577 3.5171 16.6577 3.44445C15.364 3.37179 14.0819 3.38351 12.7905 3.38351C11.4968 3.38351 10.2148 3.37179 8.92335 3.44445C7.42335 3.5171 6.0921 3.85929 4.99523 4.95617C3.89601 6.05538 3.55617 7.38429 3.48351 8.88429C3.41085 10.178 3.42257 11.4601 3.42257 12.7515C3.42257 14.0429 3.41085 15.3273 3.48351 16.6187C3.55617 18.1187 3.89835 19.4499 4.99523 20.5468C6.09445 21.646 7.42335 21.9859 8.92335 22.0585C10.2171 22.1312 11.4991 22.1194 12.7905 22.1194C14.0843 22.1194 15.3663 22.1312 16.6577 22.0585C18.1577 21.9859 19.489 21.6437 20.5859 20.5468C21.6851 19.4476 22.0249 18.1187 22.0976 16.6187C22.1726 15.3273 22.1585 14.0452 22.1585 12.7515ZM20.096 18.278C19.9249 18.7046 19.7187 19.0234 19.3882 19.3515C19.0577 19.6819 18.7413 19.8882 18.3148 20.0593C17.0819 20.5491 14.1546 20.439 12.7882 20.439C11.4218 20.439 8.4921 20.5491 7.25929 20.0616C6.83273 19.8905 6.51398 19.6843 6.18585 19.3538C5.85538 19.0234 5.64913 18.7069 5.47804 18.2804C4.99054 17.0452 5.1007 14.1179 5.1007 12.7515C5.1007 11.3851 4.99054 8.45538 5.47804 7.22257C5.64913 6.79601 5.85538 6.47726 6.18585 6.14913C6.51632 5.82101 6.83273 5.61242 7.25929 5.44132C8.4921 4.95382 11.4218 5.06398 12.7882 5.06398C14.1546 5.06398 17.0843 4.95382 18.3171 5.44132C18.7437 5.61242 19.0624 5.81867 19.3905 6.14913C19.721 6.4796 19.9273 6.79601 20.0984 7.22257C20.5859 8.45538 20.4757 11.3851 20.4757 12.7515C20.4757 14.1179 20.5859 17.0452 20.096 18.278Z" fill="white"/>
</svg>
