<svg width="80" height="81" viewBox="0 0 80 81" fill="none" xmlns="http://www.w3.org/2000/svg">
<rect x="0.494978" y="1.01158" width="78.7507" height="78.7507" rx="10.6545" fill="url(#paint0_radial_570_2659)"/>
<rect x="0.494978" y="1.01158" width="78.7507" height="78.7507" rx="10.6545" stroke="#282828" stroke-width="0.926479"/>
<g clip-path="url(#clip0_570_2659)">
<path d="M11.8704 12.387H67.8704V68.387H11.8704V12.387Z" fill="#F7DF1E"/>
<path d="M26.5949 59.1846L30.8803 56.5911C31.7071 58.0569 32.4592 59.2972 34.2632 59.2972C35.9924 59.2972 37.0829 58.6208 37.0829 55.9897V38.0964H42.3454V56.0641C42.3454 61.5147 39.1503 63.9958 34.4888 63.9958C30.2789 63.9958 27.8353 61.8155 26.5947 59.1841M45.2038 58.6206L49.4887 56.1398C50.6168 57.9819 52.0828 59.3351 54.6763 59.3351C56.857 59.3351 58.2474 58.2448 58.2474 56.7411C58.2474 54.9369 56.819 54.2977 54.4132 53.2455L53.0978 52.6811C49.301 51.0652 46.7825 49.0352 46.7825 44.7499C46.7825 40.8028 49.7897 37.7954 54.4886 37.7954C57.8342 37.7954 60.24 38.9609 61.969 42.0057L57.8714 44.6373C56.969 43.0209 55.9921 42.3819 54.4884 42.3819C52.9471 42.3819 51.9697 43.3593 51.9697 44.6373C51.9697 46.216 52.9471 46.8554 55.2024 47.8328L56.518 48.3965C60.9914 50.3138 63.5099 52.2683 63.5099 56.6661C63.5099 61.4029 59.7885 63.9964 54.789 63.9964C49.9023 63.9964 46.7447 61.6658 45.2036 58.6208" fill="black"/>
</g>
<defs>
<radialGradient id="paint0_radial_570_2659" cx="0" cy="0" r="1" gradientUnits="userSpaceOnUse" gradientTransform="translate(0.708011 16.0177) rotate(58.6197) scale(75.2086 85.7872)">
<stop stop-color="#1F1F20"/>
<stop offset="1" stop-color="#0D0D0E"/>
</radialGradient>
<clipPath id="clip0_570_2659">
<rect width="56" height="56" fill="white" transform="translate(11.8704 12.387)"/>
</clipPath>
</defs>
</svg>
