<svg width="46" height="46" viewBox="0 0 46 46" fill="none" xmlns="http://www.w3.org/2000/svg">
<rect x="1.30081" y="1.34952" width="43.7622" height="43.7622" rx="21.8811" fill="#F7DF1E"/>
<rect x="1.30081" y="1.34952" width="43.7622" height="43.7622" rx="21.8811" stroke="white" stroke-width="1.33966"/>
<path d="M34.22 37.8411C34.22 37.8316 34.182 37.8238 34.1357 37.8238C34.0749 37.8238 34.0332 37.8117 33.9863 37.7805C33.9506 37.7567 33.9065 37.7372 33.8885 37.7372C33.8705 37.7372 33.8468 37.7284 33.8359 37.7177C33.8212 37.7033 33.8012 37.7033 33.759 37.7177C33.7276 37.7284 33.6315 37.7372 33.5455 37.7372C33.4175 37.7372 33.3831 37.7314 33.3567 37.7056C33.3389 37.6882 33.3111 37.6689 33.2948 37.6628C33.2785 37.6567 33.2652 37.6397 33.2652 37.6251C33.2652 37.6106 33.2524 37.5986 33.2367 37.5986C33.221 37.5986 33.1792 37.5836 33.1439 37.5653C33.0618 37.5229 32.8077 37.46 32.7181 37.46C32.6265 37.46 32.5933 37.4457 32.5933 37.4062C32.5933 37.3882 32.5854 37.3734 32.5757 37.3734C32.5659 37.3734 32.558 37.3578 32.558 37.3388C32.558 37.3197 32.5659 37.3041 32.5757 37.3041C32.5854 37.3041 32.5933 37.2766 32.5933 37.243C32.5933 37.2017 32.603 37.1782 32.6229 37.1707C32.6392 37.1645 32.667 37.1453 32.6848 37.1279C32.7026 37.1105 32.741 37.0963 32.7701 37.0963C32.7993 37.0963 32.8232 37.0881 32.8232 37.0781C32.8232 37.0436 32.9459 37.0097 33.0702 37.0097C33.1413 37.0097 33.1945 37.0022 33.1945 36.9923C33.1945 36.9828 33.2236 36.975 33.2591 36.975C33.3206 36.975 33.3223 36.9735 33.2945 36.9433C33.2784 36.9259 33.2652 36.9034 33.2652 36.8934C33.2652 36.8833 33.2493 36.871 33.2298 36.8661C33.1982 36.8579 33.1945 36.8424 33.1945 36.7168C33.1945 36.5907 33.1979 36.5766 33.228 36.5766C33.2544 36.5766 33.2631 36.5611 33.269 36.503C33.2789 36.4066 33.2693 36.3738 33.2282 36.3633C33.1982 36.3556 33.1945 36.3375 33.1945 36.1973C33.1945 36.0586 33.1987 36.0373 33.2298 36.0182C33.2493 36.0063 33.2652 35.9896 33.2652 35.981C33.2652 35.9572 33.323 35.9195 33.3605 35.9189C33.3789 35.9186 33.4041 35.9047 33.4165 35.888C33.4353 35.8628 33.4737 35.8567 33.6439 35.8519C33.8394 35.8463 33.8487 35.8476 33.8487 35.881C33.8487 35.904 33.8622 35.9178 33.8885 35.9215C33.9215 35.9261 33.9292 35.9394 33.9337 36.0006C33.9371 36.0471 33.9477 36.0742 33.9623 36.0742C33.9989 36.0742 34.0074 36.1746 34.0076 36.6069C34.0078 36.8648 34.0142 37.0097 34.0256 37.0097C34.0353 37.0097 34.0529 37.0447 34.0646 37.0876C34.0768 37.1325 34.0963 37.1656 34.1104 37.1656C34.1239 37.1656 34.1391 37.1811 34.1441 37.2002C34.1492 37.2193 34.1651 37.2348 34.1795 37.2348C34.1939 37.2348 34.2098 37.2504 34.2149 37.2695C34.2201 37.2892 34.239 37.3041 34.2586 37.3041C34.3034 37.3041 34.4498 37.4028 34.4498 37.4329C34.4498 37.4456 34.4657 37.4601 34.4852 37.4651C34.5166 37.4731 34.5206 37.4887 34.5206 37.6057C34.5206 37.7241 34.5172 37.7372 34.4864 37.7372C34.4645 37.7372 34.4503 37.7511 34.4466 37.7762C34.4421 37.8075 34.428 37.8162 34.3747 37.8205C34.3382 37.8235 34.3084 37.8332 34.3084 37.8422C34.3084 37.8511 34.2885 37.8585 34.2642 37.8585C34.2399 37.8585 34.22 37.8507 34.22 37.8411ZM34.2907 37.6021C34.2907 37.5945 34.2591 37.5692 34.2205 37.5458C34.1818 37.5225 34.15 37.4936 34.1497 37.4817C34.1494 37.4698 34.1335 37.46 34.1141 37.46C34.0755 37.46 33.9016 37.3004 33.902 37.2654C33.9022 37.2503 33.9081 37.2515 33.921 37.2695C33.9377 37.2926 33.939 37.2926 33.9325 37.2695C33.9286 37.2552 33.918 37.2434 33.9091 37.2432C33.8714 37.2426 33.8487 37.2121 33.8487 37.1621C33.8487 37.1313 33.8356 37.0994 33.8177 37.0866C33.7899 37.0667 33.7862 37.0189 33.781 36.6105C33.7778 36.3552 33.7679 36.148 33.7583 36.1371C33.749 36.1263 33.7317 36.1043 33.7199 36.0881C33.6883 36.0448 33.4843 36.0638 33.4717 36.1112C33.4669 36.129 33.4503 36.1435 33.4348 36.1435C33.394 36.1435 33.3993 36.2173 33.442 36.2434C33.4646 36.2572 33.4774 36.2838 33.4774 36.3169C33.4774 36.3514 33.4862 36.3687 33.5039 36.3687C33.5225 36.3687 33.5304 36.3871 33.5304 36.4299C33.5304 36.4683 33.5206 36.4948 33.5039 36.501C33.4873 36.5073 33.4774 36.5337 33.4774 36.5714C33.4774 36.6172 33.4689 36.634 33.442 36.6409C33.386 36.6552 33.4004 36.7044 33.4862 36.7922C33.53 36.8369 33.5658 36.8848 33.5658 36.8985C33.5658 36.9123 33.5757 36.94 33.5879 36.9602C33.6056 36.9895 33.6056 36.9984 33.5879 37.0047C33.5757 37.009 33.5658 37.0376 33.5658 37.0683C33.5658 37.1391 33.5384 37.1656 33.465 37.1656C33.4329 37.1656 33.4067 37.1723 33.4067 37.1804C33.4067 37.1886 33.3281 37.2041 33.2322 37.2147C33.0233 37.238 32.9921 37.2472 33.0226 37.276C33.0345 37.2873 33.0681 37.2983 33.0972 37.3005C33.1826 37.3068 33.3359 37.3879 33.3359 37.4267C33.3359 37.4507 33.3483 37.46 33.3801 37.46C33.4044 37.46 33.4403 37.4756 33.4597 37.4947C33.4872 37.5216 33.5186 37.5293 33.6011 37.5293C33.6954 37.5293 33.7072 37.5255 33.7072 37.4947C33.7072 37.4669 33.719 37.46 33.7665 37.46C33.8336 37.46 33.9371 37.4913 33.9371 37.5115C33.9371 37.5189 33.96 37.5295 33.988 37.535C34.016 37.5405 34.0506 37.5564 34.0649 37.5704C34.1003 37.6051 34.2907 37.6318 34.2907 37.6021ZM32.3135 36.7701C32.2957 36.7527 32.2679 36.7335 32.2516 36.7274C32.2275 36.7183 32.222 36.6917 32.222 36.5842C32.222 36.4691 32.2271 36.4478 32.2618 36.4178C32.2837 36.3989 32.2897 36.3894 32.2751 36.3967C32.2448 36.4119 32.2465 36.4092 32.3559 36.2744C32.4241 36.1904 32.4194 36.1866 32.3254 36.2503C32.2996 36.2678 32.2702 36.2821 32.26 36.2821C32.2498 36.2821 32.2201 36.3016 32.1938 36.3254C32.1676 36.3492 32.1369 36.3687 32.1255 36.3687C32.1142 36.3687 32.072 36.3843 32.0317 36.4034C31.9246 36.4541 31.78 36.448 31.78 36.3928C31.78 36.3796 31.7641 36.3687 31.7446 36.3687C31.7121 36.3687 31.7093 36.3572 31.7093 36.2215C31.7093 36.0858 31.7121 36.0742 31.7446 36.0742C31.7723 36.0742 31.78 36.0627 31.78 36.0211C31.78 35.9919 31.7872 35.9548 31.7961 35.9386C31.8144 35.9051 31.789 35.8621 31.7402 35.8442C31.7232 35.8379 31.7093 35.8209 31.7093 35.8063C31.7093 35.7917 31.6976 35.7798 31.6834 35.7798C31.6429 35.7798 31.6209 35.7215 31.6209 35.6143C31.6209 35.5197 31.6193 35.5164 31.5811 35.5297C31.5592 35.5373 31.4439 35.5465 31.3247 35.55C31.1158 35.5563 31.1081 35.5553 31.1081 35.5209C31.1081 35.4968 31.0967 35.4853 31.0728 35.4853C31.0492 35.4853 31.0374 35.4737 31.0374 35.4506C31.0374 35.4275 31.0256 35.416 31.002 35.416C30.9689 35.416 30.9667 35.4044 30.9667 35.2341C30.9667 35.061 30.9649 35.0522 30.9297 35.0522C30.9081 35.0522 30.889 35.0384 30.8838 35.0192C30.879 35.001 30.8598 34.9822 30.8413 34.9775C30.8161 34.971 30.8076 34.9533 30.8076 34.9074C30.8076 34.8461 30.8385 34.7577 30.8599 34.7577C30.8787 34.7577 30.9352 34.5874 30.9229 34.5679C30.9167 34.558 30.853 34.5498 30.7814 34.5498C30.6284 34.5498 30.5954 34.5403 30.5954 34.496C30.5954 34.4705 30.5825 34.4632 30.5369 34.4632C30.4876 34.4632 30.4695 34.4509 30.422 34.3848C30.3909 34.3416 30.3655 34.2984 30.3655 34.2888C30.3655 34.2791 30.3496 34.2545 30.3302 34.2341C30.3107 34.2136 30.2948 34.1749 30.2948 34.1482C30.2948 34.111 30.2864 34.0995 30.2594 34.0995C30.2359 34.0995 30.2241 34.0879 30.2241 34.0648C30.2241 34.0458 30.2141 34.0302 30.2019 34.0302C30.1781 34.0302 30.0987 33.9534 30.034 33.8681C30.0003 33.8235 29.9942 33.7938 29.9942 33.6717C29.9942 33.5349 29.9992 33.5211 30.0473 33.5243C30.0521 33.5247 30.0572 33.5067 30.0586 33.4844C30.0615 33.4369 30.1663 33.3026 30.2005 33.3026C30.2135 33.3026 30.2241 33.2902 30.2241 33.275C30.2241 33.2598 30.24 33.2433 30.2594 33.2384C30.2789 33.2334 30.2948 33.2178 30.2948 33.2037C30.2948 33.1896 30.3096 33.1743 30.3277 33.1697C30.3563 33.1624 30.3621 33.137 30.3716 32.9764C30.3776 32.8748 30.3878 32.7534 30.3943 32.7067C30.4031 32.6435 30.4008 32.6251 30.3852 32.6345C30.3515 32.6549 30.2241 32.6272 30.2241 32.5995C30.2241 32.585 30.2062 32.5751 30.1799 32.5751C30.1515 32.5751 30.1357 32.5653 30.1357 32.5479C30.1357 32.5329 30.1242 32.5094 30.1102 32.4957C30.0962 32.482 30.0795 32.4363 30.073 32.3942C30.0596 32.3066 30.0943 32.015 30.1191 32.0063C30.1498 31.9956 30.136 31.9184 30.097 31.8828C30.0645 31.8532 30.0348 31.8475 29.9113 31.8475C29.83 31.8475 29.7644 31.8549 29.7644 31.864C29.7644 31.8862 29.6482 31.9166 29.563 31.9167C29.5199 31.9167 29.4863 31.9274 29.4731 31.9451C29.4602 31.9624 29.4164 31.9767 29.3596 31.982C29.2776 31.9897 29.2662 31.9868 29.2578 31.9554C29.2526 31.9359 29.2332 31.9161 29.2146 31.9114C29.1908 31.9053 29.1809 31.8873 29.1809 31.85C29.1809 31.7916 29.2137 31.7089 29.2368 31.7089C29.245 31.7089 29.2516 31.6993 29.2516 31.6876C29.2516 31.649 29.3484 31.4838 29.371 31.4838C29.3836 31.4838 29.3931 31.4621 29.3931 31.4332C29.3931 31.3821 29.4437 31.2762 29.4682 31.276C29.4755 31.276 29.4815 31.2595 29.4815 31.2396C29.4815 31.2196 29.4961 31.1826 29.514 31.1573C29.5318 31.132 29.5515 31.0977 29.5576 31.081C29.5638 31.0643 29.579 31.0507 29.5916 31.0507C29.6042 31.0507 29.6244 31.0351 29.6365 31.016C29.674 30.9573 30.0122 30.9696 30.065 31.0316C30.0698 31.0374 30.098 31.0505 30.1276 31.0608C30.2044 31.0876 30.2241 31.0588 30.2241 30.9195C30.2241 30.8391 30.2344 30.7852 30.2581 30.7412C30.2768 30.7066 30.2967 30.6574 30.3023 30.6318C30.308 30.6063 30.3245 30.5737 30.339 30.5594C30.3536 30.5452 30.3655 30.5205 30.3655 30.5046C30.3655 30.4888 30.3814 30.4717 30.4009 30.4667C30.4233 30.461 30.4363 30.4431 30.4363 30.4178C30.4363 30.3599 30.4542 30.3231 30.4824 30.3231C30.496 30.3231 30.507 30.306 30.507 30.2847C30.507 30.2346 30.5605 30.0979 30.5801 30.0979C30.5885 30.0979 30.5954 30.0824 30.5954 30.0633C30.5954 30.0443 30.5847 30.0287 30.5717 30.0287C30.5587 30.0287 30.5394 30.0102 30.5289 29.9876C30.5184 29.965 30.4614 29.9093 30.4023 29.8638C30.3432 29.8183 30.2948 29.7714 30.2948 29.7596C30.2948 29.7478 30.2789 29.7341 30.2594 29.7292C30.2278 29.7211 30.2241 29.7056 30.2243 29.5842C30.2246 29.4256 30.2365 29.3704 30.2704 29.3704C30.2872 29.3704 30.2948 29.3482 30.2948 29.2988C30.2948 29.2032 30.3326 29.0066 30.3509 29.0066C30.3718 29.0066 30.3694 28.5085 30.3485 28.5014C30.3252 28.4935 30.2951 28.2205 30.295 28.0149C30.2948 27.8576 30.2924 27.846 30.2594 27.846C30.24 27.846 30.2241 27.8526 30.2241 27.8606C30.2241 27.8795 30.1434 27.9153 30.1007 27.9153C30.0796 27.9153 30.0653 27.9296 30.0618 27.9543C30.0565 27.9907 30.0476 27.9933 29.9235 27.9933C29.8029 27.9933 29.7893 27.9897 29.7734 27.9543C29.7638 27.9328 29.742 27.9153 29.7248 27.9153C29.7054 27.9153 29.6937 27.9022 29.6937 27.8807C29.6937 27.8576 29.6819 27.846 29.6583 27.846C29.6363 27.846 29.6229 27.8345 29.6229 27.8155C29.6229 27.7988 29.607 27.7753 29.5876 27.7634C29.565 27.7496 29.5522 27.723 29.5522 27.69C29.5522 27.6572 29.5431 27.6381 29.5276 27.6381C29.4981 27.6381 29.4815 27.6009 29.4815 27.5346C29.4815 27.5079 29.4711 27.482 29.4583 27.4772C29.4281 27.4659 29.3931 27.3497 29.3931 27.2608C29.3931 27.2222 29.3853 27.188 29.3759 27.1849C29.3516 27.1767 29.3231 26.9632 29.3231 26.7893C29.3231 26.6155 29.3516 26.402 29.3759 26.3938C29.3978 26.3864 29.3991 25.8193 29.3771 25.8193C29.3555 25.8193 29.3224 25.722 29.3224 25.6584C29.3224 25.6299 29.3092 25.5971 29.2931 25.5856C29.274 25.5719 29.2609 25.5305 29.2555 25.4668C29.251 25.4129 29.2409 25.3689 29.233 25.3689C29.1976 25.3689 29.1782 25.172 29.1838 24.8694C29.189 24.5911 29.1936 24.5491 29.2207 24.5297C29.2388 24.5168 29.2516 24.485 29.2516 24.4534C29.2516 24.4179 29.2639 24.3916 29.287 24.3775C29.3064 24.3656 29.3224 24.3398 29.3224 24.3202C29.3224 24.3006 29.3296 24.2771 29.3384 24.268C29.3472 24.259 29.3763 24.2126 29.403 24.165C29.4296 24.1173 29.4597 24.0731 29.4698 24.0667C29.4808 24.0597 29.4898 23.9469 29.4925 23.7839C29.497 23.5103 29.5079 23.4114 29.5338 23.4114C29.5416 23.4114 29.5514 23.3666 29.5556 23.3118C29.5598 23.2571 29.576 23.1849 29.5915 23.1516C29.607 23.1183 29.6239 23.0562 29.629 23.0136C29.6341 22.9711 29.6494 22.9282 29.6631 22.9184C29.6768 22.9085 29.6924 22.8574 29.6979 22.8049C29.7034 22.7524 29.7199 22.6822 29.7346 22.649C29.7493 22.6158 29.7706 22.5438 29.7818 22.489C29.7953 22.4236 29.8109 22.3894 29.8275 22.3894C29.8466 22.3894 29.8528 22.364 29.8528 22.2857C29.8528 22.1766 29.8857 22.0256 29.9095 22.0256C29.9172 22.0256 29.9235 21.9706 29.9235 21.9034C29.9235 21.7472 29.96 21.454 29.9794 21.454C29.9876 21.454 29.9942 21.2903 29.9942 21.0902C29.9942 20.8901 29.9878 20.7264 29.9798 20.7264C29.9635 20.7264 29.9247 20.3827 29.9197 20.194C29.9179 20.1251 29.9108 20.0776 29.9039 20.0886C29.8846 20.1191 29.853 19.9856 29.8529 19.8733C29.8528 19.7956 29.8468 19.7737 29.8258 19.7737C29.7924 19.7737 29.7644 19.7049 29.7644 19.6229C29.7644 19.5839 29.7529 19.5528 29.7334 19.5389C29.7067 19.5197 29.7017 19.4798 29.6968 19.2447C29.6914 18.9853 29.6951 18.9544 29.747 18.8296C29.7549 18.8106 29.77 18.6118 29.7806 18.3879C29.7959 18.0619 29.805 17.977 29.8263 17.9616C29.8464 17.947 29.8528 17.9049 29.8528 17.7862C29.8528 17.5993 29.8664 17.5218 29.8992 17.5218C29.9179 17.5218 29.9235 17.4876 29.9235 17.3722C29.9235 17.2126 29.9554 17.0021 29.9796 17.0021C29.9877 17.0021 29.9942 16.9378 29.9942 16.8592C29.9942 16.6924 30.0282 16.4305 30.05 16.4305C30.0582 16.4305 30.0649 16.3817 30.0649 16.3222C30.0649 16.1826 30.1013 15.9226 30.1229 15.9086C30.1482 15.8921 30.1499 14.4058 30.1247 14.3901C30.0913 14.3693 30.0649 14.2036 30.0653 14.0174C30.0657 13.8175 30.0928 13.6011 30.1185 13.5924C30.128 13.5893 30.1357 13.5395 30.1357 13.4818C30.1357 13.3434 30.1716 13.1565 30.1982 13.1565C30.2126 13.1565 30.222 13.0938 30.2283 12.9543C30.2354 12.7949 30.2434 12.7477 30.2661 12.7315C30.289 12.7151 30.2948 12.6787 30.2948 12.5516C30.2948 12.3651 30.3293 12.0652 30.3507 12.0652C30.3708 12.0652 30.3698 11.1169 30.3496 11.1095C30.3271 11.1014 30.2948 10.7221 30.2948 10.4656C30.2948 10.3295 30.2879 10.2469 30.2762 10.2431C30.2469 10.2335 30.225 10.1119 30.2245 9.95614C30.2241 9.82464 30.2269 9.81323 30.2594 9.81323C30.2854 9.81323 30.2948 9.80168 30.2948 9.76993C30.2948 9.73817 30.3042 9.72662 30.3302 9.72662C30.3501 9.72662 30.3655 9.71507 30.3655 9.70009C30.3655 9.6855 30.3795 9.66869 30.3965 9.66274C30.4135 9.65678 30.4557 9.62195 30.4904 9.58533C30.525 9.54871 30.5628 9.51875 30.5743 9.51875C30.586 9.51875 30.5954 9.49522 30.5954 9.46594C30.5954 9.4369 30.6113 9.38087 30.6307 9.34143C30.6502 9.30199 30.6661 9.24065 30.6661 9.20511C30.6661 9.12361 30.6807 9.08569 30.7122 9.08569C30.7257 9.08569 30.7368 9.07093 30.7368 9.05289C30.7368 9.01719 30.7696 8.99907 30.834 8.99907C30.8568 8.99907 30.8784 8.9902 30.882 8.97935C30.887 8.96475 30.9046 8.96459 30.9498 8.97875C30.9834 8.98927 31.0328 9.00219 31.0595 9.00746C31.0929 9.01405 31.1081 9.02781 31.1081 9.05137C31.1081 9.07414 31.12 9.08569 31.1435 9.08569C31.1663 9.08569 31.1789 9.09723 31.1789 9.11831C31.1789 9.13637 31.1946 9.15498 31.2142 9.16C31.2398 9.16655 31.2496 9.18362 31.2496 9.22175C31.2496 9.25395 31.2668 9.29262 31.2938 9.32118C31.3181 9.34688 31.338 9.38626 31.338 9.40868C31.338 9.43111 31.3443 9.44946 31.3521 9.44946C31.3765 9.44946 31.4087 9.56105 31.4087 9.64557C31.4087 9.69015 31.4154 9.72662 31.4236 9.72662C31.4317 9.72662 31.4493 9.75907 31.4627 9.79873C31.4776 9.84292 31.5298 9.91503 31.5977 9.98495C31.665 10.0544 31.7085 10.1143 31.7088 10.138C31.7092 10.1653 31.7199 10.177 31.7446 10.177C31.7666 10.177 31.78 10.1886 31.78 10.2075C31.78 10.2242 31.7959 10.2477 31.8154 10.2596C31.8379 10.2734 31.8507 10.3 31.8507 10.3331C31.8507 10.3616 31.8587 10.3849 31.8684 10.3849C31.8781 10.3849 31.8861 10.4005 31.8861 10.4195C31.8861 10.4386 31.8781 10.4542 31.8684 10.4542C31.8587 10.4542 31.8507 10.4917 31.8507 10.5375C31.8507 10.6 31.8408 10.6313 31.811 10.6627C31.7724 10.7033 31.7713 10.7139 31.7757 11.0158C31.7782 11.187 31.7865 11.3314 31.7941 11.3367C31.8018 11.3419 31.8182 11.4069 31.8306 11.4809C31.8554 11.6286 31.9054 11.7014 31.9821 11.7014C32.0318 11.7014 32.1513 11.8238 32.1513 11.8747C32.1513 11.8937 32.158 11.9093 32.1662 11.9093C32.1925 11.9093 32.222 12.0399 32.222 12.1567C32.222 12.2234 32.23 12.2728 32.2414 12.2765C32.2708 12.2861 32.2911 12.4187 32.292 12.6065C32.2926 12.7517 32.2977 12.7803 32.3281 12.81C32.3476 12.8291 32.3635 12.8642 32.3635 12.888C32.3635 12.9118 32.3726 12.9313 32.3837 12.9313C32.41 12.9313 32.5222 13.0381 32.5224 13.0633C32.5225 13.074 32.5544 13.0878 32.5933 13.0938C32.6391 13.101 32.6641 13.114 32.6641 13.1307C32.6641 13.1509 32.689 13.1565 32.779 13.1565C32.8821 13.1565 32.8939 13.16 32.8939 13.1911C32.8939 13.2142 32.9057 13.2258 32.9293 13.2258C32.962 13.2258 32.9646 13.2373 32.9646 13.3788C32.9646 13.5403 32.9348 13.7281 32.9091 13.7281C32.9008 13.7281 32.8939 13.7711 32.8939 13.8237C32.8939 13.9394 32.8225 14.0919 32.7683 14.0919C32.7434 14.0919 32.7348 14.1043 32.7348 14.1404C32.7348 14.1997 32.6197 14.3171 32.5616 14.3171C32.5344 14.3171 32.5226 14.3276 32.5226 14.3517C32.5226 14.3748 32.5108 14.3864 32.4872 14.3864C32.4678 14.3864 32.4519 14.3972 32.4519 14.4105C32.4519 14.4397 32.4138 14.4557 32.3444 14.4557C32.3055 14.4557 32.2928 14.4638 32.2928 14.4885C32.2928 14.5241 32.26 14.5423 32.1961 14.5423C32.1703 14.5423 32.1521 14.555 32.1462 14.5769C32.1411 14.596 32.125 14.6116 32.1103 14.6116C32.0839 14.6116 32.0795 14.6278 32.0525 14.8238C32.0452 14.877 32.0326 14.9061 32.0167 14.9061C31.9994 14.9061 31.9922 14.9291 31.9922 14.984C31.9922 15.0389 31.9817 15.0722 31.9568 15.0966C31.9128 15.1397 31.904 15.3391 31.9461 15.3391C31.9744 15.3391 31.9922 15.3759 31.9922 15.4344C31.9922 15.4566 32.0008 15.4777 32.0114 15.4811C32.0608 15.4972 32.0806 15.6761 32.0806 16.106C32.0806 16.4577 32.0757 16.5454 32.0536 16.5872C32.0388 16.6153 32.0189 16.6383 32.0094 16.6383C31.9999 16.6383 31.9922 16.6578 31.9922 16.6816C31.9922 16.7134 31.9827 16.7249 31.9568 16.7249C31.9307 16.7249 31.9215 16.7365 31.9215 16.7693C31.9215 16.802 31.8794 16.8553 31.7623 16.9712C31.6748 17.0579 31.6032 17.1353 31.6032 17.1434C31.6032 17.1514 31.5922 17.158 31.5787 17.158C31.5653 17.158 31.5501 17.1736 31.545 17.1926C31.5399 17.2117 31.5231 17.2273 31.5076 17.2273C31.4912 17.2273 31.4794 17.2418 31.4794 17.2619C31.4794 17.285 31.4676 17.2966 31.4441 17.2966C31.4166 17.2966 31.4087 17.3081 31.4087 17.3485C31.4087 17.3771 31.3941 17.4149 31.3761 17.4324C31.3582 17.45 31.3382 17.5026 31.3316 17.5494C31.3052 17.7355 31.2885 17.8064 31.2695 17.8126C31.2557 17.8171 31.2496 17.9118 31.2496 18.1185C31.2496 18.4151 31.2296 18.5991 31.1962 18.6102C31.1867 18.6134 31.1789 18.6572 31.1789 18.7076C31.1789 18.8329 31.1615 18.9076 31.1324 18.9076C31.1162 18.9076 31.1081 18.9291 31.1079 18.9725C31.1075 19.063 31.0907 19.1154 31.0619 19.1154C31.0451 19.1154 31.0374 19.1374 31.0374 19.1857C31.0374 19.272 31.0035 19.4099 30.9823 19.4099C30.9737 19.4099 30.9667 19.5386 30.9667 19.6958C30.9667 19.9585 30.9695 19.9844 31.002 20.0162C31.0215 20.0353 31.0374 20.0662 31.0374 20.085C31.0374 20.1038 31.0533 20.1469 31.0728 20.1808C31.0922 20.2147 31.1081 20.2695 31.1081 20.3026C31.1081 20.3424 31.1164 20.3627 31.1328 20.3627C31.1613 20.3627 31.1789 20.3996 31.1789 20.4594C31.1789 20.4824 31.1855 20.5013 31.1937 20.5013C31.2192 20.5013 31.2496 20.5864 31.2496 20.658C31.2496 20.7036 31.2575 20.7264 31.2733 20.7264C31.3053 20.7264 31.338 20.8013 31.338 20.8745C31.338 20.9074 31.3452 20.9343 31.3539 20.9343C31.3765 20.9343 31.4087 21.0326 31.4087 21.1015C31.4087 21.1334 31.4153 21.1595 31.4234 21.1595C31.4482 21.1595 31.4794 21.3288 31.4794 21.464C31.4794 21.5382 31.4869 21.5926 31.4971 21.5926C31.5071 21.5926 31.5148 21.6417 31.5148 21.7052C31.5148 21.7687 31.5071 21.8178 31.4971 21.8178C31.4874 21.8178 31.4794 21.8603 31.4794 21.9122C31.4794 22.0058 31.4522 22.0949 31.4236 22.0949C31.4154 22.0949 31.4087 22.1102 31.4087 22.1288C31.4087 22.1716 31.3724 22.2508 31.3528 22.2508C31.3447 22.2508 31.338 22.2669 31.338 22.2866C31.338 22.337 31.3061 22.3894 31.2755 22.3894C31.254 22.3894 31.2496 22.4287 31.2496 22.6175C31.2496 22.7429 31.2552 22.8401 31.262 22.8334C31.288 22.808 31.3357 23.0069 31.3368 23.1452C31.3379 23.2812 31.3049 23.4114 31.2692 23.4114C31.2609 23.4114 31.2494 23.4339 31.2438 23.4613C31.2382 23.4888 31.2224 23.5222 31.2086 23.5358C31.1948 23.5493 31.178 23.5775 31.1712 23.5985C31.1644 23.6195 31.1474 23.6366 31.1335 23.6366C31.1195 23.6366 31.1081 23.6478 31.1081 23.6616C31.1081 23.6975 31.0145 23.8433 30.991 23.844C30.9801 23.8442 30.966 23.8765 30.9596 23.9155C30.9514 23.966 30.9379 23.9892 30.9131 23.9955C30.8804 24.0039 30.8783 24.0202 30.8783 24.2623C30.8783 24.4622 30.8834 24.5201 30.9012 24.5201C30.9294 24.5201 30.9667 24.616 30.9667 24.6884C30.9667 24.7181 30.9777 24.7457 30.9915 24.7509C31.0052 24.7561 31.0221 24.7861 31.0291 24.8177C31.036 24.8493 31.0567 24.9041 31.0749 24.9395C31.1008 24.9895 31.1081 25.0418 31.1081 25.1755C31.1081 25.3774 31.0952 25.4555 31.0617 25.4555C31.0456 25.4555 31.0374 25.4765 31.0374 25.5178C31.0374 25.552 31.0229 25.6008 31.0053 25.6261C30.9876 25.6513 30.9634 25.7052 30.9515 25.7457C30.9388 25.789 30.9193 25.8193 30.9041 25.8193C30.8855 25.8193 30.8783 25.84 30.8782 25.8929C30.878 25.9816 30.8477 26.0964 30.8244 26.0964C30.8141 26.0964 30.8076 26.2824 30.8076 26.5728C30.8076 26.8501 30.8143 27.0492 30.8238 27.0492C30.8535 27.0492 30.8783 27.2219 30.8783 27.4297C30.8783 27.5586 30.8852 27.6375 30.897 27.6414C30.9221 27.6496 30.9479 27.9265 30.9485 28.1946C30.9491 28.4478 30.9581 28.506 31.004 28.5543C31.0224 28.5736 31.0374 28.6015 31.0374 28.6161C31.0374 28.6308 31.0485 28.6429 31.062 28.6429C31.0915 28.6429 31.1081 28.6801 31.1081 28.7462C31.1081 28.7801 31.1187 28.7974 31.1435 28.8038C31.1735 28.8115 31.1789 28.8274 31.1789 28.9097C31.1789 28.9807 31.1854 29.0066 31.2033 29.0066C31.2374 29.0066 31.2491 29.0619 31.2493 29.2256C31.2496 29.3349 31.2556 29.3689 31.2761 29.3767C31.2907 29.3822 31.3026 29.4049 31.3026 29.4272C31.3026 29.4682 31.3603 29.5436 31.3917 29.5436C31.4011 29.5436 31.4087 29.5543 31.4087 29.5674C31.4087 29.5805 31.4306 29.5956 31.4573 29.6009C31.4841 29.6062 31.5326 29.6361 31.5651 29.6673L31.6242 29.7242L31.613 29.8721C31.6069 29.9534 31.6022 30.0473 31.6026 30.0806C31.6031 30.114 31.6075 30.4726 31.6126 30.8775C31.6215 31.5846 31.612 31.7782 31.5685 31.7782C31.5612 31.7782 31.5504 31.8229 31.5447 31.8775C31.5384 31.9372 31.5233 31.9845 31.5068 31.9963C31.4665 32.0252 31.4667 32.4149 31.507 32.4438C31.5465 32.4721 31.5615 32.7011 31.5326 32.8345C31.5201 32.8919 31.5041 32.9389 31.4969 32.9389C31.4897 32.9389 31.4801 32.9829 31.4755 33.0367C31.4701 33.1005 31.4571 33.1419 31.438 33.1556C31.4219 33.1671 31.4087 33.1991 31.4086 33.2266C31.4086 33.2541 31.3927 33.3022 31.3733 33.3334C31.3539 33.3646 31.338 33.4012 31.338 33.4148C31.338 33.4578 31.2979 33.5278 31.2733 33.5278C31.26 33.5278 31.2496 33.5463 31.2496 33.5697C31.2496 33.6295 31.232 33.6664 31.2035 33.6664C31.185 33.6664 31.1789 33.6943 31.1789 33.779C31.1789 33.8671 31.1846 33.8916 31.2052 33.8916C31.2222 33.8916 31.2355 33.916 31.2428 33.9609C31.2511 34.012 31.2625 34.0302 31.286 34.0302C31.3036 34.0302 31.3228 34.0454 31.3289 34.0639C31.3349 34.0825 31.3553 34.1025 31.3743 34.1084C31.3932 34.1143 31.4087 34.1342 31.4087 34.1526C31.4087 34.1768 31.421 34.1861 31.4529 34.1861C31.4772 34.1861 31.513 34.2017 31.5325 34.2207C31.5572 34.2449 31.5914 34.2554 31.646 34.2554C31.7409 34.2554 31.78 34.2686 31.78 34.3005C31.78 34.3138 31.7959 34.3247 31.8154 34.3247C31.835 34.3247 31.8507 34.3362 31.8507 34.3506C31.8507 34.3649 31.8667 34.3922 31.8861 34.4113C31.912 34.4367 31.9215 34.469 31.9215 34.5325C31.9215 34.5802 31.9281 34.6191 31.9361 34.6191C31.9582 34.6191 31.9922 34.7826 31.9922 34.889C31.9922 34.9416 32.0002 34.9829 32.0103 34.9829C32.0203 34.9829 32.0358 35.0018 32.0447 35.025C32.0667 35.0816 32.148 35.1143 32.3281 35.1391C32.4108 35.1505 32.4943 35.1667 32.5138 35.1751C32.5332 35.1835 32.752 35.1924 33 35.1949C33.4933 35.1999 33.551 35.2101 33.5632 35.2949C33.5666 35.3186 33.5785 35.3436 33.5897 35.3505C33.6048 35.3598 33.6044 35.3718 33.5879 35.3979C33.5757 35.4171 33.5658 35.4446 33.5658 35.459C33.5658 35.4755 33.5493 35.4853 33.5216 35.4853C33.4892 35.4853 33.4774 35.4945 33.4774 35.5199C33.4774 35.543 33.4656 35.5546 33.442 35.5546C33.4226 35.5546 33.4067 35.5661 33.4067 35.5801C33.4067 35.6144 33.3257 35.6648 33.2969 35.6485C33.2843 35.6414 33.2796 35.6417 33.2865 35.6491C33.3009 35.6649 33.2592 35.7105 33.2304 35.7105C33.2195 35.7105 33.1936 35.7261 33.1727 35.7451C33.1519 35.7642 33.1124 35.7798 33.0851 35.7798C33.0471 35.7798 33.0354 35.788 33.0354 35.8144C33.0354 35.8335 33.0274 35.849 33.0177 35.849C33.008 35.849 33 35.8646 33 35.8837C33 35.9027 32.992 35.9183 32.9823 35.9183C32.9713 35.9183 32.9646 36.0215 32.9646 36.1933C32.9646 36.4957 32.9548 36.5766 32.9182 36.5766C32.9036 36.5766 32.8938 36.5955 32.8936 36.6242C32.8933 36.6842 32.8798 36.7048 32.8054 36.7586C32.7499 36.7986 32.7311 36.8018 32.5457 36.8018C32.3757 36.8018 32.341 36.797 32.3135 36.7701ZM32.6917 36.5338C32.7313 36.4918 32.7343 36.4733 32.7439 36.2081C32.7569 35.8474 32.7654 35.7798 32.7977 35.7798C32.8117 35.7798 32.8232 35.7642 32.8232 35.7451C32.8232 35.722 32.835 35.7105 32.8585 35.7105C32.8821 35.7105 32.8939 35.6989 32.8939 35.6758C32.8939 35.6527 32.9057 35.6412 32.9293 35.6412C32.9487 35.6412 32.9646 35.6298 32.9646 35.6158C32.9646 35.5863 33.0179 35.5546 33.0675 35.5546C33.0871 35.5546 33.1059 35.5396 33.1112 35.5199C33.1165 35.4999 33.1353 35.4853 33.1556 35.4853C33.1905 35.4853 33.2194 35.4462 33.1992 35.4263C33.1933 35.4206 33.0606 35.416 32.9042 35.4159C32.6079 35.4159 32.3059 35.3893 32.2957 35.3623C32.2925 35.3537 32.2495 35.3467 32.2002 35.3467C32.0851 35.3467 31.9215 35.2752 31.9215 35.2249C31.9215 35.2023 31.9095 35.1908 31.8861 35.1908C31.8625 35.1908 31.8507 35.1792 31.8507 35.1561C31.8507 35.1371 31.844 35.1215 31.8359 35.1215C31.8094 35.1215 31.78 34.9906 31.78 34.8726C31.78 34.7854 31.774 34.7577 31.7551 34.7577C31.7384 34.7577 31.7265 34.728 31.7187 34.6668C31.6969 34.4949 31.6705 34.4646 31.5413 34.4631C31.5121 34.4627 31.4684 34.4472 31.4441 34.4286C31.4198 34.41 31.3859 34.3945 31.3689 34.3943C31.3499 34.3941 31.338 34.3806 31.338 34.3593C31.338 34.3347 31.3262 34.3247 31.2975 34.3247C31.2451 34.3247 31.1081 34.1894 31.1081 34.1378C31.1081 34.111 31.0975 34.0995 31.0728 34.0995C31.0433 34.0995 31.0374 34.0879 31.0374 34.0302C31.0374 33.9825 31.0297 33.9609 31.0128 33.9609C30.9783 33.9609 30.9667 33.9218 30.9667 33.8057C30.9667 33.6722 30.9834 33.5971 31.0131 33.5971C31.0292 33.5971 31.0374 33.5761 31.0374 33.5349C31.0374 33.4872 31.0457 33.4705 31.0728 33.4635C31.0999 33.4566 31.1081 33.4399 31.1082 33.3915C31.1082 33.3569 31.1229 33.3051 31.1408 33.2763C31.1587 33.2475 31.179 33.1949 31.1858 33.1594C31.1933 33.1199 31.2082 33.0948 31.2239 33.0948C31.2414 33.0948 31.2496 33.0758 31.2496 33.0354C31.2496 32.9409 31.2884 32.8003 31.3145 32.8003C31.3316 32.8003 31.338 32.7697 31.338 32.6877C31.338 32.6257 31.3313 32.5751 31.3231 32.5751C31.2974 32.5751 31.2633 32.4334 31.2539 32.2868C31.2436 32.1267 31.2763 31.9168 31.3115 31.9168C31.3269 31.9168 31.3362 31.8782 31.3411 31.7937C31.3463 31.7032 31.3562 31.6648 31.3785 31.6489C31.4056 31.6294 31.4087 31.5827 31.4087 31.1917C31.4087 30.9129 31.4023 30.7562 31.391 30.7562C31.3812 30.7562 31.3733 30.71 31.3733 30.6523C31.3733 30.5945 31.3812 30.5483 31.391 30.5483C31.4013 30.5483 31.4087 30.4918 31.4087 30.4134C31.4087 30.3127 31.3997 30.2613 31.3733 30.2105C31.3539 30.1732 31.338 30.1257 31.338 30.1051C31.338 30.0304 31.3606 29.9594 31.3844 29.9594C31.4009 29.9594 31.4087 29.9376 31.4087 29.8921C31.4087 29.8394 31.4011 29.8229 31.3733 29.8158C31.3522 29.8104 31.338 29.7921 31.338 29.7704C31.338 29.7416 31.327 29.7342 31.2844 29.7342C31.2168 29.7342 31.1081 29.634 31.1081 29.5716C31.1081 29.5483 31.0988 29.5261 31.0873 29.5224C31.0643 29.5149 31.0412 29.3649 31.0389 29.2077C31.0378 29.134 31.0293 29.0999 31.0081 29.0848C30.9891 29.0711 30.976 29.0297 30.9706 28.9659C30.9654 28.9051 30.9542 28.868 30.9408 28.868C30.9184 28.868 30.8783 28.7966 30.8783 28.7567C30.8783 28.7439 30.8624 28.7294 30.8429 28.7245C30.8235 28.7195 30.8076 28.703 30.8076 28.6878C30.8076 28.6726 30.7916 28.6446 30.7722 28.6255C30.7396 28.5936 30.7368 28.5678 30.7368 28.2964C30.7368 28.1344 30.7302 28.0019 30.7222 28.0019C30.7026 28.0019 30.6661 27.5875 30.6661 27.3653C30.6661 27.223 30.6611 27.1878 30.6409 27.1878C30.6006 27.1878 30.5921 27.0503 30.5984 26.4978C30.6037 26.0378 30.6072 25.9876 30.6352 25.9675C30.6554 25.9531 30.6662 25.922 30.6664 25.878C30.6667 25.7852 30.6833 25.7327 30.7124 25.7327C30.7282 25.7327 30.7369 25.7127 30.7369 25.6764C30.7369 25.6454 30.7512 25.5967 30.7687 25.5681C30.7861 25.5395 30.8102 25.483 30.8223 25.4425C30.8344 25.402 30.852 25.3689 30.8613 25.3689C30.871 25.3689 30.8783 25.2948 30.8783 25.1957C30.8783 25.1004 30.8723 25.0224 30.865 25.0223C30.8436 25.0221 30.8076 24.933 30.8076 24.8804C30.8076 24.8537 30.7916 24.8163 30.7722 24.7972C30.7463 24.7718 30.7368 24.7395 30.7368 24.676C30.7368 24.6122 30.7301 24.5894 30.7114 24.5894C30.674 24.5894 30.6617 24.4744 30.6688 24.1913C30.674 23.9817 30.6795 23.9424 30.7059 23.9235C30.7229 23.9113 30.7368 23.8853 30.7368 23.8657C30.7368 23.8118 30.7555 23.7752 30.7829 23.7752C30.7974 23.7752 30.8076 23.7574 30.8076 23.7319C30.8076 23.7081 30.8227 23.6738 30.8412 23.6557C30.8597 23.6376 30.8801 23.6064 30.8866 23.5864C30.8932 23.566 30.9133 23.55 30.9325 23.55C30.9587 23.55 30.9667 23.5379 30.9667 23.4982C30.9667 23.4651 30.9795 23.4385 31.002 23.4247C31.0215 23.4128 31.0376 23.3913 31.0378 23.377C31.038 23.3626 31.0538 23.3313 31.0728 23.3075C31.121 23.2471 31.1242 23.0023 31.0772 22.9687C31.0507 22.9497 31.0454 22.9101 31.0401 22.6925C31.0333 22.4102 31.0436 22.3201 31.0824 22.3201C31.1001 22.3201 31.1081 22.3008 31.1081 22.2579C31.1081 22.2102 31.1164 22.1935 31.1435 22.1866C31.1699 22.1798 31.1789 22.1629 31.1789 22.1199C31.1789 22.0882 31.1938 22.0365 31.212 22.005C31.2658 21.912 31.2922 21.7076 31.2692 21.5624C31.2584 21.4943 31.2496 21.4071 31.2496 21.3684C31.2496 21.3297 31.2433 21.2981 31.2356 21.2981C31.2153 21.2981 31.1789 21.1533 31.1789 21.0726C31.1789 21.0254 31.1711 21.0036 31.1544 21.0036C31.1256 21.0036 31.1087 20.9512 31.1084 20.8607C31.1082 20.8171 31.1001 20.7957 31.0837 20.7957C31.0581 20.7957 31.0381 20.7449 31.0377 20.6788C31.0375 20.6574 31.0307 20.6398 31.0226 20.6398C30.9983 20.6398 30.9667 20.556 30.9667 20.4918C30.9667 20.4533 30.9582 20.432 30.943 20.432C30.9161 20.432 30.8783 20.3606 30.8783 20.3099C30.8783 20.2913 30.8719 20.2761 30.8642 20.2761C30.8455 20.2761 30.8076 20.1719 30.8076 20.1208C30.8076 20.0987 30.7936 20.0707 30.7766 20.0585C30.749 20.0387 30.7457 20.0004 30.7457 19.7015C30.7457 19.4166 30.7503 19.3578 30.7766 19.3077C30.7936 19.2752 30.8076 19.2277 30.8076 19.202C30.8076 19.1425 30.8414 19.0462 30.8623 19.0462C30.8711 19.0462 30.8783 19.0256 30.8783 19.0005C30.8783 18.9315 30.9165 18.821 30.9404 18.821C30.9546 18.821 30.9648 18.766 30.9717 18.6527C30.9793 18.5285 30.9893 18.4792 31.0097 18.4646C31.0329 18.4479 31.0374 18.3983 31.0374 18.1577C31.0374 17.8775 31.0621 17.6087 31.0895 17.5911C31.0971 17.5863 31.1073 17.5402 31.1122 17.4885C31.1178 17.4299 31.132 17.3869 31.15 17.374C31.1659 17.3627 31.1789 17.3329 31.1789 17.3078C31.1789 17.281 31.1934 17.2533 31.2142 17.2406C31.2337 17.2287 31.2496 17.2064 31.2496 17.191C31.2496 17.1618 31.649 16.7375 31.6852 16.7283C31.6966 16.7254 31.7108 16.704 31.7168 16.6807C31.7228 16.6574 31.7394 16.6383 31.7538 16.6383C31.7682 16.6383 31.7802 16.6247 31.7804 16.608C31.7806 16.5913 31.7964 16.5582 31.8154 16.5344C31.8475 16.4941 31.85 16.4612 31.8503 16.0623C31.8506 15.8265 31.8444 15.6336 31.8366 15.6336C31.8156 15.6336 31.78 15.5266 31.78 15.4635C31.78 15.4283 31.7712 15.4084 31.7557 15.4084C31.7257 15.4084 31.7093 15.3331 31.7093 15.1953C31.7093 15.0941 31.7388 14.9754 31.764 14.9754C31.7707 14.9754 31.7865 14.9247 31.799 14.8628C31.8116 14.8008 31.8284 14.7502 31.8363 14.7502C31.8442 14.7502 31.8507 14.7034 31.8507 14.6462C31.8507 14.5636 31.8564 14.5423 31.8783 14.5423C31.8935 14.5423 31.9011 14.5347 31.8952 14.5254C31.8799 14.5012 31.9916 14.3864 32.0304 14.3864C32.0483 14.3864 32.0788 14.3708 32.0983 14.3517C32.1177 14.3327 32.1516 14.3171 32.1736 14.3171C32.1956 14.3171 32.2235 14.3015 32.2356 14.2825C32.2497 14.2604 32.2768 14.2478 32.3106 14.2478C32.3517 14.2478 32.3635 14.2401 32.3635 14.2132C32.3635 14.1878 32.3753 14.1785 32.4077 14.1785C32.4408 14.1785 32.4519 14.1694 32.4519 14.1423C32.4519 14.1211 32.466 14.1024 32.4856 14.0973C32.5042 14.0926 32.5233 14.0738 32.5282 14.0557C32.533 14.0375 32.5487 14.0226 32.5629 14.0226C32.5774 14.0226 32.5934 14.0005 32.5991 13.9727C32.6047 13.9453 32.6203 13.912 32.6339 13.8988C32.6474 13.8855 32.6687 13.8105 32.6811 13.7321C32.6936 13.6537 32.7107 13.5896 32.7193 13.5896C32.7278 13.5896 32.7348 13.5396 32.7348 13.4785V13.3674L32.6641 13.3557C32.6206 13.3485 32.5933 13.3346 32.5933 13.3195C32.5933 13.3025 32.5717 13.2951 32.5226 13.2951C32.4637 13.2951 32.4519 13.2893 32.4519 13.2604C32.4519 13.2352 32.4401 13.2258 32.4084 13.2258C32.3467 13.2258 32.222 13.106 32.222 13.0466C32.222 13.0121 32.2132 13.0006 32.1867 13.0006C32.1574 13.0006 32.1513 12.989 32.1513 12.9333C32.1513 12.8806 32.1437 12.8641 32.1159 12.857C32.0831 12.8486 32.0806 12.8334 32.0806 12.6459C32.0806 12.5014 32.0739 12.4373 32.0572 12.4209C32.0443 12.4083 32.0236 12.3289 32.0112 12.2446C31.9878 12.0855 31.9264 11.9101 31.894 11.9096C31.8645 11.9091 31.7803 11.8673 31.7801 11.853C31.7801 11.8458 31.7678 11.84 31.7529 11.84C31.738 11.84 31.7209 11.8274 31.7149 11.8121C31.7089 11.7968 31.6853 11.7644 31.6625 11.7403C31.6323 11.7084 31.6209 11.676 31.6209 11.6224C31.6209 11.5817 31.6137 11.5458 31.6049 11.5426C31.5774 11.5326 31.5503 11.2365 31.5502 10.9449C31.5502 10.6516 31.5559 10.6101 31.5963 10.6101C31.6122 10.6101 31.621 10.5902 31.6212 10.5538C31.6213 10.5228 31.6287 10.4862 31.6375 10.4725C31.6479 10.4565 31.6449 10.431 31.6291 10.4011C31.6156 10.3755 31.6103 10.3478 31.6172 10.3394C31.6241 10.3311 31.6225 10.33 31.6137 10.3371C31.591 10.3552 31.5502 10.3177 31.5502 10.2788C31.5502 10.2609 31.538 10.2463 31.5231 10.2463C31.5082 10.2463 31.4908 10.2327 31.4845 10.216C31.4781 10.1993 31.4585 10.1755 31.4408 10.163C31.4232 10.1506 31.4087 10.1291 31.4087 10.1154C31.4087 10.1016 31.3965 10.0904 31.3816 10.0904C31.3667 10.0904 31.3493 10.0771 31.343 10.0608C31.3366 10.0446 31.3156 10.0134 31.2962 9.99159C31.2422 9.93074 31.1789 9.75193 31.1789 9.66032C31.1789 9.62551 31.1506 9.55178 31.108 9.47528C31.0691 9.40534 31.0355 9.32756 31.0334 9.30243C31.0286 9.24636 31.0082 9.22853 30.9404 9.22124C30.8888 9.21569 30.8878 9.21712 30.8745 9.31954C30.8667 9.37878 30.8494 9.43174 30.8342 9.44271C30.8189 9.45373 30.8076 9.48884 30.8076 9.52499C30.8076 9.57649 30.8011 9.58804 30.7722 9.58804C30.7452 9.58804 30.7368 9.59959 30.7368 9.6366C30.7368 9.67326 30.7125 9.70741 30.6374 9.77604C30.5827 9.82603 30.515 9.87142 30.4871 9.87689C30.4381 9.88649 30.4363 9.89053 30.4363 9.98718C30.4363 10.0444 30.4446 10.0902 30.4556 10.0938C30.4881 10.1045 30.5054 10.2431 30.5062 10.5004C30.5067 10.6586 30.5137 10.748 30.5259 10.7519C30.6006 10.7763 30.5994 12.3323 30.5246 12.3568C30.5146 12.36 30.5066 12.4348 30.5062 12.53C30.5054 12.7164 30.4849 12.849 30.4556 12.8586C30.4439 12.8624 30.4363 12.9155 30.4363 12.9925C30.4363 13.1331 30.4071 13.2951 30.3817 13.2951C30.3728 13.2951 30.3655 13.3431 30.3655 13.4019C30.3655 13.5317 30.3325 13.7281 30.3107 13.7281C30.3019 13.7281 30.2948 13.8451 30.2948 13.988C30.2948 14.1309 30.3012 14.2478 30.309 14.2478C30.3506 14.2478 30.3655 14.478 30.3655 15.1225C30.3655 15.76 30.3475 16.0868 30.3103 16.1264C30.3018 16.1355 30.2948 16.1925 30.2948 16.253C30.2948 16.3799 30.2616 16.6046 30.2393 16.6288C30.2309 16.6378 30.2241 16.6963 30.2241 16.7587C30.2241 16.9335 30.1878 17.158 30.1595 17.158C30.1412 17.158 30.1357 17.1958 30.1357 17.3212C30.1357 17.4856 30.1068 17.6604 30.0796 17.6604C30.0715 17.6604 30.065 17.7043 30.065 17.758C30.065 17.903 30.0253 18.2493 30.0087 18.2493C30.0007 18.2493 29.9942 18.3745 29.9942 18.5275C29.9942 18.7955 29.9733 18.9552 29.9349 18.98C29.9236 18.9872 29.9172 19.0827 29.9182 19.2279C29.9196 19.4309 29.9242 19.4672 29.9505 19.4861C29.9705 19.5004 29.9844 19.5408 29.9904 19.6019C29.9959 19.6587 30.0106 19.7036 30.0274 19.7157C30.0473 19.7299 30.0572 19.7733 30.062 19.8673C30.0667 19.9584 30.0757 19.9989 30.0912 19.9989C30.1221 19.9989 30.1357 20.0795 30.1357 20.2621C30.1357 20.372 30.1429 20.4242 30.1605 20.4414C30.2315 20.511 30.2268 21.6855 30.1553 21.7303C30.147 21.7355 30.1366 21.8324 30.1323 21.9456C30.1259 22.1124 30.1187 22.1555 30.0947 22.1727C30.0733 22.1881 30.0649 22.2201 30.0647 22.2874C30.0644 22.4049 30.05 22.4587 30.0187 22.4587C30.0009 22.4587 29.9942 22.484 29.9942 22.5514C29.9942 22.6461 29.9663 22.7532 29.9417 22.7532C29.9341 22.7532 29.9242 22.7972 29.9196 22.8511C29.9142 22.9148 29.9011 22.9562 29.8821 22.9699C29.8649 22.9822 29.8527 23.0152 29.8525 23.0496C29.8522 23.121 29.8134 23.2537 29.7881 23.2698C29.7647 23.2847 29.7424 23.4867 29.7371 23.7319C29.7325 23.9448 29.7269 24.0004 29.7098 24.0004C29.7034 24.0004 29.6942 24.0407 29.6894 24.0899C29.684 24.1446 29.6694 24.1875 29.6518 24.2001C29.6359 24.2115 29.6229 24.2343 29.6229 24.2508C29.6229 24.2674 29.6083 24.3016 29.5904 24.3269C29.5726 24.3522 29.5529 24.3865 29.5468 24.4032C29.5407 24.4198 29.5235 24.4335 29.5086 24.4335C29.4904 24.4335 29.4815 24.4502 29.4815 24.484C29.4815 24.5571 29.4647 24.5894 29.4266 24.5894C29.3949 24.5894 29.3931 24.6069 29.3931 24.908C29.3931 25.1606 29.3981 25.2285 29.4171 25.2356C29.4443 25.2459 29.4815 25.3736 29.4815 25.4569C29.4815 25.4881 29.4941 25.5213 29.5103 25.533C29.5279 25.5456 29.5426 25.5884 29.5479 25.6431C29.5528 25.6924 29.5629 25.7327 29.5704 25.7327C29.6039 25.7327 29.6229 25.8599 29.6229 26.084C29.6229 26.3219 29.5957 26.5468 29.5668 26.5468C29.5588 26.5468 29.5522 26.6599 29.5522 26.798C29.5522 26.9362 29.5588 27.0492 29.5669 27.0492C29.5855 27.0492 29.6229 27.2063 29.6229 27.2844C29.6229 27.317 29.6293 27.3437 29.6371 27.3437C29.6567 27.3437 29.6937 27.4491 29.6937 27.5051C29.6937 27.5339 29.7033 27.5515 29.719 27.5515C29.7329 27.5515 29.7498 27.5685 29.7565 27.5892C29.7681 27.6251 29.7807 27.6436 29.8307 27.6981C29.8428 27.7114 29.8528 27.7345 29.8528 27.7495C29.8528 27.7697 29.871 27.7767 29.9235 27.7767C29.9824 27.7767 29.9942 27.771 29.9942 27.7421C29.9942 27.719 30.006 27.7074 30.0296 27.7074C30.049 27.7074 30.065 27.7016 30.0651 27.6944C30.0654 27.666 30.1661 27.6381 30.2684 27.6381C30.3841 27.6381 30.4091 27.6503 30.4689 27.7361C30.5027 27.7846 30.507 27.8142 30.507 27.9988C30.507 28.1295 30.5139 28.2092 30.5257 28.213C30.5518 28.2215 30.5767 28.5017 30.5772 28.7936C30.5777 29.0333 30.5537 29.2234 30.5252 29.2062C30.5174 29.2015 30.5077 29.2491 30.5036 29.3121C30.4983 29.3935 30.4875 29.4328 30.4662 29.448C30.4192 29.4817 30.4272 29.5817 30.4806 29.6271C30.505 29.6479 30.5314 29.6649 30.5393 29.6649C30.5472 29.6649 30.5709 29.6844 30.5921 29.7082C30.6132 29.732 30.6385 29.7515 30.6483 29.7515C30.6581 29.7515 30.6661 29.7662 30.6661 29.7841C30.6661 29.8022 30.6819 29.8208 30.7015 29.8258C30.7286 29.8327 30.7368 29.8494 30.7368 29.8971C30.7368 29.9394 30.7449 29.9594 30.7619 29.9594C30.7758 29.9594 30.7923 29.9826 30.7986 30.011C30.812 30.0705 30.7777 30.2539 30.7533 30.2539C30.7442 30.2539 30.7368 30.2727 30.7368 30.2957C30.7368 30.3555 30.7192 30.3924 30.6907 30.3924C30.6772 30.3924 30.6661 30.4077 30.6661 30.4263C30.6661 30.4691 30.6298 30.5483 30.6102 30.5483C30.6021 30.5483 30.5954 30.5628 30.5954 30.5805C30.5954 30.5981 30.5755 30.6336 30.5512 30.6593C30.5269 30.685 30.507 30.7212 30.507 30.7398C30.507 30.7583 30.4911 30.7891 30.4716 30.8082C30.4402 30.839 30.4363 30.8659 30.4363 31.0523C30.4363 31.2472 30.4338 31.2624 30.4009 31.2709C30.3813 31.2759 30.3655 31.2945 30.3655 31.3125C30.3655 31.3409 30.3515 31.3452 30.2578 31.3452C30.1834 31.3452 30.1354 31.3355 30.103 31.3141C30.0772 31.2971 30.0263 31.268 29.9898 31.2496C29.9533 31.2311 29.9235 31.21 29.9235 31.2027C29.9235 31.1953 29.889 31.1893 29.8468 31.1893C29.7821 31.1893 29.7669 31.1961 29.7499 31.2326C29.7388 31.2564 29.7226 31.2759 29.7139 31.2759C29.7052 31.2759 29.6935 31.2983 29.6879 31.3258C29.6823 31.3532 29.6654 31.3877 29.6503 31.4025C29.6353 31.4172 29.6229 31.4455 29.6229 31.4652C29.6229 31.4849 29.607 31.5167 29.5876 31.5357C29.5681 31.5548 29.5522 31.5826 29.5522 31.5975C29.5522 31.6124 29.5441 31.6395 29.5341 31.6577C29.5189 31.6856 29.5233 31.6926 29.5626 31.7022C29.5906 31.7091 29.614 31.7057 29.6217 31.6937C29.6449 31.6569 29.7537 31.6397 29.9632 31.6397C30.1475 31.6397 30.1751 31.6436 30.2064 31.6743C30.2259 31.6934 30.2537 31.7089 30.2683 31.7089C30.283 31.7089 30.2948 31.7243 30.2948 31.7436C30.2948 31.7626 30.3021 31.7782 30.3111 31.7782C30.3506 31.7782 30.3688 31.8989 30.3478 32.0212C30.3363 32.0876 30.3197 32.142 30.3109 32.142C30.2849 32.142 30.2914 32.3602 30.318 32.3818C30.3309 32.3923 30.3689 32.3963 30.4034 32.3908C30.4473 32.3839 30.4738 32.3891 30.4938 32.4087C30.5094 32.424 30.5386 32.4365 30.5588 32.4365C30.5803 32.4365 30.5954 32.4477 30.5954 32.4637C30.5954 32.4787 30.6073 32.5026 30.6219 32.5169C30.638 32.5327 30.6484 32.5751 30.6484 32.6246C30.6484 32.6696 30.6365 32.7513 30.6219 32.8061C30.6073 32.861 30.5954 32.955 30.5954 33.0151C30.5954 33.1397 30.5681 33.2333 30.5318 33.2333C30.5181 33.2333 30.507 33.2495 30.507 33.2692C30.507 33.2998 30.4087 33.4235 30.2662 33.5724C30.1807 33.6616 30.1912 33.6932 30.3697 33.8822C30.4061 33.9207 30.4359 33.9698 30.436 33.9912C30.4362 34.0136 30.4472 34.0302 30.4619 34.0302C30.4761 34.0302 30.5007 34.0571 30.5166 34.09C30.5326 34.1229 30.5568 34.1589 30.5705 34.1701C30.5842 34.1812 30.5954 34.2007 30.5954 34.2134C30.5954 34.2261 30.6156 34.2563 30.6404 34.2806C30.6818 34.3212 30.6978 34.3247 30.8423 34.3247C31.0051 34.3247 31.0617 34.3348 31.0452 34.3609C31.0399 34.3693 31.0468 34.372 31.0606 34.3668C31.1053 34.35 31.1789 34.4568 31.1786 34.5382C31.1783 34.6333 31.1622 34.6884 31.1348 34.6884C31.121 34.6884 31.1093 34.7225 31.1037 34.7792C31.0932 34.8866 31.0993 34.9073 31.1447 34.919C31.1705 34.9256 31.1789 34.943 31.1789 34.99C31.1789 35.0337 31.1867 35.0522 31.2054 35.0522C31.22 35.0522 31.2319 35.0641 31.2319 35.0787C31.2319 35.0933 31.22 35.1097 31.2054 35.1152C31.1856 35.1227 31.1789 35.1535 31.1789 35.2359V35.3467H31.3291C31.4458 35.3467 31.4794 35.3413 31.4794 35.3226C31.4794 35.2949 31.517 35.2774 31.5761 35.2774C31.6019 35.2774 31.6201 35.2647 31.626 35.2427C31.6331 35.216 31.6501 35.2081 31.7004 35.2081C31.7508 35.2081 31.7677 35.216 31.7749 35.2427C31.78 35.2619 31.799 35.2774 31.8174 35.2774C31.8479 35.2774 31.8507 35.2926 31.8507 35.4562C31.8507 35.624 31.8534 35.6372 31.8938 35.6716C31.9194 35.6934 31.9673 35.7106 32.0114 35.7137C32.0688 35.7179 32.0943 35.7302 32.1227 35.7675C32.1578 35.8139 32.1581 35.818 32.1292 35.8628C32.1126 35.8886 32.0901 35.9311 32.0793 35.9573C32.068 35.9843 32.0457 36.0049 32.0277 36.0049C32.0054 36.0049 31.9937 36.0216 31.988 36.0612C31.9835 36.0922 31.974 36.1308 31.9668 36.1469C31.9551 36.1734 31.9596 36.1742 32.0128 36.1556C32.0452 36.1442 32.0827 36.1247 32.096 36.1124C32.1093 36.1 32.1431 36.0854 32.1711 36.0799C32.1995 36.0743 32.222 36.0586 32.222 36.0445C32.222 36.0305 32.2379 36.0149 32.2574 36.01C32.2768 36.005 32.2928 35.9906 32.2928 35.9779C32.2928 35.9653 32.3072 35.9448 32.3249 35.9323C32.3425 35.9199 32.3622 35.896 32.3685 35.8794C32.3749 35.8627 32.3962 35.849 32.416 35.849C32.4357 35.849 32.4519 35.8383 32.4519 35.8251C32.4519 35.7967 32.508 35.7793 32.558 35.7921C32.5774 35.797 32.5933 35.8119 32.5933 35.8251C32.5933 35.8383 32.6092 35.849 32.6287 35.849C32.6518 35.849 32.6641 35.8606 32.6641 35.8822C32.6641 35.9005 32.6722 35.9181 32.6821 35.9213C32.692 35.9246 32.7048 35.9666 32.7107 36.0148C32.7188 36.0824 32.7147 36.1087 32.6926 36.1304C32.6769 36.1458 32.6641 36.1862 32.6641 36.2202C32.6641 36.2706 32.6575 36.2821 32.6287 36.2821C32.6019 36.2821 32.5933 36.2937 32.5933 36.3297C32.5933 36.3612 32.5692 36.4032 32.5226 36.4532C32.4421 36.5394 32.4347 36.5706 32.4917 36.5824C32.5683 36.5983 32.6492 36.5787 32.6917 36.5338ZM29.5743 29.4455C29.5622 29.4407 29.5522 29.4219 29.5522 29.4036C29.5522 29.3784 29.5397 29.3704 29.5002 29.3704C29.4447 29.3704 29.3931 29.3184 29.3931 29.2626C29.3931 29.2457 29.3815 29.2318 29.3674 29.2318C29.3323 29.2318 29.315 29.1299 29.331 29.0186C29.3537 28.8613 29.336 28.5736 29.3036 28.5736C29.2957 28.5736 29.2897 28.5415 29.2902 28.5023C29.2909 28.4552 29.2964 28.439 29.3065 28.4546C29.3159 28.4691 29.3219 28.4226 29.3221 28.3354C29.3223 28.2158 29.3281 28.1868 29.3577 28.1578C29.3772 28.1388 29.3931 28.1115 29.3931 28.0972C29.3931 28.081 29.4098 28.0712 29.4373 28.0712C29.4663 28.0712 29.4815 28.0615 29.4815 28.0431C29.4815 28.0195 29.4976 28.0163 29.5823 28.0231C29.6377 28.0276 29.6861 28.0403 29.6898 28.0513C29.6936 28.0622 29.7119 28.0712 29.7305 28.0712C29.7526 28.0712 29.7644 28.0833 29.7644 28.1059C29.7644 28.1306 29.7762 28.1405 29.8055 28.1405C29.8515 28.1405 29.9235 28.2061 29.9235 28.2479C29.9235 28.2628 29.9394 28.2791 29.9589 28.2841C29.987 28.2913 29.9942 28.3077 29.9942 28.3641C29.9942 28.4031 30.0022 28.435 30.0119 28.435C30.0216 28.435 30.0296 28.4506 30.0296 28.4696C30.0296 28.4887 30.0216 28.5043 30.0119 28.5043C30.0022 28.5043 29.9942 28.5261 29.9942 28.5528C29.9942 28.5795 29.9849 28.6104 29.9735 28.6216C29.9576 28.6371 29.9576 28.6524 29.9735 28.6865C29.9849 28.711 29.9942 28.7463 29.9942 28.7649C29.9942 28.7835 30.0009 28.7988 30.0091 28.7988C30.042 28.7988 30.065 28.8948 30.065 29.032C30.065 29.1918 30.0557 29.2318 30.0189 29.2318C30.0053 29.2318 29.9942 29.2474 29.9942 29.2665C29.9942 29.2896 29.9824 29.3011 29.9589 29.3011C29.9353 29.3011 29.9235 29.3127 29.9235 29.3358C29.9235 29.3589 29.9117 29.3704 29.8881 29.3704C29.8687 29.3704 29.8528 29.3786 29.8528 29.3886C29.8528 29.4333 29.6488 29.475 29.5743 29.4455ZM29.7379 29.1972C29.7555 29.1781 29.7885 29.1625 29.8113 29.1625C29.8506 29.1625 29.8528 29.1565 29.8528 29.0499C29.8528 28.988 29.8464 28.9373 29.8386 28.9373C29.8147 28.9373 29.7469 28.7838 29.7581 28.7551C29.7647 28.7383 29.7601 28.73 29.7459 28.7331C29.7333 28.7359 29.7154 28.7131 29.7058 28.6819C29.6913 28.6345 29.696 28.6116 29.7357 28.5366C29.7864 28.4409 29.7839 28.3913 29.7265 28.3517C29.7084 28.3393 29.6937 28.3188 29.6937 28.3062C29.6937 28.2769 29.587 28.2553 29.5622 28.2797C29.5327 28.3086 29.5392 28.7109 29.5695 28.7292C29.6014 28.7485 29.6055 28.9228 29.5743 28.933C29.5598 28.9378 29.5522 28.9775 29.5522 29.0494C29.5522 29.1439 29.5569 29.1597 29.5876 29.1675C29.607 29.1725 29.6229 29.189 29.6229 29.2042C29.6229 29.2439 29.699 29.2393 29.7379 29.1972ZM30.3316 28.5461C30.3324 28.526 30.3366 28.5219 30.3422 28.5357C30.3474 28.5482 30.3467 28.5631 30.3409 28.5689C30.335 28.5746 30.3308 28.5644 30.3316 28.5461Z" fill="black"/>
<path d="M16.9285 22.4467C14.6574 22.4467 13.0638 20.6147 13.0638 17.691C13.0638 14.7799 14.6825 12.9605 17.0038 12.9605C18.0829 12.9605 18.9111 13.5 19.4005 14.0647L18.9738 14.554C18.4845 14.0145 17.832 13.638 17.0038 13.638C15.0589 13.638 13.8418 15.194 13.8418 17.6785C13.8418 20.163 15.0464 21.7691 16.9662 21.7691C17.8822 21.7691 18.5723 21.3801 19.2248 20.6523L19.664 21.1417C18.9487 21.9573 18.108 22.4467 16.9285 22.4467ZM21.5079 22.271V13.1236H22.2483V21.6311H26.4142V22.271H21.5079Z" fill="black"/>
<path d="M15.2905 34.5761C14.0482 34.5761 13.1824 34.0616 12.6052 33.0452L13.6341 32.2923C14.0106 33.0076 14.525 33.2962 15.1273 33.2962C16.0433 33.2962 16.5076 32.7943 16.5076 31.4516V25.1651H17.9757V31.5771C17.9757 33.2334 17.1727 34.5761 15.2905 34.5761ZM22.9802 34.5761C21.7003 34.5761 20.5333 34.0741 19.6926 33.2209L20.5459 32.2045C21.1984 32.8695 22.1144 33.2962 23.0053 33.2962C24.1095 33.2962 24.7369 32.7817 24.7369 31.9912C24.7369 31.1505 24.1095 30.887 23.2562 30.5231L21.9763 29.9584C21.0854 29.5945 20.1067 28.8919 20.1067 27.5492C20.1067 26.0937 21.374 25.002 23.1307 25.002C24.2224 25.002 25.2388 25.4537 25.9289 26.169L25.1761 27.085C24.5988 26.5831 23.9464 26.2694 23.1307 26.2694C22.1897 26.2694 21.5874 26.7211 21.5874 27.4489C21.5874 28.2394 22.3277 28.5405 23.0806 28.8542L24.3479 29.3812C25.4396 29.8455 26.2301 30.5231 26.2301 31.8783C26.2301 33.3589 25.0004 34.5761 22.9802 34.5761Z" fill="black"/>
</svg>
