<svg width="48" height="47" viewBox="0 0 48 47" fill="none" xmlns="http://www.w3.org/2000/svg">
<rect x="0.798218" y="0.5" width="45.7673" height="45.7673" rx="22.8837" fill="black"/>
<rect x="0.798218" y="0.5" width="45.7673" height="45.7673" rx="22.8837" stroke="url(#paint0_linear_1121_1922)"/>
<g clip-path="url(#clip0_1121_1922)">
<path fill-rule="evenodd" clip-rule="evenodd" d="M24.6606 19.2062C24.7166 19.2062 24.7633 20.6166 24.7633 22.3634C24.7633 24.1101 24.7166 25.5206 24.6606 25.5206C24.6045 25.5206 24.5579 24.1101 24.5579 22.3634C24.5579 20.626 24.6045 19.2062 24.6606 19.2062ZM23.0913 22.7464C23.1381 22.7464 23.1753 23.8487 23.1753 25.2031C23.1753 26.5575 23.1381 27.6597 23.0913 27.6597C23.0447 27.6597 23.0073 26.5575 23.0073 25.2031C23.0073 23.8487 23.0447 22.7464 23.0913 22.7464ZM32.7405 20.4392C32.7966 20.4392 32.8432 21.8497 32.8432 23.5965C32.8432 25.3432 32.7966 26.7536 32.7405 26.7536C32.6844 26.7536 32.6378 25.3432 32.6378 23.5965C32.6378 21.8497 32.6844 20.4392 32.7405 20.4392ZM29.2097 21.2332C29.2377 21.2332 29.2657 21.9337 29.2657 22.8025C29.2657 23.6711 29.2377 24.3717 29.2097 24.3717C29.1816 24.3717 29.1535 23.6711 29.1535 22.8025C29.1629 21.9431 29.1816 21.2332 29.2097 21.2332ZM18.9346 29.4531C18.9626 29.4531 18.9907 30.1537 18.9907 31.0225C18.9907 31.8912 18.9626 32.5918 18.9346 32.5918C18.9066 32.5918 18.8786 31.8912 18.8786 31.0225C18.8786 30.1537 18.9066 29.4531 18.9346 29.4531ZM16.1323 25.4459C16.1884 25.4459 16.2351 26.8658 16.2351 28.6031C16.2351 30.3499 16.1884 31.7604 16.1323 31.7604C16.0763 31.7604 16.0296 30.3405 16.0296 28.6031C16.0202 26.8564 16.0763 25.4459 16.1323 25.4459ZM13.4515 27.3328C13.4795 27.3328 13.5075 28.0334 13.5075 28.9021C13.5075 29.7707 13.4795 30.4713 13.4515 30.4713C13.4235 30.4713 13.3954 29.7707 13.3954 28.9021C13.3954 28.0334 13.4235 27.3328 13.4515 27.3328ZM36.8785 14.078C36.8785 13.1346 36.4955 12.2752 35.8697 11.6587C35.2532 11.0329 34.3938 10.6499 33.4504 10.6499H14.3762C13.4328 10.6499 12.5734 11.0329 11.9569 11.6587C11.3311 12.2752 10.9481 13.1346 10.9481 14.078V33.1522C10.9481 34.0956 11.3311 34.955 11.9569 35.5715C12.5734 36.1879 13.4328 36.5803 14.3762 36.5803H33.4504C34.3938 36.5803 35.2532 36.1973 35.8697 35.5715C36.4862 34.955 36.8785 34.0956 36.8785 33.1522V14.078ZM11.658 29.8641V14.078C11.658 13.3307 11.9663 12.6582 12.452 12.1631C12.9471 11.6681 13.6196 11.3692 14.3669 11.3692H33.441C34.1883 11.3692 34.8609 11.6774 35.3559 12.1631C35.8511 12.6582 36.1499 13.3307 36.1499 14.078V24.8014C36.1499 24.7173 36.1313 24.6426 36.0939 24.5679C35.9351 24.2597 35.7949 23.9701 35.6735 23.6899V23.7459L35.5615 27.7064L35.4493 23.7459C35.4213 22.6343 35.1598 21.5881 35.0571 20.4578C34.9543 19.8694 34.2818 18.4029 34.235 19.9161L34.123 23.8767L34.0202 19.9161C33.9922 18.9073 34.0762 18.2721 32.9646 17.777C32.619 17.6089 32.1614 17.9078 31.5729 18.6551C31.3487 18.954 31.3113 24.4558 31.2927 25.2217C31.2553 23.9887 31.2833 18.9727 30.9097 18.16C30.8723 18.0853 30.8349 18.0292 30.8069 17.9919C30.6481 17.8237 30.6481 18.1133 30.6201 18.1787C30.5454 18.3562 30.5641 18.3655 30.5547 18.5617L30.4427 22.5222C30.4239 21.9524 30.4239 18.2254 30.2278 17.9825C29.9383 17.6182 29.6579 17.8237 29.4899 18.1693C29.275 18.599 29.3591 19.0287 29.2003 19.5051C29.0509 19.9721 29.0321 19.9535 28.8079 20.3458C28.7052 20.5326 28.5651 20.7942 28.4063 21.1211C28.2195 21.5134 28.07 21.5134 27.8552 21.8403C27.6777 22.1019 27.547 22.4381 27.4535 22.8585C27.3601 23.2881 27.3601 23.5217 27.0238 22.8959C26.9492 22.7557 26.8744 22.5783 26.7996 22.3634L26.7436 24.2036L26.6782 21.9804C26.6408 21.8497 26.6036 21.7002 26.5662 21.5508L26.5382 21.4947L26.426 25.2031L26.342 22.4101L26.3046 20.9716C26.2578 20.8502 26.2112 20.7288 26.1644 20.598L26.1084 22.4662L25.9964 26.4268L25.8842 22.4662C25.8282 20.4952 25.7254 19.2622 25.4359 17.338C25.4079 17.2446 25.3238 16.7962 25.2024 16.0022C25.1463 15.6193 24.8194 15.3297 24.4271 15.339C24.1001 15.3484 24.1095 15.5352 23.9133 15.7594C23.5957 16.133 23.6798 18.8793 23.6611 19.5425L23.5491 23.5031L23.4369 19.5425C23.4276 19.1595 23.4369 16.3479 23.2781 16.2638C23.2127 16.2264 23.1567 16.2825 23.1193 16.4319C23.1193 16.544 23.11 16.6468 23.1007 16.7308L22.9979 20.187L22.9139 17.0858C22.8578 17.1138 22.7924 17.1418 22.7083 17.2072C22.3907 17.4221 22.1666 17.749 22.0265 18.188C21.8023 18.8979 21.8303 18.9166 21.8023 19.7013L21.6902 23.6619L21.5781 19.7013L21.5594 18.8979C21.2231 19.3463 20.9149 20.4952 20.644 22.3634C20.56 23.9887 20.3731 25.8569 20.0929 27.9773L19.9528 32.928L19.8407 28.9675C19.8313 28.5191 19.822 28.379 19.7192 27.9493C19.6632 27.7064 19.6819 27.5383 19.5231 27.3514C19.2429 27.0152 18.9439 26.819 18.6264 26.7444C18.3648 26.791 18.15 26.7724 17.9912 26.6882L17.9818 27.0619L17.8697 31.0225L17.7577 27.0619L17.739 26.464C17.739 26.4454 17.7296 26.4268 17.7203 26.3987C17.5428 25.9877 17.3186 25.3899 17.0571 24.5865C16.9637 24.297 16.8049 24.1009 16.7582 23.8206C16.7021 23.4657 16.7675 23.5031 16.8049 23.2227C16.8329 23.0267 16.6928 22.9519 16.6461 22.7464C16.6181 22.6343 16.6274 22.5222 16.6274 22.3915C16.6274 21.7096 16.7395 21.7749 16.2724 21.4667C16.1417 21.3826 16.0109 21.2706 15.8708 21.1211C15.7213 20.7848 15.5252 20.682 15.273 20.8222C15.0675 20.9342 14.9834 21.2052 14.8339 21.392C14.7966 21.4387 14.7686 21.476 14.7312 21.5134C14.7032 21.5414 14.6845 21.5788 14.6845 21.6255L14.6471 23.0359L14.535 26.9966L14.4229 23.0359L14.4043 22.3167C14.4043 22.242 14.3482 22.1766 14.2735 22.1579C14.1988 22.1392 14.124 22.1673 14.0867 22.2327C14.0867 22.2327 14.0867 22.242 14.0773 22.242C13.9372 22.4942 13.8064 22.7931 13.6943 23.1481C13.685 23.1667 13.685 23.1761 13.685 23.1947L13.5916 26.5294L13.5169 23.8299C13.4048 24.3157 13.3207 24.8761 13.2647 25.502C13.1619 26.5014 12.6575 28.3603 11.7608 29.5279C11.6954 29.64 11.6674 29.7427 11.658 29.8641ZM31.8344 33.638C32.6284 33.638 33.5344 33.395 33.8427 32.5918C34.1696 31.7324 33.9081 31.0411 33.3383 30.5367C32.8246 30.0883 32.152 29.9575 31.6476 29.6493C31.3767 29.4812 31.1432 29.2757 31.2459 28.9207C31.3954 28.3696 32.1426 28.4444 32.4602 28.79L32.6284 29.0422L33.5905 28.435C33.1608 27.641 32.3948 27.3422 31.5355 27.4542C30.4333 27.5944 29.7887 28.4817 30.0409 29.5559C30.3492 30.8917 31.8624 30.8169 32.5444 31.4988C32.974 31.9285 32.6284 32.489 32.0492 32.5357C31.4047 32.5824 30.9751 32.3395 30.6388 31.7884L29.6487 32.3862C30.0877 33.283 30.863 33.6472 31.8344 33.638ZM28.5557 33.0308C28.8267 32.6852 28.9574 32.19 28.9294 31.5642V27.4916H27.687V31.3494C27.687 31.7604 27.7805 32.3676 27.276 32.5076C26.753 32.6478 26.4354 32.3302 26.2112 31.8912L25.2117 32.4983C25.4172 32.9186 25.7068 33.227 26.0898 33.423C26.8558 33.8154 28.0046 33.7406 28.5557 33.0308ZM21.9891 26.7162C22.0171 26.7162 22.0451 27.4168 22.0451 28.2856C22.0451 29.1543 22.0171 29.8549 21.9891 29.8549C21.9611 29.8549 21.9331 29.1543 21.9331 28.2856C21.9424 27.4168 21.9611 26.7162 21.9891 26.7162Z" fill="url(#paint1_linear_1121_1922)"/>
</g>
<defs>
<linearGradient id="paint0_linear_1121_1922" x1="23.6819" y1="0" x2="23.6819" y2="46.7673" gradientUnits="userSpaceOnUse">
<stop stop-color="#605113"/>
<stop offset="1" stop-color="#DDCD54"/>
</linearGradient>
<linearGradient id="paint1_linear_1121_1922" x1="23.9133" y1="10.6499" x2="23.9133" y2="36.5803" gradientUnits="userSpaceOnUse">
<stop stop-color="#584A10"/>
<stop offset="1" stop-color="#DFCF56"/>
</linearGradient>
<clipPath id="clip0_1121_1922">
<rect width="25.9304" height="25.9304" fill="white" transform="translate(10.9481 10.6499)"/>
</clipPath>
</defs>
</svg>
