<svg width="46" height="46" viewBox="0 0 46 46" fill="none" xmlns="http://www.w3.org/2000/svg">
<rect x="1.10318" y="1.34818" width="43.962" height="43.962" rx="21.981" fill="#F7DF1E"/>
<rect x="1.10318" y="1.34818" width="43.962" height="43.962" rx="21.981" stroke="white" stroke-width="1.34577"/>
<path d="M37.6212 25.5849C35.6937 25.5849 34.4482 24.6714 33.8403 23.478L35.5306 22.5056C35.9754 23.2275 36.5537 23.7579 37.5767 23.7579C38.4367 23.7579 38.9853 23.3307 38.9853 22.7413C38.9853 22.0341 38.4219 21.7836 37.4729 21.3711L36.954 21.15C35.4565 20.5165 34.4631 19.7209 34.4631 18.0412C34.4631 16.4941 35.6492 15.3154 37.5026 15.3154C38.8222 15.3154 39.7711 15.7722 40.4532 16.9656L38.837 17.997C38.4812 17.3634 38.0957 17.113 37.5026 17.113C36.8947 17.113 36.5092 17.496 36.5092 17.997C36.5092 18.6158 36.8947 18.8663 37.7843 19.2494L38.3033 19.4704C40.0677 20.2218 41.0611 20.988 41.0611 22.7118C41.0611 24.5683 39.5932 25.5849 37.6212 25.5849Z" fill="black"/>
<path d="M29.475 25.5848C27.8237 25.5848 26.8653 24.7271 26.3788 23.6919L28.0596 22.6715C28.384 23.2482 28.6789 23.7362 29.3866 23.7362C30.0648 23.7362 30.4924 23.47 30.4924 22.4348V15.3955H32.5565V22.4644C32.5565 24.6087 31.3033 25.5848 29.475 25.5848Z" fill="black"/>
<path fill-rule="evenodd" clip-rule="evenodd" d="M39.6539 26.8794H35.1861V34.1517H39.7067V33.0196H36.3967V31.0749H39.4429V29.9428H36.3967V28.0115H39.6539V26.8794ZM39.5101 33.2162H36.2003V33.2162H39.5101V33.2162ZM35.3827 33.9552H35.3826V27.0759H39.4574V27.076H35.3827V33.9552ZM36.2003 30.1393V30.1394H39.2464V30.1393H36.2003ZM32.4346 27.076L29.9152 33.9552H29.0575L29.9152 33.9552L32.4346 27.076ZM29.4864 32.3889L27.5484 26.8794H26.2568L28.9202 34.1518H30.0525L32.7159 26.8794H31.4243L29.4864 32.3889Z" fill="black"/>
<path d="M20.9181 27.3558C20.9857 27.2203 23.6405 22.9503 21.1208 18.7965C18.9101 16.9956 16.738 17.1699 14.4018 17.0634L12.8668 16.9956L11.5056 18.5061C11.5056 18.5061 15.2416 18.08 17.0373 22.0498C18.0026 24.1703 16.7766 27.1719 15.9174 28.4209C13.0985 32.5166 10.4533 34.0754 9.21765 34.6177C9.54588 34.7532 9.97065 34.8985 10.463 35.0243C10.463 35.0243 11.1581 34.7726 12.9344 34.0851C18.6301 31.8872 20.5995 28.0239 20.9181 27.3558Z" fill="#F7DF1E"/>
<path fill-rule="evenodd" clip-rule="evenodd" d="M11.9482 15.8581C11.9482 15.8581 13.1953 13.7109 16.6178 13.7109C19.3635 13.7109 21.1424 15.8387 22.1092 17.1444C23.3564 18.8176 23.6561 21.3032 23.6561 21.3032L22.4959 20.2297C22.4959 20.2297 25.4543 26.6227 20.9974 31.5552C15.0613 38.1223 8.35169 34.2246 8.35169 34.2246L8.98977 33.8281C10.0919 33.151 11.0974 32.329 11.9965 31.3908L5.01624 35.5593V35.3852C5.06458 32.6288 5.61565 29.911 6.69846 27.377L6.69847 27.377C6.70813 27.3577 6.7178 27.3384 6.7178 27.319L6.75101 27.2442L6.75102 27.2441C6.81449 27.101 6.86988 26.9761 6.91116 26.8935C7.46223 25.7522 8.15833 24.698 9.00911 23.7598C9.9179 22.7636 11.1167 21.8255 13.4274 20.897C13.4274 20.897 13.408 19.6107 12.5186 19.0594C9.50218 17.1541 5.81868 17.744 5.81868 17.744L6.5051 17.4442C8.23567 16.6801 10.0726 16.1385 11.9482 15.8581ZM20.9181 27.356C20.921 27.3502 20.9286 27.3368 20.9404 27.3162C21.2033 26.8553 23.5327 22.7727 21.1208 18.7967C19.7193 17.6549 18.3333 17.3071 16.9111 17.1782C16.6812 17.4849 16.3148 17.6833 15.9021 17.6833C15.4469 17.6833 15.048 17.442 14.8265 17.0803C14.6855 17.0754 14.5439 17.07 14.4017 17.0635L12.8668 16.9957L11.5056 18.5062C11.5056 18.5062 15.2416 18.0802 17.0372 22.05C18.0026 24.1704 16.7766 27.172 15.9174 28.421C13.0985 32.5167 10.4533 34.0756 9.21763 34.6178C9.54586 34.7533 9.97063 34.8986 10.463 35.0245C10.463 35.0245 11.1581 34.7727 12.9344 34.0853C18.6301 31.8873 20.5995 28.024 20.9181 27.356Z" fill="black"/>
<path d="M15.9021 16.8811C16.1552 16.8811 16.3604 16.6759 16.3604 16.4227C16.3604 16.1696 16.1552 15.9644 15.9021 15.9644C15.6489 15.9644 15.4437 16.1696 15.4437 16.4227C15.4437 16.6759 15.6489 16.8811 15.9021 16.8811Z" fill="white"/>
<path d="M12.9767 17.7986L12.2817 17.6831L12.0403 17.9333L11.5094 18.5203C11.5094 18.5203 15.2453 18.0969 17.0408 22.0425C17.2821 22.5718 17.3883 23.1588 17.398 23.7554C17.4173 23.7939 17.4366 23.8324 17.4559 23.8709C17.8517 20.9839 15.8727 18.2894 12.9767 17.7986Z" fill="#F9BE03"/>
<path d="M9.24661 34.6186C9.28523 34.6379 9.3335 34.6572 9.38176 34.6669C9.40107 34.6766 9.41073 34.6766 9.43003 34.6862C9.46865 34.7056 9.51692 34.7152 9.56519 34.7346C9.57484 34.7442 9.59415 34.7442 9.6038 34.7539C9.66173 34.7732 9.7293 34.7926 9.78723 34.8216H9.79688C9.8548 34.8409 9.91273 34.8602 9.9803 34.8796C9.99961 34.8893 10.0189 34.8893 10.0382 34.8989C10.0865 34.9183 10.1348 34.9279 10.1927 34.9473C10.212 34.9569 10.2313 34.9569 10.2506 34.9666C10.3182 34.9859 10.3954 35.0053 10.463 35.0246C10.463 35.0246 11.1581 34.7732 12.9344 34.0868C18.6301 31.8826 20.5995 28.0251 20.9181 27.3677C20.9857 27.2324 23.6405 22.9689 21.1208 18.8214C20.6478 18.4347 20.1748 18.1446 19.7017 17.9126C20.8409 18.8794 21.507 20.2522 21.507 22.1761C21.507 25.7242 18.717 28.1991 14.8651 29.862C12.4517 32.8977 10.3085 34.1448 9.21765 34.6282C9.21765 34.6282 9.21765 34.6282 9.2273 34.6282C9.2273 34.6089 9.23696 34.6089 9.24661 34.6186Z" fill="#F9BE03"/>
<path d="M10.6307 25.3607C10.6307 25.3607 11.0462 24.7885 11.2104 24.6236C11.9929 23.7702 12.7851 23.2562 13.9057 22.9749C14.1376 22.9167 14.4371 22.8779 15.0071 22.8779C15.8379 22.9458 16.0311 24.0805 15.2776 24.42C14.8428 24.6139 14.3791 24.7206 13.9057 24.74L13.3164 24.7594C12.3793 24.8079 11.4809 25.0116 10.6307 25.3607Z" fill="white"/>
<path d="M13.1246 25.5734L13.3952 25.6022C14.0815 25.6791 14.7775 25.5254 15.3671 25.1699L14.7195 26.0346C13.7432 27.3411 12.2546 28.1769 10.6307 28.3402L10.8337 28.1673C11.7133 27.4084 12.4866 26.5437 13.1246 25.5734Z" fill="white"/>
<path d="M12.2353 25.5898L11.1453 26.7825C10.1132 27.9169 8.95562 28.935 7.70161 29.8173L6.54407 30.6318L6.65018 30.3118C7.4894 27.8102 9.6405 25.9971 12.2353 25.5898Z" fill="white"/>
</svg>
