<svg width="285" height="91" viewBox="0 0 285 91" fill="none" xmlns="http://www.w3.org/2000/svg">
<g clip-path="url(#clip0_570_1981)">
<path d="M161.198 46.135H169.821V22.2641L184.816 21.3243V15.1216H146.203V21.3243L161.198 22.2641V46.135ZM99.5307 46.135L103.092 38.9925H82.2862V15.1216H73.4766V46.135H99.5307ZM132.52 34.1056H121.086L126.897 21.7002L132.52 34.1056ZM209.745 34.1056H198.311L204.122 21.7002L209.745 34.1056ZM248.733 38.6166C249.108 39.7444 250.42 40.4962 251.732 40.4962H260.541L267.102 22.2641L273.287 46.323H281.535L274.599 18.8808C274.037 16.0614 272.35 15.3095 269.913 15.3095H261.291L255.106 33.5417L250.232 18.1289C249.482 16.2493 248.358 15.3095 246.483 15.3095H236.737L228.677 46.323H237.111L243.297 22.2641L248.733 38.6166ZM215.556 46.135H224.928L210.308 17.1891C209.558 15.6855 208.808 15.1216 206.934 15.1216H198.686L183.129 46.135H192.501L195.312 40.4962H212.557L215.556 46.135ZM138.143 46.135H147.515L132.895 17.1891C132.145 15.6855 131.395 15.1216 129.521 15.1216H121.461L105.904 46.135H115.276L118.087 40.4962H135.332L138.143 46.135Z" fill="white"/>
<path d="M83.0359 66.9985H81.5364L71.977 86.3584L71.7896 86.5464H74.4137L77.0379 81.2835H88.6591L91.2833 86.5464H93.9074L84.7229 67.9383C84.348 67.1865 83.7857 66.9985 83.0359 66.9985ZM87.5345 79.028H78.1625L82.8485 69.442L87.5345 79.028Z" fill="white"/>
<path d="M110.027 66.9985H107.59V86.5464H110.027V66.9985Z" fill="white"/>
<path d="M143.204 73.201C143.204 69.2538 140.205 66.8103 135.519 66.8103H125.585V86.3582H128.022V79.4036C129.334 79.9675 131.583 80.5314 133.645 80.5314C134.582 80.5314 135.519 80.5314 136.456 80.3434L140.393 86.5461H143.392L139.081 79.5916C141.705 78.4638 143.204 76.2083 143.204 73.201ZM128.022 69.2538H135.332C140.205 69.2538 140.768 72.0732 140.768 73.201C140.768 76.2083 138.143 77.9 133.457 77.9C131.583 77.9 129.521 77.524 128.022 76.7722V69.2538Z" fill="white"/>
<path d="M159.511 66.9985H157.075V86.5464H171.133V84.2909H159.511V66.9985Z" fill="white"/>
<path d="M187.065 66.9985H184.628V86.5464H187.065V66.9985Z" fill="white"/>
<path d="M219.867 82.9752L205.434 67.3745C205.247 67.1865 205.059 66.9985 204.684 66.9985H202.81V86.5464H205.247V70.3818L219.68 85.9825C219.867 86.3584 220.242 86.3584 220.617 86.3584H222.304V66.9985H219.867V82.9752Z" fill="white"/>
<path d="M240.111 77.5243H251.357V75.2688H240.111V69.2541H252.669V66.9985H237.674V86.5464H252.856V84.2909H240.111V77.5243Z" fill="white"/>
<path d="M274.974 75.6447L273.475 75.4567C270.101 74.8928 268.789 73.953 268.789 72.2614C268.789 70.3818 271.038 69.066 274.599 69.066C277.786 69.066 279.847 69.8179 280.785 70.1938H280.972L281.722 67.9383V67.7503H281.534C280.41 67.3744 277.973 66.6226 274.787 66.6226C269.726 66.6226 266.352 68.8781 266.352 72.2614C266.352 75.0808 268.414 76.7724 272.912 77.5243L274.412 77.7122C278.161 78.4641 279.847 79.4039 279.847 81.0955C279.847 83.1631 277.786 84.4788 274.037 84.4788C270.101 84.4788 267.289 83.351 266.539 82.7871L266.352 82.5992L265.602 84.8547C266.539 85.4186 269.538 86.7343 273.662 86.7343C279.098 86.7343 282.284 84.4788 282.284 80.9075C282.284 78.2761 280.035 76.3965 274.974 75.6447Z" fill="white"/>
<path d="M41.9865 20.1967L16.8696 11.1746C14.2454 10.2348 12.7459 8.73108 12.7459 6.09964V1.21267C12.7459 -0.103052 13.6831 0.460829 14.8077 0.836749C23.2425 3.84411 49.8589 13.4301 52.1082 14.1819C52.4831 14.3699 52.6705 14.3699 52.858 14.5579C53.6077 15.1217 52.858 16.0615 50.0464 17.0013C49.6715 17.3773 46.485 18.505 41.9865 20.1967ZM41.9865 35.7974C46.2976 34.2937 49.4841 32.978 50.0464 32.79C53.2329 31.6622 53.7952 30.5345 52.2957 29.9706H52.4831C52.2957 29.9706 52.2957 29.7826 52.1082 29.7826C51.7333 29.5947 49.6715 28.8428 46.6725 27.7151C43.2986 29.0308 38.4251 30.7224 33.5517 32.4141L41.9865 35.7974ZM0 33.7298C0 34.8576 0.562319 35.0455 1.68696 34.6696C2.24928 34.4816 3.18647 34.1057 4.31111 33.7298C4.68599 33.5418 4.87343 33.5418 5.24831 33.3539C7.12271 32.602 9.55942 31.8502 12.1836 30.9104C7.87247 29.4067 3.74879 27.903 1.49952 26.9632C0.562319 26.7753 0 26.9632 0 28.091V32.602V33.7298ZM3.93623 21.8883L20.4309 27.903C24.742 26.3994 29.2406 24.7077 33.5517 23.204C21.3681 18.693 6.74783 13.4301 2.06184 11.7384C0.937198 11.1746 0 10.7986 0 11.9264V16.6254C0 19.4448 1.49952 20.9485 3.93623 21.8883Z" fill="#ED1650"/>
<path d="M51.9208 41.6241L12.5585 55.9091V46.3231C12.5585 46.3231 47.9845 33.3539 50.0464 32.79C53.2329 31.6622 53.7952 30.5345 52.2957 29.9706C53.7952 30.5345 53.6077 30.7224 53.6077 34.8575C53.7952 39.3686 53.7952 40.8723 51.9208 41.6241ZM21.743 77.7125C21.743 75.6449 21.9304 73.9533 20.2435 74.7051L12.7459 77.5245V86.9225L19.8686 84.2911C21.743 83.5393 21.9304 82.2235 21.9304 80.3439V77.7125H21.743ZM33.5517 57.9767C33.5517 55.9091 33.7391 54.2175 32.0522 54.9693L12.5585 61.9238V71.3218L31.4899 64.5553C33.3643 63.8034 33.5517 62.4877 33.5517 60.6081V57.9767ZM52.4831 14.3699C53.9826 14.9338 53.4203 16.0615 50.2338 17.1893C48.5469 17.7532 16.8696 29.2187 5.24831 33.5418C4.87343 33.7298 4.68599 33.7298 4.31111 33.9177C3.18647 34.2937 2.24928 34.6696 1.68696 34.8575C0.562319 35.0455 0 34.8575 0 33.7298C0 34.4816 0 35.9853 1.31208 36.3612L11.6213 40.1204C11.6213 40.1204 12.371 40.3084 13.1208 40.1204C14.058 39.7445 51.9208 26.0234 51.9208 26.0234C53.7952 25.2716 53.7952 23.7679 53.7952 19.2568C53.7952 15.1217 53.7952 14.9338 52.4831 14.3699Z" fill="white"/>
</g>
<defs>
<clipPath id="clip0_570_1981">
<rect width="284.908" height="90.2209" fill="white" transform="translate(0 0.460693)"/>
</clipPath>
</defs>
</svg>
