<svg width="19" height="19" viewBox="0 0 19 19" fill="none" xmlns="http://www.w3.org/2000/svg">
<path d="M16.7881 0.751465C17.3185 0.751465 17.8272 0.962178 18.2023 1.33725C18.5774 1.71232 18.7881 2.22103 18.7881 2.75146V16.7515C18.7881 17.2819 18.5774 17.7906 18.2023 18.1657C17.8272 18.5408 17.3185 18.7515 16.7881 18.7515H2.78809C2.25765 18.7515 1.74894 18.5408 1.37387 18.1657C0.9988 17.7906 0.788086 17.2819 0.788086 16.7515V2.75146C0.788086 2.22103 0.9988 1.71232 1.37387 1.33725C1.74894 0.962178 2.25765 0.751465 2.78809 0.751465H16.7881ZM16.2881 16.2515V10.9515C16.2881 10.0869 15.9446 9.25766 15.3333 8.6463C14.7219 8.03493 13.8927 7.69146 13.0281 7.69146C12.1781 7.69146 11.1881 8.21146 10.7081 8.99146V7.88146H7.91809V16.2515H10.7081V11.3215C10.7081 10.5515 11.3281 9.92146 12.0981 9.92146C12.4694 9.92146 12.8255 10.069 13.088 10.3315C13.3506 10.5941 13.4981 10.9502 13.4981 11.3215V16.2515H16.2881ZM4.66809 6.31147C5.11365 6.31147 5.54096 6.13447 5.85603 5.8194C6.17109 5.50434 6.34809 5.07703 6.34809 4.63146C6.34809 3.70146 5.59809 2.94146 4.66809 2.94146C4.21987 2.94146 3.79001 3.11952 3.47308 3.43645C3.15614 3.75339 2.97809 4.18325 2.97809 4.63146C2.97809 5.56146 3.73809 6.31147 4.66809 6.31147ZM6.05809 16.2515V7.88146H3.28809V16.2515H6.05809Z" fill="white"/>
</svg>
