<svg xmlns="http://www.w3.org/2000/svg" width="25" height="24" viewBox="0 0 25 24" fill="none">
  <path
    d="M19.7881 3C20.3185 3 20.8272 3.21071 21.2023 3.58579C21.5774 3.96086 21.7881 4.46957 21.7881 5V19C21.7881 19.5304 21.5774 20.0391 21.2023 20.4142C20.8272 20.7893 20.3185 21 19.7881 21H5.78809C5.25765 21 4.74894 20.7893 4.37387 20.4142C3.9988 20.0391 3.78809 19.5304 3.78809 19V5C3.78809 4.46957 3.9988 3.96086 4.37387 3.58579C4.74894 3.21071 5.25765 3 5.78809 3H19.7881ZM19.2881 18.5V13.2C19.2881 12.3354 18.9446 11.5062 18.3333 10.8948C17.7219 10.2835 16.8927 9.94 16.0281 9.94C15.1781 9.94 14.1881 10.46 13.7081 11.24V10.13H10.9181V18.5H13.7081V13.57C13.7081 12.8 14.3281 12.17 15.0981 12.17C15.4694 12.17 15.8255 12.3175 16.088 12.5801C16.3506 12.8426 16.4981 13.1987 16.4981 13.57V18.5H19.2881ZM7.66809 8.56C8.11365 8.56 8.54096 8.383 8.85603 8.06794C9.17109 7.75288 9.34809 7.32556 9.34809 6.88C9.34809 5.95 8.59809 5.19 7.66809 5.19C7.21987 5.19 6.79001 5.36805 6.47308 5.68499C6.15614 6.00193 5.97809 6.43178 5.97809 6.88C5.97809 7.81 6.73809 8.56 7.66809 8.56ZM9.05809 18.5V10.13H6.28809V18.5H9.05809Z"
    fill="white"
  />
</svg>
