<svg width="267" height="61" viewBox="0 0 267 61" fill="none" xmlns="http://www.w3.org/2000/svg">
<g clip-path="url(#clip0_125_504)">
<path fill-rule="evenodd" clip-rule="evenodd" d="M10.5326 31.5336C11.583 31.548 12.6259 31.3537 13.6014 30.9619C14.4935 30.5982 15.2993 30.0494 15.9663 29.3515C16.6234 28.6543 17.1279 27.8178 17.4868 26.8418C17.8474 25.8675 18.0242 24.78 18.0242 23.5896C18.0389 22.4815 17.8569 21.3796 17.4868 20.3357C17.1546 19.4056 16.6372 18.5534 15.9663 17.8312C15.3013 17.1305 14.495 16.5808 13.6014 16.2191C12.6256 15.8281 11.5829 15.6339 10.5326 15.6474C9.99964 15.6472 9.46747 15.6892 8.94103 15.7729C8.40877 15.8565 7.94238 15.9297 7.53668 15.996C7.03736 16.1284 6.55537 16.2591 6.08379 16.3916V30.7876C6.55537 30.9201 7.03736 31.0368 7.53842 31.1362C7.97186 31.2686 8.45211 31.3662 8.96184 31.4325C9.4785 31.5022 10.0021 31.5336 10.5326 31.5336ZM6.08552 10.933C6.5571 10.8005 7.03909 10.6663 7.54015 10.5321C7.97359 10.4345 8.45384 10.3526 8.96357 10.2846C9.48023 10.2201 10.0038 10.1853 10.5344 10.1853C12.5941 10.1853 14.4683 10.5339 16.1552 11.2293C17.7796 11.8829 19.2597 12.8524 20.5105 14.0823C21.7241 15.2919 22.6707 16.714 23.3417 18.3523C24.0144 19.9923 24.3525 21.7369 24.3525 23.5896C24.3629 25.3859 24.0194 27.1665 23.3417 28.8286C22.6942 30.4289 21.7311 31.8808 20.5105 33.0969C19.2604 34.3277 17.7802 35.2974 16.1552 35.95C14.4683 36.6471 12.5941 36.9957 10.5344 36.9957C9.19243 36.9957 7.89037 36.8772 6.62472 36.6471C5.47972 36.4432 4.3465 36.1773 3.23001 35.8506C2.12936 35.5631 1.05005 35.1985 0 34.7596L0 1.46752C0 1.34726 0.0884221 1.2514 0.202851 1.2514H5.8792C5.90682 1.25185 5.93408 1.25782 5.95938 1.26897C5.98468 1.28012 6.00752 1.29623 6.02657 1.31634C6.04561 1.33646 6.06048 1.36019 6.0703 1.38615C6.08013 1.4121 6.08471 1.43976 6.08379 1.46752V10.9312L6.08552 10.933Z" fill="white"/>
<path fill-rule="evenodd" clip-rule="evenodd" d="M102.28 33.9787C102.304 34.0247 102.313 34.0777 102.303 34.129C102.294 34.1803 102.267 34.2269 102.228 34.261C101.545 34.7953 100.807 35.2557 100.028 35.6344C99.139 36.0616 98.2148 36.4103 97.2659 36.6766C96.2343 36.9781 95.0467 37.1228 93.7065 37.1228C91.6433 37.1228 89.7726 36.776 88.0856 36.0806C86.4623 35.425 84.9826 34.4557 83.7304 33.2275C82.5092 32.0119 81.546 30.5599 80.8992 28.9593C80.2234 27.2967 79.881 25.5162 79.8918 23.7202C79.8812 21.9248 80.2235 20.145 80.8992 18.4829C81.5473 16.8825 82.5103 15.4301 83.7304 14.2129C84.9834 12.9858 86.4629 12.0167 88.0856 11.3599C89.7726 10.6627 91.645 10.3142 93.7065 10.3142C94.8748 10.3011 96.0397 10.4441 97.1706 10.7394C98.2022 11.0183 99.0933 11.325 99.8406 11.6562C100.621 12.0553 101.332 12.4805 101.977 12.9354C102.02 12.9676 102.05 13.0142 102.062 13.067C102.075 13.1197 102.067 13.1751 102.042 13.223L99.8995 17.3117C99.8874 17.3373 99.87 17.36 99.8483 17.3781C99.8267 17.3962 99.8013 17.4093 99.7741 17.4166C99.7469 17.4239 99.7184 17.4252 99.6907 17.4203C99.6629 17.4154 99.6366 17.4046 99.6134 17.3884C99.1788 17.1001 98.7239 16.8438 98.2524 16.6216C97.6668 16.3741 97.062 16.1754 96.4441 16.0273C95.7015 15.8526 94.9407 15.7689 94.1781 15.778C93.0511 15.778 92.0057 15.9924 91.04 16.4246C90.0957 16.8383 89.237 17.4266 88.5087 18.1588C87.7906 18.8868 87.219 19.7472 86.8252 20.6929C86.4195 21.6499 86.2119 22.6799 86.2149 23.7202C86.2244 25.8042 87.0482 27.8009 88.5087 29.2799C89.2264 30.0119 90.0708 30.5888 91.04 31.0176C92.0293 31.4518 93.0986 31.6716 94.1781 31.6624C95.6566 31.6798 97.1176 31.3397 98.4379 30.6707C98.9546 30.4128 99.421 30.1305 99.8423 29.8202C99.8656 29.8025 99.8925 29.7902 99.9211 29.7841C99.9496 29.778 99.9792 29.7783 100.008 29.7849C100.036 29.7916 100.063 29.8044 100.086 29.8226C100.109 29.8407 100.127 29.8637 100.141 29.8899L102.28 33.9787Z" fill="white"/>
<path fill-rule="evenodd" clip-rule="evenodd" d="M122.492 23.7203C122.492 22.5282 122.314 21.4476 121.953 20.4681C121.628 19.549 121.136 18.6986 120.502 17.9601C119.907 17.2748 119.173 16.7261 118.349 16.3515C117.519 15.968 116.616 15.7717 115.703 15.7763C114.767 15.7763 113.882 15.968 113.057 16.3515C112.233 16.7268 111.499 17.2754 110.904 17.9601C110.293 18.6573 109.81 19.4938 109.453 20.4681C109.083 21.5114 108.901 22.6127 108.915 23.7203C108.915 24.9124 109.092 25.9982 109.453 26.9707C109.776 27.8909 110.269 28.7421 110.904 29.4804C111.501 30.1689 112.239 30.7201 113.067 31.0966C113.895 31.4731 114.794 31.6661 115.703 31.6625C116.639 31.6625 117.522 31.4708 118.349 31.0926C119.173 30.7175 119.908 30.1682 120.502 29.4822C121.109 28.785 121.596 27.9484 121.953 26.9724C122.314 25.9964 122.492 24.9124 122.492 23.7203ZM102.592 23.7203C102.58 21.9251 102.921 20.1452 103.596 18.483C104.269 16.8447 105.191 15.4225 106.363 14.213C107.545 12.9987 108.953 12.0294 110.507 11.3599C112.1 10.6628 113.83 10.3142 115.703 10.3142C117.448 10.299 119.178 10.6361 120.791 11.3055C122.404 11.975 123.867 12.963 125.093 14.2112C126.275 15.4408 127.206 16.8915 127.832 18.4812C128.493 20.1475 128.826 21.9266 128.814 23.7203C128.826 25.5145 128.493 27.2941 127.832 28.961C127.206 30.5497 126.275 31.9993 125.093 33.2276C123.906 34.4478 122.488 35.4177 120.923 36.0806C119.273 36.7846 117.497 37.1399 115.705 37.1246C113.966 37.1438 112.242 36.8083 110.637 36.1385C109.031 35.4686 107.577 34.4784 106.363 33.2276C105.177 31.9969 104.238 30.5484 103.596 28.961C102.921 27.2978 102.581 25.5167 102.592 23.7203Z" fill="white"/>
<path fill-rule="evenodd" clip-rule="evenodd" d="M153.554 15.7728C153.022 15.7728 152.514 15.8321 152.032 15.9471C151.547 16.0674 151.132 16.172 150.789 16.2661C150.356 16.4491 149.948 16.6373 149.574 16.8255V35.9098C149.575 35.9656 149.554 36.0196 149.515 36.06C149.477 36.1004 149.425 36.1241 149.369 36.1259H143.695C143.667 36.1255 143.639 36.1195 143.614 36.1084C143.588 36.0973 143.565 36.0813 143.546 36.0612C143.527 36.0411 143.511 36.0174 143.501 35.9914C143.491 35.9655 143.486 35.9377 143.486 35.9098V12.5468C144.41 12.0977 145.365 11.7162 146.344 11.4052C147.356 11.0876 148.387 10.8304 149.43 10.6349C150.557 10.4205 151.774 10.3142 153.088 10.3142C154.241 10.3142 155.293 10.4136 156.247 10.6105C157.199 10.8092 158.033 11.041 158.754 11.3059C159.529 11.5813 160.24 11.8845 160.887 12.2139C160.932 12.2395 160.967 12.28 160.986 12.3286C161.005 12.3772 161.006 12.4309 160.991 12.4806L159.489 17.2944C159.448 17.4286 159.298 17.4861 159.189 17.4146C158.748 17.1344 158.289 16.884 157.814 16.6652C157.198 16.4103 156.564 16.2018 155.918 16.0412C155.144 15.8539 154.35 15.7638 153.554 15.7728Z" fill="white"/>
<path fill-rule="evenodd" clip-rule="evenodd" d="M164.257 11.3042H169.932C170.046 11.3042 170.136 11.4053 170.136 11.5238V35.9098C170.137 35.9376 170.133 35.9652 170.123 35.9912C170.113 36.0172 170.098 36.0409 170.079 36.061C170.06 36.0811 170.037 36.0972 170.012 36.1084C169.986 36.1195 169.959 36.1255 169.932 36.1259H164.349C164.309 36.125 164.269 36.1161 164.232 36.0996C164.195 36.0831 164.162 36.0595 164.134 36.03C164.106 36.0005 164.084 35.9657 164.07 35.9277C164.056 35.8898 164.049 35.8493 164.051 35.8087V11.5238C164.051 11.4053 164.139 11.3042 164.257 11.3042ZM163.349 4.10791C163.349 3.11448 163.706 2.24654 164.423 1.49885C165.141 0.754651 166.032 0.383423 167.093 0.383423C168.151 0.383423 169.044 0.754651 169.762 1.49885C170.481 2.24654 170.842 3.11622 170.842 4.10791C170.842 5.09785 170.481 5.96928 169.762 6.71348C169.419 7.07654 169.005 7.36352 168.546 7.55593C168.087 7.74834 167.593 7.84193 167.095 7.83065C166.032 7.83065 165.141 7.45942 164.425 6.71522C163.706 5.96928 163.349 5.09785 163.349 4.10791Z" fill="white"/>
<path fill-rule="evenodd" clip-rule="evenodd" d="M185.941 15.6474C185.407 15.6474 184.879 15.6892 184.346 15.7694C183.816 15.8531 183.346 15.9263 182.942 15.996C182.444 16.125 181.957 16.2574 181.492 16.3916V30.7876C181.957 30.9201 182.444 31.0334 182.94 31.1327C183.377 31.2686 183.857 31.368 184.369 31.429C184.885 31.5004 185.407 31.5336 185.941 31.5336C186.99 31.5458 188.032 31.3516 189.007 30.9619C189.926 30.582 190.716 30.0434 191.371 29.348C192.029 28.6509 192.533 27.816 192.892 26.8383C193.262 25.7962 193.445 24.6961 193.431 23.5896C193.431 22.3958 193.249 21.3152 192.894 20.3374C192.562 19.4052 192.044 18.5511 191.371 17.8277C190.706 17.1283 189.9 16.5793 189.007 16.2173C188.032 15.8263 186.99 15.6327 185.941 15.6474ZM181.283 45.4311H175.61C175.554 45.4293 175.501 45.4055 175.462 45.3648C175.423 45.3241 175.401 45.2697 175.402 45.2132V12.5695C175.402 12.4789 175.455 12.3987 175.535 12.3639C176.549 11.9482 177.584 11.5858 178.635 11.2781C179.769 10.9635 180.919 10.7064 182.078 10.5077C183.309 10.2916 184.596 10.1853 185.941 10.1853C188.001 10.1853 189.872 10.5339 191.559 11.2275C193.24 11.9247 194.697 12.8745 195.916 14.0806C197.135 15.2984 198.098 16.7506 198.747 18.3506C199.418 19.9889 199.752 21.737 199.752 23.5896C199.764 25.3844 199.422 27.1636 198.747 28.8252C198.099 30.4262 197.136 31.8792 195.916 33.0969C194.664 34.3267 193.183 35.2967 191.559 35.9517C189.872 36.6488 188.001 36.9974 185.941 36.9974C185.407 36.9974 184.879 36.9521 184.346 36.8684C183.816 36.7883 183.346 36.7116 182.942 36.6471C182.458 36.5177 181.975 36.3858 181.492 36.2515V45.215C181.493 45.2716 181.472 45.3262 181.433 45.367C181.394 45.4078 181.341 45.4315 181.284 45.4328" fill="white"/>
<path fill-rule="evenodd" clip-rule="evenodd" d="M204.373 36.126C204.317 36.1246 204.264 36.1011 204.225 36.0606C204.187 36.0201 204.166 35.9659 204.167 35.9098V6.58801L204.149 1.59646C204.149 1.47446 204.246 1.37512 204.361 1.37512H210.047C210.164 1.37512 210.255 1.47272 210.255 1.59646V35.9081C210.256 35.936 210.251 35.9638 210.241 35.9897C210.231 36.0157 210.215 36.0394 210.196 36.0595C210.177 36.0795 210.154 36.0956 210.128 36.1067C210.103 36.1178 210.075 36.1238 210.047 36.1242" fill="white"/>
<path fill-rule="evenodd" clip-rule="evenodd" d="M232.396 21.3553C232.146 19.7344 231.491 18.3767 230.43 17.2857C229.931 16.756 229.327 16.3365 228.658 16.0542C227.989 15.7718 227.268 15.6327 226.543 15.6457C225.013 15.6457 223.706 16.1912 222.631 17.284C221.556 18.3767 220.892 19.7344 220.641 21.3553H232.396ZM235.827 26.5682H220.639C221.145 27.9353 222.002 29.1429 223.124 30.0678C224.28 31.0438 225.964 31.5318 228.179 31.5318C229.032 31.5427 229.883 31.4431 230.711 31.2355C231.372 31.07 232.015 30.8364 232.628 30.5384C233.173 30.2804 233.655 29.9981 234.081 29.6861C234.105 29.6686 234.132 29.6564 234.16 29.6506C234.189 29.6447 234.219 29.6453 234.247 29.6523C234.276 29.6593 234.302 29.6725 234.325 29.691C234.348 29.7095 234.366 29.7328 234.379 29.7593L236.522 33.8428C236.547 33.8901 236.554 33.9446 236.543 33.9968C236.532 34.049 236.503 34.0957 236.462 34.1287C235.749 34.6646 234.983 35.1248 234.176 35.5021C233.265 35.9382 232.316 36.2883 231.34 36.5478C230.156 36.8574 228.936 37.0074 227.713 36.9939C225.653 36.9939 223.788 36.6523 222.115 35.9778C220.513 35.3419 219.057 34.3869 217.832 33.1701C216.636 31.9619 215.703 30.5166 215.093 28.9262C214.451 27.288 214.131 25.5085 214.131 23.5896C214.131 21.6045 214.434 19.7902 215.046 18.1536C215.615 16.58 216.491 15.1365 217.622 13.908C218.725 12.7191 220.067 11.7793 221.558 11.1508C223.066 10.506 224.731 10.1853 226.543 10.1853C228.354 10.1853 230.014 10.5077 231.529 11.1508C233.043 11.7957 234.353 12.7177 235.463 13.908C236.594 15.1373 237.469 16.5805 238.039 18.1536C238.637 19.7658 238.943 21.5435 238.951 23.4903C238.95 23.5529 238.925 23.6128 238.882 23.6576L235.969 26.5089C235.931 26.546 235.88 26.5672 235.827 26.5682Z" fill="white"/>
<path fill-rule="evenodd" clip-rule="evenodd" d="M266.159 33.9875C266.162 35.4648 265.859 36.9266 265.27 38.2801C264.663 39.6699 263.77 40.9139 262.648 41.9297C261.492 42.9911 260.094 43.8346 258.456 44.4638C256.818 45.0912 254.936 45.4049 252.811 45.4049C251.412 45.4049 250.144 45.2481 249.019 44.9344C248.042 44.6722 247.087 44.3318 246.164 43.9165C245.281 43.5188 244.448 43.0187 243.681 42.4264L245.921 38.1546C245.933 38.1294 245.95 38.1071 245.971 38.0892C245.993 38.0712 246.018 38.0581 246.044 38.0507C246.071 38.0432 246.099 38.0417 246.127 38.0461C246.154 38.0505 246.18 38.0608 246.203 38.0762C246.72 38.3917 247.301 38.6862 247.944 38.9529C248.568 39.2178 249.286 39.4496 250.096 39.65C250.911 39.847 251.812 39.9463 252.811 39.9463C254.406 39.9463 255.677 39.6657 256.629 39.1028C257.584 38.5398 258.305 37.9089 258.808 37.2135C259.397 36.4188 259.819 35.5107 260.07 34.4824V33.9875C259.51 34.0868 258.947 34.1705 258.383 34.2384C257.856 34.3029 257.291 34.3604 256.701 34.4092C256.105 34.4598 255.51 34.4824 254.921 34.4824C252.922 34.4824 251.157 34.2036 249.629 33.6406C248.099 33.0777 246.803 32.2986 245.742 31.307C244.688 30.3257 243.864 29.1214 243.329 27.7812C242.774 26.3587 242.496 24.8422 242.511 23.3142V10.3787C242.511 10.2567 242.604 10.1556 242.719 10.1556H248.393C248.508 10.1556 248.601 10.2567 248.601 10.3787V23.3142C248.601 24.9351 249.154 26.2945 250.262 27.3838C251.37 28.4748 252.922 29.0221 254.921 29.0221C255.576 29.0221 256.204 28.9802 256.818 28.9001C257.424 28.8164 257.979 28.7258 258.48 28.6264C259.04 28.5271 259.573 28.4103 260.07 28.2779V10.3787C260.07 10.2567 260.164 10.1556 260.278 10.1556H265.953C266.066 10.1556 266.159 10.2567 266.159 10.3787V33.9875Z" fill="white"/>
<path fill-rule="evenodd" clip-rule="evenodd" d="M53.1554 35.6746V12.871C53.1554 12.6793 53.2715 12.5067 53.4414 12.4457C54.5318 12.0505 55.639 11.7039 56.7599 11.407C57.9163 11.1107 59.1386 10.858 60.4337 10.6402C61.7417 10.425 63.0648 10.3166 64.3902 10.316C66.384 10.316 68.1576 10.5966 69.7007 11.1595C71.2489 11.7242 72.5406 12.5015 73.5895 13.4932C74.63 14.4801 75.4446 15.6825 75.9769 17.0173C76.5308 18.4388 76.8074 19.9541 76.7918 21.4807V35.6746C76.7934 35.7313 76.7839 35.7878 76.7638 35.8409C76.7436 35.894 76.7133 35.9425 76.6745 35.9838C76.6357 36.0251 76.5892 36.0583 76.5376 36.0815C76.486 36.1046 76.4304 36.1174 76.374 36.119H71.1276C71.0132 36.1158 70.9048 36.0673 70.8258 35.984C70.7469 35.9008 70.7039 35.7895 70.7063 35.6746V21.4807C70.7063 19.8616 70.1532 18.5022 69.0471 17.4146C67.9375 16.3219 66.3857 15.7764 64.3902 15.7764C63.7365 15.7764 63.1037 15.8356 62.4917 15.9506C61.9292 16.0606 61.3663 16.1686 60.803 16.2748C60.3557 16.423 59.9309 16.5711 59.52 16.7227C59.4365 16.7551 59.3649 16.8127 59.3153 16.8876C59.2656 16.9625 59.2402 17.051 59.2426 17.141V35.6763C59.2449 35.7916 59.2017 35.9031 59.1224 35.9864C59.0431 36.0697 58.9342 36.118 58.8196 36.1207H53.5749C53.4609 36.1171 53.3529 36.0684 53.2743 35.9852C53.1958 35.902 53.153 35.7892 53.1554 35.6746Z" fill="white"/>
<path fill-rule="evenodd" clip-rule="evenodd" d="M43.1534 30.7492C42.6524 30.8816 42.1062 30.9984 41.5133 31.0978C41.014 31.1954 40.4436 31.2877 39.8073 31.3714C39.1304 31.4566 38.4488 31.4979 37.7666 31.4951C35.7693 31.4951 34.3736 31.1727 33.5761 30.5261C32.7821 29.8812 32.3833 29.1318 32.3833 28.2691C32.3833 27.4081 32.7821 26.6552 33.5761 26.0069C34.3736 25.362 35.7693 25.0396 37.7666 25.0396C38.4861 25.0396 39.1554 25.064 39.7813 25.1128C40.4072 25.1651 40.9828 25.2226 41.5133 25.2871C42.1062 25.3568 42.6524 25.437 43.1534 25.538V30.7492ZM49.2407 21.0676C49.2407 17.6934 48.2733 15.0321 46.3349 13.0766C44.4018 11.1246 41.5445 10.1486 37.7666 10.1486C36.364 10.1486 35.1209 10.2793 34.0442 10.546C33.0743 10.7757 32.1264 11.0907 31.2113 11.4871C30.4441 11.8434 29.712 12.2717 29.025 12.7664C28.9331 12.8291 28.9123 12.9511 28.9608 13.054L31.1124 17.1566C31.1696 17.2612 31.2893 17.2996 31.3898 17.2438C31.9349 16.9391 32.501 16.6741 33.0837 16.4508C33.6784 16.2521 34.3736 16.0639 35.1694 15.8809C36.0225 15.6934 36.8935 15.601 37.7666 15.6055C39.6408 15.6055 41.0053 16.0064 41.8653 16.7994C42.7235 17.5941 43.1534 18.6869 43.1534 20.0759C42.6416 19.9712 42.1257 19.8881 41.6069 19.8267C41.0316 19.7551 40.4547 19.697 39.8766 19.6524C39.2178 19.6071 38.5174 19.5827 37.7666 19.5827C35.7069 19.5827 33.9419 19.8023 32.4769 20.2485C31.0101 20.6964 29.8 21.2994 28.8464 22.0628C27.9277 22.7802 27.2038 23.7189 26.7416 24.7921C26.2797 25.8918 26.0483 27.0755 26.062 28.2691C26.062 29.4908 26.2874 30.6429 26.7416 31.7165C27.1924 32.7953 27.8928 33.712 28.8464 34.4702C29.8 35.2353 31.0101 35.8383 32.4769 36.2862C33.9419 36.7324 35.7069 36.9573 37.7666 36.9573C39.2975 36.9573 40.7314 36.8719 42.075 36.708C43.2182 36.567 44.3562 36.3868 45.4871 36.1677L49.2407 32.6384V21.0676Z" fill="white"/>
<mask id="mask0_125_504" style="mask-type:luminance" maskUnits="userSpaceOnUse" x="144" y="53" width="100" height="8">
<path d="M243.877 53.0437H145.284C145.011 53.0437 144.787 53.2441 144.787 53.4916V60.3933C144.787 60.6408 145.012 60.8395 145.286 60.8395H243.877V53.0437Z" fill="white"/>
</mask>
<g mask="url(#mask0_125_504)">
<path fill-rule="evenodd" clip-rule="evenodd" d="M241.999 81.0201H127.394C126.357 81.0201 125.518 80.2707 125.518 79.347V48.1429C125.518 47.2192 126.359 46.4697 127.394 46.4697H242.001C243.036 46.4697 243.877 47.2192 243.877 48.1429V79.347C243.877 80.2707 243.036 81.0201 241.999 81.0201Z" fill="#E22D36"/>
</g>
<mask id="mask1_125_504" style="mask-type:luminance" maskUnits="userSpaceOnUse" x="205" y="53" width="61" height="8">
<path d="M205.32 53.0438H265.676C265.687 53.0435 265.698 53.0435 265.709 53.0438V60.8361C265.698 60.8365 265.687 60.8365 265.676 60.8361H205.32V53.0473V53.0438Z" fill="white"/>
</mask>
<g mask="url(#mask1_125_504)">
<path fill-rule="evenodd" clip-rule="evenodd" d="M265.707 81.0201H206.998C206.072 81.0201 205.321 79.4533 205.321 77.5222V49.9676C205.321 48.0366 206.072 46.4697 206.998 46.4697H265.707" fill="#F2AD4B"/>
</g>
<mask id="mask2_125_504" style="mask-type:luminance" maskUnits="userSpaceOnUse" x="223" y="53" width="44" height="8">
<path d="M223.763 53.0438H265.675C265.951 53.0438 266.175 53.2424 266.175 53.4882V60.3934C266.175 60.6409 265.949 60.8396 265.674 60.8396H223.763V53.0438Z" fill="white"/>
</mask>
<g mask="url(#mask2_125_504)">
<path fill-rule="evenodd" clip-rule="evenodd" d="M265.176 81.0201H225.638C224.602 81.0201 223.763 80.2707 223.763 79.347V48.1429C223.763 47.2192 224.602 46.4697 225.639 46.4697H265.176C266.213 46.4697 267.052 47.2192 267.052 48.1429V79.347C267.052 80.2707 266.213 81.0201 265.176 81.0201Z" fill="#894590"/>
</g>
</g>
<defs>
<clipPath id="clip0_125_504">
<rect width="267" height="61" fill="white"/>
</clipPath>
</defs>
</svg>
