<svg width="46" height="47" viewBox="0 0 46 47" fill="none" xmlns="http://www.w3.org/2000/svg">
<rect x="0.340255" y="0.312393" width="45.1959" height="46.3752" rx="22.598" fill="#0C163D"/>
<rect x="0.340255" y="0.312393" width="45.1959" height="46.3752" rx="22.598" stroke="#4D4A4A" stroke-width="0.624785"/>
<path fill-rule="evenodd" clip-rule="evenodd" d="M33.863 12.75C31.7619 10.7429 28.9395 10.0013 27.1073 11.0773L27.1072 11.0773L19.1678 15.7389L19.2206 26.281L17.416 26.2719L17.3605 15.1969C17.3589 14.8672 17.5293 14.5633 17.8077 14.3999L26.1969 9.4742C26.1969 9.47419 26.1969 9.47418 26.1969 9.47416C29.0129 7.82049 32.7048 9.13067 35.0877 11.4069C37.5193 13.7298 39.0067 17.4458 36.9918 21.041L35.4239 20.1109C36.8818 17.5096 35.9155 14.7106 33.863 12.75Z" fill="#2A2A7B"/>
<path fill-rule="evenodd" clip-rule="evenodd" d="M26.8828 14.4417C27.1656 14.2812 27.515 14.2829 27.7995 14.4463L36.3722 19.3706L36.3723 19.3707C39.25 21.024 40.0296 24.87 39.3016 28.0423C38.5586 31.2795 36.1289 34.3666 31.9937 34.3456L31.9846 32.5323C34.9768 32.5474 36.8864 30.3563 37.5134 27.624C38.1553 24.8268 37.3356 22.0121 35.4634 20.9364L27.3504 16.2762L18.3085 21.4086L17.3839 19.8336L26.8828 14.4417Z" fill="#2A2A7B"/>
<path fill-rule="evenodd" clip-rule="evenodd" d="M31.429 24.2847L22.5289 19.0667L23.4182 17.5025L32.7682 22.9842C33.0466 23.1474 33.219 23.4473 33.2207 23.7709L33.2695 33.5304C33.2859 36.8043 30.3788 39.3602 27.2986 40.2952C24.1554 41.2493 20.3007 40.6865 18.2613 37.1373L19.8111 36.2401C21.2862 38.8073 24.1131 39.3652 26.7661 38.5599C29.4821 37.7355 31.4859 35.6517 31.4753 33.5213L31.429 24.2847Z" fill="#2A2A7B"/>
<path fill-rule="evenodd" clip-rule="evenodd" d="M26.708 31.1798L26.6556 20.7188L28.4602 20.728L28.5153 31.728C28.517 32.0615 28.3466 32.3688 28.0682 32.5341L19.6793 37.5169C19.6793 37.517 19.6793 37.517 19.6792 37.517C16.8634 39.1898 13.1714 37.8648 10.7884 35.5625C8.35663 33.2131 6.86899 29.4545 8.88374 25.8178L10.4517 26.7585C8.99392 29.3898 9.96044 32.2209 12.013 34.2039C14.1142 36.234 16.9367 36.984 18.7688 35.8955L18.7689 35.8955L26.708 31.1798Z" fill="#2A2A7B"/>
<path fill-rule="evenodd" clip-rule="evenodd" d="M10.2722 26.063C8.46254 24.9833 7.67119 22.1678 8.28836 19.3727L10.2722 26.063ZM10.2722 26.063L18.0943 30.7218L26.8101 25.5877L27.7017 27.1626L18.5454 32.5562C18.2728 32.7167 17.9359 32.7151 17.6617 32.5517L9.39639 27.629C6.61944 25.9728 5.8638 22.1278 6.56435 18.9552C7.27914 15.7181 9.62124 12.6329 13.6074 12.6531L13.6165 14.4665C10.7315 14.4519 8.89136 16.6419 8.28836 19.3727" fill="#2A2A7B"/>
<path fill-rule="evenodd" clip-rule="evenodd" d="M19.1101 8.43988C16.3941 9.26433 14.3903 11.3481 14.401 13.4785L14.4473 22.7151L23.3474 27.9331L22.458 29.4973L13.1081 24.0156C12.8297 23.8524 12.6572 23.5525 12.6556 23.2289L12.6067 13.4694C12.5903 10.1955 15.4974 7.63963 18.5777 6.70463C21.7209 5.7505 25.5756 6.31329 27.6149 9.86251L26.0652 10.7597C24.5901 8.1925 21.7632 7.63456 19.1101 8.43988Z" fill="#2A2A7B"/>
</svg>
