<svg width="26" height="26" viewBox="0 0 26 26" fill="none" xmlns="http://www.w3.org/2000/svg">
<path d="M14.2953 12.1V12V5C14.2953 4.50293 13.8924 4.1 13.3953 4.1C12.8982 4.1 12.4953 4.50293 12.4953 5V12V12.1H12.3953H11.3953H11.2953V12V7C11.2953 6.50293 10.8923 6.1 10.3953 6.1C9.89822 6.1 9.49529 6.50293 9.49529 7V15.0448V15.243L9.33587 15.1252L6.98847 13.3909C6.48279 13.0173 5.78662 13.1034 5.3848 13.5899L14.2953 12.1ZM14.2953 12.1H14.3953M14.2953 12.1H14.3953M14.3953 12.1H15.3953H15.4953M14.3953 12.1H15.4953M15.4953 12.1V12M15.4953 12.1V12M15.4953 12V6L15.4953 5.99818M15.4953 12L15.4953 5.99818M15.4953 5.99818L15.4953 5.998M15.4953 5.99818C15.4953 5.99812 15.4953 5.99806 15.4953 5.998M15.4953 5.998C15.4963 5.50185 15.8988 5.1 16.3953 5.1C16.8923 5.1 17.2953 5.50293 17.2953 6V12V12.1M15.4953 5.998L17.2953 12.1M17.2953 12.1H17.3953M17.2953 12.1H17.3953M17.3953 12.1H18.3953H18.4953M17.3953 12.1H18.4953M18.4953 12.1V12M18.4953 12.1V12M18.4953 12V9C18.4953 8.50293 18.8982 8.1 19.3953 8.1C19.8923 8.1 20.2953 8.50293 20.2953 9V17C20.2953 19.7062 18.1015 21.9 15.3953 21.9H14.3953C12.8731 21.9 11.513 21.206 10.6142 20.1169L10.6077 20.109M18.4953 12L10.6077 20.109M10.6077 20.109L10.5997 20.1026M10.6077 20.109L10.5997 20.1026M10.5997 20.1026C10.5655 20.0751 10.5319 20.0458 10.499 20.0149L5.49409 15.309L5.42559 15.3819M10.5997 20.1026L5.42559 15.3819M5.42559 15.3819L5.49409 15.309C5.01446 14.8581 4.96622 14.0969 5.38479 13.5899L5.42559 15.3819ZM8.29529 7V12.8644L7.70161 12.4258C6.68088 11.6717 5.26556 11.8497 4.45958 12.8258C3.63735 13.8215 3.73213 15.2996 4.67209 16.1833C4.67209 16.1833 4.67209 16.1833 4.67209 16.1833L9.67699 20.8893L9.67712 20.8894C9.70306 20.9137 9.72926 20.9374 9.75576 20.9607C10.873 22.2683 12.5374 23.1 14.3953 23.1H15.3953C18.7642 23.1 21.4953 20.3689 21.4953 17V9C21.4953 7.84017 20.555 6.9 19.3953 6.9C19.0734 6.9 18.7681 6.9725 18.4953 7.10213V6C18.4953 4.84017 17.555 3.9 16.3953 3.9C16.0077 3.9 15.6444 4.00511 15.3327 4.18835C15.0152 3.43167 14.2675 2.9 13.3953 2.9C12.2355 2.9 11.2953 3.8402 11.2953 5V5.10214C11.0224 4.97251 10.7172 4.9 10.3953 4.9C9.23546 4.9 8.29529 5.84017 8.29529 7Z" fill="#1570EF" stroke="#1570EF" stroke-width="0.2"/>
<path d="M13.3953 4C12.843 4 12.3953 4.4477 12.3953 5V12H11.3953V7C11.3953 6.4477 10.9475 6 10.3953 6C9.84296 6 9.39526 6.4477 9.39526 7V15.0448L7.04786 13.3105C6.49926 12.9052 5.74316 12.9989 5.30766 13.5262C4.85546 14.0739 4.90756 14.8949 5.42556 15.3819L10.4305 20.0878C10.4653 20.1205 10.5009 20.1514 10.5371 20.1805C11.4541 21.2917 12.842 22 14.3953 22H15.3953C18.1567 22 20.3953 19.7614 20.3953 17V9C20.3953 8.4477 19.9475 8 19.3953 8C18.843 8 18.3953 8.4477 18.3953 9V12H17.3953V6C17.3953 5.4477 16.9475 5 16.3953 5C15.8436 5 15.3963 5.4466 15.3953 5.998V12H14.3953V5C14.3953 4.4477 13.9476 4 13.3953 4Z" fill="white"/>
</svg>
