<svg width="81" height="81" viewBox="0 0 81 81" fill="none" xmlns="http://www.w3.org/2000/svg">
<rect x="1.17222" y="1.01158" width="78.7507" height="78.7507" rx="10.6545" fill="url(#paint0_radial_570_2663)"/>
<rect x="1.17222" y="1.01158" width="78.7507" height="78.7507" rx="10.6545" stroke="#282828" stroke-width="0.926479"/>
<g clip-path="url(#clip0_570_2663)">
<path d="M60.8065 30.5191C60.1373 30.2895 59.4625 30.0769 58.7826 29.8813C58.8968 29.4146 59.0019 28.9536 59.0953 28.5007C60.6274 21.0632 59.6258 15.0715 56.2046 13.0987C52.9245 11.2075 47.56 13.1795 42.1423 17.8946C41.6083 18.3601 41.0862 18.839 40.5765 19.3309C40.2352 19.0038 39.8879 18.6831 39.5348 18.3689C33.8567 13.3274 28.1653 11.2026 24.7479 13.181C21.4706 15.0781 20.5002 20.7108 21.8796 27.7594C22.0168 28.4575 22.1718 29.152 22.3443 29.8422C21.5387 30.0711 20.7613 30.3148 20.0173 30.5741C13.3602 32.8952 9.10889 36.5325 9.10889 40.3054C9.10889 44.202 13.6729 48.1105 20.6066 50.4804C21.1687 50.6718 21.7355 50.8491 22.3065 51.0122C22.121 51.7556 21.9564 52.504 21.8128 53.2566C20.4978 60.1829 21.5247 65.6825 24.7931 67.5676C28.1688 69.5143 33.8346 67.5135 39.3513 62.6909C39.7987 62.2988 40.2362 61.8956 40.6634 61.4817C41.2154 62.0144 41.7822 62.5315 42.3631 63.0325C47.7071 67.6309 52.9849 69.4878 56.2501 67.5975C59.6226 65.6451 60.7188 59.7371 59.2957 52.5492C59.1836 51.9861 59.0579 51.4258 58.9187 50.8687C59.3166 50.7509 59.7071 50.6295 60.0878 50.5033C67.2961 48.1152 71.9861 44.2541 71.9861 40.3054C71.9861 36.5187 67.5975 32.8569 60.8065 30.5191ZM59.2431 47.9538C58.8993 48.0675 58.5466 48.1773 58.187 48.2841C57.3912 45.7649 56.3174 43.0862 55.0031 40.3184C56.2572 37.6166 57.2898 34.9721 58.0632 32.4693C58.7065 32.6555 59.3306 32.8517 59.9323 33.0588C65.7509 35.062 69.3 38.0234 69.3 40.3054C69.3 42.736 65.467 45.8914 59.2431 47.9538ZM56.6608 53.0709C57.29 56.2492 57.3797 59.1229 56.9629 61.3695C56.5885 63.3882 55.8355 64.7339 54.9041 65.273C52.9227 66.42 48.6852 64.9292 44.115 60.9964C43.5748 60.5306 43.0476 60.0498 42.534 59.5546C44.3059 57.617 46.0765 55.3645 47.8046 52.8626C50.8444 52.593 53.7161 52.1518 56.3203 51.5498C56.4458 52.0541 56.5593 52.5613 56.6608 53.0709ZM30.5451 65.0748C28.6092 65.7584 27.0672 65.778 26.1351 65.2406C24.1518 64.0968 23.3272 59.6809 24.4519 53.7577C24.5856 53.0577 24.7387 52.3616 24.911 51.6702C27.4865 52.24 30.3373 52.6497 33.3842 52.8968C35.1241 55.3448 36.9458 57.5949 38.7818 59.5652C38.3916 59.9427 37.9922 60.3106 37.5839 60.6685C35.1442 62.8009 32.6996 64.3139 30.5451 65.0748ZM21.4756 47.9388C18.4096 46.8908 15.8775 45.5289 14.142 44.0426C12.5824 42.7072 11.7952 41.3812 11.7952 40.3054C11.7952 38.0158 15.2085 35.0954 20.9016 33.1106C21.5925 32.8699 22.3156 32.6427 23.0659 32.4295C23.8529 34.9888 24.8849 37.6648 26.1304 40.3707C24.8687 43.1167 23.8219 45.8354 23.0273 48.4249C22.5062 48.2756 21.9888 48.1135 21.4756 47.9388ZM24.5158 27.2434C23.3341 21.2045 24.1189 16.6491 26.0938 15.5057C28.1973 14.288 32.8487 16.0242 37.7514 20.3775C38.0711 20.662 38.3856 20.9523 38.6948 21.2482C36.8679 23.2099 35.0629 25.4433 33.3385 27.8768C30.3813 28.1509 27.5506 28.5911 24.948 29.1808C24.7877 28.5388 24.6436 27.8926 24.5158 27.2434ZM51.6382 33.941C51.0235 32.8792 50.386 31.8308 49.7261 30.7964C51.7323 31.0501 53.6544 31.3869 55.4594 31.7985C54.9176 33.5355 54.2422 35.3513 53.4471 37.2131C52.866 36.1105 52.2629 35.0196 51.6382 33.941ZM40.5777 23.1681C41.8166 24.5104 43.0574 26.0089 44.2779 27.6349C41.8021 27.518 39.3222 27.5175 36.8463 27.6334C38.068 26.0224 39.3194 24.5259 40.5777 23.1681ZM29.4462 33.9592C28.8293 35.0291 28.2375 36.1132 27.6712 37.2106C26.8891 35.3555 26.2198 33.5313 25.6733 31.7698C27.4673 31.3685 29.3804 31.0403 31.3738 30.7913C30.7066 31.8319 30.0639 32.8884 29.4462 33.9592ZM31.431 50.0106C29.3716 49.7807 27.4297 49.4695 25.6363 49.079C26.1913 47.286 26.8754 45.423 27.6744 43.5281C28.2429 44.6264 28.8372 45.7111 29.4568 46.7815C30.0939 47.8818 30.7536 48.9596 31.431 50.0106ZM40.6519 57.632C39.3786 56.2585 38.1088 54.7389 36.8687 53.1046C38.0727 53.1517 39.3 53.1758 40.5475 53.1758C41.8291 53.1758 43.096 53.1471 44.343 53.0916C43.1186 54.7553 41.8824 56.2772 40.6519 57.632ZM53.4724 43.4313C54.3129 45.3471 55.0213 47.2003 55.5837 48.9625C53.7608 49.3786 51.7924 49.7136 49.7185 49.9624C50.383 48.9089 51.0266 47.8422 51.6488 46.7631C52.2813 45.6661 52.8893 44.5553 53.4724 43.4313ZM49.322 45.421C48.3696 47.0756 47.3636 48.6987 46.3057 50.2879C44.3893 50.4236 42.4687 50.491 40.5475 50.49C38.5907 50.49 36.6874 50.4291 34.8546 50.3102C33.7691 48.7247 32.7439 47.0988 31.7813 45.4358C30.8232 43.7816 29.9285 42.0916 29.0987 40.3695C29.9264 38.647 30.8186 36.9562 31.7734 35.3007L31.7732 35.301C32.7276 33.6451 33.7446 32.0261 34.822 30.4474C36.6918 30.3059 38.6093 30.2323 40.5472 30.2323C42.494 30.2323 44.4142 30.3067 46.2836 30.4491C47.35 32.0254 48.3605 33.6389 49.3132 35.2865C50.2712 36.9383 51.1752 38.6208 52.0238 40.3314C51.1839 42.0595 50.2828 43.7571 49.322 45.421ZM54.8631 15.4257C56.9685 16.64 57.7874 21.5368 56.4645 27.9584C56.38 28.368 56.2852 28.7853 56.182 29.2085C53.5731 28.6063 50.7405 28.1585 47.7747 27.8803C46.047 25.4199 44.2567 23.1831 42.4596 21.2467C42.9306 20.7927 43.4128 20.3505 43.9058 19.9204C48.5479 15.8808 52.8864 14.2858 54.8631 15.4257ZM40.5475 34.6906C43.6484 34.6906 46.1622 37.2045 46.1622 40.3054C46.1622 43.4063 43.6484 45.9201 40.5475 45.9201C37.4466 45.9201 34.9327 43.4063 34.9327 40.3054C34.9327 37.2045 37.4466 34.6906 40.5475 34.6906Z" fill="#00D8FF"/>
</g>
<defs>
<radialGradient id="paint0_radial_570_2663" cx="0" cy="0" r="1" gradientUnits="userSpaceOnUse" gradientTransform="translate(1.38526 16.0177) rotate(58.6197) scale(75.2086 85.7872)">
<stop stop-color="#1F1F20"/>
<stop offset="1" stop-color="#0D0D0E"/>
</radialGradient>
<clipPath id="clip0_570_2663">
<rect width="62.8787" height="56" fill="white" transform="translate(9.10815 12.387)"/>
</clipPath>
</defs>
</svg>
