<svg width="46" height="46" viewBox="0 0 46 46" fill="none" xmlns="http://www.w3.org/2000/svg">
<rect x="0.703766" y="1.34512" width="43.7622" height="43.7622" rx="21.8811" fill="#E199F5"/>
<rect x="0.703766" y="1.34512" width="43.7622" height="43.7622" rx="21.8811" stroke="white" stroke-width="1.33966"/>
<path d="M26.9056 18.2294C26.3586 17.9852 26.007 17.4578 26.007 16.8717V14.0441C26.007 13.8487 25.9581 13.6534 25.8653 13.4824L25.8458 13.4482C25.696 13.5459 25.5218 13.6371 25.3232 13.7217C24.6053 14.0294 23.6481 14.1955 22.6372 14.1955C21.6262 14.1955 20.669 14.0294 19.9511 13.7217C19.7558 13.6403 19.5832 13.5508 19.4334 13.4531L19.4188 13.4824C19.326 13.6534 19.2772 13.8487 19.2772 14.0441V16.8669C19.2772 17.448 18.9304 17.9755 18.3883 18.2245C14.9306 19.7873 12.5327 23.2059 12.5376 27.1667C12.5376 30.1164 13.8611 32.7536 15.9562 34.5557C17.7339 36.0844 20.0732 37.0074 22.6372 37.0074C25.1963 37.0074 27.5356 36.0795 29.3132 34.5509C31.4132 32.7439 32.7367 30.1018 32.7367 27.1618C32.7367 23.2059 30.3486 19.7971 26.9056 18.2294Z" fill="white"/>
<path d="M22.6373 37.0073C20.0733 37.0073 17.734 36.0843 15.9563 34.5557C15.7952 34.8243 15.7073 35.1075 15.7073 35.4006C15.7073 37.1489 18.8084 38.5652 22.6373 38.5652C26.4661 38.5652 29.5673 37.1489 29.5673 35.4006C29.5673 35.1026 29.4794 34.8194 29.3134 34.5508C27.5357 36.0794 25.1964 37.0073 22.6373 37.0073Z" fill="white"/>
<path d="M21.8898 24.5734C27.2277 29.3546 31.0908 26.0434 31.5645 25.599C31.5645 25.5957 31.5645 25.5941 31.5645 25.5941C31.5303 25.4134 31.4668 25.2376 31.3789 25.0764C30.7343 23.9238 29.0933 21.5504 26.5977 21.9557C25.1619 22.1901 24.1266 22.8787 23.1303 23.5429C22.6468 23.8652 22.1926 24.168 21.7091 24.4122C21.7091 24.4122 21.7107 24.4139 21.714 24.4171C21.7628 24.4757 21.8312 24.5197 21.8898 24.5734Z" fill="#970DB4"/>
<path d="M31.6476 26.1559C31.628 25.9801 31.602 25.8043 31.5694 25.6285C31.5694 25.6187 31.5678 25.609 31.5646 25.5992C31.0908 26.0436 27.2278 29.3548 21.8899 24.5736C21.8313 24.5199 21.7629 24.4759 21.7141 24.4173C21.7108 24.4141 21.7092 24.4124 21.7092 24.4124C19.1354 21.4382 15.8975 22.5859 15.8975 22.5859C15.3457 22.6982 14.8475 22.9815 14.4324 23.3869C13.8659 24.559 13.568 25.8483 13.568 27.1669C13.568 27.5087 13.5875 27.8473 13.6266 28.1827C13.861 30.1655 14.7596 31.9969 16.2199 33.4229C16.6252 33.8136 17.0599 34.1653 17.5238 34.4729C18.9841 35.6011 20.6934 36.2067 22.471 36.2067C22.4776 36.2067 22.4857 36.2067 22.4955 36.2067C23.6773 36.2018 24.8299 35.9283 25.8994 35.4155C27.0666 34.976 28.1362 34.302 29.0494 33.4132C30.7636 31.7429 31.7062 29.5208 31.7062 27.162C31.7062 26.8234 31.6866 26.488 31.6476 26.1559Z" fill="#7F0099"/>
<path fill-rule="evenodd" clip-rule="evenodd" d="M22.1488 28.2313C22.1488 29.0762 21.89 29.379 21.4016 30.053L21.3675 30.1018V31.7574C21.3675 32.026 21.1428 32.2506 20.8644 32.2506H19.4628L19.4091 32.2995C19.1063 32.5974 18.7888 32.7488 18.4665 32.7488C18.1393 32.7488 17.8219 32.5974 17.524 32.2995L17.4702 32.2506H16.0686C15.7902 32.2506 15.5607 32.026 15.5607 31.7574V30.1018L15.5314 30.053C15.0381 29.379 14.7793 29.0762 14.7793 28.2313C14.7793 27.3816 15.0381 27.0788 15.5314 26.4048L15.5607 26.356V24.7004C15.5607 24.4318 15.7902 24.2071 16.0686 24.2071H17.4702L17.524 24.1583C17.8219 23.8604 18.1393 23.709 18.4665 23.709C18.7888 23.709 19.1063 23.8604 19.4091 24.1583L19.4628 24.2071H20.8644C21.1428 24.2071 21.3675 24.4318 21.3675 24.7004V26.356L21.4016 26.4048C21.89 27.0788 22.1488 27.3816 22.1488 28.2313ZM19.1014 24.7053C19.1014 24.3634 18.8133 24.085 18.4665 24.085C18.1149 24.085 17.8316 24.3634 17.8316 24.7053C17.8316 25.0471 18.1149 25.3255 18.4665 25.3255C18.8133 25.3255 19.1014 25.0471 19.1014 24.7053Z" fill="white"/>
<path d="M15.9563 34.5557C19.2186 37.2808 24.1317 37.7106 27.8238 35.5666C28.3512 35.2736 28.8445 34.9268 29.3133 34.5508C28.4196 35.3566 27.3647 35.9964 26.2268 36.4261C22.8033 37.7545 18.6472 37.022 15.9563 34.5557Z" fill="#E6E6E6"/>
<path d="M20.3519 27.9627C20.2885 27.953 20.225 27.9334 20.1664 27.9139C19.4387 27.7088 18.8819 27.1276 18.7403 26.3902C18.6817 26.0972 18.2471 26.0972 18.1933 26.3902C18.0371 27.1862 17.3973 27.8113 16.5817 27.9627C16.2789 28.0165 16.2789 28.4413 16.5817 28.4951C17.3973 28.6465 18.0371 29.2716 18.1933 30.0676C18.2471 30.3607 18.6817 30.3607 18.7403 30.0676C18.8282 29.6086 19.0822 29.213 19.4338 28.9248C19.6926 28.7148 20.0052 28.5586 20.3519 28.4951C20.6499 28.4413 20.6499 28.0165 20.3519 27.9627Z" fill="#BF54DE"/>
<path d="M25.255 11.1235L25.1427 11.651L25.0987 11.8561L24.9913 12.3542C24.9522 12.3673 24.9099 12.3803 24.8643 12.3933C24.3076 12.5496 23.4969 12.6375 22.6373 12.6375C21.7778 12.6375 20.9671 12.5496 20.4103 12.3933C20.3648 12.3803 20.3224 12.3673 20.2834 12.3542L20.1759 11.8561L20.132 11.651L20.0196 11.1235C19.2041 11.4507 18.745 11.9196 18.745 12.4373C18.745 12.9354 19.1748 13.3945 19.9513 13.7217C20.6692 14.0294 21.6264 14.1954 22.6373 14.1954C23.6483 14.1954 24.6055 14.0294 25.3234 13.7217C26.0999 13.3945 26.5297 12.9354 26.5297 12.4373C26.5297 11.9196 26.0706 11.4507 25.255 11.1235Z" fill="white"/>
<path d="M25.8459 13.4482C24.4101 14.4543 21.7729 14.4787 20.1662 13.8487C19.9073 13.7413 19.6582 13.6192 19.4336 13.4531C19.795 13.6582 20.1906 13.7901 20.591 13.8878C22.149 14.2638 24.4297 14.2296 25.8459 13.4482Z" fill="#E6E6E6"/>
<path d="M22.6279 18.6931C21.2311 18.6931 19.8539 18.3757 18.6476 17.7799C18.4181 17.6675 18.3253 17.3941 18.4425 17.1743C18.5597 16.9496 18.8381 16.8617 19.0676 16.9741C20.142 17.5064 21.3727 17.7896 22.6279 17.7896C23.8928 17.7896 25.1283 17.5064 26.2028 16.9692C26.4274 16.8568 26.7107 16.9448 26.823 17.1694C26.9402 17.3892 26.8523 17.6627 26.6228 17.775C25.4165 18.3757 24.0393 18.6931 22.6279 18.6931Z" fill="#B38854"/>
<path fill-rule="evenodd" clip-rule="evenodd" d="M18.4425 24.8222C18.4001 24.8222 18.3578 24.8173 18.3155 24.8076C18.0908 24.7441 17.9541 24.5341 17.9785 24.3192C17.9834 24.2411 17.998 23.7966 18.042 21.4915C18.0664 20.3389 18.7208 19.2645 19.8978 18.4636C20.0492 18.3562 20.1811 18.2585 20.2885 18.1657C20.396 18.068 20.479 17.9801 20.5327 17.902C20.5815 17.8238 20.5815 17.7896 20.5815 17.7896C20.5815 17.5357 20.7915 17.3354 21.0455 17.3354C21.2994 17.3354 21.5094 17.5357 21.5094 17.7896C21.5094 17.985 21.4411 18.1901 21.3141 18.3903C21.2164 18.5368 21.0846 18.6834 20.9088 18.8348C20.7769 18.9569 20.6157 19.0741 20.4301 19.2059C19.5022 19.8359 18.9846 20.6515 18.9699 21.5062C18.9162 24.3973 18.9113 24.4169 18.8869 24.495C18.8283 24.6952 18.6427 24.8222 18.4425 24.8222Z" fill="#B38854"/>
<path d="M20.5667 19.3085L19.7707 18.5222C19.7121 18.4636 19.712 18.366 19.7755 18.3074L20.176 17.9215C20.2542 17.8483 20.2932 17.7946 20.3127 17.7653C20.3193 17.7588 20.3225 17.7539 20.3225 17.7506V17.2329C20.3225 17.1499 20.3909 17.0864 20.4788 17.0864H21.6118C21.6997 17.0864 21.7681 17.1499 21.7681 17.2329V17.7897C21.7681 18.0339 21.6851 18.2829 21.5288 18.5222C21.4409 18.659 21.3286 18.786 21.1918 18.9227L20.7865 19.3085C20.7279 19.3671 20.6302 19.3671 20.5667 19.3085Z" fill="#C7985E"/>
<path d="M25.7042 9.0187C25.7042 9.43382 24.3318 9.77568 22.6372 9.77568C20.9425 9.77568 19.5702 9.43382 19.5702 9.0187C19.5702 8.60358 20.9425 8.2666 22.6372 8.2666C24.3318 8.2666 25.7042 8.60358 25.7042 9.0187Z" fill="#C69C6D"/>
<path d="M23.0965 9.66796C22.6765 9.66796 22.2125 9.63378 21.6851 9.57029C21.5288 9.55075 21.3774 9.52634 21.2407 9.50192C21.156 9.48238 21.073 9.46285 20.9916 9.44331C20.5325 9.33099 20.2786 9.17471 20.2786 9.00866C20.2834 8.83773 20.5618 8.67657 21.06 8.55936C21.9635 8.34936 23.4286 8.34936 24.3223 8.55936C24.757 8.66191 25.0011 8.81331 24.9963 8.97936C24.9865 9.18936 24.6007 9.36517 23.9609 9.45796C23.1111 9.58494 21.9537 9.47261 21.3676 9.29192C21.0844 9.20889 20.9428 9.10634 20.9525 8.98913C20.9769 8.78889 21.48 8.62285 22.2369 8.56912C23.4139 8.4861 24.376 8.71564 24.4249 8.96471C24.4346 9.04285 24.376 9.15517 24.0049 9.25773C23.3602 9.43355 22.0807 9.37982 21.6021 9.15517C21.4816 9.09982 21.4311 9.03959 21.4507 8.97447C21.519 8.73029 22.4714 8.61796 23.2137 8.68633C23.5507 8.71564 23.8193 8.78401 23.9267 8.86215C23.9951 8.91099 24 8.95982 23.9902 8.98913C23.9414 9.15029 23.4628 9.28215 22.9207 9.28215C22.4421 9.28703 21.983 9.17471 21.8609 9.06727C21.8121 9.02331 21.8121 8.98913 21.8218 8.96471C21.8853 8.80843 22.4909 8.71075 23.0672 8.75471C23.4139 8.78401 23.663 8.86215 23.6874 8.95494C23.6923 8.97447 23.6874 9.00866 23.6337 9.04773C23.4823 9.16006 22.9255 9.21378 22.486 9.15517C22.3297 9.14052 22.0709 9.09657 22.0611 9.00866C22.0611 8.95982 22.1344 8.9175 22.2809 8.88168C22.613 8.79866 23.2821 8.81331 23.4237 8.9354C23.4465 8.95168 23.4562 8.96959 23.453 8.98913C23.4481 9.01354 23.4188 9.03308 23.3651 9.05261C23.3016 9.07703 23.1453 9.0868 23.1404 9.0868C22.9011 9.10145 22.6618 9.09168 22.4274 9.0575C22.4225 9.0575 22.4176 9.04773 22.4176 9.04285C22.4176 9.03796 22.4225 9.03308 22.4323 9.03308C22.6667 9.06727 22.9011 9.07703 23.1355 9.06238C23.1404 9.06238 23.2967 9.04773 23.3553 9.02819C23.4139 9.00866 23.4237 8.99401 23.4237 8.98424C23.4286 8.97447 23.4139 8.95982 23.4042 8.95494C23.2821 8.8475 22.6325 8.81819 22.2907 8.9061C22.1002 8.95006 22.0904 8.99401 22.0904 9.00378C22.0904 9.04285 22.1979 9.09657 22.4909 9.13075C22.9109 9.18447 23.4725 9.13564 23.619 9.02331C23.6516 9.00378 23.6663 8.98261 23.663 8.95982C23.6435 8.89145 23.4335 8.80843 23.0623 8.78401C22.4567 8.73029 21.9 8.8475 21.8462 8.97447C21.8365 8.99726 21.8462 9.02168 21.8755 9.04773C21.9976 9.15029 22.4567 9.26261 22.9207 9.25773C23.497 9.25773 23.9267 9.11122 23.9658 8.98424C23.9756 8.94843 23.9577 8.91424 23.9121 8.88168C23.8046 8.80354 23.5458 8.74005 23.2088 8.71075C22.8035 8.67168 22.3737 8.68633 22.0269 8.74494C21.7144 8.79866 21.4995 8.89145 21.4751 8.97936C21.4555 9.04285 21.5386 9.10145 21.6118 9.13564C22.0855 9.35541 23.3553 9.40913 23.9951 9.23331C24.2735 9.15517 24.4151 9.06238 24.3956 8.96959C24.3565 8.73517 23.3797 8.5154 22.2369 8.59354C21.646 8.6375 21.0014 8.77913 20.9818 8.99401C20.9672 9.09168 21.1088 9.18936 21.3774 9.2675C21.9586 9.4482 23.1111 9.56052 23.956 9.43355C24.5714 9.34564 24.9621 9.16982 24.967 8.97936C24.9767 8.82308 24.7374 8.68145 24.3174 8.58377C23.4237 8.37377 21.9683 8.37377 21.0697 8.58377C20.5862 8.6961 20.3079 8.85238 20.3079 9.00866C20.303 9.16006 20.5569 9.31145 20.9965 9.41889C21.0779 9.43843 21.1609 9.45796 21.2455 9.4775C21.3823 9.50192 21.5337 9.52634 21.6851 9.54587C22.3639 9.62889 22.9353 9.6582 23.4383 9.63378C23.4481 9.63378 23.453 9.63866 23.453 9.64843C23.453 9.65331 23.4481 9.6582 23.4432 9.6582C23.3325 9.66471 23.2169 9.66796 23.0965 9.66796Z" fill="#997448"/>
<path d="M22.6377 9.77552C21.0553 9.77552 19.7514 9.47761 19.5902 9.10156L19.9907 10.9916L20.02 11.1234L20.1323 11.6509L20.1763 11.856L20.2837 12.3541C20.3228 12.3672 20.3651 12.3802 20.4107 12.3932C20.9674 12.5495 21.7781 12.6374 22.6377 12.6374C23.4972 12.6374 24.3079 12.5495 24.8646 12.3932C24.9102 12.3802 24.9525 12.3672 24.9916 12.3541L25.0991 11.856L25.143 11.6509L25.2553 11.1234L25.2846 10.9916L25.6851 9.10156C25.5239 9.47761 24.22 9.77552 22.6377 9.77552Z" fill="#B38854"/>
</svg>
