<svg width="525" height="389" viewBox="0 0 525 389" fill="none" xmlns="http://www.w3.org/2000/svg">
<g opacity="0.2">
<path d="M21.7446 240.2V253.767H18.8762V240.2H21.7446ZM26.8737 247.884V253.767H24.0516V243.592H26.7412V245.387H26.8604C27.0857 244.795 27.4633 244.327 27.9932 243.982C28.5232 243.634 29.1658 243.459 29.921 243.459C30.6276 243.459 31.2437 243.614 31.7692 243.923C32.2948 244.232 32.7033 244.674 32.9947 245.248C33.2862 245.817 33.432 246.498 33.432 247.288V253.767H30.6099V247.792C30.6143 247.169 30.4553 246.683 30.1329 246.334C29.8105 245.981 29.3667 245.804 28.8014 245.804C28.4216 245.804 28.086 245.886 27.7945 246.049C27.5074 246.213 27.2822 246.451 27.1188 246.765C26.9598 247.074 26.8781 247.447 26.8737 247.884ZM42.7958 240.2V253.767H39.9737V240.2H42.7958ZM49.6538 253.966C48.6248 253.966 47.7349 253.747 46.9841 253.31C46.2378 252.868 45.6614 252.254 45.2551 251.468C44.8488 250.678 44.6457 249.761 44.6457 248.719C44.6457 247.668 44.8488 246.749 45.2551 245.963C45.6614 245.173 46.2378 244.559 46.9841 244.122C47.7349 243.68 48.6248 243.459 49.6538 243.459C50.6828 243.459 51.5705 243.68 52.3169 244.122C53.0677 244.559 53.6462 245.173 54.0525 245.963C54.4588 246.749 54.662 247.668 54.662 248.719C54.662 249.761 54.4588 250.678 54.0525 251.468C53.6462 252.254 53.0677 252.868 52.3169 253.31C51.5705 253.747 50.6828 253.966 49.6538 253.966ZM49.6671 251.779C50.1352 251.779 50.526 251.647 50.8396 251.382C51.1532 251.113 51.3894 250.746 51.5484 250.282C51.7118 249.819 51.7935 249.291 51.7935 248.699C51.7935 248.107 51.7118 247.58 51.5484 247.116C51.3894 246.652 51.1532 246.286 50.8396 246.016C50.526 245.747 50.1352 245.612 49.6671 245.612C49.1945 245.612 48.797 245.747 48.4746 246.016C48.1567 246.286 47.916 246.652 47.7526 247.116C47.5936 247.58 47.5141 248.107 47.5141 248.699C47.5141 249.291 47.5936 249.819 47.7526 250.282C47.916 250.746 48.1567 251.113 48.4746 251.382C48.797 251.647 49.1945 251.779 49.6671 251.779ZM65.6554 243.592L62.098 253.767H58.9182L55.3609 243.592H58.3419L60.4551 250.872H60.5611L62.6677 243.592H65.6554ZM71.4088 253.966C70.3621 253.966 69.4612 253.754 68.706 253.33C67.9552 252.901 67.3767 252.296 66.9704 251.515C66.5641 250.728 66.3609 249.799 66.3609 248.726C66.3609 247.679 66.5641 246.76 66.9704 245.97C67.3767 245.179 67.9486 244.563 68.6861 244.122C69.4281 243.68 70.2981 243.459 71.2962 243.459C71.9675 243.459 72.5924 243.567 73.1709 243.784C73.7539 243.996 74.2618 244.316 74.6946 244.744C75.1318 245.173 75.4719 245.711 75.7148 246.361C75.9577 247.005 76.0791 247.761 76.0791 248.626V249.401H67.4871V247.652H73.4227C73.4227 247.246 73.3343 246.886 73.1577 246.573C72.981 246.259 72.7359 246.014 72.4224 245.837C72.1132 245.656 71.7533 245.566 71.3426 245.566C70.9142 245.566 70.5344 245.665 70.2031 245.864C69.8763 246.058 69.6202 246.321 69.4347 246.652C69.2492 246.979 69.1543 247.343 69.1498 247.745V249.408C69.1498 249.911 69.2426 250.346 69.4281 250.713C69.618 251.079 69.8852 251.362 70.2296 251.561C70.5741 251.76 70.9826 251.859 71.4552 251.859C71.7687 251.859 72.0558 251.815 72.3164 251.726C72.5769 251.638 72.8 251.506 72.9854 251.329C73.1709 251.152 73.3123 250.936 73.4094 250.68L76.0195 250.852C75.887 251.479 75.6154 252.027 75.2047 252.495C74.7984 252.959 74.2728 253.321 73.628 253.581C72.9877 253.838 72.2479 253.966 71.4088 253.966ZM84.2455 253.767L81.4765 243.592H84.3316L85.9083 250.428H86.001L87.6439 243.592H90.4461L92.1155 250.388H92.2016L93.7517 243.592H96.6003L93.8379 253.767H90.8502L89.1013 247.368H88.9754L87.2266 253.767H84.2455ZM98.1057 253.767V243.592H100.928V253.767H98.1057ZM99.5234 242.28C99.1038 242.28 98.7439 242.141 98.4436 241.863C98.1477 241.58 97.9997 241.242 97.9997 240.849C97.9997 240.46 98.1477 240.127 98.4436 239.849C98.7439 239.566 99.1038 239.425 99.5234 239.425C99.9429 239.425 100.301 239.566 100.597 239.849C100.897 240.127 101.047 240.46 101.047 240.849C101.047 241.242 100.897 241.58 100.597 241.863C100.301 242.141 99.9429 242.28 99.5234 242.28ZM108.601 243.592V245.711H102.473V243.592H108.601ZM103.864 241.154H106.686V250.64C106.686 250.901 106.726 251.104 106.805 251.25C106.885 251.391 106.995 251.49 107.137 251.548C107.282 251.605 107.45 251.634 107.64 251.634C107.773 251.634 107.905 251.623 108.038 251.601C108.17 251.574 108.272 251.554 108.342 251.541L108.786 253.641C108.645 253.685 108.446 253.736 108.19 253.793C107.934 253.855 107.622 253.893 107.256 253.906C106.576 253.932 105.98 253.842 105.467 253.634C104.959 253.427 104.564 253.104 104.281 252.667C103.999 252.23 103.86 251.678 103.864 251.011V241.154ZM113.48 247.884V253.767H110.658V240.2H113.4V245.387H113.519C113.749 244.786 114.12 244.316 114.632 243.976C115.145 243.631 115.787 243.459 116.56 243.459C117.267 243.459 117.883 243.614 118.408 243.923C118.938 244.228 119.349 244.667 119.64 245.241C119.936 245.811 120.082 246.493 120.078 247.288V253.767H117.256V247.792C117.26 247.164 117.101 246.676 116.779 246.327C116.461 245.979 116.015 245.804 115.44 245.804C115.056 245.804 114.716 245.886 114.42 246.049C114.129 246.213 113.899 246.451 113.731 246.765C113.568 247.074 113.484 247.447 113.48 247.884ZM138.64 244.95H135.738C135.685 244.574 135.577 244.241 135.413 243.949C135.25 243.653 135.04 243.402 134.784 243.194C134.528 242.987 134.232 242.828 133.896 242.717C133.565 242.607 133.205 242.551 132.817 242.551C132.114 242.551 131.503 242.726 130.982 243.075C130.461 243.419 130.056 243.923 129.769 244.585C129.482 245.243 129.339 246.043 129.339 246.983C129.339 247.95 129.482 248.763 129.769 249.421C130.061 250.079 130.467 250.576 130.988 250.912C131.509 251.247 132.112 251.415 132.797 251.415C133.181 251.415 133.537 251.364 133.863 251.263C134.195 251.161 134.488 251.013 134.744 250.819C135.001 250.62 135.213 250.379 135.38 250.097C135.553 249.814 135.672 249.492 135.738 249.13L138.64 249.143C138.565 249.766 138.377 250.366 138.077 250.945C137.781 251.519 137.381 252.033 136.877 252.488C136.378 252.939 135.782 253.297 135.089 253.561C134.4 253.822 133.62 253.952 132.75 253.952C131.54 253.952 130.458 253.679 129.504 253.131C128.555 252.583 127.804 251.791 127.252 250.753C126.704 249.715 126.431 248.458 126.431 246.983C126.431 245.504 126.709 244.245 127.265 243.207C127.822 242.169 128.577 241.379 129.531 240.836C130.485 240.288 131.558 240.014 132.75 240.014C133.537 240.014 134.265 240.125 134.937 240.346C135.612 240.566 136.211 240.889 136.732 241.313C137.253 241.732 137.677 242.247 138.004 242.856C138.335 243.466 138.547 244.163 138.64 244.95ZM143.466 247.884V253.767H140.644V240.2H143.386V245.387H143.505C143.735 244.786 144.106 244.316 144.618 243.976C145.131 243.631 145.773 243.459 146.546 243.459C147.253 243.459 147.869 243.614 148.394 243.923C148.924 244.228 149.335 244.667 149.626 245.241C149.922 245.811 150.068 246.493 150.064 247.288V253.767H147.242V247.792C147.246 247.164 147.087 246.676 146.765 246.327C146.447 245.979 146.001 245.804 145.426 245.804C145.042 245.804 144.702 245.886 144.406 246.049C144.115 246.213 143.885 246.451 143.717 246.765C143.554 247.074 143.47 247.447 143.466 247.884ZM155.186 253.959C154.537 253.959 153.958 253.846 153.45 253.621C152.943 253.391 152.541 253.054 152.245 252.608C151.953 252.157 151.808 251.596 151.808 250.925C151.808 250.36 151.911 249.885 152.119 249.501C152.326 249.116 152.609 248.807 152.967 248.573C153.325 248.339 153.731 248.162 154.186 248.043C154.645 247.924 155.126 247.84 155.63 247.792C156.222 247.73 156.699 247.672 157.061 247.619C157.423 247.562 157.686 247.478 157.849 247.368C158.013 247.257 158.094 247.094 158.094 246.877V246.838C158.094 246.418 157.962 246.093 157.697 245.864C157.436 245.634 157.065 245.519 156.584 245.519C156.076 245.519 155.672 245.632 155.372 245.857C155.071 246.078 154.873 246.356 154.775 246.692L152.165 246.48C152.298 245.862 152.558 245.327 152.947 244.877C153.336 244.422 153.837 244.073 154.451 243.83C155.069 243.583 155.784 243.459 156.597 243.459C157.162 243.459 157.703 243.525 158.22 243.658C158.741 243.79 159.203 243.996 159.605 244.274C160.011 244.552 160.331 244.91 160.565 245.347C160.799 245.78 160.916 246.299 160.916 246.904V253.767H158.24V252.356H158.16C157.997 252.674 157.778 252.954 157.505 253.197C157.231 253.436 156.902 253.623 156.518 253.76C156.133 253.893 155.69 253.959 155.186 253.959ZM155.994 252.011C156.409 252.011 156.776 251.93 157.094 251.766C157.412 251.598 157.661 251.373 157.843 251.091C158.024 250.808 158.114 250.488 158.114 250.13V249.05C158.026 249.108 157.904 249.161 157.75 249.209C157.6 249.253 157.43 249.295 157.24 249.335C157.05 249.37 156.86 249.403 156.67 249.434C156.48 249.461 156.308 249.485 156.153 249.507C155.822 249.556 155.533 249.633 155.285 249.739C155.038 249.845 154.846 249.989 154.709 250.17C154.572 250.346 154.504 250.567 154.504 250.832C154.504 251.216 154.643 251.51 154.921 251.713C155.204 251.912 155.561 252.011 155.994 252.011ZM165.663 250.839L165.669 247.454H166.08L169.339 243.592H172.579L168.2 248.706H167.531L165.663 250.839ZM163.106 253.767V240.2H165.928V253.767H163.106ZM169.465 253.767L166.471 249.335L168.352 247.341L172.771 253.767H169.465ZM173.963 253.767V243.592H176.699V245.367H176.805C176.991 244.735 177.302 244.258 177.739 243.936C178.177 243.609 178.68 243.446 179.25 243.446C179.391 243.446 179.543 243.455 179.707 243.472C179.87 243.49 180.014 243.514 180.137 243.545V246.049C180.005 246.01 179.822 245.974 179.588 245.943C179.353 245.912 179.139 245.897 178.945 245.897C178.53 245.897 178.159 245.987 177.832 246.168C177.51 246.345 177.254 246.592 177.064 246.91C176.878 247.228 176.785 247.595 176.785 248.01V253.767H173.963ZM184.207 253.959C183.557 253.959 182.979 253.846 182.471 253.621C181.963 253.391 181.561 253.054 181.265 252.608C180.974 252.157 180.828 251.596 180.828 250.925C180.828 250.36 180.932 249.885 181.139 249.501C181.347 249.116 181.63 248.807 181.987 248.573C182.345 248.339 182.751 248.162 183.206 248.043C183.666 247.924 184.147 247.84 184.65 247.792C185.242 247.73 185.719 247.672 186.081 247.619C186.443 247.562 186.706 247.478 186.87 247.368C187.033 247.257 187.115 247.094 187.115 246.877V246.838C187.115 246.418 186.982 246.093 186.717 245.864C186.457 245.634 186.086 245.519 185.604 245.519C185.096 245.519 184.692 245.632 184.392 245.857C184.092 246.078 183.893 246.356 183.796 246.692L181.186 246.48C181.318 245.862 181.579 245.327 181.967 244.877C182.356 244.422 182.857 244.073 183.471 243.83C184.089 243.583 184.805 243.459 185.618 243.459C186.183 243.459 186.724 243.525 187.241 243.658C187.762 243.79 188.223 243.996 188.625 244.274C189.031 244.552 189.352 244.91 189.586 245.347C189.82 245.78 189.937 246.299 189.937 246.904V253.767H187.26V252.356H187.181C187.018 252.674 186.799 252.954 186.525 253.197C186.251 253.436 185.922 253.623 185.538 253.76C185.154 253.893 184.71 253.959 184.207 253.959ZM185.015 252.011C185.43 252.011 185.796 251.93 186.114 251.766C186.432 251.598 186.682 251.373 186.863 251.091C187.044 250.808 187.135 250.488 187.135 250.13V249.05C187.046 249.108 186.925 249.161 186.77 249.209C186.62 249.253 186.45 249.295 186.26 249.335C186.07 249.37 185.88 249.403 185.69 249.434C185.501 249.461 185.328 249.485 185.174 249.507C184.842 249.556 184.553 249.633 184.306 249.739C184.059 249.845 183.866 249.989 183.73 250.17C183.593 250.346 183.524 250.567 183.524 250.832C183.524 251.216 183.663 251.51 183.942 251.713C184.224 251.912 184.582 252.011 185.015 252.011Z" fill="white"/>
<path d="M21.8936 199.824V216.104H18.4514V199.824H21.8936ZM28.0484 209.045V216.104H24.6619V203.894H27.8894V206.048H28.0325C28.3028 205.338 28.7559 204.777 29.3919 204.363C30.0278 203.944 30.7989 203.735 31.7052 203.735C32.5531 203.735 33.2924 203.921 33.9231 204.292C34.5537 204.663 35.0439 205.193 35.3937 205.881C35.7435 206.565 35.9184 207.381 35.9184 208.33V216.104H32.5319V208.934C32.5372 208.187 32.3464 207.604 31.9595 207.185C31.5727 206.761 31.0401 206.549 30.3617 206.549C29.9059 206.549 29.5032 206.647 29.1534 206.843C28.8089 207.039 28.5386 207.326 28.3425 207.702C28.1518 208.073 28.0537 208.521 28.0484 209.045ZM47.1549 199.824V216.104H43.7685V199.824H47.1549ZM55.3846 216.343C54.1498 216.343 53.0819 216.081 52.181 215.556C51.2853 215.026 50.5937 214.289 50.1061 213.346C49.6186 212.397 49.3748 211.298 49.3748 210.047C49.3748 208.786 49.6186 207.683 50.1061 206.74C50.5937 205.791 51.2853 205.055 52.181 204.53C53.0819 204 54.1498 203.735 55.3846 203.735C56.6194 203.735 57.6846 204 58.5803 204.53C59.4812 205.055 60.1755 205.791 60.663 206.74C61.1506 207.683 61.3944 208.786 61.3944 210.047C61.3944 211.298 61.1506 212.397 60.663 213.346C60.1755 214.289 59.4812 215.026 58.5803 215.556C57.6846 216.081 56.6194 216.343 55.3846 216.343ZM55.4005 213.72C55.9622 213.72 56.4313 213.561 56.8075 213.243C57.1838 212.919 57.4673 212.48 57.6581 211.923C57.8542 211.367 57.9523 210.733 57.9523 210.023C57.9523 209.313 57.8542 208.68 57.6581 208.123C57.4673 207.567 57.1838 207.127 56.8075 206.804C56.4313 206.48 55.9622 206.319 55.4005 206.319C54.8334 206.319 54.3565 206.48 53.9696 206.804C53.588 207.127 53.2992 207.567 53.1031 208.123C52.9123 208.68 52.8169 209.313 52.8169 210.023C52.8169 210.733 52.9123 211.367 53.1031 211.923C53.2992 212.48 53.588 212.919 53.9696 213.243C54.3565 213.561 54.8334 213.72 55.4005 213.72ZM74.5865 203.894L70.3176 216.104H66.5019L62.233 203.894H65.8103L68.3462 212.631H68.4734L71.0013 203.894H74.5865ZM81.4906 216.343C80.2346 216.343 79.1534 216.089 78.2472 215.58C77.3463 215.066 76.652 214.34 76.1644 213.402C75.6769 212.458 75.4331 211.343 75.4331 210.055C75.4331 208.799 75.6769 207.697 76.1644 206.748C76.652 205.799 77.3383 205.06 78.2234 204.53C79.1137 204 80.1577 203.735 81.3554 203.735C82.161 203.735 82.9109 203.865 83.6051 204.125C84.3047 204.379 84.9141 204.763 85.4335 205.277C85.9582 205.791 86.3662 206.438 86.6577 207.217C86.9492 207.991 87.0949 208.897 87.0949 209.936V210.866H76.7845V208.767H83.9072C83.9072 208.28 83.8012 207.848 83.5892 207.471C83.3772 207.095 83.0831 206.801 82.7068 206.589C82.3359 206.372 81.9039 206.263 81.4111 206.263C80.897 206.263 80.4412 206.382 80.0438 206.621C79.6516 206.854 79.3442 207.169 79.1216 207.567C78.8991 207.959 78.7851 208.396 78.7798 208.878V210.874C78.7798 211.478 78.8911 212 79.1137 212.44C79.3416 212.88 79.6622 213.219 80.0756 213.457C80.4889 213.696 80.9792 213.815 81.5462 213.815C81.9225 213.815 82.267 213.762 82.5797 213.656C82.8923 213.55 83.16 213.391 83.3825 213.179C83.6051 212.967 83.7747 212.707 83.8913 212.4L87.0234 212.607C86.8644 213.359 86.5385 214.016 86.0456 214.578C85.558 215.135 84.9274 215.569 84.1536 215.882C83.3852 216.189 82.4975 216.343 81.4906 216.343ZM96.8946 216.104L93.5718 203.894H96.998L98.8899 212.098H99.0012L100.973 203.894H104.335L106.339 212.05H106.442L108.302 203.894H111.72L108.405 216.104H104.82L102.722 208.425H102.571L100.472 216.104H96.8946ZM113.527 216.104V203.894H116.913V216.104H113.527ZM115.228 202.32C114.725 202.32 114.293 202.153 113.932 201.819C113.577 201.48 113.4 201.075 113.4 200.603C113.4 200.137 113.577 199.737 113.932 199.403C114.293 199.064 114.725 198.894 115.228 198.894C115.732 198.894 116.161 199.064 116.516 199.403C116.876 199.737 117.056 200.137 117.056 200.603C117.056 201.075 116.876 201.48 116.516 201.819C116.161 202.153 115.732 202.32 115.228 202.32ZM126.121 203.894V206.438H118.768V203.894H126.121ZM120.437 200.969H123.823V212.352C123.823 212.665 123.871 212.909 123.966 213.084C124.062 213.253 124.194 213.373 124.364 213.441C124.539 213.51 124.74 213.545 124.968 213.545C125.127 213.545 125.286 213.532 125.445 213.505C125.604 213.473 125.726 213.449 125.811 213.433L126.343 215.953C126.174 216.006 125.935 216.067 125.628 216.136C125.321 216.21 124.947 216.256 124.507 216.271C123.691 216.303 122.975 216.195 122.361 215.946C121.751 215.696 121.277 215.31 120.938 214.785C120.599 214.26 120.432 213.598 120.437 212.798V200.969ZM131.976 209.045V216.104H128.589V199.824H131.88V206.048H132.023C132.299 205.328 132.744 204.763 133.359 204.355C133.974 203.942 134.745 203.735 135.672 203.735C136.52 203.735 137.259 203.921 137.89 204.292C138.526 204.657 139.019 205.185 139.369 205.874C139.724 206.557 139.898 207.376 139.893 208.33V216.104H136.507V208.934C136.512 208.182 136.321 207.596 135.934 207.177C135.553 206.759 135.018 206.549 134.329 206.549C133.868 206.549 133.459 206.647 133.104 206.843C132.755 207.039 132.479 207.326 132.278 207.702C132.082 208.073 131.981 208.521 131.976 209.045ZM162.168 205.524H158.686C158.622 205.073 158.492 204.673 158.296 204.323C158.1 203.968 157.848 203.666 157.541 203.417C157.234 203.168 156.879 202.977 156.476 202.845C156.078 202.712 155.646 202.646 155.18 202.646C154.337 202.646 153.603 202.855 152.978 203.274C152.353 203.687 151.868 204.292 151.523 205.087C151.179 205.876 151.007 206.835 151.007 207.964C151.007 209.125 151.179 210.1 151.523 210.89C151.873 211.679 152.361 212.276 152.986 212.678C153.611 213.081 154.335 213.282 155.156 213.282C155.617 213.282 156.044 213.221 156.436 213.1C156.833 212.978 157.186 212.8 157.493 212.567C157.801 212.329 158.055 212.04 158.256 211.7C158.463 211.361 158.606 210.974 158.686 210.54L162.168 210.556C162.077 211.303 161.852 212.024 161.492 212.718C161.137 213.407 160.657 214.024 160.053 214.57C159.454 215.111 158.739 215.54 157.907 215.858C157.08 216.171 156.145 216.327 155.1 216.327C153.648 216.327 152.35 215.998 151.205 215.341C150.066 214.684 149.165 213.733 148.502 212.487C147.845 211.242 147.517 209.734 147.517 207.964C147.517 206.189 147.851 204.678 148.518 203.433C149.186 202.188 150.092 201.239 151.237 200.587C152.382 199.93 153.67 199.601 155.1 199.601C156.044 199.601 156.918 199.734 157.724 199.999C158.535 200.264 159.253 200.651 159.878 201.16C160.503 201.663 161.012 202.28 161.404 203.012C161.802 203.743 162.056 204.58 162.168 205.524ZM167.959 209.045V216.104H164.572V199.824H167.863V206.048H168.006C168.282 205.328 168.727 204.763 169.342 204.355C169.957 203.942 170.728 203.735 171.655 203.735C172.503 203.735 173.242 203.921 173.873 204.292C174.509 204.657 175.002 205.185 175.352 205.874C175.707 206.557 175.882 207.376 175.876 208.33V216.104H172.49V208.934C172.495 208.182 172.304 207.596 171.918 207.177C171.536 206.759 171.001 206.549 170.312 206.549C169.851 206.549 169.443 206.647 169.088 206.843C168.738 207.039 168.462 207.326 168.261 207.702C168.065 208.073 167.964 208.521 167.959 209.045ZM182.023 216.335C181.244 216.335 180.55 216.2 179.941 215.93C179.331 215.654 178.849 215.249 178.494 214.713C178.144 214.173 177.969 213.5 177.969 212.694C177.969 212.016 178.094 211.446 178.343 210.985C178.592 210.524 178.931 210.153 179.36 209.872C179.79 209.591 180.277 209.379 180.823 209.236C181.374 209.093 181.952 208.992 182.556 208.934C183.266 208.86 183.838 208.791 184.273 208.727C184.708 208.659 185.023 208.558 185.219 208.425C185.415 208.293 185.513 208.097 185.513 207.837V207.789C185.513 207.286 185.354 206.896 185.036 206.621C184.723 206.345 184.278 206.207 183.701 206.207C183.091 206.207 182.606 206.343 182.246 206.613C181.886 206.878 181.647 207.212 181.53 207.614L178.398 207.36C178.557 206.618 178.87 205.977 179.336 205.436C179.803 204.89 180.404 204.472 181.141 204.18C181.883 203.884 182.741 203.735 183.717 203.735C184.395 203.735 185.044 203.815 185.664 203.974C186.29 204.133 186.843 204.379 187.326 204.713C187.813 205.047 188.197 205.476 188.478 206.001C188.759 206.52 188.9 207.143 188.9 207.869V216.104H185.688V214.411H185.593C185.397 214.793 185.134 215.129 184.806 215.421C184.477 215.707 184.082 215.932 183.621 216.097C183.16 216.256 182.627 216.335 182.023 216.335ZM182.993 213.998C183.491 213.998 183.931 213.9 184.313 213.704C184.694 213.502 184.994 213.232 185.211 212.893C185.428 212.554 185.537 212.17 185.537 211.74V210.444C185.431 210.513 185.285 210.577 185.1 210.635C184.92 210.688 184.716 210.739 184.488 210.786C184.26 210.829 184.032 210.868 183.804 210.906C183.576 210.937 183.369 210.966 183.184 210.993C182.786 211.051 182.439 211.144 182.143 211.271C181.846 211.398 181.615 211.571 181.451 211.788C181.287 212 181.205 212.265 181.205 212.583C181.205 213.044 181.371 213.396 181.705 213.64C182.044 213.879 182.474 213.998 182.993 213.998ZM194.595 212.591L194.603 208.529H195.096L199.007 203.894H202.895L197.64 210.031H196.837L194.595 212.591ZM191.527 216.104V199.824H194.913V216.104H191.527ZM199.158 216.104L195.565 210.786L197.823 208.394L203.125 216.104H199.158ZM204.556 216.104V203.894H207.839V206.025H207.966C208.189 205.267 208.563 204.694 209.087 204.308C209.612 203.915 210.216 203.719 210.9 203.719C211.069 203.719 211.252 203.73 211.448 203.751C211.644 203.772 211.817 203.801 211.965 203.838V206.843C211.806 206.796 211.586 206.753 211.305 206.716C211.024 206.679 210.767 206.661 210.534 206.661C210.036 206.661 209.591 206.769 209.198 206.986C208.812 207.198 208.504 207.495 208.276 207.877C208.054 208.258 207.942 208.698 207.942 209.196V216.104H204.556ZM216.848 216.335C216.069 216.335 215.375 216.2 214.765 215.93C214.156 215.654 213.673 215.249 213.318 214.713C212.969 214.173 212.794 213.5 212.794 212.694C212.794 212.016 212.918 211.446 213.167 210.985C213.416 210.524 213.756 210.153 214.185 209.872C214.614 209.591 215.102 209.379 215.647 209.236C216.199 209.093 216.776 208.992 217.38 208.934C218.091 208.86 218.663 208.791 219.098 208.727C219.532 208.659 219.847 208.558 220.044 208.425C220.24 208.293 220.338 208.097 220.338 207.837V207.789C220.338 207.286 220.179 206.896 219.861 206.621C219.548 206.345 219.103 206.207 218.525 206.207C217.916 206.207 217.431 206.343 217.07 206.613C216.71 206.878 216.472 207.212 216.355 207.614L213.223 207.36C213.382 206.618 213.695 205.977 214.161 205.436C214.627 204.89 215.229 204.472 215.965 204.18C216.707 203.884 217.566 203.735 218.541 203.735C219.219 203.735 219.869 203.815 220.489 203.974C221.114 204.133 221.668 204.379 222.15 204.713C222.638 205.047 223.022 205.476 223.303 206.001C223.584 206.52 223.724 207.143 223.724 207.869V216.104H220.513V214.411H220.417C220.221 214.793 219.959 215.129 219.63 215.421C219.302 215.707 218.907 215.932 218.446 216.097C217.985 216.256 217.452 216.335 216.848 216.335ZM217.818 213.998C218.316 213.998 218.756 213.9 219.137 213.704C219.519 213.502 219.818 213.232 220.036 212.893C220.253 212.554 220.362 212.17 220.362 211.74V210.444C220.256 210.513 220.11 210.577 219.924 210.635C219.744 210.688 219.54 210.739 219.312 210.786C219.084 210.829 218.856 210.868 218.629 210.906C218.401 210.937 218.194 210.966 218.008 210.993C217.611 211.051 217.264 211.144 216.967 211.271C216.67 211.398 216.44 211.571 216.275 211.788C216.111 212 216.029 212.265 216.029 212.583C216.029 213.044 216.196 213.396 216.53 213.64C216.869 213.879 217.298 213.998 217.818 213.998Z" fill="white"/>
<path d="M24.1914 153.626V175.333H19.6019V153.626H24.1914ZM32.3979 165.921V175.333H27.8826V159.053H32.1859V161.925H32.3767C32.7371 160.979 33.3412 160.23 34.1892 159.678C35.0371 159.12 36.0652 158.841 37.2735 158.841C38.4041 158.841 39.3899 159.088 40.2307 159.583C41.0716 160.078 41.7252 160.784 42.1916 161.703C42.658 162.614 42.8911 163.703 42.8911 164.967V175.333H38.3759V165.773C38.3829 164.777 38.1285 163.999 37.6127 163.441C37.0969 162.876 36.3867 162.593 35.4823 162.593C34.8746 162.593 34.3375 162.724 33.8712 162.985C33.4119 163.247 33.0515 163.628 32.79 164.13C32.5357 164.625 32.4049 165.222 32.3979 165.921ZM57.8732 153.626V175.333H53.3579V153.626H57.8732ZM68.8461 175.651C67.1997 175.651 65.7758 175.302 64.5746 174.602C63.3804 173.896 62.4583 172.913 61.8082 171.656C61.1581 170.391 60.8331 168.924 60.8331 167.257C60.8331 165.575 61.1581 164.105 61.8082 162.848C62.4583 161.583 63.3804 160.601 64.5746 159.901C65.7758 159.194 67.1997 158.841 68.8461 158.841C70.4925 158.841 71.9128 159.194 73.107 159.901C74.3083 160.601 75.2339 161.583 75.884 162.848C76.5341 164.105 76.8591 165.575 76.8591 167.257C76.8591 168.924 76.5341 170.391 75.884 171.656C75.2339 172.913 74.3083 173.896 73.107 174.602C71.9128 175.302 70.4925 175.651 68.8461 175.651ZM68.8673 172.154C69.6163 172.154 70.2417 171.942 70.7434 171.518C71.2451 171.087 71.6231 170.5 71.8775 169.758C72.1389 169.016 72.2697 168.172 72.2697 167.225C72.2697 166.278 72.1389 165.434 71.8775 164.692C71.6231 163.95 71.2451 163.363 70.7434 162.932C70.2417 162.501 69.6163 162.286 68.8673 162.286C68.1112 162.286 67.4753 162.501 66.9594 162.932C66.4507 163.363 66.0656 163.95 65.8041 164.692C65.5497 165.434 65.4225 166.278 65.4225 167.225C65.4225 168.172 65.5497 169.016 65.8041 169.758C66.0656 170.5 66.4507 171.087 66.9594 171.518C67.4753 171.942 68.1112 172.154 68.8673 172.154ZM94.4486 159.053L88.7568 175.333H83.6692L77.9774 159.053H82.747L86.1282 170.702H86.2978L89.6684 159.053H94.4486ZM103.654 175.651C101.979 175.651 100.538 175.312 99.3296 174.634C98.1283 173.949 97.2027 172.98 96.5526 171.73C95.9025 170.472 95.5775 168.985 95.5775 167.267C95.5775 165.593 95.9025 164.123 96.5526 162.858C97.2027 161.593 98.1177 160.608 99.2978 159.901C100.485 159.194 101.877 158.841 103.474 158.841C104.548 158.841 105.548 159.014 106.473 159.36C107.406 159.7 108.219 160.212 108.911 160.897C109.611 161.583 110.155 162.445 110.544 163.484C110.932 164.515 111.127 165.723 111.127 167.108V168.349H97.3793V165.55H106.876C106.876 164.9 106.735 164.324 106.452 163.823C106.17 163.321 105.777 162.929 105.276 162.646C104.781 162.356 104.205 162.212 103.548 162.212C102.863 162.212 102.255 162.371 101.725 162.689C101.202 162.999 100.792 163.42 100.496 163.95C100.199 164.473 100.047 165.056 100.04 165.699V168.359C100.04 169.165 100.188 169.861 100.485 170.447C100.789 171.034 101.216 171.486 101.767 171.804C102.319 172.122 102.972 172.281 103.728 172.281C104.23 172.281 104.689 172.21 105.106 172.069C105.523 171.928 105.88 171.716 106.177 171.433C106.473 171.15 106.7 170.804 106.855 170.394L111.031 170.67C110.819 171.673 110.385 172.549 109.727 173.298C109.077 174.04 108.237 174.62 107.205 175.037C106.18 175.447 104.997 175.651 103.654 175.651ZM124.193 175.333L119.762 159.053H124.331L126.853 169.991H127.002L129.63 159.053H134.114L136.785 169.928H136.923L139.403 159.053H143.96L139.541 175.333H134.76L131.962 165.095H131.761L128.962 175.333H124.193ZM146.369 175.333V159.053H150.884V175.333H146.369ZM148.637 156.954C147.966 156.954 147.39 156.732 146.91 156.287C146.436 155.834 146.2 155.294 146.2 154.665C146.2 154.043 146.436 153.51 146.91 153.064C147.39 152.612 147.966 152.386 148.637 152.386C149.309 152.386 149.881 152.612 150.354 153.064C150.835 153.51 151.075 154.043 151.075 154.665C151.075 155.294 150.835 155.834 150.354 156.287C149.881 156.732 149.309 156.954 148.637 156.954ZM163.161 159.053V162.445H153.357V159.053H163.161ZM155.583 155.152H160.098V170.331C160.098 170.748 160.161 171.073 160.289 171.306C160.416 171.532 160.592 171.691 160.819 171.783C161.052 171.875 161.32 171.921 161.624 171.921C161.836 171.921 162.048 171.903 162.26 171.868C162.472 171.825 162.635 171.793 162.748 171.772L163.458 175.132C163.232 175.203 162.914 175.284 162.504 175.376C162.094 175.475 161.596 175.535 161.009 175.556C159.921 175.598 158.967 175.454 158.148 175.122C157.335 174.789 156.703 174.274 156.25 173.574C155.798 172.874 155.575 171.991 155.583 170.924V155.152ZM170.967 165.921V175.333H166.452V153.626H170.84V161.925H171.031C171.398 160.964 171.992 160.212 172.812 159.668C173.631 159.117 174.659 158.841 175.896 158.841C177.027 158.841 178.012 159.088 178.853 159.583C179.701 160.071 180.358 160.774 180.825 161.692C181.298 162.604 181.531 163.696 181.524 164.967V175.333H177.009V165.773C177.016 164.77 176.762 163.989 176.246 163.431C175.737 162.872 175.023 162.593 174.105 162.593C173.49 162.593 172.946 162.724 172.472 162.985C172.006 163.247 171.639 163.628 171.37 164.13C171.109 164.625 170.974 165.222 170.967 165.921ZM211.223 161.226H206.581C206.496 160.625 206.323 160.092 206.062 159.625C205.8 159.152 205.464 158.749 205.055 158.417C204.645 158.085 204.171 157.831 203.634 157.654C203.104 157.477 202.528 157.389 201.907 157.389C200.783 157.389 199.804 157.668 198.971 158.226C198.137 158.777 197.49 159.583 197.031 160.643C196.572 161.696 196.342 162.975 196.342 164.48C196.342 166.027 196.572 167.328 197.031 168.38C197.497 169.433 198.147 170.228 198.981 170.765C199.815 171.302 200.78 171.571 201.875 171.571C202.49 171.571 203.058 171.489 203.581 171.327C204.111 171.164 204.581 170.928 204.991 170.617C205.401 170.299 205.74 169.914 206.009 169.462C206.284 169.009 206.475 168.493 206.581 167.914L211.223 167.935C211.103 168.932 210.803 169.893 210.322 170.818C209.849 171.737 209.21 172.56 208.404 173.288C207.606 174.009 206.652 174.581 205.542 175.005C204.44 175.422 203.193 175.63 201.801 175.63C199.865 175.63 198.133 175.192 196.607 174.316C195.088 173.44 193.887 172.171 193.003 170.511C192.127 168.85 191.689 166.84 191.689 164.48C191.689 162.113 192.134 160.099 193.024 158.438C193.915 156.778 195.123 155.513 196.649 154.644C198.176 153.768 199.893 153.329 201.801 153.329C203.058 153.329 204.224 153.506 205.298 153.859C206.38 154.213 207.337 154.729 208.171 155.407C209.005 156.078 209.683 156.901 210.206 157.877C210.736 158.852 211.075 159.968 211.223 161.226ZM218.945 165.921V175.333H214.43V153.626H218.818V161.925H219.009C219.376 160.964 219.97 160.212 220.789 159.668C221.609 159.117 222.637 158.841 223.874 158.841C225.004 158.841 225.99 159.088 226.831 159.583C227.679 160.071 228.336 160.774 228.802 161.692C229.276 162.604 229.509 163.696 229.502 164.967V175.333H224.987V165.773C224.994 164.77 224.739 163.989 224.223 163.431C223.715 162.872 223.001 162.593 222.082 162.593C221.468 162.593 220.924 162.724 220.45 162.985C219.984 163.247 219.616 163.628 219.348 164.13C219.086 164.625 218.952 165.222 218.945 165.921ZM237.698 175.641C236.659 175.641 235.733 175.461 234.921 175.1C234.108 174.733 233.465 174.192 232.992 173.479C232.525 172.758 232.292 171.86 232.292 170.786C232.292 169.882 232.458 169.122 232.79 168.508C233.122 167.893 233.575 167.398 234.147 167.024C234.719 166.649 235.369 166.367 236.097 166.176C236.832 165.985 237.602 165.851 238.408 165.773C239.355 165.674 240.118 165.582 240.697 165.497C241.277 165.406 241.697 165.271 241.959 165.095C242.22 164.918 242.351 164.657 242.351 164.31V164.247C242.351 163.575 242.139 163.056 241.715 162.689C241.298 162.321 240.704 162.137 239.934 162.137C239.122 162.137 238.475 162.318 237.994 162.678C237.514 163.031 237.196 163.476 237.041 164.013L232.864 163.674C233.076 162.685 233.493 161.83 234.115 161.109C234.737 160.381 235.539 159.823 236.521 159.435C237.51 159.039 238.655 158.841 239.955 158.841C240.86 158.841 241.725 158.947 242.552 159.159C243.386 159.371 244.124 159.7 244.767 160.145C245.418 160.59 245.93 161.162 246.304 161.862C246.679 162.554 246.866 163.385 246.866 164.353V175.333H242.584V173.076H242.457C242.195 173.585 241.846 174.033 241.407 174.422C240.969 174.804 240.443 175.104 239.828 175.323C239.213 175.535 238.503 175.641 237.698 175.641ZM238.991 172.525C239.655 172.525 240.242 172.394 240.75 172.133C241.259 171.864 241.658 171.504 241.948 171.051C242.238 170.599 242.383 170.087 242.383 169.514V167.787C242.241 167.879 242.047 167.963 241.8 168.041C241.559 168.112 241.287 168.179 240.983 168.243C240.68 168.299 240.376 168.352 240.072 168.402C239.768 168.444 239.493 168.483 239.245 168.518C238.715 168.596 238.252 168.72 237.857 168.889C237.461 169.059 237.154 169.288 236.935 169.578C236.716 169.861 236.606 170.214 236.606 170.638C236.606 171.253 236.829 171.723 237.274 172.048C237.726 172.366 238.298 172.525 238.991 172.525ZM254.46 170.649L254.471 165.232H255.128L260.343 159.053H265.526L258.52 167.236H257.449L254.46 170.649ZM250.369 175.333V153.626H254.884V175.333H250.369ZM260.544 175.333L255.754 168.243L258.764 165.052L265.833 175.333H260.544ZM267.741 175.333V159.053H272.119V161.894H272.288C272.585 160.883 273.083 160.12 273.783 159.604C274.482 159.081 275.288 158.82 276.2 158.82C276.426 158.82 276.669 158.834 276.931 158.862C277.192 158.891 277.422 158.929 277.62 158.979V162.985C277.408 162.922 277.115 162.865 276.74 162.816C276.366 162.766 276.023 162.742 275.712 162.742C275.048 162.742 274.454 162.886 273.931 163.176C273.415 163.459 273.006 163.854 272.702 164.363C272.405 164.872 272.257 165.459 272.257 166.123V175.333H267.741ZM284.13 175.641C283.092 175.641 282.166 175.461 281.353 175.1C280.541 174.733 279.898 174.192 279.424 173.479C278.958 172.758 278.725 171.86 278.725 170.786C278.725 169.882 278.891 169.122 279.223 168.508C279.555 167.893 280.007 167.398 280.58 167.024C281.152 166.649 281.802 166.367 282.53 166.176C283.265 165.985 284.035 165.851 284.841 165.773C285.787 165.674 286.551 165.582 287.13 165.497C287.709 165.406 288.13 165.271 288.391 165.095C288.653 164.918 288.784 164.657 288.784 164.31V164.247C288.784 163.575 288.572 163.056 288.148 162.689C287.731 162.321 287.137 162.137 286.367 162.137C285.554 162.137 284.908 162.318 284.427 162.678C283.947 163.031 283.629 163.476 283.473 164.013L279.297 163.674C279.509 162.685 279.926 161.83 280.548 161.109C281.17 160.381 281.972 159.823 282.954 159.435C283.943 159.039 285.088 158.841 286.388 158.841C287.293 158.841 288.158 158.947 288.985 159.159C289.819 159.371 290.557 159.7 291.2 160.145C291.85 160.59 292.363 161.162 292.737 161.862C293.112 162.554 293.299 163.385 293.299 164.353V175.333H289.017V173.076H288.89C288.628 173.585 288.278 174.033 287.84 174.422C287.402 174.804 286.876 175.104 286.261 175.323C285.646 175.535 284.936 175.641 284.13 175.641ZM285.424 172.525C286.088 172.525 286.674 172.394 287.183 172.133C287.692 171.864 288.091 171.504 288.381 171.051C288.67 170.599 288.815 170.087 288.815 169.514V167.787C288.674 167.879 288.48 167.963 288.232 168.041C287.992 168.112 287.72 168.179 287.416 168.243C287.112 168.299 286.809 168.352 286.505 168.402C286.201 168.444 285.925 168.483 285.678 168.518C285.148 168.596 284.685 168.72 284.289 168.889C283.894 169.059 283.586 169.288 283.367 169.578C283.148 169.861 283.039 170.214 283.039 170.638C283.039 171.253 283.261 171.723 283.706 172.048C284.159 172.366 284.731 172.525 285.424 172.525Z" fill="white"/>
<path d="M25.4892 101.966V129.1H19.7524V101.966H25.4892ZM35.7473 117.335V129.1H30.1032V108.75H35.4824V112.34H35.7208C36.1713 111.156 36.9265 110.22 37.9864 109.531C39.0464 108.833 40.3315 108.485 41.8419 108.485C43.2551 108.485 44.4873 108.794 45.5384 109.412C46.5895 110.03 47.4065 110.914 47.9895 112.062C48.5724 113.201 48.8639 114.561 48.8639 116.142V129.1H43.2198V117.149C43.2287 115.904 42.9107 114.932 42.2659 114.235C41.6211 113.528 40.7334 113.175 39.6028 113.175C38.8432 113.175 38.1719 113.338 37.589 113.665C37.0148 113.992 36.5644 114.469 36.2376 115.096C35.9196 115.714 35.7562 116.46 35.7473 117.335ZM67.5915 101.966V129.1H61.9474V101.966H67.5915ZM81.3076 129.498C79.2496 129.498 77.4698 129.06 75.9682 128.186C74.4755 127.303 73.3228 126.075 72.5102 124.503C71.6976 122.922 71.2913 121.089 71.2913 119.004C71.2913 116.902 71.6976 115.065 72.5102 113.493C73.3228 111.912 74.4755 110.684 75.9682 109.809C77.4698 108.926 79.2496 108.485 81.3076 108.485C83.3656 108.485 85.141 108.926 86.6338 109.809C88.1353 110.684 89.2924 111.912 90.105 113.493C90.9176 115.065 91.3239 116.902 91.3239 119.004C91.3239 121.089 90.9176 122.922 90.105 124.503C89.2924 126.075 88.1353 127.303 86.6338 128.186C85.141 129.06 83.3656 129.498 81.3076 129.498ZM81.3341 125.125C82.2704 125.125 83.0521 124.86 83.6792 124.33C84.3063 123.792 84.7789 123.059 85.0969 122.131C85.4237 121.204 85.5871 120.148 85.5871 118.965C85.5871 117.781 85.4237 116.725 85.0969 115.798C84.7789 114.871 84.3063 114.137 83.6792 113.599C83.0521 113.06 82.2704 112.79 81.3341 112.79C80.389 112.79 79.5941 113.06 78.9493 113.599C78.3133 114.137 77.8319 114.871 77.5051 115.798C77.1872 116.725 77.0282 117.781 77.0282 118.965C77.0282 120.148 77.1872 121.204 77.5051 122.131C77.8319 123.059 78.3133 123.792 78.9493 124.33C79.5941 124.86 80.389 125.125 81.3341 125.125ZM113.311 108.75L106.196 129.1H99.8365L92.7217 108.75H98.6838L102.91 123.31H103.122L107.335 108.75H113.311ZM124.818 129.498C122.724 129.498 120.922 129.074 119.412 128.226C117.91 127.369 116.753 126.159 115.941 124.595C115.128 123.023 114.722 121.164 114.722 119.018C114.722 116.924 115.128 115.087 115.941 113.506C116.753 111.925 117.897 110.693 119.372 109.809C120.856 108.926 122.596 108.485 124.592 108.485C125.935 108.485 127.185 108.701 128.342 109.134C129.508 109.558 130.524 110.198 131.389 111.055C132.264 111.912 132.944 112.989 133.43 114.288C133.915 115.577 134.158 117.088 134.158 118.819V120.369H116.974V116.871H128.845C128.845 116.059 128.669 115.339 128.315 114.712C127.962 114.084 127.472 113.594 126.845 113.241C126.226 112.879 125.507 112.698 124.685 112.698C123.828 112.698 123.069 112.896 122.406 113.294C121.753 113.683 121.24 114.208 120.869 114.871C120.498 115.524 120.309 116.253 120.3 117.057V120.382C120.3 121.389 120.485 122.259 120.856 122.992C121.236 123.725 121.77 124.291 122.459 124.688C123.148 125.086 123.965 125.284 124.91 125.284C125.537 125.284 126.112 125.196 126.633 125.019C127.154 124.843 127.6 124.578 127.971 124.224C128.342 123.871 128.625 123.438 128.819 122.926L134.039 123.271C133.774 124.525 133.231 125.62 132.409 126.556C131.597 127.484 130.546 128.208 129.256 128.729C127.975 129.241 126.496 129.498 124.818 129.498ZM150.491 129.1L144.953 108.75H150.663L153.817 122.423H154.002L157.288 108.75H162.892L166.231 122.343H166.403L169.503 108.75H175.201L169.676 129.1H163.7L160.203 116.301H159.951L156.453 129.1H150.491ZM178.211 129.1V108.75H183.856V129.1H178.211ZM181.047 106.126C180.208 106.126 179.488 105.848 178.887 105.291C178.295 104.726 177.999 104.05 177.999 103.264C177.999 102.487 178.295 101.82 178.887 101.264C179.488 100.698 180.208 100.416 181.047 100.416C181.886 100.416 182.601 100.698 183.193 101.264C183.794 101.82 184.094 102.487 184.094 103.264C184.094 104.05 183.794 104.726 183.193 105.291C182.601 105.848 181.886 106.126 181.047 106.126ZM199.201 108.75V112.989H186.946V108.75H199.201ZM189.728 103.874H195.372V122.847C195.372 123.368 195.452 123.774 195.611 124.065C195.77 124.348 195.991 124.547 196.273 124.662C196.565 124.776 196.9 124.834 197.28 124.834C197.545 124.834 197.81 124.812 198.075 124.768C198.34 124.715 198.543 124.675 198.685 124.648L199.572 128.848C199.29 128.937 198.892 129.038 198.38 129.153C197.868 129.277 197.245 129.352 196.512 129.378C195.151 129.431 193.959 129.25 192.934 128.835C191.919 128.42 191.128 127.775 190.563 126.901C189.998 126.026 189.719 124.922 189.728 123.588V103.874ZM208.959 117.335V129.1H203.315V101.966H208.8V112.34H209.039C209.498 111.139 210.24 110.198 211.265 109.518C212.289 108.829 213.574 108.485 215.12 108.485C216.533 108.485 217.765 108.794 218.817 109.412C219.876 110.021 220.698 110.9 221.281 112.049C221.873 113.188 222.164 114.553 222.155 116.142V129.1H216.511V117.149C216.52 115.895 216.202 114.919 215.557 114.221C214.921 113.524 214.029 113.175 212.881 113.175C212.113 113.175 211.432 113.338 210.841 113.665C210.258 113.992 209.798 114.469 209.463 115.096C209.136 115.714 208.968 116.46 208.959 117.335ZM259.279 111.466H253.476C253.37 110.715 253.154 110.048 252.827 109.465C252.5 108.873 252.081 108.37 251.568 107.955C251.056 107.539 250.464 107.221 249.793 107.001C249.13 106.78 248.411 106.669 247.633 106.669C246.229 106.669 245.006 107.018 243.963 107.716C242.921 108.405 242.113 109.412 241.539 110.737C240.965 112.053 240.678 113.652 240.678 115.533C240.678 117.467 240.965 119.093 241.539 120.409C242.122 121.725 242.934 122.718 243.977 123.39C245.019 124.061 246.224 124.397 247.594 124.397C248.362 124.397 249.073 124.295 249.727 124.092C250.389 123.889 250.976 123.593 251.489 123.204C252.001 122.807 252.425 122.325 252.761 121.76C253.105 121.195 253.344 120.55 253.476 119.826L259.279 119.852C259.129 121.098 258.754 122.299 258.153 123.456C257.561 124.604 256.762 125.633 255.755 126.543C254.757 127.444 253.564 128.159 252.178 128.689C250.8 129.211 249.241 129.471 247.501 129.471C245.081 129.471 242.917 128.923 241.009 127.828C239.11 126.733 237.608 125.147 236.504 123.072C235.409 120.996 234.861 118.483 234.861 115.533C234.861 112.574 235.418 110.057 236.531 107.981C237.643 105.905 239.154 104.324 241.062 103.238C242.97 102.143 245.116 101.595 247.501 101.595C249.073 101.595 250.53 101.816 251.873 102.257C253.224 102.699 254.421 103.344 255.464 104.192C256.506 105.031 257.354 106.06 258.007 107.279C258.67 108.498 259.094 109.893 259.279 111.466ZM268.931 117.335V129.1H263.287V101.966H268.772V112.34H269.011C269.47 111.139 270.212 110.198 271.237 109.518C272.261 108.829 273.546 108.485 275.092 108.485C276.505 108.485 277.737 108.794 278.789 109.412C279.848 110.021 280.67 110.9 281.253 112.049C281.845 113.188 282.136 114.553 282.127 116.142V129.1H276.483V117.149C276.492 115.895 276.174 114.919 275.529 114.221C274.893 113.524 274.001 113.175 272.853 113.175C272.084 113.175 271.404 113.338 270.813 113.665C270.23 113.992 269.77 114.469 269.435 115.096C269.108 115.714 268.94 116.46 268.931 117.335ZM292.372 129.484C291.074 129.484 289.917 129.259 288.901 128.809C287.885 128.349 287.081 127.674 286.49 126.782C285.907 125.881 285.615 124.759 285.615 123.416C285.615 122.286 285.823 121.336 286.238 120.568C286.653 119.799 287.218 119.181 287.934 118.713C288.649 118.245 289.462 117.891 290.372 117.653C291.29 117.414 292.253 117.247 293.26 117.149C294.443 117.026 295.397 116.911 296.122 116.805C296.846 116.69 297.371 116.522 297.698 116.301C298.025 116.081 298.188 115.754 298.188 115.321V115.242C298.188 114.402 297.923 113.753 297.394 113.294C296.872 112.835 296.13 112.605 295.168 112.605C294.152 112.605 293.344 112.83 292.743 113.281C292.142 113.722 291.745 114.279 291.551 114.95L286.331 114.526C286.596 113.29 287.117 112.221 287.894 111.32C288.671 110.41 289.674 109.712 290.901 109.226C292.138 108.732 293.569 108.485 295.194 108.485C296.325 108.485 297.407 108.617 298.44 108.882C299.482 109.147 300.405 109.558 301.209 110.114C302.022 110.671 302.662 111.386 303.13 112.261C303.599 113.126 303.833 114.164 303.833 115.374V129.1H298.48V126.278H298.321C297.994 126.914 297.557 127.475 297.009 127.961C296.462 128.438 295.804 128.813 295.035 129.087C294.267 129.352 293.379 129.484 292.372 129.484ZM293.989 125.589C294.819 125.589 295.552 125.426 296.188 125.099C296.824 124.763 297.323 124.313 297.685 123.747C298.047 123.182 298.228 122.542 298.228 121.826V119.667C298.052 119.782 297.809 119.888 297.5 119.985C297.199 120.073 296.859 120.157 296.479 120.236C296.1 120.307 295.72 120.373 295.34 120.435C294.96 120.488 294.616 120.537 294.306 120.581C293.644 120.678 293.065 120.833 292.571 121.045C292.076 121.257 291.692 121.544 291.418 121.906C291.144 122.259 291.007 122.701 291.007 123.231C291.007 123.999 291.286 124.587 291.842 124.993C292.407 125.39 293.123 125.589 293.989 125.589ZM313.326 123.244L313.339 116.474H314.16L320.679 108.75H327.158L318.4 118.978H317.062L313.326 123.244ZM308.211 129.1V101.966H313.856V129.1H308.211ZM320.931 129.1L314.942 120.236L318.705 116.248L327.542 129.1H320.931ZM329.927 129.1V108.75H335.399V112.3H335.611C335.981 111.037 336.604 110.083 337.479 109.438C338.353 108.785 339.36 108.458 340.499 108.458C340.782 108.458 341.087 108.476 341.414 108.511C341.74 108.546 342.027 108.595 342.275 108.657V113.665C342.01 113.585 341.643 113.515 341.175 113.453C340.707 113.391 340.279 113.36 339.89 113.36C339.06 113.36 338.318 113.541 337.664 113.903C337.019 114.257 336.507 114.751 336.127 115.387C335.756 116.023 335.571 116.756 335.571 117.587V129.1H329.927ZM350.413 129.484C349.115 129.484 347.958 129.259 346.942 128.809C345.926 128.349 345.122 127.674 344.53 126.782C343.947 125.881 343.656 124.759 343.656 123.416C343.656 122.286 343.864 121.336 344.279 120.568C344.694 119.799 345.259 119.181 345.975 118.713C346.69 118.245 347.503 117.891 348.412 117.653C349.331 117.414 350.294 117.247 351.301 117.149C352.484 117.026 353.438 116.911 354.163 116.805C354.887 116.69 355.412 116.522 355.739 116.301C356.066 116.081 356.229 115.754 356.229 115.321V115.242C356.229 114.402 355.964 113.753 355.434 113.294C354.913 112.835 354.171 112.605 353.209 112.605C352.193 112.605 351.385 112.83 350.784 113.281C350.183 113.722 349.786 114.279 349.592 114.95L344.371 114.526C344.636 113.29 345.158 112.221 345.935 111.32C346.712 110.41 347.715 109.712 348.942 109.226C350.179 108.732 351.61 108.485 353.235 108.485C354.366 108.485 355.448 108.617 356.481 108.882C357.523 109.147 358.446 109.558 359.25 110.114C360.063 110.671 360.703 111.386 361.171 112.261C361.639 113.126 361.874 114.164 361.874 115.374V129.1H356.521V126.278H356.362C356.035 126.914 355.598 127.475 355.05 127.961C354.503 128.438 353.845 128.813 353.076 129.087C352.308 129.352 351.42 129.484 350.413 129.484ZM352.029 125.589C352.86 125.589 353.593 125.426 354.229 125.099C354.865 124.763 355.364 124.313 355.726 123.747C356.088 123.182 356.269 122.542 356.269 121.826V119.667C356.092 119.782 355.85 119.888 355.54 119.985C355.24 120.073 354.9 120.157 354.52 120.236C354.14 120.307 353.761 120.373 353.381 120.435C353.001 120.488 352.657 120.537 352.347 120.581C351.685 120.678 351.106 120.833 350.612 121.045C350.117 121.257 349.733 121.544 349.459 121.906C349.185 122.259 349.048 122.701 349.048 123.231C349.048 123.999 349.327 124.587 349.883 124.993C350.448 125.39 351.164 125.589 352.029 125.589Z" fill="white"/>
<path d="M26.7871 43.8441V76.405H19.9029V43.8441H26.7871ZM39.0968 62.2868V76.405H32.3239V51.9843H38.7788V56.2929H39.065C39.6056 54.8726 40.5118 53.7491 41.7837 52.9224C43.0557 52.085 44.5978 51.6663 46.4103 51.6663C48.1062 51.6663 49.5848 52.0373 50.8461 52.7793C52.1074 53.5212 53.0879 54.5811 53.7874 55.959C54.487 57.3263 54.8367 58.9586 54.8367 60.8559V76.405H48.0638V62.0642C48.0744 60.5697 47.6928 59.4038 46.9191 58.5665C46.1453 57.7185 45.0801 57.2946 43.7234 57.2946C42.8119 57.2946 42.0063 57.4906 41.3068 57.8828C40.6178 58.275 40.0773 58.8473 39.6851 59.5999C39.3035 60.3418 39.1074 61.2375 39.0968 62.2868ZM77.3098 43.8441V76.405H70.5369V43.8441H77.3098ZM93.7692 76.882C91.2995 76.882 89.1638 76.3573 87.3619 75.308C85.5706 74.2481 84.1874 72.7748 83.2123 70.8881C82.2372 68.9908 81.7496 66.7915 81.7496 64.2901C81.7496 61.7674 82.2372 59.5628 83.2123 57.6761C84.1874 55.7789 85.5706 54.3056 87.3619 53.2562C89.1638 52.1963 91.2995 51.6663 93.7692 51.6663C96.2388 51.6663 98.3692 52.1963 100.161 53.2562C101.962 54.3056 103.351 55.7789 104.326 57.6761C105.301 59.5628 105.789 61.7674 105.789 64.2901C105.789 66.7915 105.301 68.9908 104.326 70.8881C103.351 72.7748 101.962 74.2481 100.161 75.308C98.3692 76.3573 96.2388 76.882 93.7692 76.882ZM93.801 71.6354C94.9245 71.6354 95.8625 71.3174 96.6151 70.6814C97.3676 70.0349 97.9347 69.1551 98.3163 68.0422C98.7084 66.9293 98.9045 65.6627 98.9045 64.2424C98.9045 62.8221 98.7084 61.5555 98.3163 60.4425C97.9347 59.3296 97.3676 58.4499 96.6151 57.8033C95.8625 57.1568 94.9245 56.8335 93.801 56.8335C92.6668 56.8335 91.7129 57.1568 90.9392 57.8033C90.176 58.4499 89.5984 59.3296 89.2062 60.4425C88.8246 61.5555 88.6338 62.8221 88.6338 64.2424C88.6338 65.6627 88.8246 66.9293 89.2062 68.0422C89.5984 69.1551 90.176 70.0349 90.9392 70.6814C91.7129 71.3174 92.6668 71.6354 93.801 71.6354ZM132.173 51.9843L123.635 76.405H116.004L107.466 51.9843H114.621L119.692 69.4572H119.947L125.003 51.9843H132.173ZM145.981 76.882C143.469 76.882 141.307 76.3732 139.494 75.3557C137.693 74.3276 136.304 72.8755 135.329 70.9994C134.354 69.1127 133.866 66.8816 133.866 64.306C133.866 61.7939 134.354 59.5893 135.329 57.692C136.304 55.7948 137.677 54.3162 139.447 53.2562C141.227 52.1963 143.315 51.6663 145.711 51.6663C147.322 51.6663 148.822 51.926 150.21 52.4454C151.609 52.9542 152.828 53.7226 153.867 54.7507C154.916 55.7789 155.732 57.072 156.315 58.6301C156.898 60.1776 157.19 61.99 157.19 64.0675V65.9277H136.569V61.7303H150.814C150.814 60.7552 150.602 59.8914 150.178 59.1388C149.754 58.3863 149.166 57.798 148.414 57.374C147.672 56.9395 146.808 56.7222 145.822 56.7222C144.794 56.7222 143.882 56.9607 143.088 57.4376C142.303 57.904 141.688 58.5347 141.243 59.3296C140.798 60.114 140.57 60.9884 140.56 61.9529V65.9436C140.56 67.1519 140.782 68.1959 141.227 69.0756C141.683 69.9554 142.324 70.6337 143.151 71.1107C143.978 71.5877 144.958 71.8261 146.092 71.8261C146.845 71.8261 147.534 71.7202 148.159 71.5082C148.785 71.2962 149.32 70.9782 149.765 70.5542C150.21 70.1303 150.549 69.6109 150.783 68.9961L157.047 69.4095C156.729 70.9146 156.077 72.2289 155.091 73.3524C154.116 74.4654 152.855 75.3345 151.307 75.9599C149.77 76.5746 147.995 76.882 145.981 76.882ZM176.789 76.405L170.144 51.9843H176.996L180.78 68.392H181.002L184.945 51.9843H191.671L195.677 68.2966H195.884L199.604 51.9843H206.441L199.811 76.405H192.64L188.443 61.0467H188.141L183.944 76.405H176.789ZM210.054 76.405V51.9843H216.827V76.405H210.054ZM213.456 48.8363C212.449 48.8363 211.585 48.5025 210.865 47.8347C210.154 47.1564 209.799 46.3455 209.799 45.4022C209.799 44.4694 210.154 43.6692 210.865 43.0014C211.585 42.3231 212.449 41.9839 213.456 41.9839C214.463 41.9839 215.322 42.3231 216.032 43.0014C216.752 43.6692 217.113 44.4694 217.113 45.4022C217.113 46.3455 216.752 47.1564 216.032 47.8347C215.322 48.5025 214.463 48.8363 213.456 48.8363ZM235.242 51.9843V57.072H220.535V51.9843H235.242ZM223.874 46.1335H230.647V68.9007C230.647 69.5261 230.742 70.0137 230.933 70.3634C231.124 70.7026 231.389 70.9411 231.728 71.0789C232.078 71.2167 232.48 71.2856 232.936 71.2856C233.254 71.2856 233.572 71.2591 233.89 71.2061C234.208 71.1425 234.452 71.0948 234.622 71.063L235.687 76.103C235.348 76.2089 234.871 76.3308 234.256 76.4686C233.641 76.617 232.894 76.7071 232.014 76.7389C230.382 76.8025 228.951 76.5852 227.721 76.0871C226.502 75.5889 225.554 74.8151 224.875 73.7658C224.197 72.7165 223.863 71.3916 223.874 69.7911V46.1335ZM246.951 62.2868V76.405H240.178V43.8441H246.76V56.2929H247.046C247.598 54.8514 248.488 53.7226 249.717 52.9065C250.947 52.0797 252.489 51.6663 254.344 51.6663C256.04 51.6663 257.519 52.0373 258.78 52.7793C260.052 53.5106 261.038 54.5652 261.737 55.9431C262.447 57.3105 262.797 58.948 262.786 60.8559V76.405H256.013V62.0642C256.024 60.5591 255.642 59.3879 254.869 58.5506C254.106 57.7132 253.035 57.2946 251.657 57.2946C250.735 57.2946 249.919 57.4906 249.209 57.8828C248.509 58.275 247.958 58.8473 247.555 59.5999C247.163 60.3418 246.962 61.2375 246.951 62.2868ZM307.335 55.2436H300.371C300.244 54.3427 299.985 53.5424 299.592 52.8429C299.2 52.1327 298.697 51.5285 298.082 51.0304C297.467 50.5322 296.757 50.1506 295.951 49.8857C295.157 49.6207 294.293 49.4882 293.36 49.4882C291.675 49.4882 290.207 49.9069 288.956 50.7442C287.705 51.5709 286.735 52.7793 286.046 54.3692C285.358 55.9484 285.013 57.8669 285.013 60.1246C285.013 62.4458 285.358 64.3961 286.046 65.9754C286.746 67.5546 287.721 68.7471 288.972 69.5526C290.223 70.3581 291.669 70.7609 293.312 70.7609C294.234 70.7609 295.088 70.639 295.872 70.3952C296.667 70.1515 297.372 69.7964 297.987 69.33C298.601 68.8531 299.11 68.2754 299.513 67.597C299.926 66.9187 300.212 66.1449 300.371 65.2758L307.335 65.3076C307.155 66.8021 306.704 68.2436 305.984 69.6321C305.274 71.01 304.314 72.2448 303.106 73.3365C301.908 74.4177 300.477 75.2762 298.813 75.9122C297.16 76.5375 295.289 76.8502 293.201 76.8502C290.297 76.8502 287.7 76.193 285.411 74.8787C283.132 73.5644 281.33 71.6619 280.005 69.171C278.691 66.6802 278.033 63.6647 278.033 60.1246C278.033 56.5738 278.701 53.553 280.037 51.0622C281.372 48.5714 283.185 46.6741 285.474 45.3704C287.764 44.0561 290.339 43.3989 293.201 43.3989C295.088 43.3989 296.837 43.6639 298.448 44.1939C300.069 44.7238 301.506 45.4976 302.756 46.5151C304.007 47.522 305.024 48.7568 305.809 50.2195C306.604 51.6822 307.113 53.3569 307.335 55.2436ZM318.917 62.2868V76.405H312.145V43.8441H318.727V56.2929H319.013C319.564 54.8514 320.454 53.7226 321.684 52.9065C322.913 52.0797 324.456 51.6663 326.31 51.6663C328.006 51.6663 329.485 52.0373 330.746 52.7793C332.018 53.5106 333.004 54.5652 333.703 55.9431C334.414 57.3105 334.763 58.948 334.753 60.8559V76.405H327.98V62.0642C327.99 60.5591 327.609 59.3879 326.835 58.5506C326.072 57.7132 325.001 57.2946 323.624 57.2946C322.701 57.2946 321.885 57.4906 321.175 57.8828C320.476 58.275 319.924 58.8473 319.522 59.5999C319.129 60.3418 318.928 61.2375 318.917 62.2868ZM347.047 76.8661C345.489 76.8661 344.1 76.5958 342.881 76.0553C341.662 75.5041 340.698 74.6932 339.987 73.6227C339.288 72.5416 338.938 71.1955 338.938 69.5844C338.938 68.2277 339.187 67.0883 339.685 66.1661C340.184 65.244 340.862 64.5021 341.72 63.9403C342.579 63.3785 343.554 62.9546 344.646 62.6684C345.748 62.3822 346.904 62.1808 348.112 62.0642C349.532 61.9158 350.677 61.778 351.546 61.6508C352.415 61.5131 353.046 61.3117 353.438 61.0467C353.83 60.7817 354.026 60.3895 354.026 59.8702V59.7748C354.026 58.7678 353.708 57.9888 353.072 57.4376C352.447 56.8865 351.557 56.6109 350.401 56.6109C349.182 56.6109 348.213 56.8812 347.492 57.4217C346.771 57.9517 346.294 58.6195 346.061 59.425L339.797 58.9162C340.115 57.4323 340.74 56.1498 341.673 55.0687C342.606 53.977 343.809 53.1396 345.282 52.5567C346.766 51.9631 348.483 51.6663 350.433 51.6663C351.79 51.6663 353.088 51.8253 354.328 52.1433C355.579 52.4613 356.687 52.9542 357.651 53.6219C358.626 54.2897 359.395 55.1482 359.957 56.1975C360.518 57.2363 360.799 58.4817 360.799 59.9338V76.405H354.376V73.0186H354.185C353.793 73.7817 353.268 74.4548 352.611 75.0377C351.954 75.6101 351.164 76.0606 350.242 76.3891C349.32 76.7071 348.255 76.8661 347.047 76.8661ZM348.986 72.1918C349.983 72.1918 350.862 71.9957 351.625 71.6036C352.389 71.2008 352.987 70.6602 353.422 69.9819C353.857 69.3035 354.074 68.5351 354.074 67.6765V65.085C353.862 65.2228 353.57 65.35 353.199 65.4666C352.839 65.5726 352.431 65.6733 351.975 65.7687C351.519 65.8535 351.064 65.933 350.608 66.0071C350.152 66.0707 349.739 66.129 349.368 66.182C348.573 66.2986 347.879 66.4841 347.285 66.7385C346.692 66.9929 346.23 67.3374 345.902 67.7719C345.573 68.1959 345.409 68.7259 345.409 69.3618C345.409 70.284 345.743 70.9888 346.411 71.4764C347.089 71.9533 347.948 72.1918 348.986 72.1918ZM372.191 69.3777L372.207 61.2534H373.192L381.015 51.9843H388.789L378.28 64.2583H376.674L372.191 69.3777ZM366.054 76.405V43.8441H372.827V76.405H366.054ZM381.317 76.405L374.13 65.7687L378.646 60.9831L389.25 76.405H381.317ZM392.112 76.405V51.9843H398.678V56.2452H398.933C399.378 54.7295 400.125 53.5848 401.174 52.8111C402.224 52.0267 403.432 51.6345 404.799 51.6345C405.139 51.6345 405.504 51.6557 405.896 51.6981C406.289 51.7405 406.633 51.7988 406.93 51.873V57.8828C406.612 57.7874 406.172 57.7026 405.61 57.6284C405.048 57.5542 404.534 57.5171 404.068 57.5171C403.072 57.5171 402.181 57.7344 401.397 58.169C400.623 58.593 400.008 59.1865 399.553 59.9497C399.108 60.7128 398.885 61.5926 398.885 62.5889V76.405H392.112ZM416.696 76.8661C415.138 76.8661 413.749 76.5958 412.53 76.0553C411.311 75.5041 410.347 74.6932 409.637 73.6227C408.937 72.5416 408.587 71.1955 408.587 69.5844C408.587 68.2277 408.836 67.0883 409.335 66.1661C409.833 65.244 410.511 64.5021 411.37 63.9403C412.228 63.3785 413.203 62.9546 414.295 62.6684C415.397 62.3822 416.553 62.1808 417.761 62.0642C419.181 61.9158 420.326 61.778 421.195 61.6508C422.064 61.5131 422.695 61.3117 423.087 61.0467C423.479 60.7817 423.675 60.3895 423.675 59.8702V59.7748C423.675 58.7678 423.357 57.9888 422.721 57.4376C422.096 56.8865 421.206 56.6109 420.05 56.6109C418.831 56.6109 417.862 56.8812 417.141 57.4217C416.42 57.9517 415.943 58.6195 415.71 59.425L409.446 58.9162C409.764 57.4323 410.389 56.1498 411.322 55.0687C412.255 53.977 413.458 53.1396 414.931 52.5567C416.415 51.9631 418.132 51.6663 420.082 51.6663C421.439 51.6663 422.737 51.8253 423.977 52.1433C425.228 52.4613 426.336 52.9542 427.3 53.6219C428.275 54.2897 429.044 55.1482 429.606 56.1975C430.167 57.2363 430.448 58.4817 430.448 59.9338V76.405H424.025V73.0186H423.834C423.442 73.7817 422.917 74.4548 422.26 75.0377C421.603 75.6101 420.814 76.0606 419.891 76.3891C418.969 76.7071 417.904 76.8661 416.696 76.8661ZM418.635 72.1918C419.632 72.1918 420.511 71.9957 421.275 71.6036C422.038 71.2008 422.637 70.6602 423.071 69.9819C423.506 69.3035 423.723 68.5351 423.723 67.6765V65.085C423.511 65.2228 423.22 65.35 422.849 65.4666C422.488 65.5726 422.08 65.6733 421.624 65.7687C421.169 65.8535 420.713 65.933 420.257 66.0071C419.801 66.0707 419.388 66.129 419.017 66.182C418.222 66.2986 417.528 66.4841 416.934 66.7385C416.341 66.9929 415.88 67.3374 415.551 67.7719C415.222 68.1959 415.058 68.7259 415.058 69.3618C415.058 70.284 415.392 70.9888 416.06 71.4764C416.738 71.9533 417.597 72.1918 418.635 72.1918Z" fill="white"/>
</g>
<g opacity="0.5">
<path d="M35.4932 352.391L10.6481 352.391C4.76743 352.391 0.000201762 347.624 0.000201248 341.743L0.000196904 292.053C0.00019639 286.172 4.76742 281.405 10.6481 281.405L35.4932 281.405L35.4932 352.391Z" fill="#18181B"/>
<rect x="70.9861" y="352.391" width="35.493" height="70.9859" transform="rotate(180 70.9861 352.391)" fill="#27272A"/>
<rect x="106.479" y="352.391" width="35.493" height="70.9859" transform="rotate(180 106.479 352.391)" fill="#3F3F46"/>
<rect x="141.972" y="352.391" width="35.493" height="70.9859" transform="rotate(180 141.972 352.391)" fill="#52525B"/>
<rect x="177.465" y="352.391" width="35.493" height="70.9859" transform="rotate(180 177.465 352.391)" fill="#71717A"/>
<rect x="212.958" y="352.391" width="35.493" height="70.9859" transform="rotate(180 212.958 352.391)" fill="#A1A1AA"/>
<rect x="248.451" y="352.391" width="35.493" height="70.9859" transform="rotate(180 248.451 352.391)" fill="#D4D4D8"/>
<rect x="283.944" y="352.391" width="35.493" height="70.9859" transform="rotate(180 283.944 352.391)" fill="#E4E4E7"/>
<rect x="319.437" y="352.391" width="35.493" height="70.9859" transform="rotate(180 319.437 352.391)" fill="#F4F4F5"/>
<path d="M354.93 341.743C354.93 347.624 350.162 352.391 344.282 352.391L319.437 352.391L319.437 281.405L344.282 281.405C350.162 281.405 354.93 286.172 354.93 292.053L354.93 341.743Z" fill="#FAFAFA"/>
</g>
<g filter="url(#filter0_b_385_1939)">
<path d="M272.155 11.2883C272.155 5.11624 277.158 0.112793 283.33 0.112793H513.824C519.997 0.112793 525 5.11622 525 11.2883V388.461H272.155V11.2883Z" fill="#212020" fill-opacity="0.5"/>
<path d="M524.268 17.1817H525V28.9683H524.268V40.755H525V52.5416H524.268V64.3282H525V76.1148H524.268V87.9014H525V99.688H524.268V111.475H525V123.261H524.268V135.048H525V146.835H524.268V158.621H525V170.408H524.268V182.194H525V193.981H524.268V205.768H525V217.554H524.268V229.341H525V241.128H524.268V252.914H525V264.701H524.268V276.488H525V288.274H524.268V300.061H525V311.848H524.268V323.634H525V335.421H524.268V347.207H525V358.994H524.268V370.781H525V382.567H524.268V387.729H519.254V388.461H507.761V387.729H496.268V388.461H484.775V387.729H473.282V388.461H461.789V387.729H450.296V388.461H438.803V387.729H427.31V388.461H415.817V387.729H404.324V388.461H392.831V387.729H381.338V388.461H369.845V387.729H358.352V388.461H346.859V387.729H335.366V388.461H323.873V387.729H312.38V388.461H300.887V387.729H289.394V388.461H277.901V387.729H272.887V382.567H272.155V370.781H272.887V358.994H272.155V347.207H272.887V335.421H272.155V323.634H272.887V311.847H272.155V300.061H272.887V288.274H272.155V276.488H272.887V264.701H272.155V252.914H272.887V241.128H272.155V229.341H272.887V217.554H272.155V205.768H272.887V193.981H272.155V182.195H272.887V170.408H272.155V158.621H272.887V146.835H272.155V135.048H272.887V123.261H272.155V111.475H272.887V99.688H272.155V87.9014H272.887V76.1148H272.155V64.3281H272.887V52.5415H272.155V40.7549H272.887V28.9682H272.155V17.1816H272.887V11.2883C272.887 9.87086 273.169 8.52115 273.679 7.29078L273.003 7.01044C274.136 4.2787 276.321 2.0936 279.052 0.960796L279.333 1.63681C280.563 1.1266 281.913 0.844631 283.33 0.844631H289.093V0.112793H300.617V0.844631H312.142V0.112793H323.667V0.844631H335.191V0.112793H346.716V0.844631H358.241V0.112793H369.766V0.844631H381.29V0.112793H392.815V0.844631H404.34V0.112793H415.864V0.844631H427.389V0.112793H438.914V0.844631H450.439V0.112793H461.963V0.844631H473.488V0.112793H485.013V0.844631H496.537V0.112793H508.062V0.844631H513.824C515.242 0.844631 516.592 1.1266 517.822 1.63681L518.102 0.960793C520.834 2.0936 523.019 4.27869 524.152 7.01043L523.476 7.29076C523.986 8.52114 524.268 9.87085 524.268 11.2883V17.1817Z" stroke="#51546E" stroke-width="1.46368" stroke-dasharray="11.9 11.9"/>
</g>
<rect x="296.549" y="20.9375" width="178.497" height="57.1191" rx="28.5596" fill="white"/>
<rect x="296.549" y="20.9375" width="178.497" height="57.1191" rx="28.5596" stroke="white" stroke-width="1.18998"/>
<path fill-rule="evenodd" clip-rule="evenodd" d="M322.371 56.2448C321.848 55.722 321.848 54.8744 322.371 54.3516L331.688 45.0346H325.102C324.363 45.0346 323.763 44.4353 323.763 43.6959C323.763 42.9565 324.363 42.3572 325.102 42.3572H334.92C335.659 42.3572 336.258 42.9565 336.258 43.6959V53.5133C336.258 54.2526 335.659 54.852 334.92 54.852C334.18 54.852 333.581 54.2526 333.581 53.5133V46.9279L324.264 56.2448C323.741 56.7677 322.893 56.7677 322.371 56.2448Z" fill="black"/>
<path d="M356.819 55.9971V42.15H361.89C362.873 42.15 363.686 42.3123 364.331 42.6368C364.975 42.9569 365.458 43.3918 365.778 43.9417C366.098 44.4872 366.258 45.1024 366.258 45.7876C366.258 46.3645 366.152 46.8513 365.94 47.248C365.728 47.6402 365.444 47.9557 365.088 48.1946C364.737 48.429 364.349 48.6003 363.925 48.7084V48.8437C364.385 48.8662 364.833 49.0149 365.271 49.2899C365.712 49.5604 366.078 49.9457 366.366 50.4461C366.655 50.9464 366.799 51.5549 366.799 52.2716C366.799 52.9793 366.632 53.6149 366.298 54.1783C365.969 54.7372 365.46 55.1812 364.77 55.5103C364.081 55.8348 363.2 55.9971 362.127 55.9971H356.819ZM358.908 54.2053H361.924C362.925 54.2053 363.641 54.0115 364.074 53.6239C364.507 53.2362 364.723 52.7517 364.723 52.1702C364.723 51.733 364.613 51.3318 364.392 50.9667C364.171 50.6016 363.855 50.3109 363.445 50.0945C363.039 49.8781 362.557 49.77 361.998 49.77H358.908V54.2053ZM358.908 48.1405H361.708C362.176 48.1405 362.598 48.0503 362.972 47.87C363.351 47.6897 363.65 47.4373 363.871 47.1128C364.097 46.7837 364.209 46.3961 364.209 45.9498C364.209 45.3774 364.009 44.8973 363.607 44.5097C363.206 44.122 362.591 43.9282 361.762 43.9282H358.908V48.1405ZM375.693 51.6901V45.6118H377.722V55.9971H375.734V54.1986H375.626C375.387 54.753 375.004 55.215 374.476 55.5846C373.953 55.9497 373.302 56.1323 372.522 56.1323C371.855 56.1323 371.265 55.9858 370.751 55.6928C370.241 55.3953 369.84 54.9558 369.547 54.3744C369.259 53.7929 369.114 53.074 369.114 52.2175V45.6118H371.136V51.9741C371.136 52.6818 371.332 53.2452 371.724 53.6644C372.116 54.0836 372.626 54.2932 373.252 54.2932C373.631 54.2932 374.007 54.1986 374.382 54.0093C374.76 53.8199 375.073 53.5337 375.321 53.1506C375.574 52.7674 375.698 52.2806 375.693 51.6901ZM385.286 45.6118V47.2345H379.613V45.6118H385.286ZM381.134 43.1236H383.156V52.9477C383.156 53.3399 383.215 53.6351 383.332 53.8335C383.449 54.0273 383.6 54.1603 383.785 54.2324C383.974 54.3 384.179 54.3338 384.4 54.3338C384.562 54.3338 384.704 54.3225 384.826 54.3C384.948 54.2775 385.042 54.2594 385.11 54.2459L385.475 55.9159C385.358 55.961 385.191 56.0061 384.975 56.0512C384.758 56.1007 384.488 56.1278 384.163 56.1323C383.631 56.1413 383.136 56.0467 382.676 55.8483C382.216 55.65 381.844 55.3435 381.56 54.9288C381.276 54.5141 381.134 53.9935 381.134 53.3669V43.1236ZM392.37 45.6118V47.2345H386.697V45.6118H392.37ZM388.218 43.1236H390.24V52.9477C390.24 53.3399 390.299 53.6351 390.416 53.8335C390.533 54.0273 390.684 54.1603 390.869 54.2324C391.058 54.3 391.263 54.3338 391.484 54.3338C391.646 54.3338 391.788 54.3225 391.91 54.3C392.032 54.2775 392.126 54.2594 392.194 54.2459L392.559 55.9159C392.442 55.961 392.275 56.0061 392.059 56.0512C391.842 56.1007 391.572 56.1278 391.247 56.1323C390.716 56.1413 390.22 56.0467 389.76 55.8483C389.3 55.65 388.928 55.3435 388.644 54.9288C388.36 54.5141 388.218 53.9935 388.218 53.3669V43.1236ZM398.869 56.2067C397.895 56.2067 397.046 55.9835 396.32 55.5373C395.594 55.0911 395.031 54.4668 394.63 53.6644C394.229 52.8621 394.028 51.9245 394.028 50.8518C394.028 49.7745 394.229 48.8324 394.63 48.0255C395.031 47.2187 395.594 46.5922 396.32 46.1459C397.046 45.6997 397.895 45.4766 398.869 45.4766C399.843 45.4766 400.692 45.6997 401.418 46.1459C402.144 46.5922 402.707 47.2187 403.108 48.0255C403.51 48.8324 403.71 49.7745 403.71 50.8518C403.71 51.9245 403.51 52.8621 403.108 53.6644C402.707 54.4668 402.144 55.0911 401.418 55.5373C400.692 55.9835 399.843 56.2067 398.869 56.2067ZM398.876 54.5096C399.507 54.5096 400.03 54.3428 400.444 54.0093C400.859 53.6757 401.166 53.2317 401.364 52.6773C401.567 52.1229 401.668 51.5121 401.668 50.845C401.668 50.1824 401.567 49.5739 401.364 49.0195C401.166 48.4605 400.859 48.012 400.444 47.674C400.03 47.3359 399.507 47.1669 398.876 47.1669C398.24 47.1669 397.713 47.3359 397.294 47.674C396.879 48.012 396.57 48.4605 396.367 49.0195C396.169 49.5739 396.07 50.1824 396.07 50.845C396.07 51.5121 396.169 52.1229 396.367 52.6773C396.57 53.2317 396.879 53.6757 397.294 54.0093C397.713 54.3428 398.24 54.5096 398.876 54.5096ZM407.988 49.8308V55.9971H405.967V45.6118H407.907V47.3021H408.036C408.275 46.7522 408.649 46.3104 409.158 45.9769C409.672 45.6433 410.319 45.4766 411.099 45.4766C411.806 45.4766 412.426 45.6253 412.958 45.9228C413.49 46.2158 413.902 46.653 414.195 47.2345C414.488 47.8159 414.635 48.5349 414.635 49.3913V55.9971H412.613V49.6347C412.613 48.882 412.417 48.2937 412.025 47.87C411.633 47.4418 411.094 47.2277 410.409 47.2277C409.94 47.2277 409.523 47.3291 409.158 47.532C408.797 47.7348 408.511 48.0323 408.299 48.4245C408.092 48.8121 407.988 49.2809 407.988 49.8308Z" fill="black"/>
<path fill-rule="evenodd" clip-rule="evenodd" d="M435.73 56.2448C435.207 55.722 435.207 54.8744 435.73 54.3516L445.047 45.0346H438.461C437.722 45.0346 437.123 44.4353 437.123 43.6959C437.123 42.9565 437.722 42.3572 438.461 42.3572H448.279C449.018 42.3572 449.617 42.9565 449.617 43.6959V53.5133C449.617 54.2526 449.018 54.852 448.279 54.852C447.539 54.852 446.94 54.2526 446.94 53.5133V46.9279L437.623 56.2448C437.1 56.7677 436.253 56.7677 435.73 56.2448Z" fill="white"/>
<rect x="296.549" y="107.806" width="138.038" height="57.1191" rx="28.5596" fill="white"/>
<rect x="296.549" y="107.806" width="138.038" height="57.1191" rx="28.5596" stroke="white" stroke-width="1.18998"/>
<path fill-rule="evenodd" clip-rule="evenodd" d="M322.371 143.114C321.848 142.591 321.848 141.743 322.371 141.22L331.688 131.903H325.102C324.363 131.903 323.763 131.304 323.763 130.565C323.763 129.825 324.363 129.226 325.102 129.226H334.92C335.659 129.226 336.258 129.825 336.258 130.565V140.382C336.258 141.121 335.659 141.721 334.92 141.721C334.18 141.721 333.581 141.121 333.581 140.382V133.797L324.264 143.114C323.741 143.636 322.893 143.636 322.371 143.114Z" fill="black"/>
<path d="M356.819 142.866V129.019H361.89C362.873 129.019 363.686 129.181 364.331 129.505C364.975 129.826 365.458 130.26 365.778 130.81C366.098 131.356 366.258 131.971 366.258 132.656C366.258 133.233 366.152 133.72 365.94 134.117C365.728 134.509 365.444 134.824 365.088 135.063C364.737 135.298 364.349 135.469 363.925 135.577V135.712C364.385 135.735 364.833 135.884 365.271 136.159C365.712 136.429 366.078 136.814 366.366 137.315C366.655 137.815 366.799 138.424 366.799 139.14C366.799 139.848 366.632 140.484 366.298 141.047C365.969 141.606 365.46 142.05 364.77 142.379C364.081 142.703 363.2 142.866 362.127 142.866H356.819ZM358.908 141.074H361.924C362.925 141.074 363.641 140.88 364.074 140.493C364.507 140.105 364.723 139.62 364.723 139.039C364.723 138.602 364.613 138.2 364.392 137.835C364.171 137.47 363.855 137.18 363.445 136.963C363.039 136.747 362.557 136.639 361.998 136.639H358.908V141.074ZM358.908 135.009H361.708C362.176 135.009 362.598 134.919 362.972 134.739C363.351 134.558 363.65 134.306 363.871 133.981C364.097 133.652 364.209 133.265 364.209 132.818C364.209 132.246 364.009 131.766 363.607 131.378C363.206 130.991 362.591 130.797 361.762 130.797H358.908V135.009ZM375.693 138.559V132.48H377.722V142.866H375.734V141.067H375.626C375.387 141.622 375.004 142.084 374.476 142.453C373.953 142.818 373.302 143.001 372.522 143.001C371.855 143.001 371.265 142.854 370.751 142.561C370.241 142.264 369.84 141.824 369.547 141.243C369.259 140.662 369.114 139.943 369.114 139.086V132.48H371.136V138.843C371.136 139.55 371.332 140.114 371.724 140.533C372.116 140.952 372.626 141.162 373.252 141.162C373.631 141.162 374.007 141.067 374.382 140.878C374.76 140.689 375.073 140.402 375.321 140.019C375.574 139.636 375.698 139.149 375.693 138.559ZM385.286 132.48V134.103H379.613V132.48H385.286ZM381.134 129.992H383.156V139.816C383.156 140.209 383.215 140.504 383.332 140.702C383.449 140.896 383.6 141.029 383.785 141.101C383.974 141.169 384.179 141.202 384.4 141.202C384.562 141.202 384.704 141.191 384.826 141.169C384.948 141.146 385.042 141.128 385.11 141.115L385.475 142.785C385.358 142.83 385.191 142.875 384.975 142.92C384.758 142.969 384.488 142.996 384.163 143.001C383.631 143.01 383.136 142.915 382.676 142.717C382.216 142.519 381.844 142.212 381.56 141.797C381.276 141.383 381.134 140.862 381.134 140.236V129.992ZM392.37 132.48V134.103H386.697V132.48H392.37ZM388.218 129.992H390.24V139.816C390.24 140.209 390.299 140.504 390.416 140.702C390.533 140.896 390.684 141.029 390.869 141.101C391.058 141.169 391.263 141.202 391.484 141.202C391.646 141.202 391.788 141.191 391.91 141.169C392.032 141.146 392.126 141.128 392.194 141.115L392.559 142.785C392.442 142.83 392.275 142.875 392.059 142.92C391.842 142.969 391.572 142.996 391.247 143.001C390.716 143.01 390.22 142.915 389.76 142.717C389.3 142.519 388.928 142.212 388.644 141.797C388.36 141.383 388.218 140.862 388.218 140.236V129.992ZM398.869 143.075C397.895 143.075 397.046 142.852 396.32 142.406C395.594 141.96 395.031 141.335 394.63 140.533C394.229 139.731 394.028 138.793 394.028 137.72C394.028 136.643 394.229 135.701 394.63 134.894C395.031 134.087 395.594 133.461 396.32 133.015C397.046 132.568 397.895 132.345 398.869 132.345C399.843 132.345 400.692 132.568 401.418 133.015C402.144 133.461 402.707 134.087 403.108 134.894C403.51 135.701 403.71 136.643 403.71 137.72C403.71 138.793 403.51 139.731 403.108 140.533C402.707 141.335 402.144 141.96 401.418 142.406C400.692 142.852 399.843 143.075 398.869 143.075ZM398.876 141.378C399.507 141.378 400.03 141.211 400.444 140.878C400.859 140.544 401.166 140.1 401.364 139.546C401.567 138.992 401.668 138.381 401.668 137.714C401.668 137.051 401.567 136.443 401.364 135.888C401.166 135.329 400.859 134.881 400.444 134.543C400.03 134.205 399.507 134.036 398.876 134.036C398.24 134.036 397.713 134.205 397.294 134.543C396.879 134.881 396.57 135.329 396.367 135.888C396.169 136.443 396.07 137.051 396.07 137.714C396.07 138.381 396.169 138.992 396.367 139.546C396.57 140.1 396.879 140.544 397.294 140.878C397.713 141.211 398.24 141.378 398.876 141.378ZM407.988 136.699V142.866H405.967V132.48H407.907V134.171H408.036C408.275 133.621 408.649 133.179 409.158 132.846C409.672 132.512 410.319 132.345 411.099 132.345C411.806 132.345 412.426 132.494 412.958 132.791C413.49 133.084 413.902 133.522 414.195 134.103C414.488 134.685 414.635 135.404 414.635 136.26V142.866H412.613V136.503C412.613 135.751 412.417 135.162 412.025 134.739C411.633 134.31 411.094 134.096 410.409 134.096C409.94 134.096 409.523 134.198 409.158 134.401C408.797 134.603 408.511 134.901 408.299 135.293C408.092 135.681 407.988 136.15 407.988 136.699Z" fill="black"/>
<rect x="296.549" y="194.675" width="138.038" height="57.1191" rx="28.5596" stroke="white" stroke-width="1.18998"/>
<path d="M316.36 229.734V215.887H321.431C322.413 215.887 323.227 216.05 323.872 216.374C324.516 216.694 324.999 217.129 325.319 217.679C325.639 218.224 325.799 218.84 325.799 219.525C325.799 220.102 325.693 220.589 325.481 220.985C325.269 221.377 324.985 221.693 324.629 221.932C324.277 222.166 323.89 222.338 323.466 222.446V222.581C323.926 222.604 324.374 222.752 324.811 223.027C325.253 223.298 325.618 223.683 325.907 224.183C326.195 224.684 326.34 225.292 326.34 226.009C326.34 226.717 326.173 227.352 325.839 227.916C325.51 228.475 325.001 228.919 324.311 229.248C323.621 229.572 322.74 229.734 321.667 229.734H316.36ZM318.449 227.943H321.465C322.465 227.943 323.182 227.749 323.615 227.361C324.047 226.974 324.264 226.489 324.264 225.908C324.264 225.47 324.153 225.069 323.933 224.704C323.712 224.339 323.396 224.048 322.986 223.832C322.58 223.615 322.098 223.507 321.539 223.507H318.449V227.943ZM318.449 221.878H321.248C321.717 221.878 322.139 221.788 322.513 221.607C322.891 221.427 323.191 221.175 323.412 220.85C323.637 220.521 323.75 220.133 323.75 219.687C323.75 219.115 323.549 218.635 323.148 218.247C322.747 217.859 322.132 217.666 321.302 217.666H318.449V221.878ZM335.234 225.427V219.349H337.262V229.734H335.275V227.936H335.166C334.927 228.49 334.544 228.952 334.017 229.322C333.494 229.687 332.843 229.87 332.063 229.87C331.396 229.87 330.805 229.723 330.291 229.43C329.782 229.133 329.381 228.693 329.088 228.112C328.799 227.53 328.655 226.811 328.655 225.955V219.349H330.677V225.711C330.677 226.419 330.873 226.983 331.265 227.402C331.657 227.821 332.167 228.031 332.793 228.031C333.172 228.031 333.548 227.936 333.922 227.747C334.301 227.557 334.614 227.271 334.862 226.888C335.115 226.505 335.238 226.018 335.234 225.427ZM344.826 219.349V220.972H339.154V219.349H344.826ZM340.675 216.861H342.697V226.685C342.697 227.077 342.755 227.372 342.872 227.571C342.99 227.765 343.141 227.898 343.325 227.97C343.515 228.037 343.72 228.071 343.941 228.071C344.103 228.071 344.245 228.06 344.367 228.037C344.488 228.015 344.583 227.997 344.651 227.983L345.016 229.653C344.899 229.698 344.732 229.743 344.515 229.788C344.299 229.838 344.029 229.865 343.704 229.87C343.172 229.879 342.676 229.784 342.217 229.586C341.757 229.387 341.385 229.081 341.101 228.666C340.817 228.251 340.675 227.731 340.675 227.104V216.861ZM351.911 219.349V220.972H346.238V219.349H351.911ZM347.759 216.861H349.781V226.685C349.781 227.077 349.839 227.372 349.957 227.571C350.074 227.765 350.225 227.898 350.41 227.97C350.599 228.037 350.804 228.071 351.025 228.071C351.187 228.071 351.329 228.06 351.451 228.037C351.573 228.015 351.667 227.997 351.735 227.983L352.1 229.653C351.983 229.698 351.816 229.743 351.6 229.788C351.383 229.838 351.113 229.865 350.788 229.87C350.256 229.879 349.761 229.784 349.301 229.586C348.841 229.387 348.469 229.081 348.185 228.666C347.901 228.251 347.759 227.731 347.759 227.104V216.861ZM358.41 229.944C357.436 229.944 356.587 229.721 355.861 229.275C355.135 228.828 354.572 228.204 354.171 227.402C353.769 226.599 353.569 225.662 353.569 224.589C353.569 223.512 353.769 222.57 354.171 221.763C354.572 220.956 355.135 220.329 355.861 219.883C356.587 219.437 357.436 219.214 358.41 219.214C359.383 219.214 360.233 219.437 360.959 219.883C361.685 220.329 362.248 220.956 362.649 221.763C363.05 222.57 363.251 223.512 363.251 224.589C363.251 225.662 363.05 226.599 362.649 227.402C362.248 228.204 361.685 228.828 360.959 229.275C360.233 229.721 359.383 229.944 358.41 229.944ZM358.417 228.247C359.048 228.247 359.571 228.08 359.985 227.747C360.4 227.413 360.706 226.969 360.905 226.415C361.108 225.86 361.209 225.249 361.209 224.582C361.209 223.92 361.108 223.311 360.905 222.757C360.706 222.198 360.4 221.749 359.985 221.411C359.571 221.073 359.048 220.904 358.417 220.904C357.781 220.904 357.254 221.073 356.834 221.411C356.42 221.749 356.111 222.198 355.908 222.757C355.71 223.311 355.611 223.92 355.611 224.582C355.611 225.249 355.71 225.86 355.908 226.415C356.111 226.969 356.42 227.413 356.834 227.747C357.254 228.08 357.781 228.247 358.417 228.247ZM367.529 223.568V229.734H365.507V219.349H367.448V221.039H367.576C367.815 220.489 368.189 220.048 368.699 219.714C369.213 219.381 369.859 219.214 370.639 219.214C371.347 219.214 371.967 219.363 372.499 219.66C373.031 219.953 373.443 220.39 373.736 220.972C374.029 221.553 374.175 222.272 374.175 223.129V229.734H372.154V223.372C372.154 222.619 371.958 222.031 371.566 221.607C371.173 221.179 370.635 220.965 369.95 220.965C369.481 220.965 369.064 221.066 368.699 221.269C368.338 221.472 368.052 221.77 367.84 222.162C367.633 222.549 367.529 223.018 367.529 223.568Z" fill="white"/>
<path fill-rule="evenodd" clip-rule="evenodd" d="M395.27 229.982C394.747 229.459 394.747 228.612 395.27 228.089L404.587 218.772H398.002C397.263 218.772 396.663 218.173 396.663 217.433C396.663 216.694 397.263 216.094 398.002 216.094H407.819C408.559 216.094 409.158 216.694 409.158 217.433V227.251C409.158 227.99 408.559 228.589 407.819 228.589C407.08 228.589 406.48 227.99 406.48 227.251V220.665L397.164 229.982C396.641 230.505 395.793 230.505 395.27 229.982Z" fill="white"/>
<rect x="296.549" y="281.543" width="97.5785" height="57.1191" rx="28.5596" stroke="white" stroke-width="1.18998"/>
<path d="M317.015 316.603V302.756H321.856C322.821 302.756 323.617 302.923 324.243 303.256C324.87 303.585 325.336 304.029 325.643 304.588C325.949 305.143 326.103 305.758 326.103 306.434C326.103 307.029 325.997 307.52 325.785 307.908C325.577 308.296 325.302 308.602 324.96 308.828C324.622 309.053 324.254 309.22 323.858 309.328V309.463C324.282 309.49 324.707 309.639 325.136 309.909C325.564 310.18 325.922 310.567 326.211 311.072C326.499 311.577 326.643 312.195 326.643 312.925C326.643 313.619 326.486 314.243 326.17 314.798C325.855 315.352 325.357 315.792 324.676 316.116C323.995 316.441 323.11 316.603 322.019 316.603H317.015ZM318.692 315.116H322.019C323.114 315.116 323.892 314.904 324.351 314.48C324.816 314.052 325.048 313.533 325.048 312.925C325.048 312.456 324.928 312.023 324.689 311.627C324.451 311.226 324.11 310.906 323.668 310.667C323.227 310.423 322.704 310.302 322.1 310.302H318.692V315.116ZM318.692 308.841H321.802C322.307 308.841 322.762 308.742 323.168 308.544C323.578 308.345 323.903 308.066 324.142 307.705C324.385 307.345 324.507 306.921 324.507 306.434C324.507 305.826 324.295 305.309 323.871 304.886C323.448 304.458 322.776 304.243 321.856 304.243H318.692V308.841ZM335.727 312.357V306.218H337.323V316.603H335.727V314.845H335.619C335.376 315.372 334.997 315.821 334.483 316.191C333.969 316.556 333.32 316.738 332.536 316.738C331.887 316.738 331.31 316.596 330.805 316.312C330.3 316.024 329.903 315.591 329.615 315.014C329.327 314.433 329.182 313.7 329.182 312.817V306.218H330.778V312.709C330.778 313.466 330.99 314.07 331.414 314.521C331.842 314.971 332.387 315.197 333.05 315.197C333.446 315.197 333.85 315.095 334.26 314.892C334.675 314.69 335.022 314.379 335.301 313.959C335.585 313.54 335.727 313.006 335.727 312.357ZM344.762 306.218V307.57H339.38V306.218H344.762ZM340.949 303.73H342.544V313.628C342.544 314.079 342.61 314.417 342.74 314.642C342.876 314.863 343.047 315.012 343.254 315.089C343.466 315.161 343.689 315.197 343.924 315.197C344.099 315.197 344.244 315.188 344.356 315.17C344.469 315.147 344.559 315.129 344.627 315.116L344.951 316.549C344.843 316.59 344.692 316.63 344.498 316.671C344.304 316.716 344.059 316.738 343.761 316.738C343.311 316.738 342.869 316.641 342.436 316.448C342.008 316.254 341.652 315.958 341.368 315.562C341.088 315.165 340.949 314.665 340.949 314.061V303.73ZM351.679 306.218V307.57H346.297V306.218H351.679ZM347.865 303.73H349.461V313.628C349.461 314.079 349.526 314.417 349.657 314.642C349.792 314.863 349.964 315.012 350.171 315.089C350.383 315.161 350.606 315.197 350.84 315.197C351.016 315.197 351.16 315.188 351.273 315.17C351.386 315.147 351.476 315.129 351.543 315.116L351.868 316.549C351.76 316.59 351.609 316.63 351.415 316.671C351.221 316.716 350.976 316.738 350.678 316.738C350.227 316.738 349.786 316.641 349.353 316.448C348.925 316.254 348.569 315.958 348.285 315.562C348.005 315.165 347.865 314.665 347.865 314.061V303.73ZM358.186 316.819C357.249 316.819 356.426 316.596 355.719 316.15C355.015 315.704 354.465 315.079 354.069 314.277C353.677 313.475 353.481 312.537 353.481 311.464C353.481 310.383 353.677 309.438 354.069 308.632C354.465 307.825 355.015 307.198 355.719 306.752C356.426 306.306 357.249 306.083 358.186 306.083C359.124 306.083 359.944 306.306 360.648 306.752C361.355 307.198 361.905 307.825 362.297 308.632C362.694 309.438 362.892 310.383 362.892 311.464C362.892 312.537 362.694 313.475 362.297 314.277C361.905 315.079 361.355 315.704 360.648 316.15C359.944 316.596 359.124 316.819 358.186 316.819ZM358.186 315.386C358.899 315.386 359.485 315.203 359.944 314.838C360.404 314.473 360.744 313.993 360.965 313.398C361.186 312.803 361.297 312.159 361.297 311.464C361.297 310.77 361.186 310.123 360.965 309.524C360.744 308.924 360.404 308.44 359.944 308.07C359.485 307.701 358.899 307.516 358.186 307.516C357.474 307.516 356.888 307.701 356.428 308.07C355.969 308.44 355.628 308.924 355.408 309.524C355.187 310.123 355.076 310.77 355.076 311.464C355.076 312.159 355.187 312.803 355.408 313.398C355.628 313.993 355.969 314.473 356.428 314.838C356.888 315.203 357.474 315.386 358.186 315.386ZM366.924 310.356V316.603H365.328V306.218H366.87V307.84H367.005C367.248 307.313 367.618 306.889 368.114 306.569C368.609 306.245 369.25 306.083 370.034 306.083C370.737 306.083 371.352 306.227 371.88 306.515C372.407 306.799 372.817 307.232 373.11 307.813C373.403 308.39 373.55 309.121 373.55 310.004V316.603H371.954V310.112C371.954 309.296 371.742 308.661 371.318 308.206C370.895 307.746 370.313 307.516 369.574 307.516C369.065 307.516 368.609 307.626 368.208 307.847C367.812 308.068 367.498 308.39 367.268 308.814C367.039 309.238 366.924 309.752 366.924 310.356Z" fill="white"/>
<rect x="449.462" y="330.928" width="52.3592" height="28.5596" rx="14.2798" fill="white"/>
<circle cx="487.541" cy="345.207" r="11.8998" fill="black"/>
<rect x="449.462" y="288.088" width="52.3592" height="28.5596" rx="14.2798" fill="#71717A"/>
<circle cx="463.742" cy="302.368" r="11.8998" fill="#FAFAFA"/>
<defs>
<filter id="filter0_b_385_1939" x="251.201" y="-20.8412" width="294.753" height="430.256" filterUnits="userSpaceOnUse" color-interpolation-filters="sRGB">
<feFlood flood-opacity="0" result="BackgroundImageFix"/>
<feGaussianBlur in="BackgroundImageFix" stdDeviation="10.477"/>
<feComposite in2="SourceAlpha" operator="in" result="effect1_backgroundBlur_385_1939"/>
<feBlend mode="normal" in="SourceGraphic" in2="effect1_backgroundBlur_385_1939" result="shape"/>
</filter>
</defs>
</svg>
