<svg width="637" height="271" viewBox="0 0 637 271" fill="none" xmlns="http://www.w3.org/2000/svg">
<g filter="url(#filter0_d_125_970)">
<path d="M80.7955 210.74C86.0502 206.524 91.305 202.309 96.5102 198.043C113.216 184.503 129.873 170.963 146.579 157.423C148.463 155.886 150.297 154.299 152.231 152.811C153.073 152.166 153.073 151.62 152.627 150.777C150.396 146.016 146.629 143.338 141.523 142.891C138.846 142.693 136.02 142.891 133.393 143.486C110.837 148.893 88.3306 154.447 65.7748 159.903C55.9097 162.284 46.8378 160.3 39.0548 153.753C30.5778 146.661 27.9008 135.154 31.6684 123.648C34.0479 116.456 38.1625 110.455 43.9626 105.644C58.6362 93.4429 73.4091 81.3412 88.1819 69.1899C102.657 57.2866 117.133 45.3833 131.658 33.48C132.5 32.7857 133.244 32.0417 134.087 31.3969C135.623 30.157 137.656 30.157 139.292 31.3473C140.878 32.4881 141.572 34.3232 140.928 36.1583C140.68 36.9022 140.283 37.6462 139.837 38.3405C126.552 60.0641 113.266 81.738 99.9803 103.412C99.088 104.9 98.2948 106.437 97.3034 107.826C96.6589 108.719 95.8162 109.512 94.8743 110.058C93.0896 111.1 91.2059 110.802 89.8178 109.463C88.3802 108.074 88.0332 106.289 89.0742 104.453C91.2554 100.635 93.5358 96.8155 95.8162 93.0462C102.459 82.0852 109.102 71.1738 115.745 60.2129C116.092 59.6673 116.389 59.1217 116.736 58.5762C116.637 58.477 116.538 58.3778 116.439 58.3282C115.348 59.1713 114.257 60.0641 113.167 60.9072C104.095 68.2972 95.023 75.6376 86.0007 83.0275C73.062 93.6909 60.173 104.404 47.284 115.067C47.1352 115.216 46.9865 115.315 46.8378 115.464C43.4173 118.589 43.2685 119.829 45.8463 123.747C49.6635 129.599 55.2653 131.98 61.9576 131.137C66.9645 130.492 71.8723 129.004 76.7801 127.814C95.717 123.201 114.654 118.589 133.591 113.976C141.87 111.992 149.801 112.885 156.89 117.894C165.417 123.896 168.342 132.327 166.706 142.445C165.268 151.323 160.162 158.118 153.42 163.672C139.788 174.931 126.006 185.991 112.374 197.25C96.3119 210.542 80.3493 223.933 64.3867 237.275C63.3457 238.167 62.3047 239.06 61.214 239.903C59.3798 241.242 57.4465 241.342 56.0584 240.102C54.5712 238.862 54.2242 236.63 55.3148 234.696C57.0003 231.769 58.785 228.843 60.5696 225.917C72.4672 206.376 84.3648 186.884 96.2623 167.343C97.1546 165.855 98.2453 164.664 100.03 164.268C101.815 163.871 103.401 164.317 104.541 165.756C105.632 167.144 105.632 168.682 104.789 170.17C102.459 174.137 100.179 178.056 97.7991 181.974C92.4948 190.703 87.1904 199.432 81.9357 208.161C81.4895 208.905 81.0929 209.649 80.6468 210.393C80.6468 210.591 80.7459 210.641 80.7955 210.74Z" fill="#FAFAFA"/>
<path d="M576.036 134.787V85.0437H589.411V93.7229H589.93C590.836 90.6355 592.359 88.3038 594.496 86.7277C596.633 85.13 599.095 84.3312 601.88 84.3312C602.571 84.3312 603.316 84.3744 604.114 84.4607C604.913 84.5471 605.615 84.6658 606.219 84.817V97.0586C605.572 96.8643 604.676 96.6915 603.531 96.5404C602.387 96.3893 601.34 96.3137 600.39 96.3137C598.361 96.3137 596.547 96.7563 594.949 97.6415C593.373 98.5051 592.121 99.7142 591.193 101.269C590.286 102.823 589.832 104.615 589.832 106.645V134.787H576.036Z" fill="white"/>
<path d="M544.202 135.759C539.085 135.759 534.68 134.723 530.989 132.65C527.318 130.556 524.49 127.598 522.504 123.776C520.517 119.933 519.524 115.389 519.524 110.142C519.524 105.025 520.517 100.535 522.504 96.67C524.49 92.8054 527.286 89.7935 530.891 87.6345C534.519 85.4755 538.772 84.396 543.651 84.396C546.933 84.396 549.988 84.925 552.816 85.9829C555.666 87.0192 558.149 88.5845 560.265 90.6787C562.402 92.773 564.065 95.407 565.252 98.5807C566.44 101.733 567.033 105.425 567.033 109.656V113.446H525.03V104.896H554.047C554.047 102.91 553.615 101.15 552.751 99.6171C551.888 98.0842 550.69 96.8859 549.157 96.0223C547.645 95.1371 545.886 94.6945 543.878 94.6945C541.784 94.6945 539.927 95.1803 538.308 96.1518C536.71 97.1018 535.458 98.3864 534.551 100.006C533.644 101.603 533.18 103.385 533.158 105.349V113.478C533.158 115.939 533.612 118.066 534.519 119.858C535.447 121.65 536.753 123.032 538.437 124.003C540.121 124.975 542.118 125.46 544.428 125.46C545.961 125.46 547.365 125.245 548.639 124.813C549.912 124.381 551.003 123.733 551.909 122.87C552.816 122.006 553.507 120.948 553.982 119.696L566.742 120.538C566.094 123.604 564.766 126.281 562.758 128.569C560.772 130.836 558.203 132.607 555.051 133.881C551.92 135.133 548.304 135.759 544.202 135.759Z" fill="white"/>
<path d="M481.884 135.597C478.106 135.597 474.684 134.625 471.618 132.682C468.574 130.718 466.156 127.835 464.364 124.036C462.594 120.214 461.708 115.529 461.708 109.98C461.708 104.28 462.626 99.5415 464.461 95.7632C466.296 91.9633 468.736 89.1242 471.78 87.2459C474.846 85.3459 478.203 84.396 481.852 84.396C484.637 84.396 486.958 84.8709 488.815 85.8209C490.693 86.7493 492.205 87.9151 493.349 89.3185C494.515 90.7003 495.4 92.0605 496.004 93.3991H496.425V68.4624H510.189V134.787H496.587V126.821H496.004C495.357 128.202 494.439 129.573 493.252 130.934C492.086 132.272 490.564 133.384 488.685 134.269C486.829 135.154 484.562 135.597 481.884 135.597ZM486.256 124.618C488.48 124.618 490.359 124.014 491.891 122.805C493.446 121.574 494.633 119.858 495.454 117.656C496.296 115.453 496.717 112.873 496.717 109.916C496.717 106.958 496.307 104.388 495.486 102.208C494.666 100.027 493.478 98.3432 491.924 97.1557C490.369 95.9683 488.48 95.3746 486.256 95.3746C483.989 95.3746 482.079 95.9899 480.524 97.2205C478.97 98.4512 477.793 100.157 476.994 102.337C476.195 104.518 475.796 107.044 475.796 109.916C475.796 112.809 476.195 115.367 476.994 117.591C477.815 119.793 478.991 121.52 480.524 122.772C482.079 124.003 483.989 124.618 486.256 124.618Z" fill="white"/>
<path d="M420.62 106.029V134.787H406.823V85.0437H419.972V93.8201H420.555C421.656 90.927 423.502 88.6385 426.093 86.9544C428.684 85.2488 431.825 84.396 435.517 84.396C438.971 84.396 441.983 85.1517 444.552 86.663C447.122 88.1743 449.119 90.3333 450.544 93.14C451.969 95.9251 452.681 99.25 452.681 103.115V134.787H438.885V105.576C438.906 102.532 438.129 100.157 436.553 98.4512C434.977 96.724 432.807 95.8604 430.044 95.8604C428.187 95.8604 426.546 96.2598 425.121 97.0586C423.718 97.8575 422.617 99.0233 421.818 100.556C421.041 102.068 420.641 103.892 420.62 106.029Z" fill="white"/>
<path d="M381.992 113.607V85.0435H395.788V134.787H382.543V125.752H382.024C380.902 128.666 379.034 131.009 376.422 132.779C373.831 134.55 370.668 135.435 366.933 135.435C363.608 135.435 360.683 134.679 358.157 133.168C355.63 131.657 353.655 129.508 352.23 126.723C350.827 123.938 350.114 120.602 350.093 116.716V85.0435H363.889V114.255C363.91 117.191 364.698 119.512 366.253 121.218C367.807 122.923 369.891 123.776 372.503 123.776C374.166 123.776 375.72 123.398 377.167 122.643C378.613 121.865 379.779 120.721 380.664 119.21C381.571 117.699 382.014 115.831 381.992 113.607Z" fill="white"/>
<path d="M306.98 106.029V134.787H293.184V68.4624H306.591V93.8201H307.174C308.297 90.8838 310.11 88.5844 312.615 86.922C315.119 85.238 318.261 84.396 322.039 84.396C325.493 84.396 328.505 85.1516 331.074 86.6629C333.665 88.1526 335.673 90.3009 337.098 93.1076C338.545 95.8927 339.257 99.2284 339.235 103.115V134.787H325.439V105.576C325.461 102.51 324.684 100.124 323.108 98.4188C321.553 96.7131 319.372 95.8603 316.566 95.8603C314.687 95.8603 313.025 96.2598 311.578 97.0586C310.153 97.8574 309.031 99.0233 308.21 100.556C307.412 102.068 307.001 103.892 306.98 106.029Z" fill="white"/>
<path d="M230 80.0239V68.4624H284.472V80.0239H264.166V134.787H250.306V80.0239H230Z" fill="white"/>
<path d="M496.143 193.153V169.276H499.688V173.007H499.998C500.496 171.732 501.299 170.743 502.408 170.038C503.517 169.323 504.848 168.965 506.403 168.965C507.978 168.965 509.289 169.323 510.336 170.038C511.393 170.743 512.217 171.732 512.807 173.007H513.056C513.668 171.774 514.585 170.795 515.808 170.069C517.031 169.333 518.497 168.965 520.207 168.965C522.342 168.965 524.088 169.634 525.445 170.971C526.803 172.297 527.482 174.365 527.482 177.173V193.153H523.813V177.173C523.813 175.411 523.331 174.152 522.368 173.396C521.404 172.639 520.269 172.261 518.963 172.261C517.284 172.261 515.984 172.769 515.061 173.784C514.139 174.79 513.678 176.064 513.678 177.608V193.153H509.947V176.8C509.947 175.443 509.507 174.349 508.626 173.52C507.745 172.681 506.61 172.261 505.222 172.261C504.268 172.261 503.377 172.515 502.548 173.023C501.729 173.53 501.066 174.235 500.558 175.137C500.061 176.028 499.812 177.059 499.812 178.23V193.153H496.143Z" fill="white"/>
<path d="M480.676 193.651C478.375 193.651 476.391 193.143 474.722 192.127C473.064 191.101 471.784 189.671 470.883 187.837C469.992 185.992 469.546 183.847 469.546 181.401C469.546 178.956 469.992 176.8 470.883 174.935C471.784 173.059 473.038 171.598 474.645 170.551C476.261 169.494 478.147 168.965 480.303 168.965C481.547 168.965 482.775 169.173 483.987 169.587C485.2 170.002 486.303 170.675 487.298 171.608C488.293 172.53 489.086 173.753 489.677 175.277C490.267 176.8 490.563 178.676 490.563 180.904V182.458H472.157V179.287H486.832C486.832 177.94 486.562 176.738 486.024 175.681C485.495 174.624 484.739 173.79 483.754 173.178C482.78 172.567 481.63 172.261 480.303 172.261C478.842 172.261 477.577 172.624 476.51 173.349C475.453 174.064 474.639 174.997 474.07 176.147C473.5 177.298 473.215 178.531 473.215 179.847V181.961C473.215 183.764 473.525 185.293 474.147 186.547C474.779 187.79 475.655 188.739 476.774 189.391C477.894 190.034 479.194 190.355 480.676 190.355C481.64 190.355 482.51 190.221 483.288 189.951C484.075 189.671 484.754 189.257 485.324 188.708C485.894 188.148 486.334 187.454 486.645 186.624L490.19 187.619C489.817 188.822 489.19 189.879 488.309 190.791C487.428 191.692 486.34 192.397 485.044 192.905C483.749 193.402 482.293 193.651 480.676 193.651Z" fill="white"/>
<path d="M465.403 169.276V172.385H453.029V169.276H465.403ZM456.636 163.556H460.304V186.314C460.304 187.35 460.455 188.127 460.755 188.645C461.066 189.153 461.46 189.495 461.937 189.671C462.424 189.837 462.937 189.92 463.476 189.92C463.88 189.92 464.211 189.899 464.471 189.858C464.73 189.806 464.937 189.765 465.092 189.733L465.838 193.029C465.59 193.122 465.243 193.215 464.797 193.309C464.351 193.412 463.787 193.464 463.103 193.464C462.066 193.464 461.051 193.241 460.056 192.796C459.071 192.35 458.253 191.671 457.6 190.759C456.957 189.847 456.636 188.697 456.636 187.308V163.556Z" fill="white"/>
<path d="M449.062 174.624L445.766 175.557C445.559 175.007 445.253 174.474 444.849 173.955C444.455 173.427 443.916 172.992 443.232 172.65C442.548 172.308 441.673 172.137 440.605 172.137C439.144 172.137 437.926 172.473 436.952 173.147C435.988 173.81 435.506 174.655 435.506 175.681C435.506 176.593 435.838 177.313 436.501 177.842C437.165 178.37 438.201 178.811 439.61 179.163L443.155 180.033C445.289 180.552 446.88 181.344 447.927 182.412C448.974 183.469 449.497 184.832 449.497 186.5C449.497 187.868 449.103 189.091 448.315 190.169C447.538 191.247 446.45 192.096 445.051 192.718C443.652 193.34 442.025 193.651 440.17 193.651C437.735 193.651 435.719 193.122 434.123 192.065C432.527 191.008 431.517 189.464 431.092 187.433L434.574 186.562C434.905 187.847 435.532 188.811 436.455 189.454C437.387 190.096 438.605 190.417 440.108 190.417C441.818 190.417 443.175 190.055 444.181 189.329C445.196 188.594 445.704 187.713 445.704 186.687C445.704 185.858 445.414 185.163 444.833 184.604C444.253 184.034 443.362 183.609 442.16 183.329L438.18 182.396C435.994 181.878 434.387 181.075 433.361 179.987C432.346 178.888 431.838 177.515 431.838 175.867C431.838 174.52 432.216 173.328 432.973 172.292C433.739 171.256 434.781 170.442 436.097 169.852C437.424 169.261 438.926 168.965 440.605 168.965C442.968 168.965 444.823 169.484 446.17 170.52C447.528 171.556 448.492 172.924 449.062 174.624Z" fill="white"/>
<path d="M410.145 202.107C409.523 202.107 408.969 202.056 408.482 201.952C407.995 201.859 407.658 201.766 407.471 201.672L408.404 198.439C409.295 198.667 410.083 198.75 410.767 198.688C411.451 198.625 412.057 198.32 412.585 197.77C413.124 197.232 413.617 196.356 414.062 195.143L414.746 193.278L405.917 169.277H409.896L416.487 188.304H416.736L423.327 169.277H427.307L417.171 196.636C416.715 197.869 416.15 198.89 415.477 199.698C414.803 200.517 414.021 201.123 413.13 201.517C412.249 201.911 411.254 202.107 410.145 202.107Z" fill="white"/>
<path d="M401.824 174.624L398.529 175.557C398.322 175.007 398.016 174.474 397.612 173.955C397.218 173.427 396.679 172.992 395.995 172.65C395.311 172.308 394.435 172.137 393.368 172.137C391.907 172.137 390.689 172.473 389.715 173.147C388.751 173.81 388.269 174.655 388.269 175.681C388.269 176.593 388.601 177.313 389.264 177.842C389.927 178.37 390.964 178.811 392.373 179.163L395.917 180.033C398.052 180.552 399.643 181.344 400.69 182.412C401.736 183.469 402.26 184.832 402.26 186.5C402.26 187.868 401.866 189.091 401.078 190.169C400.301 191.247 399.213 192.096 397.814 192.718C396.415 193.34 394.788 193.651 392.933 193.651C390.497 193.651 388.482 193.122 386.886 192.065C385.29 191.008 384.279 189.464 383.854 187.433L387.337 186.562C387.668 187.847 388.295 188.811 389.217 189.454C390.15 190.096 391.368 190.417 392.871 190.417C394.58 190.417 395.938 190.055 396.943 189.329C397.959 188.594 398.467 187.713 398.467 186.687C398.467 185.858 398.177 185.163 397.596 184.604C397.016 184.034 396.125 183.609 394.922 183.329L390.943 182.396C388.756 181.878 387.15 181.075 386.124 179.987C385.108 178.888 384.601 177.515 384.601 175.867C384.601 174.52 384.979 173.328 385.735 172.292C386.502 171.256 387.544 170.442 388.86 169.852C390.186 169.261 391.689 168.965 393.368 168.965C395.731 168.965 397.586 169.484 398.933 170.52C400.291 171.556 401.254 172.924 401.824 174.624Z" fill="white"/>
<path d="M350.662 178.79V193.153H346.994V169.276H350.538V173.007H350.849C351.408 171.795 352.258 170.82 353.398 170.085C354.538 169.339 356.01 168.965 357.813 168.965C359.43 168.965 360.844 169.297 362.057 169.96C363.269 170.613 364.212 171.608 364.886 172.945C365.559 174.271 365.896 175.95 365.896 177.982V193.153H362.228V178.23C362.228 176.354 361.741 174.893 360.766 173.847C359.792 172.79 358.455 172.261 356.756 172.261C355.585 172.261 354.538 172.515 353.616 173.023C352.704 173.53 351.984 174.271 351.455 175.246C350.927 176.22 350.662 177.401 350.662 178.79Z" fill="white"/>
<path d="M329.956 202.605C328.184 202.605 326.661 202.377 325.386 201.921C324.111 201.475 323.049 200.884 322.199 200.149C321.36 199.423 320.692 198.646 320.194 197.817L323.117 195.765C323.448 196.2 323.868 196.698 324.376 197.257C324.884 197.827 325.578 198.319 326.459 198.734C327.35 199.159 328.516 199.371 329.956 199.371C331.884 199.371 333.475 198.905 334.729 197.972C335.983 197.04 336.61 195.578 336.61 193.589V188.739H336.299C336.029 189.174 335.646 189.713 335.148 190.355C334.661 190.987 333.957 191.552 333.034 192.05C332.122 192.537 330.889 192.78 329.335 192.78C327.407 192.78 325.676 192.324 324.143 191.412C322.619 190.5 321.412 189.174 320.521 187.433C319.64 185.692 319.199 183.578 319.199 181.09C319.199 178.645 319.629 176.515 320.49 174.702C321.35 172.878 322.547 171.468 324.08 170.473C325.614 169.468 327.386 168.965 329.397 168.965C330.951 168.965 332.184 169.225 333.096 169.743C334.019 170.251 334.723 170.831 335.211 171.484C335.708 172.126 336.091 172.655 336.361 173.069H336.734V169.276H340.278V193.837C340.278 195.889 339.812 197.558 338.879 198.843C337.957 200.138 336.713 201.086 335.148 201.688C333.594 202.299 331.863 202.605 329.956 202.605ZM329.832 189.485C331.304 189.485 332.547 189.148 333.563 188.474C334.578 187.801 335.35 186.832 335.879 185.567C336.408 184.303 336.672 182.79 336.672 181.028C336.672 179.308 336.413 177.79 335.895 176.474C335.376 175.158 334.609 174.126 333.594 173.38C332.578 172.634 331.324 172.261 329.832 172.261C328.278 172.261 326.982 172.655 325.946 173.442C324.92 174.23 324.148 175.287 323.63 176.614C323.122 177.94 322.868 179.412 322.868 181.028C322.868 182.686 323.127 184.153 323.645 185.428C324.174 186.692 324.951 187.687 325.977 188.412C327.013 189.127 328.298 189.485 329.832 189.485Z" fill="white"/>
<path d="M309.931 193.153V169.276H313.599V193.153H309.931ZM311.796 165.297C311.081 165.297 310.464 165.053 309.946 164.566C309.438 164.079 309.185 163.494 309.185 162.81C309.185 162.126 309.438 161.54 309.946 161.053C310.464 160.566 311.081 160.322 311.796 160.322C312.511 160.322 313.123 160.566 313.63 161.053C314.149 161.54 314.408 162.126 314.408 162.81C314.408 163.494 314.149 164.079 313.63 164.566C313.123 165.053 312.511 165.297 311.796 165.297Z" fill="white"/>
<path d="M303.973 174.624L300.678 175.557C300.47 175.007 300.165 174.474 299.76 173.955C299.367 173.427 298.828 172.992 298.144 172.65C297.46 172.308 296.584 172.137 295.517 172.137C294.055 172.137 292.838 172.473 291.864 173.147C290.9 173.81 290.418 174.655 290.418 175.681C290.418 176.593 290.749 177.313 291.413 177.842C292.076 178.37 293.112 178.811 294.522 179.163L298.066 180.033C300.201 180.552 301.792 181.344 302.838 182.412C303.885 183.469 304.408 184.832 304.408 186.5C304.408 187.868 304.014 189.091 303.227 190.169C302.45 191.247 301.361 192.096 299.962 192.718C298.563 193.34 296.936 193.651 295.081 193.651C292.646 193.651 290.63 193.122 289.034 192.065C287.438 191.008 286.428 189.464 286.003 187.433L289.485 186.562C289.817 187.847 290.444 188.811 291.366 189.454C292.299 190.096 293.516 190.417 295.019 190.417C296.729 190.417 298.087 190.055 299.092 189.329C300.108 188.594 300.615 187.713 300.615 186.687C300.615 185.858 300.325 185.163 299.745 184.604C299.164 184.034 298.273 183.609 297.071 183.329L293.092 182.396C290.905 181.878 289.299 181.075 288.273 179.987C287.257 178.888 286.749 177.515 286.749 175.867C286.749 174.52 287.128 173.328 287.884 172.292C288.651 171.256 289.692 170.442 291.009 169.852C292.335 169.261 293.838 168.965 295.517 168.965C297.879 168.965 299.734 169.484 301.082 170.52C302.439 171.556 303.403 172.924 303.973 174.624Z" fill="white"/>
<path d="M271.593 193.651C269.292 193.651 267.308 193.143 265.639 192.127C263.981 191.101 262.701 189.671 261.8 187.837C260.908 185.992 260.463 183.847 260.463 181.401C260.463 178.956 260.908 176.8 261.8 174.935C262.701 173.059 263.955 171.598 265.562 170.551C267.178 169.494 269.064 168.965 271.22 168.965C272.463 168.965 273.691 169.173 274.904 169.587C276.117 170.002 277.22 170.675 278.215 171.608C279.21 172.53 280.003 173.753 280.593 175.277C281.184 176.8 281.48 178.676 281.48 180.904V182.458H263.074V179.287H277.749C277.749 177.94 277.479 176.738 276.94 175.681C276.412 174.624 275.655 173.79 274.671 173.178C273.697 172.567 272.546 172.261 271.22 172.261C269.759 172.261 268.494 172.624 267.427 173.349C266.37 174.064 265.556 174.997 264.986 176.147C264.416 177.298 264.131 178.531 264.131 179.847V181.961C264.131 183.764 264.442 185.293 265.064 186.547C265.696 187.79 266.572 188.739 267.691 189.391C268.81 190.034 270.111 190.355 271.593 190.355C272.557 190.355 273.427 190.221 274.204 189.951C274.992 189.671 275.671 189.257 276.241 188.708C276.811 188.148 277.251 187.454 277.562 186.624L281.106 187.619C280.733 188.822 280.106 189.879 279.225 190.791C278.345 191.692 277.256 192.397 275.961 192.905C274.666 193.402 273.21 193.651 271.593 193.651Z" fill="white"/>
<path d="M240.441 193.154H230.617V161.318H240.876C243.964 161.318 246.607 161.955 248.804 163.23C251.001 164.494 252.685 166.313 253.856 168.686C255.027 171.049 255.613 173.878 255.613 177.173C255.613 180.49 255.022 183.345 253.841 185.739C252.659 188.122 250.939 189.956 248.68 191.241C246.421 192.516 243.674 193.154 240.441 193.154ZM234.472 189.734H240.192C242.825 189.734 245.006 189.226 246.737 188.21C248.467 187.195 249.758 185.749 250.607 183.873C251.457 181.997 251.882 179.764 251.882 177.173C251.882 174.603 251.462 172.391 250.623 170.536C249.783 168.67 248.53 167.24 246.861 166.245C245.193 165.24 243.115 164.737 240.628 164.737H234.472V189.734Z" fill="white"/>
</g>
<defs>
<filter id="filter0_d_125_970" x="0" y="0.460693" width="636.219" height="270.512" filterUnits="userSpaceOnUse" color-interpolation-filters="sRGB">
<feFlood flood-opacity="0" result="BackgroundImageFix"/>
<feColorMatrix in="SourceAlpha" type="matrix" values="0 0 0 0 0 0 0 0 0 0 0 0 0 0 0 0 0 0 127 0" result="hardAlpha"/>
<feOffset/>
<feGaussianBlur stdDeviation="15"/>
<feComposite in2="hardAlpha" operator="out"/>
<feColorMatrix type="matrix" values="0 0 0 0 1 0 0 0 0 1 0 0 0 0 1 0 0 0 0.35 0"/>
<feBlend mode="normal" in2="BackgroundImageFix" result="effect1_dropShadow_125_970"/>
<feBlend mode="normal" in="SourceGraphic" in2="effect1_dropShadow_125_970" result="shape"/>
</filter>
</defs>
</svg>
