<svg width="46" height="46" viewBox="0 0 46 46" fill="none" xmlns="http://www.w3.org/2000/svg">
<rect x="0.66983" y="0.695709" width="43.7622" height="43.7622" rx="21.8811" fill="white"/>
<rect x="0.66983" y="0.695709" width="43.7622" height="43.7622" rx="21.8811" stroke="black" stroke-width="1.33966"/>
<path d="M30.1572 16.4436V28.0788L26.0165 21.9438V16.4436C26.0143 16.0916 26.3133 15.7808 26.679 15.7808H29.4947C29.8609 15.7808 30.1572 16.0777 30.1572 16.4436Z" fill="#00BFA5"/>
<path d="M30.1574 28.558V28.9257C30.1574 28.9711 30.153 29.0152 30.1443 29.058C30.1443 29.0584 30.1443 29.0588 30.1443 29.0593C30.1382 29.0885 30.1303 29.1169 30.1207 29.1444C30.1199 29.1475 30.119 29.1505 30.1177 29.1536C30.0247 29.4073 29.7812 29.5885 29.4953 29.5885H26.6796C26.4893 29.5885 26.3178 29.5081 26.1969 29.3793C26.1908 29.3728 26.1851 29.3658 26.179 29.3588C26.1485 29.3243 26.1218 29.2859 26.0991 29.2453C26.0983 29.244 26.0974 29.2427 26.097 29.2414C26.0459 29.1475 26.0171 29.0401 26.0171 28.9257V22.4116L30.1447 28.5275C30.15 28.5362 30.1544 28.5467 30.1578 28.558H30.1574Z" fill="white"/>
<path d="M19.14 16.4436V22.0381L14.9993 28.1347V16.4436C14.9993 16.0777 15.2961 15.7808 15.6618 15.7808H18.4775C18.8437 15.7808 19.14 16.0777 19.14 16.4436Z" fill="#4285F4"/>
<path d="M19.14 22.5039V28.9258C19.14 29.2861 18.8528 29.5795 18.4945 29.5882C18.4888 29.5886 18.4831 29.5886 18.4775 29.5886H18.457C18.457 29.5886 18.457 29.5882 18.4561 29.5882L15.7173 29.5332C15.3511 29.5332 14.9993 29.2917 14.9993 28.9258V28.7171C15.0111 28.649 15.0307 28.5805 15.0591 28.5124L19.14 22.5039Z" fill="white"/>
<path d="M24.6703 20.8011C24.6695 20.8054 24.6686 20.8102 24.6673 20.8146V20.8164C24.6559 20.8653 24.6402 20.9115 24.6193 20.9535C24.6158 20.9618 24.6114 20.9696 24.6075 20.9775C24.6066 20.9797 24.6057 20.9823 24.6044 20.984C24.6044 20.9845 24.6044 20.9849 24.6036 20.9853C24.6009 20.9906 24.5988 20.9958 24.5957 21.001L24.3303 21.4023C23.8825 22.0834 23.2667 23.0108 22.6172 23.9937L20.6317 21.001L23.9545 19.9243C24.216 19.9243 24.4277 20.0606 24.5843 20.2902L24.6267 20.3527C24.686 20.4898 24.7044 20.6461 24.6703 20.8011Z" fill="white"/>
<path d="M30.1443 29.0579C30.1443 29.0579 30.1443 29.0587 30.1443 29.0592C30.1382 29.0884 30.1303 29.1168 30.1207 29.1443C30.1199 29.1474 30.119 29.1504 30.1177 29.1535C30.1029 29.202 30.0863 29.2426 30.0684 29.2705C29.9697 29.4233 29.8239 29.5914 29.4927 29.5914H26.7207C26.5173 29.5914 26.3606 29.5604 26.2148 29.3989C26.2087 29.3928 26.203 29.3862 26.1969 29.3792C26.1908 29.3727 26.1851 29.3657 26.179 29.3587C26.1485 29.3242 26.1218 29.2858 26.0991 29.2452C26.0983 29.2439 26.0974 29.2426 26.097 29.2413C26.09 29.2303 26.0834 29.2194 26.0769 29.2076L22.775 24.2301C22.7955 24.1995 22.8156 24.1689 22.8357 24.1384C23.0941 23.748 23.3468 23.366 23.586 23.0049C23.9426 22.4657 24.2795 21.957 24.5497 21.5461L24.8151 21.1453L24.8212 21.1357L24.8264 21.1256C24.8295 21.12 24.8325 21.1143 24.8351 21.1091C24.8395 21.1016 24.8426 21.0946 24.8452 21.089C24.8491 21.0811 24.853 21.0737 24.8565 21.0663C24.8853 21.0069 24.9076 20.9427 24.9229 20.8759V20.8737L24.9242 20.8702C24.9251 20.865 24.9264 20.8593 24.9272 20.8541C24.9303 20.8392 24.9333 20.8239 24.9355 20.8091L26.0171 22.4115L30.1448 28.5274C30.15 28.5361 30.1544 28.5466 30.1578 28.5579C30.1722 28.5985 30.1788 28.6544 30.1797 28.7173C30.1862 28.8182 30.1766 28.9391 30.1448 29.0579H30.1443Z" fill="#1CE9B6"/>
<path d="M26.0984 29.2456C26.1211 29.2862 26.1477 29.3246 26.1783 29.3591C26.1512 29.3259 26.1241 29.2879 26.0984 29.2456ZM30.1348 29.0897C30.13 29.1089 30.1252 29.1273 30.12 29.1447C30.1296 29.1172 30.1374 29.0888 30.1436 29.0596C30.1409 29.0696 30.1379 29.0797 30.1348 29.0897Z" fill="#757575"/>
<g opacity="0.3">
<path d="M16.138 29.585L15.7303 29.5885C15.4405 29.5916 15.2345 29.4772 15.1018 29.2772C14.9604 29.0642 14.9447 28.7869 15.0591 28.5123L15.0652 28.5031L20.6367 20.2971C20.8069 20.039 21.0317 19.9233 21.2975 19.9233H23.9961C24.0974 19.926 24.196 19.95 24.2807 19.991C24.3475 20.0233 24.4103 20.0652 24.4645 20.1181C24.5138 20.1661 24.557 20.2233 24.5954 20.2884C24.5954 20.2884 24.2392 19.9875 23.9974 19.9875H21.2975C21.0544 19.9875 20.8479 20.0932 20.6899 20.3329L15.1171 28.538C15.0124 28.7913 15.0263 29.048 15.1551 29.2423C15.2755 29.4239 15.4785 29.5549 15.7295 29.5558L16.1384 29.585H16.138Z" fill="white"/>
</g>
<path d="M24.6704 20.8009C24.6696 20.8053 24.6687 20.8101 24.6674 20.8145V20.8162C24.656 20.8651 24.6403 20.9114 24.6194 20.9533C24.6159 20.9616 24.6115 20.9695 24.6076 20.9773C24.6067 20.9795 24.6058 20.9821 24.6045 20.9839C24.6045 20.9843 24.6045 20.9848 24.6036 20.9852C24.601 20.9905 24.5988 20.9957 24.5958 21.0009L24.3304 21.4022C23.8826 22.0833 23.2667 23.0107 22.6173 23.9936C22.6173 23.994 22.6169 23.994 22.6169 23.9945C21.0067 26.4308 19.1875 29.182 19.1875 29.182C19.164 29.2196 19.1391 29.2541 19.1133 29.2864C19.1059 29.296 19.0981 29.3052 19.0902 29.3148C19.0889 29.3165 19.0876 29.3183 19.0858 29.32C19.03 29.3855 18.968 29.4401 18.9003 29.4824C18.8986 29.4837 18.8969 29.4846 18.8947 29.4859C18.8873 29.4907 18.8794 29.4946 18.872 29.499C18.865 29.5029 18.8584 29.5069 18.8515 29.5108C18.8497 29.5112 18.8484 29.5121 18.8471 29.5126C18.7502 29.5628 18.6446 29.5881 18.5298 29.5881H18.4944C18.4888 29.5885 18.4831 29.5885 18.4774 29.5885H18.4569C18.4569 29.5885 18.4569 29.5881 18.456 29.5881C18.1902 29.5885 17.292 29.5898 16.5775 29.5898C16.1842 29.5898 15.8473 29.5894 15.7019 29.5885C15.6631 29.5881 15.6378 29.5868 15.6295 29.5863C15.519 29.5794 15.4152 29.5457 15.3248 29.4933L15.3222 29.492C15.31 29.4846 15.2978 29.4772 15.286 29.4693C15.2764 29.4628 15.2672 29.4562 15.258 29.4497L15.2545 29.4462C15.045 29.2851 14.9486 29.0069 14.9992 28.717C15.011 28.6489 15.0306 28.5804 15.059 28.5123L19.14 22.5038L20.6336 20.3049C20.7911 20.0661 21.0063 19.9242 21.2734 19.9242L23.9743 19.9233C24.1048 19.9233 24.223 19.9569 24.3243 20.0141C24.3247 20.0141 24.3247 20.0146 24.3252 20.0146C24.3256 20.0146 24.3261 20.0146 24.3265 20.0155C24.3492 20.0281 24.371 20.0421 24.392 20.0574C24.3933 20.0583 24.3941 20.0596 24.3955 20.0604C24.4164 20.0757 24.4365 20.0923 24.4557 20.1102C24.4566 20.1111 24.4574 20.112 24.4583 20.1128C24.5303 20.1801 24.5875 20.2621 24.6268 20.3525C24.6861 20.4896 24.7045 20.6459 24.6704 20.8009Z" fill="#4FC3F7"/>
<path d="M18.4572 29.5879H18.4775C18.4831 29.5883 18.4888 29.5883 18.4944 29.5879H18.4572Z" fill="#757575"/>
<g opacity="0.3">
<path d="M16.2852 31.4262C16.2852 31.1825 16.0674 31.0122 15.8383 31.0122L12.6202 30.983C12.539 30.9821 12.4596 30.9598 12.3897 30.9183L12.3823 30.914C12.3649 30.9057 12.3483 30.8952 12.3339 30.8821L12.3134 30.8638C12.3609 30.9026 12.4168 30.9293 12.4766 30.9419C12.4823 30.9437 12.5185 30.9493 12.5246 30.9502C12.5429 30.9524 12.5613 30.9533 12.5792 30.9537H15.8383C15.9448 30.9537 16.0368 30.9869 16.111 31.0437C16.1643 31.0843 16.2136 31.141 16.2433 31.2083C16.2717 31.272 16.2861 31.324 16.2852 31.4257V31.4262Z" fill="white"/>
<path d="M9.8147 11.6372H15.8462C16.0531 11.6372 16.2849 11.8145 16.2849 12.0708C16.2849 11.8481 16.0274 11.6927 15.8471 11.6927H9.81601C9.80379 11.6927 9.80073 11.6944 9.78153 11.697L9.70776 11.6516C9.73002 11.6464 9.77105 11.6372 9.81513 11.6372H9.8147Z" fill="white"/>
</g>
<g opacity="0.3">
<path d="M32.5096 14.4136C32.7697 14.4136 32.981 14.5695 32.981 14.8306L32.9932 30.5016C32.9962 30.6509 32.9456 30.7867 32.8505 30.8836C32.7536 30.9823 32.6196 31.0352 32.4603 31.033L29.2601 31.0308C29.034 31.0308 28.8695 31.1928 28.8695 31.4159L28.8655 33.2628C28.8655 33.3641 28.8939 33.5052 28.9799 33.5894C29.0851 33.6929 29.2514 33.7296 29.2514 33.7296C29.2269 33.7283 29.2025 33.7283 29.1802 33.7248C28.9371 33.6846 28.8022 33.5017 28.8022 33.2624L28.8062 31.4154C28.8062 31.1557 28.9973 30.967 29.2605 30.967L32.4607 30.9692C32.6021 30.971 32.7204 30.9251 32.8051 30.8391C32.888 30.7548 32.9321 30.6352 32.9295 30.5025L32.9308 14.831C32.9308 14.6048 32.7287 14.4184 32.5096 14.4136Z" fill="white"/>
<path d="M29.2599 14.4154C28.9745 14.4154 28.8016 14.2102 28.8016 13.9487V12.055C28.8016 11.8528 28.9841 11.6367 29.2412 11.6367C29.2481 11.6367 34.1863 11.6419 35.2386 11.6371C35.3731 11.6367 35.4822 11.7118 35.4822 11.7118L35.3945 11.6904C35.3831 11.6882 35.3517 11.6878 35.3399 11.6878C34.9824 11.6878 29.2486 11.6878 29.2412 11.6882C29.0277 11.6978 28.8654 11.8363 28.8654 12.0546L28.8518 13.9482C28.8518 14.1744 29.0164 14.4137 29.2416 14.4137" fill="white"/>
</g>
<path d="M15.8438 33.731H9.81927C9.57528 33.731 9.37756 33.5332 9.37756 33.2891V12.0786C9.37756 11.8345 9.57528 11.6367 9.81883 11.6367H15.8434C16.0874 11.6367 16.2851 11.8345 16.2851 12.0786V13.9565C16.2851 14.2006 16.0874 14.3984 15.8434 14.3984H12.5795C12.3355 14.3984 12.1378 14.5962 12.1378 14.8402V30.5117C12.1378 30.7558 12.3355 30.9536 12.5795 30.9536H15.8434C16.0874 30.9536 16.2851 31.1514 16.2851 31.3954V33.2891C16.2851 33.5332 16.0874 33.731 15.8438 33.731Z" fill="white"/>
<g opacity="0.3">
<path d="M9.8092 33.7305C9.64334 33.7305 9.50542 33.6319 9.41943 33.4777C9.49451 33.6131 9.66473 33.6664 9.8092 33.6664L15.8372 33.6629C16.0742 33.6629 16.2287 33.4891 16.2287 33.3205L16.2431 31.4304C16.2431 31.4304 16.2375 31.2815 16.2257 31.261L16.1916 31.1226L16.2213 31.1649C16.2213 31.1649 16.2859 31.271 16.2855 31.3797C16.2855 31.4155 16.2846 31.4566 16.2846 31.4802L16.2855 33.3201C16.2855 33.5236 16.086 33.727 15.8377 33.727L9.80963 33.7305H9.8092Z" fill="white"/>
<path d="M12.5394 30.9518C12.4242 30.9518 12.0685 30.8043 12.0685 30.5427V14.8712C12.0685 14.6128 12.2653 14.3242 12.5285 14.3242L15.7571 14.3215C15.9779 14.3215 16.2153 14.2172 16.2153 13.9875V12.1096C16.2153 11.8834 16.0316 11.6367 15.8055 11.6367C15.9666 11.6297 16.111 11.6974 16.1983 11.8162C16.2559 11.8943 16.2904 11.9947 16.2839 12.1113V13.9718C16.2839 13.9718 16.2839 14.0002 16.2769 14.0342C16.2647 14.0936 16.2433 14.1539 16.2084 14.2054C16.1665 14.2665 16.1067 14.3176 16.0403 14.3521C15.9583 14.3945 15.8609 14.401 15.7549 14.3984H12.5578C12.484 14.398 12.4177 14.4241 12.3596 14.4564C12.2116 14.539 12.123 14.7031 12.137 14.8712V30.5436C12.1374 30.6353 12.1772 30.7139 12.2287 30.7815C12.3037 30.8802 12.4229 30.9431 12.5412 30.9527L12.5386 30.9518H12.5394Z" fill="white"/>
</g>
<path d="M29.2415 11.6372H35.239C35.4817 11.6372 35.6785 11.835 35.6785 12.0791V33.2896C35.6785 33.5337 35.4817 33.7315 35.239 33.7315H29.2415C28.9988 33.7315 28.802 33.5337 28.802 33.2896V31.4117C28.802 31.1676 28.9988 30.9698 29.2415 30.9698H32.491C32.7337 30.9698 32.9305 30.772 32.9305 30.5279V14.8565C32.9305 14.6124 32.7337 14.4146 32.491 14.4146H29.2415C28.9988 14.4146 28.802 14.2168 28.802 13.9727V12.0791C28.802 11.835 28.9988 11.6372 29.2415 11.6372Z" fill="white"/>
<g opacity="0.3">
<path d="M35.3798 33.7079C35.5225 33.6407 35.615 33.4477 35.615 33.2892L35.6185 12.0996C35.6185 11.9363 35.5242 11.7272 35.3833 11.6621C35.5338 11.7101 35.6395 11.8394 35.6718 11.9961C35.6787 12.0293 35.6787 12.0638 35.6787 12.0992V33.2887C35.6787 33.4717 35.5722 33.6354 35.3798 33.7075V33.7079Z" fill="white"/>
</g>
<g opacity="0.3">
<path d="M35.3027 33.7264C35.2879 33.7286 35.2468 33.7308 35.232 33.7308L29.3847 33.7294H29.3353C29.255 33.7303 29.1931 33.7316 29.1394 33.7194C29.0927 33.7085 29.0307 33.684 28.9774 33.6426C28.9735 33.6395 28.9604 33.6277 28.9482 33.6168C28.9373 33.6067 28.9272 33.5976 28.9272 33.5976C28.9272 33.5976 29.042 33.6535 29.0927 33.6622C29.1996 33.681 29.2581 33.6749 29.3349 33.674H29.3847L35.246 33.6797C35.3328 33.6797 35.486 33.6421 35.558 33.5928L35.5292 33.6194C35.4838 33.6618 35.4219 33.6954 35.356 33.7146C35.356 33.7146 35.3171 33.7238 35.3027 33.7259V33.7264Z" fill="white"/>
</g>
<g opacity="0.4">
<path d="M28.8016 13.9482C28.8016 14.1744 29.0351 14.3582 29.2599 14.3582H32.5094C32.7695 14.3582 32.9284 14.5477 32.9284 14.8088C32.9097 14.6137 32.7342 14.4145 32.5094 14.4145H29.2599C28.9998 14.4145 28.8195 14.2181 28.8043 14.0216L28.8016 13.9482Z" fill="white"/>
</g>
<g opacity="0.4">
<path d="M9.70753 11.6514L9.78129 11.6968C9.57092 11.7343 9.44129 11.9225 9.44129 12.081L9.4378 33.2706C9.4378 33.4339 9.53207 33.643 9.67305 33.7081C9.52247 33.6601 9.41685 33.5308 9.38455 33.3741C9.37756 33.3409 9.37756 33.3064 9.37756 33.271V12.0815C9.37756 11.8985 9.50676 11.6964 9.70753 11.6518V11.6514Z" fill="white"/>
</g>
<path d="M15.94 33.7324H9.91546C9.67147 33.7324 9.47375 33.5346 9.47375 33.2906V12.08C9.47375 11.836 9.67147 11.6382 9.91502 11.6382H15.9396C16.1835 11.6382 16.3813 11.836 16.3813 12.08V13.958C16.3813 14.2021 16.1835 14.3999 15.9396 14.3999H12.6757C12.4317 14.3999 12.234 14.5976 12.234 14.8417V30.5132C12.234 30.7572 12.4317 30.955 12.6757 30.955H15.9396C16.1835 30.955 16.3813 31.1528 16.3813 31.3969V33.2906C16.3813 33.5346 16.1835 33.7324 15.94 33.7324Z" fill="#4285F4"/>
<g opacity="0.3">
<path d="M9.90563 33.7325C9.73978 33.7325 9.60185 33.6338 9.51587 33.4797C9.59094 33.615 9.76116 33.6683 9.90563 33.6683L15.9337 33.6648C16.1707 33.6648 16.3252 33.491 16.3252 33.3225L16.3396 31.4323C16.3396 31.4323 16.3339 31.2834 16.3221 31.2629L16.2881 31.1245L16.3178 31.1669C16.3178 31.1669 16.3824 31.273 16.3819 31.3817C16.3819 31.4175 16.381 31.4585 16.381 31.4821L16.3819 33.3221C16.3819 33.5255 16.1825 33.729 15.9341 33.729L9.90607 33.7325H9.90563Z" fill="white"/>
<path d="M12.6359 30.9533C12.5206 30.9533 12.1649 30.8057 12.1649 30.5442V14.8727C12.1649 14.6142 12.3618 14.3256 12.625 14.3256L15.8535 14.323C16.0743 14.323 16.3118 14.2187 16.3118 13.989V12.1111C16.3118 11.8849 16.128 11.6382 15.9019 11.6382C16.063 11.6312 16.2075 11.6989 16.2948 11.8176C16.3524 11.8958 16.3869 11.9962 16.3803 12.1128V13.9733C16.3803 13.9733 16.3803 14.0017 16.3733 14.0357C16.3611 14.0951 16.3397 14.1554 16.3048 14.2069C16.2629 14.268 16.2031 14.3191 16.1368 14.3536C16.0547 14.3959 15.9574 14.4025 15.8513 14.3999H12.6542C12.5804 14.3994 12.5141 14.4256 12.456 14.4579C12.3081 14.5405 12.2195 14.7046 12.2334 14.8727V30.5451C12.2339 30.6368 12.2736 30.7154 12.3251 30.783C12.4002 30.8817 12.5193 30.9446 12.6376 30.9542L12.635 30.9533H12.6359Z" fill="white"/>
</g>
<path d="M29.3378 11.6382H35.3353C35.578 11.6382 35.7748 11.836 35.7748 12.08V33.2906C35.7748 33.5346 35.578 33.7324 35.3353 33.7324H29.3378C29.0952 33.7324 28.8983 33.5346 28.8983 33.2906V31.4126C28.8983 31.1685 29.0952 30.9708 29.3378 30.9708H32.5873C32.83 30.9708 33.0268 30.773 33.0268 30.5289V14.8574C33.0268 14.6134 32.83 14.4156 32.5873 14.4156H29.3378C29.0952 14.4156 28.8983 14.2178 28.8983 13.9737V12.08C28.8983 11.836 29.0952 11.6382 29.3378 11.6382Z" fill="#00BFA5"/>
<g opacity="0.3">
<path d="M35.4764 33.7094C35.6192 33.6421 35.7117 33.4492 35.7117 33.2907L35.7152 12.1011C35.7152 11.9378 35.6209 11.7286 35.4799 11.6636C35.6305 11.7116 35.7361 11.8409 35.7684 11.9976C35.7754 12.0308 35.7754 12.0653 35.7754 12.1007V33.2902C35.7754 33.4732 35.6689 33.6369 35.4764 33.709V33.7094Z" fill="white"/>
</g>
<g opacity="0.3">
<path d="M35.3994 33.7278C35.3845 33.73 35.3435 33.7322 35.3287 33.7322L29.4813 33.7309H29.432C29.3517 33.7318 29.2897 33.7331 29.236 33.7209C29.1893 33.71 29.1274 33.6855 29.0741 33.644C29.0702 33.641 29.0571 33.6292 29.0449 33.6183C29.034 33.6082 29.0239 33.5991 29.0239 33.5991C29.0239 33.5991 29.1387 33.6549 29.1893 33.6637C29.2963 33.6825 29.3548 33.6763 29.4316 33.6755H29.4813L35.3426 33.6811C35.4295 33.6811 35.5827 33.6436 35.6547 33.5942L35.6259 33.6209C35.5805 33.6632 35.5185 33.6968 35.4526 33.7161C35.4526 33.7161 35.4138 33.7252 35.3994 33.7274V33.7278Z" fill="white"/>
</g>
</svg>
